<svg width="134" height="75" viewBox="0 0 134 75" fill="none" xmlns="http://www.w3.org/2000/svg">
<path fill-rule="evenodd" clip-rule="evenodd" d="M104.843 54.9863C104.843 54.9863 107.099 46.7133 109.939 45.921C112.109 45.418 114.347 45.0899 116.613 44.9422C120.619 44.4506 124.721 44.6096 128.636 45.4083C132.596 46.4803 133.164 47.1328 133.858 48.7641C134.552 50.3954 132.47 56.7108 132.596 59.1694C132.722 61.6279 133.101 62.665 129.898 63.2592C126.695 63.8535 129.898 64.4244 121.772 64.5176C113.647 64.6109 111.012 65.9159 108.235 64.6109C105.458 63.3058 103.707 57.7362 104.843 54.9863Z" fill="#D5841C"/>
<path fill-rule="evenodd" clip-rule="evenodd" d="M109.86 45.9443H109.939C112.109 45.4414 114.347 45.1132 116.613 44.9655C120.618 44.4739 124.721 44.633 128.635 45.4316C130.015 45.7311 131.306 46.2214 132.438 46.8765C132.001 46.8955 131.578 46.9992 131.212 47.1771C130.847 47.3551 130.551 47.6011 130.355 47.8902C129.298 49.4749 127.973 51.5723 125.953 51.9801C123.933 52.3879 125.133 51.9801 121.425 51.5723C117.717 51.1644 116.139 51.1994 114.435 50.5469C112.731 49.8944 110.664 51.3392 110.917 48.9622C111.027 47.7853 110.081 46.8299 109.86 45.9443Z" fill="#C16A00"/>
<path fill-rule="evenodd" clip-rule="evenodd" d="M133.258 47.6224C133.507 47.9961 133.708 48.3862 133.858 48.7876C134.552 50.4072 132.47 56.7343 132.596 59.1929C132.722 61.6515 133.101 62.6885 129.898 63.2827C126.695 63.877 129.898 64.448 121.772 64.5412C119.736 64.5679 117.702 64.6768 115.682 64.8674C112.984 62.9099 107.446 48.4963 110.949 48.9624C112.997 50.8668 114.768 52.925 116.234 55.103C117.544 57.515 118.869 59.2395 123.034 58.5986C127.2 57.9577 127.247 52.9241 129.961 50.1858C130.877 49.2125 131.989 48.348 133.258 47.6224Z" fill="#C4760C"/>
<path fill-rule="evenodd" clip-rule="evenodd" d="M133.243 54.66C132.874 56.149 132.658 57.6564 132.596 59.1694C132.722 61.6396 133.1 62.665 129.898 63.2593C126.695 63.8535 129.898 64.4245 121.772 64.5177C119.857 64.5372 117.945 64.6345 116.045 64.809C113.899 61.2318 107.383 49.5448 110.901 49.871C110.901 49.871 115.634 56.1981 117.891 59.3558C120.147 62.5135 122.245 62.9796 124.817 62.5135C127.389 62.0474 131.302 53.5414 132.706 54.1473C132.951 54.2744 133.138 54.4531 133.243 54.66Z" fill="#B26C07"/>
<path fill-rule="evenodd" clip-rule="evenodd" d="M116.455 46.9464C116.581 46.3871 116.045 46.3172 117.023 46.224C118.001 46.1307 118.017 46.0608 118.332 46.5269C118.648 46.993 118.932 46.9697 118.522 47.1445C118.111 47.3193 116.171 47.3542 116.455 46.9464Z" fill="#F8E6AC"/>
<path fill-rule="evenodd" clip-rule="evenodd" d="M120.163 48.0301C120.418 48.2371 120.765 48.3694 121.141 48.403C121.141 48.403 122.056 47.9602 121.614 47.7971C121.173 47.6339 120.005 47.6106 120.163 48.0301Z" fill="#F8E6AC"/>
<path fill-rule="evenodd" clip-rule="evenodd" d="M122.482 45.3384C122.261 45.8511 121.977 46.1308 122.482 46.2007C122.912 46.3079 123.356 46.3783 123.807 46.4104C124.265 46.4104 125.054 46.4104 124.833 45.9443C124.612 45.4782 122.908 44.8956 122.482 45.3384Z" fill="#F8E6AC"/>
<path fill-rule="evenodd" clip-rule="evenodd" d="M125.101 48.5661C124.849 48.8923 124.344 49.0554 125.101 49.0787C125.859 49.1021 126.079 49.2885 126.332 48.9622C126.59 48.7081 126.713 48.3932 126.679 48.0767C126.584 47.8436 125.922 47.4009 125.575 47.4708C125.227 47.5407 125.638 48.3097 125.101 48.5661Z" fill="#F8E6AC"/>
<path fill-rule="evenodd" clip-rule="evenodd" d="M116.171 45.4317C116.171 45.4317 115.035 47.1445 116.171 47.9835C117.307 48.8224 117.654 48.2864 119.326 48.7758C120.999 49.2652 124.265 49.2419 124.896 50.244C125.527 51.246 123.034 51.6189 120.652 51.1295C118.269 50.6401 115.13 49.5448 114.341 49.5448C113.552 49.5448 112.952 49.6381 113.236 48.8923C113.52 48.1466 114.009 45.5948 116.171 45.4317Z" fill="#D77B0F"/>
<path fill-rule="evenodd" clip-rule="evenodd" d="M8.58164 23.817L11.8319 23.9452L11.7056 30.3189C11.7056 30.3189 11.5163 33.6164 10.1279 33.3833C8.73941 33.1503 4.84229 31.9968 4.84229 31.9968C4.84229 31.9968 5.15784 25.5765 8.58164 23.817Z" fill="#4E1C00"/>
<path fill-rule="evenodd" clip-rule="evenodd" d="M9.05487 24.2483C9.05487 24.2483 6.83019 41.4234 20.6201 56.4429C36.7135 73.921 90.453 73.921 106.531 56.4429C120.321 41.4234 118.096 24.2483 118.096 24.2483L63.5832 27.0331L9.05487 24.2483Z" fill="#773506"/>
<path fill-rule="evenodd" clip-rule="evenodd" d="M22.4818 35.2593C49.7934 40.6658 78.3356 41.5164 105.205 34.3271C105.205 34.3271 101.15 29.2934 99.2728 28.6875C97.3952 28.0816 19.4209 26.2988 22.4818 35.2593Z" fill="#692B00"/>
<path fill-rule="evenodd" clip-rule="evenodd" d="M117.954 23.817L114.798 23.9452L114.925 30.3189C114.925 30.3189 115.114 33.6164 116.502 33.3833C117.891 33.1503 121.804 31.9968 121.804 31.9968C121.804 31.9968 121.393 25.5765 117.954 23.817Z" fill="#4E1C00"/>
<path fill-rule="evenodd" clip-rule="evenodd" d="M106.531 56.4429C120.321 41.4234 118.096 24.2483 118.096 24.2483L107.43 24.7959L99.3833 31.0531C121.472 64.8441 5.25247 65.683 27.7991 31.0531L19.7366 24.7959L9.08649 24.2483C9.08649 24.2483 6.86181 41.4234 20.6517 56.4429C29.2348 65.7646 47.2847 69.2602 61.5164 69.5515C77.5783 69.8661 97.3953 66.3821 106.531 56.4429Z" fill="#692B00"/>
<path fill-rule="evenodd" clip-rule="evenodd" d="M114.751 43.7189C115.706 41.4694 116.465 39.177 117.023 36.8559L109.245 33.9196C106.578 38.8717 109.86 41.5167 114.751 43.7189Z" fill="#5A2200"/>
<path fill-rule="evenodd" clip-rule="evenodd" d="M10.2067 37.0656C10.7816 39.395 11.5563 41.6951 12.526 43.952C17.6381 41.6915 21.2985 39.0348 18.5374 33.9196L10.2067 37.0656Z" fill="#5A2200"/>
<path d="M63.5202 36.7042C93.6005 36.7042 117.985 31.0805 117.985 24.1433C117.985 17.2061 93.6005 11.5824 63.5202 11.5824C33.4399 11.5824 9.05493 17.2061 9.05493 24.1433C9.05493 31.0805 33.4399 36.7042 63.5202 36.7042Z" fill="#4E1C00"/>
<path fill-rule="evenodd" clip-rule="evenodd" d="M82.1852 12.3399C103.059 14.0994 117.985 18.7136 117.985 24.1435C117.985 31.0765 93.5926 36.7044 63.52 36.7044H60.4906C61.1533 36.1684 63.1255 35.8421 67.0069 35.8421C113.078 35.9354 118.9 17.9912 80.2445 12.8177L82.1852 12.3399Z" fill="#3C0F00"/>
<path fill-rule="evenodd" clip-rule="evenodd" d="M70.92 36.5879C68.506 36.6578 66.0289 36.7044 63.5202 36.7044C33.4318 36.7044 9.05493 31.0765 9.05493 24.1435C9.05493 18.4223 25.6217 13.6566 48.2787 12.0836L51.3081 12.7944C12.6523 17.9679 18.4743 35.9121 64.5457 35.8189C68.1904 35.8305 70.1469 36.1102 70.92 36.5879Z" fill="#3C0F00"/>
<path fill-rule="evenodd" clip-rule="evenodd" d="M115.855 27.6739C109.292 32.9173 88.3546 36.7508 63.5202 36.7508C38.6858 36.7508 17.7643 32.9173 11.1849 27.6739C17.7328 22.4305 38.6858 18.5969 63.5202 18.5969C88.3546 18.5969 109.292 22.3838 115.855 27.6739Z" fill="#C6370A"/>
<path fill-rule="evenodd" clip-rule="evenodd" d="M115.855 27.6738C109.292 32.9172 88.3546 36.7508 63.5202 36.7508H60.5066C61.1535 36.2148 63.1257 35.8885 67.0071 35.8885C94.6973 35.8885 107.84 29.4799 105.537 23.1994C109.378 24.1156 112.9 25.6429 115.855 27.6738Z" fill="#B33207"/>
<path fill-rule="evenodd" clip-rule="evenodd" d="M70.92 36.5878C68.506 36.6577 66.0289 36.7043 63.5202 36.7043C38.6858 36.7043 17.7643 32.8707 11.1849 27.6273C13.9934 25.3901 19.4368 23.3976 26.6788 21.8596C21.9454 28.5129 34.9937 35.842 64.5457 35.842C68.1904 35.8304 70.1469 36.11 70.92 36.5878Z" fill="#B33207"/>
<path fill-rule="evenodd" clip-rule="evenodd" d="M111.753 32.6376C103.864 32.0667 108.834 40.8756 118.427 38.9181C120.21 38.6275 121.853 37.9854 123.181 37.06C124.509 36.1346 125.473 34.9607 125.969 33.663C127.926 28.7109 124.707 25.2269 117.954 23.817C118.98 28.1516 119.327 33.1969 111.753 32.6376Z" fill="#773506"/>
<path fill-rule="evenodd" clip-rule="evenodd" d="M111.753 32.6376C108.282 32.3813 107.319 33.9776 108.156 35.6672C108.1 35.4246 108.117 35.176 108.206 34.9389C108.295 34.7019 108.454 34.4822 108.671 34.2954C108.887 34.1086 109.157 33.9593 109.461 33.8581C109.764 33.7569 110.094 33.7062 110.428 33.7096C113.062 33.5698 117.89 35.0613 121.472 33.2319C125.054 31.4025 123.649 25.0754 117.89 23.817C118.979 28.1516 119.326 33.1969 111.753 32.6376Z" fill="#622500"/>
<path fill-rule="evenodd" clip-rule="evenodd" d="M118.254 25.2269C118.948 29.1653 118.459 33.1386 111.753 32.6376C120.005 34.5252 121.883 29.4916 118.254 25.2269Z" fill="#521D00"/>
<path fill-rule="evenodd" clip-rule="evenodd" d="M63.5199 10.7085C78.3827 10.7085 91.9201 12.13 101.639 14.4255C111.8 16.8141 118.096 20.2515 118.096 24.1433C118.096 28.0351 111.784 31.4724 101.639 33.8611C91.857 36.1915 78.3827 37.5781 63.5199 37.5781C48.6572 37.5781 35.1197 36.1566 25.4005 33.8611C15.1923 31.4724 8.8811 28.0351 8.8811 24.1782C8.8811 20.3214 15.1922 16.8491 25.3374 14.4604C35.1197 12.13 48.594 10.7434 63.4568 10.7434L63.5199 10.7085ZM100.945 16.1034C91.3837 13.8545 78.146 12.4563 63.5199 12.4563C48.8938 12.4563 35.6562 13.8545 26.0948 16.1034C16.9278 18.2473 11.2636 21.1021 11.2636 24.1433C11.2636 27.1845 16.9278 30.0276 26.0948 32.1832C35.7035 34.4321 48.878 35.8303 63.5199 35.8303C78.1618 35.8303 91.3837 34.4437 100.945 32.1949C110.096 30.0392 115.76 27.1961 115.76 24.1549C115.76 21.1138 110.096 18.2473 100.945 16.1034Z" fill="#86421A"/>
<path fill-rule="evenodd" clip-rule="evenodd" d="M18.3478 24.3763C18.3478 24.3763 35.7034 18.5502 66.0759 18.8881C96.4483 19.2261 108.676 25.3084 108.676 25.3084C108.676 25.3084 70.5252 13.4932 18.3478 24.3763Z" fill="#E95408"/>
<path fill-rule="evenodd" clip-rule="evenodd" d="M66.6284 20.7877C72.4323 20.7858 78.23 21.0661 83.9841 21.6266C93.6243 22.5588 103.817 23.957 107.272 25.8563C110.728 27.7556 106.846 29.3519 100.787 31.1114C94.7288 32.8709 88.7647 33.9894 87.8338 33.7098C86.9029 33.4301 89.0803 32.4164 91.6679 31.6707C94.2554 30.925 94.003 30.6453 94.0661 29.853C94.1292 29.0606 96.133 29.853 96.4486 28.4547C96.7641 27.0565 97.6477 24.9591 95.3126 24.8775C92.9774 24.796 92.6777 26.3574 90.9105 26.0427C89.1434 25.7281 88.5123 24.7377 87.5183 24.1318C85.4225 23.0618 82.9495 22.4665 80.4025 22.419C76.5053 22.1859 62.1001 21.1139 66.6284 20.7877Z" fill="#D7390D"/>
<path fill-rule="evenodd" clip-rule="evenodd" d="M51.3238 20.5544C51.3238 20.5544 26.7103 22.6051 20.4149 24.8307C14.1196 27.0562 24.4383 31.5423 36.2875 33.2435C48.1367 34.9447 68.3955 35.4807 70.8411 35.0146C73.2866 34.5485 56.4359 34.6417 53.9745 33.3833C51.5132 32.1249 55.6785 31.5772 53.0278 31.6238C50.3771 31.6704 43.782 33.2435 39.9953 32.0899C36.2086 30.9364 39.0486 29.7595 36.1613 29.7595C33.2739 29.7595 30.6233 29.4333 31.5699 28.5943C32.5166 27.7554 47.3478 27.8719 47.3478 27.0213C47.3478 26.1707 40.942 26.9281 40.8789 25.8561C40.8158 24.7841 45.6122 24.5277 42.0622 24.3879C38.5122 24.2481 30.7337 25.7395 29.8501 24.5743C28.9666 23.4091 40.516 21.6031 51.3238 20.5544Z" fill="#D7390D"/>
<path fill-rule="evenodd" clip-rule="evenodd" d="M36.0823 35.6672C35.8674 35.618 35.6853 35.5112 35.5718 35.3678C35.4583 35.2244 35.4218 35.0547 35.4693 34.8924C35.5168 34.73 35.645 34.5867 35.8286 34.4907C36.0122 34.3947 36.2378 34.353 36.4609 34.3738C47.0401 35.846 57.8144 36.4091 68.5689 36.0517C80.3392 35.7604 91.8097 34.6535 99.6513 32.859C99.8752 32.8112 100.115 32.8294 100.321 32.9099C100.527 32.9903 100.683 33.1266 100.756 33.2902C100.825 33.4571 100.803 33.6374 100.694 33.7923C100.584 33.9471 100.397 34.0639 100.172 34.1175C92.1884 35.9352 80.5443 37.0771 68.6162 37.3567C57.7196 37.7262 46.8017 37.1593 36.0823 35.6672Z" fill="#99522B"/>
<path fill-rule="evenodd" clip-rule="evenodd" d="M93.514 23.1181C93.514 23.1181 103.643 24.4348 106.231 25.8563C108.819 27.2779 106.878 28.7926 103.423 29.8064C99.9672 30.8201 95.9912 32.2533 95.2496 31.9503C94.5081 31.6474 97.1903 31.0648 98.705 30.1559C100.22 29.2471 97.7898 28.9907 99.273 28.6878C100.756 28.3848 105.158 27.7906 104.338 26.8817C103.517 25.9728 106.231 25.8563 93.514 23.1181Z" fill="#E6410C"/>
<path fill-rule="evenodd" clip-rule="evenodd" d="M29.0139 23.351C29.0139 23.351 20.2572 24.7726 19.5472 25.9961C18.8372 27.2195 22.4976 29.4101 27.7517 30.8084C31.6539 31.8814 35.6923 32.6622 39.806 33.1388C40.374 33.0456 38.4017 31.7638 35.9719 31.4143C33.5421 31.0647 30.6864 30.7151 31.633 30.552C32.5797 30.3889 26.1896 29.8296 24.3279 29.0372C22.4661 28.2449 21.1723 26.9515 22.4976 26.9049C23.823 26.8583 30.3866 27.2079 29.4872 26.6253C28.5879 26.0427 22.0874 26.6253 22.8132 25.8096C23.539 24.994 23.6336 24.6444 29.0139 23.351Z" fill="#E6410C"/>
<path fill-rule="evenodd" clip-rule="evenodd" d="M52.3651 20.0301C59.8909 19.5725 67.4565 19.6037 74.9748 20.1233C83.2612 20.6091 91.4752 21.6227 99.5252 23.1529C84.289 19.6313 68.2066 18.5664 52.3651 20.0301Z" fill="#F29469"/>
<path fill-rule="evenodd" clip-rule="evenodd" d="M34.6152 12.8641C34.385 12.9027 34.1851 13.0073 34.0593 13.1548C33.9336 13.3023 33.8923 13.4807 33.9446 13.6506C33.9969 13.8206 34.1385 13.9683 34.3382 14.0611C34.538 14.154 34.7795 14.1845 35.0096 14.1458C45.5688 12.5811 56.3385 11.9281 67.1018 12.2C78.8721 12.3864 90.3584 13.3652 98.2158 15.1246C98.4418 15.1741 98.6851 15.1552 98.8922 15.0722C99.0994 14.9891 99.2533 14.8487 99.3203 14.6818C99.3872 14.515 99.3617 14.3353 99.2492 14.1823C99.1368 14.0294 98.9467 13.9156 98.7207 13.8662C90.7213 12.1067 79.0615 11.0697 67.165 10.8833C56.2477 10.6089 45.3243 11.2736 34.6152 12.8641Z" fill="#B46A44"/>
<path fill-rule="evenodd" clip-rule="evenodd" d="M120.652 34.4436C123.539 33.6513 123.949 31.8336 124.833 31.8103C125.717 31.787 124.675 36.4711 120.368 37.6363C116.061 38.8015 111.264 38.2655 110.128 36.6342C109.607 35.8652 109.844 35.3175 110.68 35.0146C112.795 34.2339 116.565 35.5622 120.652 34.4436Z" fill="#8C451C"/>
<path fill-rule="evenodd" clip-rule="evenodd" d="M14.7822 32.6376C22.6712 32.0667 17.7169 40.8756 8.12396 38.9181C6.33808 38.6294 4.6918 37.9881 3.36079 37.0626C2.02977 36.1371 1.06394 34.9621 0.56634 33.663C-1.39012 28.7109 1.82857 25.2269 8.58151 23.817C7.55594 28.1516 7.30351 33.1969 14.7822 32.6376Z" fill="#773506"/>
<path fill-rule="evenodd" clip-rule="evenodd" d="M14.7823 32.6376C18.2692 32.3813 19.2316 33.9776 18.3796 35.6672C18.4378 35.4253 18.4229 35.1769 18.3358 34.9398C18.2488 34.7027 18.0919 34.4827 17.8763 34.2956C17.6607 34.1086 17.3917 33.959 17.0887 33.8577C16.7856 33.7564 16.456 33.7058 16.1234 33.7096C13.4727 33.5698 8.66043 35.0613 4.99996 33.2319C1.33949 31.4025 2.83839 25.0754 8.58154 23.817C7.55598 28.1516 7.30355 33.1969 14.7823 32.6376Z" fill="#622500"/>
<path fill-rule="evenodd" clip-rule="evenodd" d="M8.28168 25.2269C7.58746 29.1653 8.09237 33.1386 14.7822 32.6376C6.54613 34.5252 4.65277 29.4916 8.28168 25.2269Z" fill="#521D00"/>
<path fill-rule="evenodd" clip-rule="evenodd" d="M5.89938 34.4436C2.99625 33.6513 2.58602 31.8336 1.70246 31.8103C0.818895 31.787 1.86023 36.4711 6.18337 37.6363C10.5065 38.8015 15.2714 38.2655 16.4075 36.6342C16.9439 35.8652 16.6914 35.3175 15.8552 35.0146C13.741 34.2339 9.98585 35.5622 5.89938 34.4436Z" fill="#8C451C"/>
<path fill-rule="evenodd" clip-rule="evenodd" d="M42.204 27.7438C41.6764 27.2804 41.3768 26.6989 41.3538 26.0938C41.3309 25.4886 41.5861 24.8956 42.0778 24.4113C43.7818 22.5353 44.1605 21.5682 45.7383 21.4749C48.7364 21.6808 51.6247 22.4118 54.1636 23.6073C54.4623 23.7911 54.6978 24.0246 54.8507 24.2885C55.0036 24.5525 55.0697 24.8395 55.0436 25.1259C55.0174 25.4124 54.8997 25.6902 54.7001 25.9367C54.5006 26.1831 54.2248 26.3911 53.8954 26.5436C52.8541 27.1845 46.2431 28.2564 42.204 27.7438Z" fill="#CB7A4E"/>
<path fill-rule="evenodd" clip-rule="evenodd" d="M42.204 27.7439C41.6764 27.2806 41.3768 26.699 41.3538 26.0939C41.3309 25.4887 41.5861 24.8957 42.0778 24.4114C42.7532 23.5484 43.5125 22.7229 44.3498 21.9411L45.1229 21.5683C44.4409 22.2238 43.8737 22.9402 43.4347 23.7006C42.8982 24.7493 42.062 25.9494 42.8193 26.4971C43.5767 27.0447 47.742 27.4409 49.4776 27.068C51.2132 26.6952 48.2469 24.3764 49.3198 24.7376C50.3927 25.0988 51.0238 26.3456 51.1501 25.8329C51.2763 25.3202 50.3612 25.2037 52.0336 25.2969C53.7061 25.3901 54.6527 24.5162 53.7376 23.386C53.8878 23.4551 54.0303 23.5331 54.1636 23.619C54.4623 23.8029 54.6978 24.0363 54.8507 24.3003C55.0036 24.5643 55.0697 24.8512 55.0436 25.1377C55.0174 25.4242 54.8997 25.702 54.7001 25.9484C54.5006 26.1948 54.2248 26.4028 53.8954 26.5553C52.8541 27.1846 46.2431 28.2565 42.204 27.7439Z" fill="#A5572C"/>
<path fill-rule="evenodd" clip-rule="evenodd" d="M46.5589 21.6849C47.1269 21.9296 50.1089 22.2092 51.5289 23.0482C52.9489 23.8871 53.6747 24.2134 52.1285 24.2134C50.5822 24.2134 49.9827 23.8871 49.888 24.0735C49.7933 24.26 47.9158 24.0735 48.0578 24.3765C48.1998 24.6794 48.7204 25.5417 47.4109 25.7747C46.1013 26.0078 44.5393 25.8447 44.7917 24.9358C45.0442 24.0269 45.7384 21.4751 46.5589 21.6849Z" fill="#D88359"/>
<path fill-rule="evenodd" clip-rule="evenodd" d="M42.0149 28.8391C44.2258 28.9344 46.4442 28.8405 48.6259 28.5595C52.2232 28.0934 53.4855 27.2777 54.937 27.7904C56.3886 28.3031 53.7221 28.8158 55.9153 29.1421C58.1084 29.4683 61.6426 29.5382 63.8042 30.8899C65.9658 32.2415 57.493 33.8844 56.1204 32.929C54.7477 31.9735 55.4261 31.0647 53.7379 31.0064C52.0497 30.9481 44.6025 32.1716 42.3936 31.3676C40.1847 30.5636 40.1689 29.4683 38.8436 29.3285C37.5183 29.1887 38.4649 28.3963 42.0149 28.8391Z" fill="#B33207"/>
<path fill-rule="evenodd" clip-rule="evenodd" d="M79.8819 23.584C82.7692 23.8171 86.7295 24.1317 86.193 25.0289C85.6566 25.9261 86.8084 26.7884 90.0902 26.7418C93.372 26.6951 96.638 27.2544 94.8235 27.7205C93.0091 28.1866 89.6642 28.3264 90.4846 29.0256C91.3051 29.7247 92.6146 30.8433 88.9068 31.356C85.199 31.8687 77.2627 33.6864 74.9276 32.428C72.5925 31.1695 80.5919 31.1346 83.1163 30.0976C85.6408 29.0605 85.2621 27.7671 83.6212 27.3943C81.9803 27.0214 80.6392 26.2291 81.7279 26.1591C82.8165 26.0892 71.8983 23.9103 79.8819 23.584Z" fill="#B33207"/>
<path fill-rule="evenodd" clip-rule="evenodd" d="M66.8334 23.887C66.8334 23.887 58.8498 24.5512 57.8085 25.0522C56.1044 25.7746 56.8933 26.2174 57.982 26.8117C57.982 26.8117 52.3967 27.0214 53.58 27.6856C54.7633 28.3497 60.9483 28.8508 67.6854 29.0838C74.4226 29.3169 80.718 29.5965 80.4024 28.7576C80.0868 27.9186 80.071 27.0564 82.0906 26.9282C84.1102 26.8 83.1951 25.4833 81.7751 25.4134C80.3551 25.3435 66.8334 23.887 66.8334 23.887Z" fill="#E84D1F"/>
<path fill-rule="evenodd" clip-rule="evenodd" d="M79.598 21.9528C80.1187 23.654 81.3336 25.728 79.03 27.3943C76.7264 29.0605 68.8217 28.3031 63.2521 27.9652C57.6825 27.6273 57.7141 24.9007 59.5127 24.0851C64.2777 21.9295 77.9098 16.4879 79.598 21.9528Z" fill="#E9E7E8"/>
<path fill-rule="evenodd" clip-rule="evenodd" d="M79.598 21.9528C80.1187 23.654 81.3336 25.7281 79.03 27.3943C76.7264 29.0606 68.8217 28.3032 63.2521 27.9653C57.6825 27.6273 57.7141 24.9008 59.5127 24.0851L60.8381 23.5142C60.0492 23.9336 59.3708 24.4929 59.5916 25.1222C60.065 26.4272 62.4317 27.0914 64.8141 26.6719C67.1966 26.2524 67.8119 25.1688 69.6895 25.5067C71.567 25.8446 71.4093 26.8467 73.7602 26.5554C76.1111 26.2641 81.4124 25.3319 79.3298 21.277C79.4526 21.4943 79.5426 21.7209 79.598 21.9528Z" fill="#D6D6D7"/>
<path fill-rule="evenodd" clip-rule="evenodd" d="M61.1376 23.957C62.9363 23.3045 65.6974 21.6266 68.0957 21.6266C70.4939 21.6266 69.2632 22.3141 70.7306 23.2695C72.1979 24.225 73.4759 24.8309 71.9928 24.9707C70.5097 25.1106 68.3797 23.9454 66.6757 24.528C64.9717 25.1106 65.2241 25.9961 63.6779 25.8097C62.1316 25.6232 59.1812 24.8426 61.1376 23.957Z" fill="white"/>
<path fill-rule="evenodd" clip-rule="evenodd" d="M74.186 20.0767C75.7638 19.8203 78.1936 19.9136 78.4776 21.6614C78.7616 23.4092 78.3356 24.7958 76.6632 24.8773C74.9907 24.9589 74.9592 24.6093 73.6023 23.7121C72.2454 22.8149 69.9102 21.5565 70.636 20.904C71.3618 20.2515 74.186 20.0767 74.186 20.0767Z" fill="white"/>
<path fill-rule="evenodd" clip-rule="evenodd" d="M25.8899 57.8527C25.8899 57.8527 35.1988 65.846 58.2346 67.4307C81.2703 69.0153 101.056 58.2255 101.056 58.2255C101.056 58.2255 62.9048 73.012 25.8899 57.8527Z" fill="#5E2500"/>
<path fill-rule="evenodd" clip-rule="evenodd" d="M34.5676 40.3746C44.7038 41.7343 54.9852 42.4167 65.2872 42.4137C79.3926 42.134 92.6145 39.6288 95.3914 40.7474C98.1683 41.866 84.6151 54.3221 63.1571 53.3084C41.6992 52.2946 25.8898 40.6542 34.5676 40.3746Z" fill="#864117"/>
<path fill-rule="evenodd" clip-rule="evenodd" d="M63.2834 45.7578C63.2834 45.7578 72.8448 45.851 78.2566 44.5926C83.6685 43.3342 86.0667 44.0799 85.7511 45.3849C85.4356 46.6899 80.8442 50.908 70.8884 50.7682C60.9325 50.6284 53.2014 46.4103 63.2834 45.7578Z" fill="#994A1E"/>
<path fill-rule="evenodd" clip-rule="evenodd" d="M26.2368 25.1919C26.2368 25.2968 26.5366 25.4133 26.8364 25.5182C26.8364 25.5182 33.9049 23.8869 38.086 26.427L39.0011 25.7629C37.0565 24.9906 34.9079 24.5396 32.704 24.441C30.5001 24.3424 28.2934 24.5986 26.2368 25.1919Z" fill="#A12E05"/>
<path fill-rule="evenodd" clip-rule="evenodd" d="M66.4233 31.2861C66.4233 31.1813 66.6442 31.0647 66.8651 30.9599C67.086 30.855 72.0245 32.5911 75.0696 30.051L75.7481 30.7152C74.4335 31.4637 72.8541 31.9158 71.1998 32.017C69.5456 32.1183 67.8869 31.8645 66.4233 31.2861Z" fill="#A12E05"/>
<path fill-rule="evenodd" clip-rule="evenodd" d="M107.114 25.0523C106.994 25.2508 106.789 25.4146 106.531 25.5184C106.531 25.5184 99.257 23.5609 95.3125 27.2313L94.3185 26.3574C96.0555 25.2541 98.1866 24.5443 100.456 24.3128C102.726 24.0813 105.037 24.3381 107.114 25.0523Z" fill="#A12E05"/>
<path fill-rule="evenodd" clip-rule="evenodd" d="M95.4232 29.0604C95.4232 29.1769 95.1708 29.2818 94.9183 29.3983C94.9183 29.3983 89.0489 27.767 85.5778 30.3072L84.8047 29.643C86.3595 28.8836 88.1521 28.4313 90.0111 28.3293C91.8701 28.2273 93.7335 28.479 95.4232 29.0604Z" fill="#A12E05"/>
<path fill-rule="evenodd" clip-rule="evenodd" d="M113.915 4.71941L98.0105 23.7938C97.5171 24.12 96.8739 24.295 96.2119 24.2832C95.0988 24.1569 94.0281 23.8762 93.0563 23.4559L107.067 1.92292C107.263 1.52608 107.573 1.16529 107.976 0.865358C108.378 0.565427 108.864 0.333473 109.4 0.185456C109.936 0.0374384 110.508 -0.0231322 111.079 0.00790851C111.649 0.0389492 112.204 0.160864 112.704 0.36527C113.205 0.569676 113.639 0.85172 113.978 1.19201C114.317 1.53229 114.552 1.92274 114.667 2.3365C114.782 2.75026 114.774 3.17751 114.644 3.58886C114.515 4.00021 114.266 4.38591 113.915 4.71941Z" fill="#B2B3B3"/>
<path fill-rule="evenodd" clip-rule="evenodd" d="M112.652 4.42809L96.6853 24.2366H96.2119C95.3121 24.1583 94.4399 23.9567 93.6401 23.6423L108.045 2.50549C110.664 -1.26977 115.761 0.559602 112.652 4.42809Z" fill="#CCCCCE"/>
<path fill-rule="evenodd" clip-rule="evenodd" d="M110.917 3.71736L95.3443 24.1784C95.098 24.1307 94.8556 24.0723 94.6185 24.0036L109.86 3.20466C112.526 -0.512342 113.899 -0.197733 110.917 3.71736Z" fill="#E6E6E5"/>
<path fill-rule="evenodd" clip-rule="evenodd" d="M98.6576 73.2567C97.4937 73.8101 96.128 74.0867 94.7447 74.0491C93.1611 73.7858 91.6215 73.3951 90.1533 72.8839C88.4493 72.4644 83.9842 72.0449 83.0375 70.1922C82.0908 68.3396 79.519 58.0042 82.785 55.4058C86.0511 52.8074 93.372 49.5797 96.638 49.0787C99.904 48.5777 107.967 48.065 109.734 48.7991C111.501 49.5331 118.916 61.5464 119.2 64.3313C119.484 67.1161 115.682 69.3533 112.542 70.099C109.402 70.8448 104.701 71.5905 98.6576 73.2567Z" fill="#DB8D2E"/>
<path fill-rule="evenodd" clip-rule="evenodd" d="M98.6573 73.2569C97.4934 73.8103 96.1278 74.0868 94.7444 74.0493C93.1609 73.786 91.6212 73.3952 90.1531 72.884C88.449 72.4646 83.9839 72.0451 83.0372 70.1924C81.6285 66.476 81.0372 62.6166 81.2859 58.7617C81.2859 59.0181 81.1123 66.3938 84.331 67.6756C87.5497 68.9573 88.0388 66.79 89.9322 66.5104C91.4295 66.3108 92.9631 66.3108 94.4604 66.5104C95.8016 66.5803 98.2944 65.4384 103.47 66.0443C105.623 66.2907 107.826 66.1304 109.874 65.5783C111.921 65.0261 113.745 64.1001 115.177 62.8866C117.117 61.0222 115.855 58.2258 115.666 56.9324C117.232 59.3021 118.408 61.8018 119.169 64.378C119.421 67.1629 115.65 69.4001 112.51 70.1458C109.371 70.8915 104.7 71.5907 98.6573 73.2569Z" fill="#D5841C"/>
<path fill-rule="evenodd" clip-rule="evenodd" d="M98.6574 73.2568C98.2659 73.4378 97.8541 73.5937 97.4267 73.7229L95.9752 73.3035C95.9752 73.3035 93.8294 67.5357 95.9752 67.2444C95.9752 67.2444 95.8647 69.5748 97.9632 70.2972C100.062 71.0197 102.097 69.3068 104.795 68.9805C107.493 68.6543 109.686 68.7475 111.106 68.5611C112.526 68.3746 119.326 68.0251 118.38 62.1058C118.739 62.8241 118.982 63.5711 119.106 64.3314C119.358 67.1162 115.587 69.3534 112.447 70.0991C109.307 70.8449 104.7 71.5906 98.6574 73.2568Z" fill="#C4760C"/>
<path fill-rule="evenodd" clip-rule="evenodd" d="M93.7979 73.9094C92.4726 73.6647 91.5417 73.2336 90.1532 72.884C88.4492 72.4646 83.9841 72.0451 83.0374 70.1924C82.3689 68.5207 81.899 66.8091 81.6332 65.0771C81.9506 66.4593 82.5184 67.8035 83.3214 69.0738C84.5205 70.7866 85.6723 71.0663 87.1239 70.6468C88.5754 70.2274 88.5439 69.9477 89.0488 70.204C89.5537 70.4604 92.0308 69.7846 93.009 68.4213C93.9873 67.058 95.2179 69.0738 95.2495 70.3672C95.2811 71.4042 95.0759 73.1171 93.7979 73.9094Z" fill="#BE7100"/>
<path fill-rule="evenodd" clip-rule="evenodd" d="M82.785 55.4058C86.0668 52.8074 93.372 49.5797 96.638 49.0787C99.904 48.5777 107.967 48.065 109.734 48.7991C110.57 49.1603 112.668 52.0267 114.672 55.2426C114.35 55.8436 113.891 56.3993 113.315 56.8856C110.917 58.983 103.233 60.3812 97.7582 60.7424C92.2833 61.1036 92.3464 59.9501 89.8693 59.9734C87.3922 59.9967 88.2915 61.0221 86.477 61.3017C84.6626 61.5814 83.1952 61.861 82.2643 59.4956C81.9712 58.8235 81.8661 58.1143 81.9556 57.4112C82.0452 56.7081 82.3273 56.0258 82.785 55.4058Z" fill="#C16A00"/>
<path fill-rule="evenodd" clip-rule="evenodd" d="M98.6574 73.2568C97.4935 73.8102 96.1279 74.0868 94.7445 74.0492C93.6455 73.9138 92.5812 73.6544 91.5889 73.2801C92.1782 72.9473 92.6284 72.4986 92.888 71.9854C93.1475 71.4722 93.2059 70.9153 93.0563 70.3788C92.6776 68.328 93.2456 65.8228 91.7309 63.772C90.1118 61.3413 89.2492 58.6739 89.2065 55.9652C89.0854 54.6917 89.6527 53.4347 90.7843 52.4695C90.7843 52.4695 88.954 55.9652 90.2163 58.785C91.2862 61.1661 92.8859 63.3989 94.9496 65.3917C95.8212 66.0839 96.2961 66.9984 96.275 67.9435C96.4643 69.0155 96.5274 71.1128 97.6003 71.8469C98.6732 72.581 100.882 72.0683 102.996 72.2198C101.529 72.4994 100.141 72.849 98.6574 73.2568Z" fill="#AE6100"/>
<path fill-rule="evenodd" clip-rule="evenodd" d="M102.271 51.9219C102.46 51.4558 102.965 51.1994 103.091 51.013C103.217 50.8266 104.669 49.8478 105.616 49.8478C106.562 49.8478 107.193 50.477 106.31 51.013C105.739 51.2696 105.279 51.6416 104.984 52.085C104.7 52.4812 104.984 52.7841 104.227 52.7841C103.47 52.7841 101.971 52.6909 102.271 51.9219Z" fill="#F8E6AC"/>
<path fill-rule="evenodd" clip-rule="evenodd" d="M96.6696 54.1474C96.6696 53.7279 96.9851 53.7745 97.2691 53.2385C97.5531 52.7025 96.9851 52.3879 97.9634 52.5277C98.9416 52.6676 99.3518 52.9938 99.0047 53.4949C98.6576 53.9959 98.8469 54.2872 98.3104 54.3804C97.774 54.4736 96.6696 54.7766 96.6696 54.1474Z" fill="#F8E6AC"/>
<path fill-rule="evenodd" clip-rule="evenodd" d="M101.135 54.73C101.482 54.2173 101.135 53.7745 101.892 54.124C102.649 54.4736 103.059 54.4969 102.649 54.7766C102.239 55.0562 100.787 55.5456 101.135 54.73Z" fill="#F8E6AC"/>
<path fill-rule="evenodd" clip-rule="evenodd" d="M92.5041 54.7767C92.5041 54.2407 92.2201 53.7746 92.8828 53.6115C93.5454 53.4483 94.4606 53.5183 94.2554 54.1708C94.1219 54.5933 93.8692 54.9904 93.5139 55.336C93.3403 55.4991 92.6145 55.1495 92.5041 54.7767Z" fill="#F8E6AC"/>
<path fill-rule="evenodd" clip-rule="evenodd" d="M94.5235 56.9439C94.5235 57.2002 94.0344 57.3867 94.6498 57.4799C95.2651 57.5731 96.1013 57.3168 96.2276 57.0604C96.3538 56.8041 96.6693 56.3846 96.1013 56.1982C95.5333 56.0117 95.0915 56.4778 94.5235 56.9439Z" fill="#F8E6AC"/>
<path fill-rule="evenodd" clip-rule="evenodd" d="M87.8814 53.0054C87.8814 53.0054 84.1105 54.8465 83.148 56.839C82.1856 58.8315 83.3689 60.5094 84.8993 60.5793C86.4298 60.6492 86.0354 59.0995 87.0136 57.2351C87.9918 55.3708 89.3487 52.3995 91.8574 51.3042C94.3661 50.2089 90.7056 51.1411 87.8814 53.0054Z" fill="#C97100"/>
<path fill-rule="evenodd" clip-rule="evenodd" d="M94.9969 57.9693C94.9969 57.9693 101.308 57.41 103.296 56.105C105.284 54.7999 105.568 54.3921 106.957 53.5532C108.345 52.7142 106.957 50.0576 108.534 49.6031C110.112 49.1487 113.268 53.5998 112.936 55.2777C112.605 56.9556 108.597 59.0879 101.892 59.7404C95.1862 60.3929 91.936 59.7404 91.5573 59.1811C91.1786 58.6218 91.652 57.7712 94.9969 57.9693Z" fill="#C97100"/>
<path fill-rule="evenodd" clip-rule="evenodd" d="M110.948 51.8637C111.778 52.9575 112.058 54.2329 111.737 55.4642C111.138 56.5129 107.935 58.1441 105.694 58.6335C103.454 59.1229 100.44 59.7987 99.6831 59.3326C98.9257 58.8666 104.117 58.0975 105.994 56.7226C107.872 55.3476 109.355 54.3922 109.45 53.6814C109.544 52.9706 110.065 50.9781 110.948 51.8637Z" fill="#D77B0F"/>
<path fill-rule="evenodd" clip-rule="evenodd" d="M111.138 54.3105C111.244 54.8023 111.135 55.3063 110.826 55.7488C110.516 56.1912 110.023 56.5488 109.418 56.7691C107.43 57.6314 105.978 58.447 105.631 58.2606C105.284 58.0742 108.534 56.6759 109.197 55.9302C109.86 55.1844 110.917 53.7512 111.138 54.3105Z" fill="#E88719"/>
<path fill-rule="evenodd" clip-rule="evenodd" d="M83.4159 66.3704C83.2091 65.7883 83.1768 65.1799 83.3212 64.5876C83.3212 63.7487 83.1003 63.0263 83.479 63.0729C83.8577 63.1195 84.1101 64.2381 84.2363 64.7741C84.3625 65.3101 85.8141 65.6247 85.5459 66.1374C85.2777 66.65 84.8359 66.72 85.1199 67.4657C85.4039 68.2114 85.6406 69.0504 85.8299 69.4466C86.0192 69.8427 83.8261 68.7707 83.4159 66.3704Z" fill="#B56A00"/>
<path fill-rule="evenodd" clip-rule="evenodd" d="M87.187 67.0462C87.3328 66.6991 87.4072 66.3377 87.4079 65.9742C87.5026 65.3217 87.5972 64.9139 88.1968 65.1586C88.7964 65.4033 87.9759 68.0483 87.187 67.0462Z" fill="#B56A00"/>
<path fill-rule="evenodd" clip-rule="evenodd" d="M90.0901 71.0195C89.9638 70.3437 89.7114 70.5534 90.4056 69.6912C91.0998 68.8289 91.2892 68.7474 91.1314 67.8618C90.9736 66.9763 89.8692 65.8343 90.8474 65.7178C91.8256 65.6013 91.9676 68.0483 91.9045 69.027C91.9948 69.8564 91.9365 70.6909 91.7309 71.5089C91.3838 72.1614 91.3838 72.5343 90.6896 72.4411C89.9954 72.3479 90.1847 71.8119 90.0901 71.0195Z" fill="#B56A00"/>
<path fill-rule="evenodd" clip-rule="evenodd" d="M98.6731 61.6281C101 61.6551 103.32 61.4434 105.568 60.9989C109.481 60.2648 111.879 58.8899 113.063 59.2162C114.246 59.5424 114.325 62.3273 112.621 63.3992C111.219 64.4224 109.337 65.0067 107.367 65.0305C105.032 65.1237 101.056 65.4384 98.894 64.9606C96.7325 64.4829 97.3162 63.9935 95.9909 63.2478C94.6656 62.502 94.492 61.2786 98.6731 61.6281Z" fill="#E39434"/>
<path fill-rule="evenodd" clip-rule="evenodd" d="M105.41 62.0941C106.961 61.9894 108.482 61.7145 109.923 61.2785C112.116 60.5794 112.621 60.2648 112.779 60.9522C112.936 61.6397 111.579 63.9818 109.26 64.1682C106.941 64.3547 105.189 64.3313 102.807 64.4013C100.424 64.4712 98.5153 63.9119 98.1524 63.3759C97.7895 62.8399 98.8151 61.9543 105.41 62.0941Z" fill="#ED9A37"/>
</svg>
