<svg width="134" height="76" viewBox="0 0 134 76" fill="none" xmlns="http://www.w3.org/2000/svg">
<path fill-rule="evenodd" clip-rule="evenodd" d="M15.3043 63.4185C13.4202 61.8224 13.4202 59.8593 11.4716 58.4069C9.52309 56.9545 5.51327 54.1136 3.88679 50.4267C2.26032 46.7399 -1.25029 42.4785 0.456702 37.4669C2.16369 32.4554 4.94963 17.9953 15.6264 12.3453C26.3031 6.69536 27.6075 4.828 32.342 4.36515C36.8143 3.96751 41.2534 3.26357 45.6276 2.25838C49.4603 1.2848 57.0451 -0.486804 61.7313 0.151611C66.4175 0.790025 76.2246 2.01897 88.1413 2.49779C97.8522 3.01843 107.225 6.20708 115.212 11.7069C119.286 14.899 119.785 16.8781 123.038 18.3305C126.291 19.7829 132.346 25.2892 133.811 34.9771C135.277 44.6651 127.901 56.8428 122.04 59.6997C116.178 62.5566 111.765 66.1637 107.192 69.2759C102.619 72.3882 95.1304 73.6491 82.0864 74.7822C69.0424 75.9154 51.586 72.9947 43.7596 72.1967C35.9332 71.3987 23.8554 69.228 15.3043 63.4185Z" fill="#E08610"/>
<path fill-rule="evenodd" clip-rule="evenodd" d="M15.3043 63.4183C13.4202 61.8223 13.4202 59.8592 11.4716 58.4068C9.52309 56.9544 5.51327 54.1134 3.88679 50.4266C2.26032 46.7397 -1.25029 42.4783 0.456703 37.4668C0.875399 36.2538 1.37461 34.4503 2.06707 32.3435C1.27506 34.8271 1.14195 37.471 1.68058 40.0204C3.0655 44.4574 3.56472 46.644 5.6743 49.07C7.78389 51.4959 14.6441 52.8685 15.2238 55.3743C15.8035 57.8801 15.2238 61.1839 17.8326 63.2108C20.4414 65.2378 36.2552 71.0474 40.1201 70.8878C43.985 70.7282 45.2089 69.9621 48.3491 70.5207C51.4893 71.0793 65.2741 75.1651 77.1586 74.9736C64.8715 75.1811 50.6358 72.803 43.7596 72.1486C35.8848 71.3347 23.8554 69.2279 15.3043 63.4183Z" fill="#D47800"/>
<path fill-rule="evenodd" clip-rule="evenodd" d="M27.6558 5.65778C29.1197 4.9303 30.7101 4.48612 32.3419 4.34903C36.8142 3.9514 41.2533 3.24746 45.6275 2.24227C49.4602 1.26869 57.045 -0.502917 61.7312 0.135497C66.4174 0.773912 76.2245 2.00286 88.1413 2.48167L89.027 2.57743C88.6727 2.57743 80.7658 2.57743 77.1746 2.29015C73.5835 2.00286 68.8973 2.11458 63.8891 1.34848C60.6905 0.688095 57.3797 0.786535 54.2269 1.63577C51.5203 2.77084 48.927 4.1548 46.481 5.76951C43.5823 7.55707 41.3922 8.24336 38.5258 7.55707C35.6593 6.87077 36.9154 5.6099 34.0811 5.00341C31.9172 4.72017 29.7164 4.9443 27.6558 5.65778Z" fill="#D47800"/>
<path fill-rule="evenodd" clip-rule="evenodd" d="M11.6007 41.5526C11.6007 41.5526 7.13996 35.6952 9.66824 30.7634C12.1965 25.8317 14.0646 24.5389 14.8858 22.1927C15.7071 19.8465 24.6125 11.212 32.0041 10.3182C39.3957 9.42442 40.8933 11.212 44.0819 9.59998C47.2704 7.98799 49.6215 6.40791 54.8391 6.40791C60.0567 6.40791 64.7107 7.7007 68.946 7.7007C73.1812 7.7007 92.0065 7.25381 97.0791 10.7172C100.19 12.8405 103.597 14.502 107.192 15.649C109.221 16.5427 124.906 27.8108 124.649 33.9076C124.391 40.0045 102.78 42.5581 102.78 42.5581L11.6007 41.5526Z" fill="#D47800"/>
<path fill-rule="evenodd" clip-rule="evenodd" d="M31.0536 12.9837C31.0536 12.9837 37.173 10.8131 40.0234 11.0525C42.8737 11.2919 43.8561 11.8505 45.7241 11.0525C49.8417 9.02253 54.4438 8.15558 59.0258 8.54674C65.9503 9.02555 67.5768 9.60013 73.2131 9.26496C78.8494 8.92979 93.8419 9.42456 102.2 14.2765C107.087 17.1222 111.724 20.3681 116.065 23.9804C118.835 25.9914 124.793 32.6309 125.276 35.5357C125.759 38.4405 123.312 41.1059 123.489 44.665C123.666 48.2242 123.07 52.6452 118.996 54.7679C114.922 56.8907 109.124 58.0717 106.113 60.8329C103.102 63.594 88.4311 68.015 80.9751 67.6958C73.5191 67.3766 50.1526 66.9776 46.481 66.0998C42.8093 65.222 31.0536 62.8439 27.8329 60.8329C24.6121 58.8219 20.9083 54.8477 18.1707 53.2357C15.433 51.6238 12.0513 43.7713 10.9079 38.6799C9.76453 33.5885 10.4087 31.1626 13.5006 28.1141C16.5925 25.0657 17.1722 18.2347 31.0536 12.9837Z" fill="#D7390D"/>
<path fill-rule="evenodd" clip-rule="evenodd" d="M55.4026 33.078C57.2384 32.8386 59.1547 28.9124 62.2466 28.8326C65.3385 28.7528 82.6017 31.2106 88.4635 30.3328C94.3252 29.455 96.7569 24.7786 105.694 28.1143C114.632 31.4501 117.74 37.116 110.155 38.5684C102.57 40.0208 98.013 38.2492 91.8935 41.6328C85.7741 45.0164 67.3032 47.0433 63.6799 44.8727C60.0565 42.7021 82.7627 42.4787 79.2521 39.3824C75.7415 36.286 46.5777 35.8711 55.4026 33.078Z" fill="#E23B0D"/>
<path fill-rule="evenodd" clip-rule="evenodd" d="M31.0538 12.9837C31.0538 12.9837 37.1732 10.8131 40.0236 11.0525C42.874 11.2919 43.8563 11.8505 45.7243 11.0525C49.8419 9.02253 54.444 8.15558 59.026 8.54674C65.9506 9.02555 67.577 9.60013 73.2133 9.26496C78.8496 8.92979 93.8422 9.42456 102.2 14.2765C107.087 17.1222 111.725 20.3681 116.065 23.9804C118.835 25.9914 124.793 32.6309 125.277 35.5357C125.76 38.4405 123.312 41.1059 123.489 44.665C123.618 47.6975 123.231 51.3205 120.574 53.6826C119.749 54.0942 118.958 54.5692 118.207 55.1031L116.935 55.2308C123.715 50.4427 118.739 45.7503 114.874 43.2446C110.622 40.4994 122.12 40.0525 120.172 36.8604C118.223 33.6683 120.413 35.0729 118.706 30.4763C116.999 25.8797 104.358 16.9738 98.6411 15.6012C91.1234 13.9703 83.435 13.2415 75.7416 13.4306C67.11 13.5902 62.6171 10.1109 55.5315 10.4301C48.4458 10.7493 49.5731 13.9094 44.1139 15.5214C38.6548 17.1334 40.8932 14.069 30.4097 16.6546C19.9262 19.2402 14.7569 32.1681 15.1595 34.0354C15.8461 35.7648 15.9087 37.6762 15.3366 39.446C14.5153 42.0316 14.8374 44.7129 16.3028 48.4955C17.2673 50.8614 18.6712 53.0269 20.4415 54.8797C19.6983 54.2504 18.9069 53.6794 18.0743 53.1719C15.3044 51.5759 11.9548 43.7074 10.8115 38.6161C9.66812 33.5247 10.4089 31.1626 13.5008 28.1141C16.5927 25.0657 17.1724 18.2347 31.0538 12.9837Z" fill="#C7370B"/>
<path fill-rule="evenodd" clip-rule="evenodd" d="M7.05921 25.9115C7.05921 25.9115 9.1849 18.2346 11.8903 16.5428C13.5666 15.6866 15.1809 14.716 16.7214 13.638C20.232 11.212 27.1727 6.59949 30.7478 6.51969C34.3228 6.43989 37.1892 7.09426 35.1602 8.11572C33.1311 9.13719 24.6122 11.3716 21.1661 13.7497C18.0475 15.549 15.5028 18.1817 13.8228 21.3469C12.2124 24.5389 9.50698 27.2362 8.68569 28.6886C7.8644 30.141 6.07688 28.9919 7.05921 25.9115Z" fill="#ED9523"/>
<path fill-rule="evenodd" clip-rule="evenodd" d="M59.1546 1.50832C63.567 1.26892 66.4174 2.4819 72.2791 2.72131C78.1409 2.96071 90.9594 3.12032 95.0336 4.66847C99.1079 6.21663 116.081 13.303 117.128 15.346C118.175 17.3889 117.128 17.8517 120.349 19.6233C123.569 21.3949 127.708 23.1984 130.462 27.795C132.132 30.5291 133.036 33.6558 133.078 36.8519C133.121 40.0479 132.301 43.1972 130.703 45.9739C126.871 52.9166 126.21 53.0922 125.566 54.784C124.922 56.4758 123.038 56.6354 119.125 59.3008C115.212 61.9662 110.074 66.8979 106.564 67.3927C103.053 67.8875 104.696 61.7268 111.62 59.7158C118.545 57.7048 124.745 53.3316 124.664 50.746C124.584 48.1605 123.94 44.0267 125.244 41.2815C126.549 38.5364 128.175 35.1368 125.647 31.1786C123.118 27.2205 114.97 20.9161 113.505 18.9849C112.039 17.0537 99.9453 7.31789 93.1978 7.81266C86.4504 8.30744 82.2634 6.51987 74.9362 6.44007C68.913 6.27417 62.9134 5.62297 56.9967 4.49291C54.5167 3.9343 52.3105 2.3223 59.1546 1.50832Z" fill="#ED9523"/>
<path fill-rule="evenodd" clip-rule="evenodd" d="M132.137 35.3763C132.137 41.0262 130.43 44.9525 128.384 47.2508C126.339 49.5491 125.534 46.5964 126.516 43.532C127.499 40.4676 129.286 36.7488 127.982 33.7483C126.677 30.7477 127.66 30.5562 125.051 27.6993C122.442 24.8424 121.218 24.3796 120.22 22.3526C118.867 19.9107 132.265 26.5183 132.137 35.3763Z" fill="#F6A640"/>
<path fill-rule="evenodd" clip-rule="evenodd" d="M11.8742 17.7081C12.9693 17.1016 15.256 14.8511 15.8196 15.33C16.3833 15.8088 15.1272 18.6497 13.5007 20.0223C11.8742 21.3949 10.8919 24.0124 10.0706 25.3531C9.24934 26.6937 8.57298 27.5237 7.99325 27.3321C7.41352 27.1406 8.39585 23.8209 9.29765 22.0333C9.82662 20.422 10.7062 18.9454 11.8742 17.7081Z" fill="#F6A640"/>
<path fill-rule="evenodd" clip-rule="evenodd" d="M88.5116 4.17343C86.935 4.27029 85.3538 4.27029 83.7772 4.17343C81.3131 3.77851 78.8153 3.62881 76.3211 3.72654C72.9394 3.96594 62.2143 1.66765 60.8777 2.22627C59.5411 2.78488 64.0984 4.41283 67.9311 4.68416C71.7638 4.95549 76.5305 4.89164 80.0733 5.46622C83.6861 6.0542 87.3566 6.21493 91.0077 5.94503C94.0996 5.5939 92.4732 4.49264 88.5116 4.17343Z" fill="#F6A640"/>
<path fill-rule="evenodd" clip-rule="evenodd" d="M2.6146 35.0411C3.30706 32.3758 1.84162 31.1628 4.04783 31.0351C6.25404 30.9074 6.84987 33.1897 7.26857 35.488C7.68727 37.7863 9.18491 39.4143 9.47478 40.8188C10.4281 44.1861 11.8423 47.4081 13.6778 50.395C15.0628 51.991 16.8986 52.0868 17.6716 53.5871C18.4445 55.0873 23.7749 61.5673 29.4917 63.5623C35.2085 65.5573 42.9383 65.8287 43.518 67.4407C44.0977 69.0527 39.6048 70.0422 36.2552 69.0367C32.9057 68.0312 19.7811 64.8232 18.5895 62.3653C17.3978 59.9074 17.3656 54.5128 13.0498 52.422C8.73401 50.3312 7.34909 50.7142 5.70651 47.6339C4.06393 44.5535 1.63228 40.0208 2.6146 35.0411Z" fill="#ED9523"/>
<path fill-rule="evenodd" clip-rule="evenodd" d="M54.3879 68.0948C61.7312 68.414 64.9841 68.0948 69.5576 68.9886C74.7218 69.8218 79.9942 69.7407 85.1299 68.7492C90.589 67.7756 96.0482 65.5571 99.6232 66.7222C103.198 67.8873 95.871 71.654 86.9013 72.867C79.8067 74.0533 72.5618 74.0533 65.4672 72.867C59.4445 71.7338 50.1526 68.5736 54.3879 68.0948Z" fill="#ED9523"/>
<path fill-rule="evenodd" clip-rule="evenodd" d="M5.67431 45.2235C4.40212 42.7975 4.16056 43.3721 3.95121 39.9725C3.74187 36.573 2.80785 33.3011 4.40212 33.9555C5.99639 34.6099 7.13975 41.2174 8.50856 44.0743C9.87738 46.9313 11.1979 50.2191 13.4363 51.3842C15.6257 52.53 17.5123 54.1702 18.9438 56.1723C20.2482 58.0716 24.9826 63.0512 27.2533 64.1525C29.5239 65.2537 21.6331 65.8602 19.9261 62.2213C18.2191 58.5823 16.4316 54.4645 14.6602 53.2675C12.8888 52.0705 9.23323 50.4266 7.57455 48.7188C6.60435 47.767 5.94273 46.55 5.67431 45.2235Z" fill="#F6A640"/>
<path fill-rule="evenodd" clip-rule="evenodd" d="M67.1421 69.9461C69.4675 70.567 71.868 70.8677 74.276 70.8399C77.6207 70.8175 80.9606 70.5883 84.2765 70.1536C86.9658 69.5471 89.1076 68.9087 89.2042 69.9461C89.3008 70.9835 82.972 72.42 79.9123 72.4998C76.8526 72.5796 70.9426 73.0584 67.5608 72.3402C65.2194 72.037 62.9511 71.3236 60.8617 70.2334C59.6056 69.3396 67.1421 69.9461 67.1421 69.9461Z" fill="#F6A640"/>
<path fill-rule="evenodd" clip-rule="evenodd" d="M38.0588 19.6712C17.2528 25.4329 17.8487 30.0136 22.0839 41.6487C26.3192 53.2838 38.7191 57.0025 46.8675 55.3905C55.016 53.7785 51.2799 56.5237 62.5203 58.4709C73.7607 60.418 94.4862 59.4285 97.4332 55.8853C100.38 52.3421 98.0773 48.4478 87.4166 47.2667C76.756 46.0856 59.9115 48.8627 53.5989 43.7554C47.2862 38.6481 43.3247 34.7059 50.3781 32.2799C57.4316 29.854 57.7214 26.2948 62.4398 23.2304C67.1582 20.166 84.4536 27.428 94.0836 24.6828C103.714 21.9376 101.91 17.74 90.8628 17.74C62.0372 17.74 58.8809 13.9096 38.0588 19.6712Z" fill="#F7AB00"/>
<path fill-rule="evenodd" clip-rule="evenodd" d="M38.0588 19.6712C17.2528 25.4329 17.8487 30.0135 22.0839 41.6486C26.3192 53.2837 38.7191 57.0025 46.8675 55.3905C55.016 53.7785 51.2799 56.5237 62.5203 58.4708C71.7915 59.8009 81.2083 59.7902 90.4763 58.4389C67.3192 61.1362 59.1869 54.0498 57.0612 51.3845C54.9355 48.7191 48.494 51.8633 43.7756 52.4378C41.487 52.6568 39.1775 52.4086 36.9894 51.7086C34.8013 51.0086 32.7812 49.8717 31.0537 48.3679C28.6864 45.8622 29.5883 42.1434 30.0714 39.5578C30.5545 36.9722 27.3015 37.052 24.2901 34.4984C21.2787 31.9447 22.406 28.2739 31.5368 23.1027C40.6676 17.9315 53.9854 16.7185 54.5812 16.6387C48.9803 17.0618 43.4412 18.0784 38.0588 19.6712Z" fill="#F39600"/>
<path fill-rule="evenodd" clip-rule="evenodd" d="M68.1889 18.0593C64.0341 17.8997 55.3059 16.6867 48.8645 19.1925C42.423 21.6983 39.4921 24.5232 34.6771 25.9756C29.8621 27.428 26.2227 29.6146 27.1728 31.5458C28.1229 33.477 34.7576 36.1743 34.194 38.9833C33.6304 41.7923 31.9073 44.729 36.062 46.5006C40.2168 48.2722 43.2443 45.4473 41.6983 42.3829C40.1524 39.3185 35.0797 34.7059 38.1877 33.0141C41.2957 31.3223 49.0255 30.3328 49.4603 27.5876C49.8951 24.8424 55.9018 20.5651 61.6025 20.1501C67.3032 19.7351 77.0781 18.3785 68.1889 18.0593Z" fill="#FABA1E"/>
<path fill-rule="evenodd" clip-rule="evenodd" d="M41.5213 26.8693C43.1277 26.208 44.6385 25.3386 46.0142 24.2837C47.4797 23.3421 52.0048 21.8897 51.6827 20.8363C51.3607 19.7829 49.7181 19.9585 46.5457 21.9376C43.3732 23.9167 41.4086 25.5765 37.6886 26.4224C33.9687 27.2683 36.7224 28.5611 41.5213 26.8693Z" fill="#FCC443"/>
<path fill-rule="evenodd" clip-rule="evenodd" d="M65.741 48.8625C71.8604 49.5009 76.1762 47.9687 82.4567 48.6231C88.7371 49.2774 94.3573 48.6231 95.3396 51.9268C96.3219 55.2306 89.7999 56.4596 82.1346 56.4596C74.4692 56.4596 65.3384 54.4326 61.1998 51.847C57.0611 49.2615 56.6263 48.2081 52.7936 48.655C48.961 49.1019 43.5018 49.6286 43.4213 48.24C43.3408 46.8515 44.5647 44.2818 42.5195 40.2598C40.4743 36.2378 46.2716 37.5306 47.6566 39.7012C49.5835 42.8571 52.5539 45.254 56.0627 46.4844C59.1971 47.6068 62.4406 48.4037 65.741 48.8625Z" fill="#FABA1E"/>
<path fill-rule="evenodd" clip-rule="evenodd" d="M71.49 53.8901C76.0181 54.8405 80.6544 55.184 85.2748 54.9115C90.8144 54.3848 93.0529 53.2038 91.1365 52.5175C89.2202 51.8312 83.5195 52.5175 77.5611 52.5175C71.6027 52.5175 66.7233 52.1185 63.6636 50.7778C60.6039 49.4371 64.5171 52.9324 71.49 53.8901Z" fill="#FCC443"/>
<path fill-rule="evenodd" clip-rule="evenodd" d="M27.1727 53.4114C27.1727 53.4114 34.677 60.6893 40.7965 61.2479C46.9159 61.8065 51.7148 59.6519 55.9661 60.9287C60.2175 62.2055 59.7988 64.6475 71.4579 64.2325C83.117 63.8175 91.8291 61.7267 91.7486 63.4345C91.6681 65.1422 88.8177 65.6051 84.5019 65.6051C80.1861 65.6051 64.1951 65.4455 60.1209 65.5253C56.0467 65.6051 45.1928 65.2061 39.0895 63.1153C32.9862 61.0245 21.9551 52.0547 27.1727 53.4114Z" fill="#C7370B"/>
<path fill-rule="evenodd" clip-rule="evenodd" d="M54.5814 36.0944C54.1074 36.321 53.7172 36.6893 53.4658 37.1475C53.2144 37.6057 53.1146 38.1306 53.1803 38.648C53.2609 40.6431 56.4011 42.6221 61.4415 42.7658C65.4696 43.0372 69.5069 42.393 73.2455 40.8825C73.9733 40.5523 74.5668 39.9877 74.9294 39.2805C75.292 38.5734 75.4023 37.7654 75.2424 36.9881C75.0492 36.6051 54.5814 36.0944 54.5814 36.0944Z" fill="#932906"/>
<path fill-rule="evenodd" clip-rule="evenodd" d="M61.0229 34.2908C62.6332 34.2908 75.3068 33.4289 75.3712 37.6584C75.4357 41.8879 60.2338 42.6859 56.3367 41.0899C52.4396 39.4939 51.2157 35.2484 61.0229 34.2908Z" fill="#E76D41"/>
<path fill-rule="evenodd" clip-rule="evenodd" d="M68.6237 34.8494C70.1486 34.8911 71.6627 35.1162 73.1328 35.5197C74.8237 36.1262 75.7255 38.0415 73.8413 38.7118C71.9572 39.3821 73.2938 37.435 72.5853 37.1956C71.8767 36.9562 69.2679 37.4031 68.4144 36.7487C67.5609 36.0943 67.6897 34.9132 68.6237 34.8494Z" fill="#D7643A"/>
<path fill-rule="evenodd" clip-rule="evenodd" d="M67.2549 34.9931C68.1084 35.7113 64.0342 35.9507 64.469 36.9722C64.9038 37.9936 71.313 37.6904 71.0554 38.8076C70.7977 39.9248 64.9843 40.4037 61.4898 40.1642C57.9953 39.9248 55.2093 38.0575 56.401 36.8126C58.3335 34.7537 65.8217 33.7961 67.2549 34.9931Z" fill="#EC774B"/>
<path fill-rule="evenodd" clip-rule="evenodd" d="M61.0227 34.291H62.3754C60.5235 34.291 56.5297 34.7858 55.6118 36.6372C54.388 39.0632 56.3365 40.723 64.0019 40.7071C71.6672 40.6911 75.355 39.7654 75.2745 37.1798C75.2989 37.3492 75.2989 37.5212 75.2745 37.6906C75.2745 41.9201 60.137 42.7181 56.2399 41.1221C52.3428 39.526 51.2155 35.2486 61.0227 34.291Z" fill="#DA6238"/>
<path fill-rule="evenodd" clip-rule="evenodd" d="M58.5266 35.5515C58.6232 35.5515 59.3801 35.5515 59.3962 35.7431C59.4123 35.9346 58.4783 36.0463 58.2367 35.9506C57.9951 35.8548 57.9307 35.5994 58.5266 35.5515Z" fill="#F08764"/>
<path fill-rule="evenodd" clip-rule="evenodd" d="M57.3672 37.2753C57.5122 37.2753 58.7522 37.1955 58.7522 37.6105C58.7522 38.0255 57.2867 38.0893 56.9163 37.9297C56.546 37.7701 56.4171 37.3711 57.3672 37.2753Z" fill="#F08764"/>
<path fill-rule="evenodd" clip-rule="evenodd" d="M61.538 36.2221C61.538 36.2221 62.1499 36.2221 62.1499 36.3658C62.1499 36.5094 61.5058 36.5892 61.3447 36.5094C61.1837 36.4296 61.1193 36.27 61.538 36.2221Z" fill="#F08764"/>
<path fill-rule="evenodd" clip-rule="evenodd" d="M65.6767 36.4454C65.7733 36.4454 66.5302 36.4454 66.5463 36.6529C66.5624 36.8604 65.6284 36.9561 65.3868 36.8604C65.1453 36.7646 65.0809 36.5092 65.6767 36.4454Z" fill="#F08764"/>
<path fill-rule="evenodd" clip-rule="evenodd" d="M69.6061 35.2963C69.7511 35.2963 70.975 35.2963 70.9911 35.6315C71.0072 35.9667 69.5256 36.1103 69.1552 35.9507C68.7848 35.7911 68.656 35.3921 69.6061 35.2963Z" fill="#F08764"/>
<path fill-rule="evenodd" clip-rule="evenodd" d="M62.3754 38.2811C62.3754 38.2811 63.1323 38.2811 63.1323 38.4567C63.1323 38.6322 62.3432 38.728 62.1339 38.6482C61.9246 38.5684 61.8601 38.329 62.3754 38.2811Z" fill="#F08764"/>
<path fill-rule="evenodd" clip-rule="evenodd" d="M70.3951 37.3712C70.3951 37.3712 70.8782 37.3712 70.8782 37.4989C70.8782 37.6266 70.3629 37.6585 70.2341 37.6107C70.1052 37.5628 70.0569 37.4032 70.3951 37.3712Z" fill="#F08764"/>
<path fill-rule="evenodd" clip-rule="evenodd" d="M66.6429 39.0947C66.7556 39.0947 67.754 39.0947 67.754 39.366C67.754 39.6373 66.5785 39.7491 66.2725 39.6214C65.9665 39.4937 65.8699 39.1745 66.6429 39.0947Z" fill="#F08764"/>
<path fill-rule="evenodd" clip-rule="evenodd" d="M76.289 21.1553C75.8137 21.3847 75.423 21.7559 75.1717 22.2169C74.9203 22.6778 74.8211 23.2052 74.888 23.7249C74.888 25.7199 78.1087 27.699 83.1492 27.8267C87.1745 28.0889 91.2069 27.4338 94.9371 25.9115C95.6699 25.583 96.2675 25.0162 96.6307 24.305C96.9938 23.5938 97.1009 22.7809 96.9339 22.0012C96.7407 21.6341 76.289 21.1553 76.289 21.1553Z" fill="#932906"/>
<path fill-rule="evenodd" clip-rule="evenodd" d="M82.7145 19.3359C84.3249 19.3359 97.0146 18.4581 97.079 22.6876C97.1434 26.9171 81.9415 27.731 78.0444 26.119C74.1473 24.507 72.9234 20.2776 82.7145 19.3359Z" fill="#E76D41"/>
<path fill-rule="evenodd" clip-rule="evenodd" d="M90.3316 19.8787C91.8575 19.9215 93.3721 20.152 94.8406 20.565C96.451 21.1556 97.4172 23.0868 95.5492 23.7571C93.6812 24.4274 95.0017 22.4803 94.277 22.1611C93.5523 21.8419 90.9757 22.3845 90.1061 21.7301C89.2365 21.0758 89.3976 19.9426 90.3316 19.8787Z" fill="#D7643A"/>
<path fill-rule="evenodd" clip-rule="evenodd" d="M89.0272 20.0222C89.8968 20.7564 85.8064 20.9958 86.2573 22.0013C86.7082 23.0068 93.1014 22.6716 92.8276 23.8367C92.5539 25.0018 86.7726 25.4327 83.2781 25.2093C79.7836 24.9859 76.9977 23.1025 78.1733 21.8417C80.0252 19.7987 87.5134 18.8252 89.0272 20.0222Z" fill="#EC774B"/>
<path fill-rule="evenodd" clip-rule="evenodd" d="M82.7144 19.336H84.0832C82.2313 19.4158 78.2215 19.8148 77.3036 21.6662C76.0958 24.0922 78.0282 25.752 85.7097 25.752C93.3912 25.752 96.9823 24.8104 96.9823 22.2088C97.0067 22.3782 97.0067 22.5502 96.9823 22.7196C96.9823 26.9491 81.8448 27.763 77.9477 26.151C74.0506 24.539 72.9234 20.2776 82.7144 19.336Z" fill="#DA6238"/>
<path fill-rule="evenodd" clip-rule="evenodd" d="M80.2183 20.5809C80.3149 20.5809 81.0879 20.5809 81.0879 20.7884C81.0879 20.9959 80.17 21.0916 79.9446 20.9959C79.7191 20.9001 79.6386 20.6448 80.2183 20.5809Z" fill="#F08764"/>
<path fill-rule="evenodd" clip-rule="evenodd" d="M79.0749 22.3206C79.2198 22.3206 80.4437 22.2408 80.4598 22.6398C80.4759 23.0388 78.9944 23.1346 78.624 22.975C78.2536 22.8154 78.1248 22.4164 79.0749 22.3206Z" fill="#F08764"/>
<path fill-rule="evenodd" clip-rule="evenodd" d="M83.246 21.2671C83.246 21.2671 83.8579 21.2671 83.8579 21.4107C83.8579 21.5544 83.2138 21.6182 83.0527 21.5544C82.8917 21.4906 82.8273 21.299 83.246 21.2671Z" fill="#F08764"/>
<path fill-rule="evenodd" clip-rule="evenodd" d="M87.4168 21.4908C87.5134 21.4908 88.2864 21.4908 88.2864 21.6823C88.2864 21.8738 87.3685 21.9855 87.1431 21.8898C86.9176 21.794 86.7888 21.5386 87.4168 21.4908Z" fill="#F08764"/>
<path fill-rule="evenodd" clip-rule="evenodd" d="M91.2978 20.3416C91.4588 20.3416 92.6827 20.2618 92.6827 20.6608C92.6827 21.0598 91.2334 21.1555 90.8469 20.9959C90.4604 20.8363 90.3638 20.4373 91.2978 20.3416Z" fill="#F08764"/>
<path fill-rule="evenodd" clip-rule="evenodd" d="M84.0832 23.326C84.0832 23.326 84.84 23.3261 84.84 23.5016C84.84 23.6772 84.0349 23.757 83.8255 23.6772C83.6162 23.5974 83.5679 23.326 84.0832 23.326Z" fill="#F08764"/>
<path fill-rule="evenodd" clip-rule="evenodd" d="M92.1028 22.4162C92.1028 22.4162 92.5859 22.4162 92.5859 22.5279C92.5859 22.6396 92.0705 22.7035 91.9417 22.6396C91.8129 22.5758 91.7646 22.4481 92.1028 22.4162Z" fill="#F08764"/>
<path fill-rule="evenodd" clip-rule="evenodd" d="M88.3347 24.14C88.4635 24.14 89.4458 24.14 89.4619 24.3954C89.478 24.6508 88.2703 24.7944 87.9804 24.6667C87.6905 24.5391 87.5778 24.2039 88.3347 24.14Z" fill="#F08764"/>
<path fill-rule="evenodd" clip-rule="evenodd" d="M49.5892 55.6458C49.1139 55.8752 48.7231 56.2464 48.4718 56.7074C48.2205 57.1683 48.1213 57.6957 48.1881 58.2154C48.1881 60.2104 51.4089 62.1895 56.4493 62.3172C60.4802 62.5859 64.5193 61.9305 68.2533 60.402C68.9824 60.0689 69.5764 59.5014 69.9389 58.7915C70.3014 58.0816 70.4111 57.2711 70.2502 56.4917C70.057 56.1246 49.5892 55.6458 49.5892 55.6458Z" fill="#932906"/>
<path fill-rule="evenodd" clip-rule="evenodd" d="M56.0307 53.8264C57.641 53.8264 70.3146 52.9486 70.3791 57.1781C70.4435 61.4076 55.2094 62.2216 51.3445 60.6096C47.4796 58.9976 46.2235 54.784 56.0307 53.8264Z" fill="#E76D41"/>
<path fill-rule="evenodd" clip-rule="evenodd" d="M63.6317 54.3689C65.1577 54.4106 66.6724 54.6412 68.1407 55.0552C69.7511 55.6617 70.7334 57.5769 68.8493 58.2472C66.9651 58.9176 68.3018 56.9544 67.5932 56.6512C66.8846 56.348 64.2758 56.8746 63.4223 56.2203C62.5688 55.5659 62.6977 54.4327 63.6317 54.3689Z" fill="#D7643A"/>
<path fill-rule="evenodd" clip-rule="evenodd" d="M62.2626 54.5286C63.1161 55.2469 59.0419 55.4863 59.4767 56.4918C59.9115 57.4973 66.3207 57.1621 66.047 58.3432C65.7732 59.5242 59.992 59.9392 56.4975 59.6998C53.003 59.4604 50.217 57.593 51.4087 56.3322C53.3411 54.2892 60.8294 53.3157 62.2626 54.5286Z" fill="#EC774B"/>
<path fill-rule="evenodd" clip-rule="evenodd" d="M56.0307 53.8265H57.3834C55.5315 53.8265 51.5378 54.3053 50.6038 56.1567C49.396 58.5827 51.3446 60.2425 59.0099 60.2425C66.6753 60.2425 70.2825 59.3009 70.2825 56.7153C70.307 56.8793 70.307 57.046 70.2825 57.2101C70.2825 61.4555 55.145 62.2535 51.2479 60.6416C47.3508 59.0296 46.2236 54.7841 56.0307 53.8265Z" fill="#DA6238"/>
<path fill-rule="evenodd" clip-rule="evenodd" d="M53.5989 55.071C53.6794 55.071 54.4524 55.071 54.4524 55.2785C54.4524 55.486 53.5506 55.5817 53.309 55.486C53.0675 55.3902 52.9387 55.1349 53.5989 55.071Z" fill="#F08764"/>
<path fill-rule="evenodd" clip-rule="evenodd" d="M52.3751 56.8428C52.52 56.8428 53.76 56.8428 53.76 57.162C53.76 57.4812 52.2945 57.6568 51.9242 57.4972C51.5538 57.3376 51.4249 56.8428 52.3751 56.8428Z" fill="#F08764"/>
<path fill-rule="evenodd" clip-rule="evenodd" d="M56.546 55.7576C56.546 55.7576 57.158 55.7576 57.158 55.9012C57.158 56.0449 56.5138 56.1087 56.3528 56.0449C56.1917 55.981 56.1273 55.7895 56.546 55.7576Z" fill="#F08764"/>
<path fill-rule="evenodd" clip-rule="evenodd" d="M60.6846 55.9809C60.6846 55.9809 61.5381 55.9809 61.5381 56.1724C61.5381 56.3639 60.6363 56.4757 60.3947 56.3799C60.1532 56.2841 60.0404 56.0288 60.6846 55.9809Z" fill="#F08764"/>
<path fill-rule="evenodd" clip-rule="evenodd" d="M64.6138 54.8317C64.7588 54.8317 65.9826 54.7519 65.9987 55.1509C66.0148 55.5499 64.5333 55.6457 64.1629 55.4861C63.7925 55.3265 63.6637 54.9274 64.6138 54.8317Z" fill="#F08764"/>
<path fill-rule="evenodd" clip-rule="evenodd" d="M57.3833 57.8165C57.4638 57.8165 58.1401 57.8165 58.1401 57.9921C58.1401 58.1677 57.335 58.2634 57.1417 58.1677C56.9485 58.0719 56.8196 57.8644 57.3833 57.8165Z" fill="#F08764"/>
<path fill-rule="evenodd" clip-rule="evenodd" d="M65.403 56.8428C65.403 56.8428 65.8861 56.8428 65.8861 56.9545C65.8861 57.0662 65.3708 57.1301 65.242 57.0822C65.1132 57.0343 65.0649 56.9386 65.403 56.8428Z" fill="#F08764"/>
<path fill-rule="evenodd" clip-rule="evenodd" d="M61.6508 58.6306C61.7796 58.6306 62.778 58.6306 62.778 58.8859C62.778 59.1413 61.6025 59.2849 61.2965 59.1572C60.9905 59.0296 60.8778 58.7104 61.6508 58.6306Z" fill="#F08764"/>
<path fill-rule="evenodd" clip-rule="evenodd" d="M64.0342 51.1449C64.6901 50.2314 65.522 49.4557 66.482 48.8626C67.6287 48.5386 68.835 48.4785 70.0087 48.687C70.3364 50.1919 70.8786 51.6429 71.6191 52.9963C72.2793 53.6188 75.6289 51.8951 77.0138 53.3315C80.2346 56.6991 76.4502 61.4553 71.8928 62.9077C67.8186 64.2005 63.068 62.5885 62.8909 58.9495C62.8909 57.3535 65.387 56.2203 65.3547 54.9594C65.1069 53.6303 64.6619 52.3449 64.0342 51.1449Z" fill="#7F4307"/>
<path fill-rule="evenodd" clip-rule="evenodd" d="M69.5255 49.0861C69.5255 49.0861 69.6704 52.3739 70.701 53.4273C71.7317 54.4807 71.8605 54.0338 73.4065 53.9699C74.1266 53.8775 74.8584 53.9942 75.513 54.3058C76.1676 54.6174 76.7169 55.1106 77.0942 55.7256C77.7061 56.9864 75.7898 61.2319 71.941 62.4928C68.0922 63.7536 64.8715 61.6309 64.2918 60.0349C63.712 58.4388 66.4819 57.0662 66.1115 55.0233C65.7411 52.9804 64.5011 51.8313 65.5318 50.6821C66.5624 49.533 65.725 48.7349 69.5255 49.0861Z" fill="#6C3300"/>
<path fill-rule="evenodd" clip-rule="evenodd" d="M75.1297 56.4277C75.2586 57.497 73.9219 58.5823 73.5194 59.4122C73.1168 60.2422 72.8913 60.6731 71.764 60.8966C70.6368 61.12 70.1537 61.3754 69.5095 60.8966C68.8654 60.4177 69.4129 59.109 69.896 58.7259C70.3791 58.3429 71.8768 57.9279 71.2165 57.1299C70.882 56.6312 70.4356 56.216 69.9121 55.9169C69.268 55.47 69.1875 55.6616 68.7688 54.7039C68.4486 54.1141 68.2721 53.4582 68.2534 52.7887C68.2534 52.1024 67.0618 52.1184 67.722 51.1927C68.3823 50.267 68.5755 49.9637 68.8815 50.7617C69.1875 51.5597 69.0425 52.5652 69.8477 53.3633C70.6529 54.1613 70.5724 54.7039 71.6352 54.6401C72.6981 54.5763 72.9557 54.1772 73.7931 54.6401C74.6305 55.1029 75.4357 55.486 75.1297 56.4277Z" fill="#5A2A00"/>
<path fill-rule="evenodd" clip-rule="evenodd" d="M68.0924 55.3425C67.3194 55.5181 66.7719 55.8213 66.7397 55.5021C66.7075 55.1829 65.9667 54.0178 65.7735 53.124C65.5802 52.2303 65.2421 52.5175 65.6769 51.7993C65.9698 51.3674 66.2386 50.9198 66.482 50.4587C66.7558 49.8522 67.094 49.5808 67.4966 49.7245C67.8992 49.8681 66.7397 50.9215 66.8685 51.6397C66.9974 52.3579 67.1906 52.4058 67.5771 53.0283C67.9636 53.6507 68.0441 53.5869 68.0763 54.0497C68.1085 54.5126 68.0924 55.3425 68.0924 55.3425Z" fill="#4A2100"/>
<path fill-rule="evenodd" clip-rule="evenodd" d="M31.0538 17.2291C30.5798 17.4557 30.1896 17.8241 29.9382 18.2822C29.6868 18.7404 29.587 19.2653 29.6527 19.7827C29.7333 21.7937 32.8735 23.7569 37.93 23.9005C41.9566 24.1571 45.9889 23.4965 49.718 21.9693C50.4476 21.6415 51.0429 21.0772 51.4058 20.3694C51.7688 19.6616 51.8777 18.8524 51.7148 18.075C51.5699 17.7079 31.0538 17.2291 31.0538 17.2291Z" fill="#932906"/>
<path fill-rule="evenodd" clip-rule="evenodd" d="M37.4952 15.3458C39.1056 15.3458 51.7792 14.468 51.8436 18.6975C51.908 22.927 36.7222 23.741 32.8251 22.129C28.928 20.517 27.7364 16.3513 37.4952 15.3458Z" fill="#E76D41"/>
<path fill-rule="evenodd" clip-rule="evenodd" d="M45.1444 15.9522C46.6704 15.9939 48.1851 16.2245 49.6534 16.6385C51.3604 17.229 52.2461 19.1602 50.3781 19.8305C48.51 20.5009 49.8144 18.5537 49.1059 18.3143C48.3973 18.0749 45.7885 18.5218 44.935 17.8674C44.0815 17.213 44.2104 16.016 45.1444 15.9522Z" fill="#D7643A"/>
<path fill-rule="evenodd" clip-rule="evenodd" d="M43.7757 16.096C44.6292 16.8142 40.5549 17.0536 41.0058 18.0751C41.4567 19.0966 47.8338 18.7454 47.5761 19.9105C47.3185 21.0756 41.505 21.5066 38.0105 21.2831C34.516 21.0597 31.7301 19.1604 32.9218 17.9155C34.8542 15.8726 42.3263 14.899 43.7757 16.096Z" fill="#EC774B"/>
<path fill-rule="evenodd" clip-rule="evenodd" d="M37.4953 15.3459H38.8641C36.996 15.4416 33.0023 15.8406 32.0844 17.692C30.9089 20.134 32.8574 21.73 40.5228 21.73C48.1881 21.73 51.7954 20.7724 51.7954 18.1868C51.8198 18.3562 51.8198 18.5282 51.7954 18.6975C51.7954 22.927 36.674 23.741 32.7769 22.129C28.8798 20.517 27.7364 16.3514 37.4953 15.3459Z" fill="#DA6238"/>
<path fill-rule="evenodd" clip-rule="evenodd" d="M35.0474 16.6547C35.1441 16.6547 35.9009 16.6547 35.917 16.8622C35.9331 17.0697 34.9991 17.1655 34.7576 17.0697C34.516 16.9739 34.4516 16.7026 35.0474 16.6547Z" fill="#F08764"/>
<path fill-rule="evenodd" clip-rule="evenodd" d="M33.888 18.3944C34.049 18.3944 35.2729 18.2986 35.2729 18.7136C35.2729 19.1285 33.8236 19.2083 33.4371 19.0487C33.0506 18.8891 32.9379 18.538 33.888 18.3944Z" fill="#F08764"/>
<path fill-rule="evenodd" clip-rule="evenodd" d="M38.059 17.3409C38.059 17.3409 38.6709 17.3409 38.6709 17.4686C38.6709 17.5963 38.0268 17.692 37.8657 17.6282C37.7047 17.5644 37.6403 17.3728 38.059 17.3409Z" fill="#F08764"/>
<path fill-rule="evenodd" clip-rule="evenodd" d="M42.1976 17.5482C42.2942 17.5482 43.0511 17.5482 43.0672 17.7557C43.0833 17.9632 42.1493 18.0589 41.9077 17.9632C41.6662 17.8674 41.6018 17.6121 42.1976 17.5482Z" fill="#F08764"/>
<path fill-rule="evenodd" clip-rule="evenodd" d="M46.1268 16.4153C46.2717 16.4153 47.5117 16.3195 47.5117 16.7345C47.5117 17.1495 46.0462 17.2293 45.6759 17.0697C45.3055 16.9101 45.1766 16.4951 46.1268 16.4153Z" fill="#F08764"/>
<path fill-rule="evenodd" clip-rule="evenodd" d="M38.8962 19.3839C38.9767 19.3839 39.6531 19.3839 39.6531 19.5754C39.6531 19.7669 38.864 19.8308 38.6547 19.751C38.4453 19.6712 38.3809 19.4477 38.8962 19.3839Z" fill="#F08764"/>
<path fill-rule="evenodd" clip-rule="evenodd" d="M46.916 18.5379C46.916 18.5379 47.3991 18.5379 47.3991 18.6497C47.3991 18.7614 46.8838 18.8252 46.7549 18.7614C46.6261 18.6975 46.5778 18.5379 46.916 18.5379Z" fill="#F08764"/>
<path fill-rule="evenodd" clip-rule="evenodd" d="M43.1638 20.2136C43.2765 20.2136 44.2749 20.1338 44.2749 20.4689C44.2749 20.8041 43.0994 20.868 42.7934 20.7403C42.4874 20.6126 42.3264 20.2774 43.1638 20.2136Z" fill="#F08764"/>
<path fill-rule="evenodd" clip-rule="evenodd" d="M45.4344 30.1251C45.4344 30.1251 40.6033 31.4817 40.2007 31.4338C39.7981 31.386 37.608 27.4597 40.2007 21.6023C42.7934 15.7448 50.958 14.4361 55.7408 16.08C60.5236 17.7239 61.361 22.4641 60.7812 23.2621C60.2015 24.0602 54.7907 26.6936 45.4344 30.1251Z" fill="#E53C0D"/>
<path fill-rule="evenodd" clip-rule="evenodd" d="M40.2006 31.4338C39.7175 31.4338 37.6079 27.4597 40.2006 21.6023C42.7933 15.7448 50.9579 14.4361 55.7407 16.08C60.5235 17.7239 61.3609 22.4641 60.7811 23.2621C60.9744 17.4047 50.2654 13.6859 44.2909 18.905C42.5766 20.4662 41.2989 22.4405 40.5822 24.6359C39.8655 26.8313 39.734 29.1732 40.2006 31.4338Z" fill="#DC380D"/>
<path fill-rule="evenodd" clip-rule="evenodd" d="M45.4344 30.1252H45.1767C45.1767 30.1252 45.4022 29.6783 44.9191 28.9122C44.436 28.1461 43.7435 27.9706 44.2588 27.0129C44.7742 26.0553 45.8692 25.6882 46.0786 24.571C46.2879 23.4538 46.0785 22.2567 46.9159 21.5226C47.7533 20.7884 49.5247 21.8577 50.1367 20.4851C50.7486 19.1125 50.2977 17.9474 51.0546 18.3624C51.8115 18.7774 50.3782 21.4428 51.9886 21.73C53.599 22.0173 53.454 21.6343 54.6457 21.73C55.7418 21.6456 56.8323 21.9512 57.7215 22.5919C58.3584 23.0494 58.8096 23.7173 58.9937 24.4752C54.5838 26.6077 50.057 28.494 45.4344 30.1252Z" fill="#BF220B"/>
<path fill-rule="evenodd" clip-rule="evenodd" d="M58.9616 24.4592C54.9575 26.4248 50.8506 28.1776 46.6583 29.7101C46.4966 29.426 46.4211 29.1016 46.4411 28.7759C46.4611 28.4503 46.5757 28.1373 46.7711 27.8747C47.3199 26.9849 48.189 26.3346 49.2027 26.0552C50.2656 25.5604 50.5715 24.8901 50.9419 25.4008C51.1708 25.6513 51.4638 25.8355 51.79 25.9339C52.1161 26.0323 52.4631 26.0411 52.7939 25.9595C53.7911 25.8453 54.7639 25.5759 55.6764 25.1614C57.1258 24.5869 57.9954 23.0706 58.9616 24.4592Z" fill="#E84D29"/>
<path fill-rule="evenodd" clip-rule="evenodd" d="M45.37 29.3432C45.2573 29.0081 44.5809 28.2101 44.8225 27.6674C45.064 27.1247 46.2235 26.4385 46.4329 26.0714C46.8062 25.3615 47.0359 24.5862 47.1092 23.789C47.1092 23.0708 47.3508 21.8738 48.3009 21.6982C48.8675 21.571 49.4439 21.4909 50.024 21.4588C50.5071 21.4588 50.3783 22.3047 50.5071 22.8952C50.6524 23.3533 50.9621 23.7427 51.3776 23.9898C51.793 24.2368 52.2854 24.3244 52.7616 24.2359C54.0499 24.0125 55.2899 24.2359 54.6941 24.7945C54.0982 25.3531 53.8728 25.8958 52.5684 25.5127C51.264 25.1297 50.2494 24.4913 49.8307 24.9541C49.412 25.417 49.3637 25.6085 48.945 25.7202C48.0544 25.9705 47.2551 26.4691 46.6422 27.1567C45.9014 28.1143 44.9835 28.3537 45.37 29.3432Z" fill="#A42006"/>
<path fill-rule="evenodd" clip-rule="evenodd" d="M40.8125 29.8856C41.2662 30.032 41.7458 30.082 42.2203 30.0325C42.6947 29.9831 43.1533 29.8351 43.5663 29.5983C43.8561 29.1354 42.7933 28.0023 43.5663 26.7254C44.3393 25.4486 45.547 24.7144 45.386 23.8845C45.225 23.0545 45.4987 21.1074 46.4166 20.6924C47.3345 20.2774 48.3813 20.4211 48.8161 19.6709C49.2509 18.9208 49.0737 17.3727 47.9626 17.6121C45.5476 18.5572 43.5266 20.2847 42.2283 22.5132C40.9301 24.7418 40.4311 27.3402 40.8125 29.8856Z" fill="#E63F0C"/>
<path fill-rule="evenodd" clip-rule="evenodd" d="M51.8918 18.5378C52.1495 19.3678 51.2316 21.1553 52.5682 21.0117C53.9382 20.5753 55.4189 20.6261 56.7551 21.1553C58.3655 21.9853 59.4928 23.4536 59.9759 23.2781C60.459 23.1025 60.459 21.4745 59.2512 20.086C58.0434 18.6974 53.5988 15.9203 51.8918 18.5378Z" fill="#E63F0C"/>
<path fill-rule="evenodd" clip-rule="evenodd" d="M36.9156 27.1246C36.9002 28.2188 36.6819 29.3008 36.2714 30.3167C35.4945 31.213 34.5265 31.9271 33.4372 32.4075C32.3283 31.3431 31.0765 30.4354 29.7172 29.7102C28.8154 29.5665 27.0118 32.9022 25.0472 32.4234C20.4898 31.4179 20.9407 25.369 23.9199 21.6502C26.577 18.3145 31.4242 17.0217 33.5821 19.9584C34.5322 21.2352 33.0507 23.6133 33.7754 24.6348C34.6955 25.6104 35.7532 26.449 36.9156 27.1246Z" fill="#7F4307"/>
<path fill-rule="evenodd" clip-rule="evenodd" d="M33.5016 31.881C33.5016 31.881 31.553 29.2315 30.1037 28.9283C28.6544 28.6251 28.7993 29.056 27.5432 29.9657C26.9966 30.4421 26.3225 30.7514 25.6023 30.8562C24.8821 30.9609 24.1468 30.8568 23.4851 30.5563C22.2773 29.838 21.4721 25.2574 23.9682 22.0813C26.4643 18.9052 30.4097 18.8892 31.7463 19.9586C33.0829 21.0279 31.6013 23.6295 33.0507 25.1297C34.5 26.63 36.2714 26.8694 35.9815 28.3218C35.6917 29.7742 36.8672 30.0615 33.5016 31.881Z" fill="#6C3300"/>
<path fill-rule="evenodd" clip-rule="evenodd" d="M24.7251 28.8802C24.0165 28.0662 24.5157 26.4223 24.4191 25.4966C24.2993 25.1148 24.2932 24.7069 24.4018 24.3218C24.5104 23.9367 24.7289 23.5909 25.0311 23.326C25.8524 22.512 26.0778 22.0651 26.883 22.0651C27.6882 22.0651 27.978 23.4856 27.8009 24.0602C27.6238 24.6347 26.5931 25.8318 27.6399 26.1669C28.1936 26.3996 28.7953 26.4981 29.3952 26.4542C30.1843 26.4542 30.1359 26.2787 31.0055 26.8373C31.6042 27.1464 32.1224 27.5889 32.5193 28.1301C32.9219 28.7046 33.872 28.0343 33.8398 29.1515C33.8076 30.2688 33.8398 30.6518 33.1312 30.173C32.4227 29.6942 31.9879 28.7525 30.8606 28.577C29.7333 28.4014 29.4918 27.8747 28.6544 28.577C27.817 29.2792 27.817 29.6942 26.8186 29.6942C25.8201 29.6942 24.9989 29.8378 24.7251 28.8802Z" fill="#5A2A00"/>
<path fill-rule="evenodd" clip-rule="evenodd" d="M31.1665 25.8958C31.714 25.3372 31.9878 24.7786 32.2132 25.018C32.4387 25.2574 33.6787 25.832 34.3389 26.4544C34.9992 27.0769 35.128 26.6779 35.1763 27.5078C35.1421 28.0393 35.1421 28.5724 35.1763 29.1038C35.2891 29.7422 35.1763 30.1732 34.7576 30.2689C34.3389 30.3647 34.7576 28.8644 34.1779 28.3218C33.5982 27.7791 33.5015 27.8749 32.8252 27.5557C32.1488 27.2365 32.1327 27.3641 31.8429 26.9971C31.553 26.63 31.1665 25.8958 31.1665 25.8958Z" fill="#4A2100"/>
<path fill-rule="evenodd" clip-rule="evenodd" d="M30.136 47.2667C29.2503 47.5699 28.9604 47.1549 28.7833 48.3201C28.7378 49.109 28.5295 49.8804 28.1713 50.5864C27.6882 51.7196 27.3822 52.3899 26.3516 52.1825C25.321 51.975 25.788 51.4164 25.2565 51.3366C24.7251 51.2568 24.5963 50.6822 24.1293 51.3366C23.6714 51.9002 23.1282 52.3901 22.5189 52.7889C21.7459 53.3795 21.1823 53.7945 20.5382 53.4752C19.894 53.156 20.0873 52.5336 19.266 51.2887C18.4447 50.0438 18.3481 50.1874 18.7184 49.2777C19.0888 48.3679 19.4753 48.4637 20.3288 48.0647C21.1823 47.6657 21.44 47.0592 22.1485 46.7081C22.4501 46.47 22.8061 46.3091 23.1853 46.2395C23.5644 46.1699 23.9549 46.1938 24.3225 46.309C25.5303 46.6123 26.6576 47.5061 26.9635 47.0113C27.2695 46.5165 26.3838 45.6866 25.643 45.4153C24.9023 45.1439 24.6124 44.6971 23.7267 44.9365C22.841 45.1759 21.9875 45.3514 21.4722 44.9365C20.9569 44.5215 21.1984 44.1065 20.667 44.1544C20.1356 44.2023 20.1839 43.6915 19.1693 43.7714C18.1548 43.8512 18.1065 43.7713 17.7361 42.9095C17.5099 42.4837 17.3836 42.0128 17.3669 41.5319C17.3502 41.051 17.4434 40.5726 17.6395 40.1324C18.1387 39.3822 18.9922 38.5364 19.7652 38.7438C20.5382 38.9513 21.0857 39.5099 21.6654 39.0152C22.2451 38.5204 23.0342 37.7383 23.2758 37.9618C23.5173 38.1852 23.3885 39.2067 23.7589 40.4676C23.9438 41.324 24.4217 42.0908 25.1116 42.6382C25.9168 43.4521 26.0939 43.9788 26.8347 44.8567C27.5755 45.7345 27.4628 46.1814 28.6061 46.4527C29.4634 46.7135 30.3511 46.8637 31.2471 46.8996C31.9396 46.8996 32.5837 47.7774 32.2778 46.8996C31.9718 46.0218 31.3115 44.9045 30.1843 44.8886C29.7287 44.939 29.2675 44.8925 28.8314 44.7522C28.3954 44.6118 27.9947 44.3808 27.656 44.0746C26.7863 43.3085 26.061 42.3952 25.5142 41.3773C25.2082 40.5952 25.5142 40.7868 25.5142 39.9409C25.5142 39.095 24.709 38.8556 25.6913 38.1852C26.6737 37.5149 26.8186 36.4615 27.8814 36.8446C28.9443 37.2276 29.3147 36.8446 30.3292 37.2755C31.3437 37.7064 31.6336 37.4191 31.8108 38.5044C31.9879 39.5897 31.5692 39.7493 31.8108 40.8187C32.0447 41.4523 32.2015 42.1113 32.2778 42.7818C32.4388 44.1225 32.1811 44.3778 32.4066 44.9684C32.632 45.5589 32.7448 46.5644 33.1474 46.74C34.04 47.0053 34.957 47.1818 35.885 47.2667C36.5774 47.2667 37.4954 46.8996 37.4954 47.2667C37.4954 47.6338 37.1411 47.7934 37.1411 47.7934C34.7926 47.9619 32.4319 47.7845 30.136 47.2667Z" fill="#6A7E0F"/>
<path fill-rule="evenodd" clip-rule="evenodd" d="M29.2984 47.458C29.0246 47.458 28.8797 47.6655 28.7831 48.3517C28.7376 49.1407 28.5294 49.9121 28.1711 50.6181C27.688 51.7513 27.3821 52.4216 26.3514 52.2142C25.3208 52.0067 25.7878 51.4481 25.2564 51.3683C24.7249 51.2885 24.5961 50.7139 24.1291 51.3683C23.6712 51.9319 23.128 52.4218 22.5187 52.8206C21.7458 53.4112 21.1821 53.8262 20.538 53.5069C19.8938 53.1877 20.0871 52.5653 19.2658 51.3204C18.4445 50.0755 18.3479 50.2191 18.7183 49.3094C18.3801 50.2989 18.7183 50.3787 19.6362 50.9054C20.5541 51.4321 20.5058 51.6396 21.0694 51.8949C21.633 52.1503 22.1322 51.5917 22.8086 50.6181C23.485 49.6445 24.0003 49.9318 24.6122 49.7563C25.2242 49.5807 25.3369 49.7563 25.7395 49.9159C26.1421 50.0755 26.287 50.0116 26.9956 49.9159C27.7041 49.8201 27.4626 49.6765 27.8007 49.07C27.9953 48.6737 28.1413 48.2557 28.2355 47.8251C28.4288 47.2984 29.2179 47.4899 29.2179 47.4899L29.2984 47.458Z" fill="#60710C"/>
<path fill-rule="evenodd" clip-rule="evenodd" d="M21.0856 47.4902C21.4001 47.1669 21.7577 46.8876 22.1485 46.6602C22.45 46.4222 22.8061 46.2613 23.1852 46.1917C23.5643 46.1221 23.9549 46.146 24.3225 46.2612C25.5302 46.5645 26.6575 47.4583 26.9635 46.9635C27.2694 46.4687 26.3837 45.6388 25.643 45.3675C24.9022 45.0961 24.6123 44.6492 23.7266 44.8886C22.8409 45.128 21.9874 45.3036 21.4721 44.8886C20.9568 44.4737 21.1983 44.0587 20.6669 44.1066C20.1355 44.1545 20.1838 43.6437 19.1693 43.7235C18.1547 43.8033 18.1064 43.7235 17.736 42.8617C17.5326 42.468 17.4094 42.0384 17.3735 41.5975C17.3375 41.1566 17.3896 40.713 17.5267 40.2921C18.5573 40.0846 20.7474 41.2178 21.3916 41.3774C21.8958 41.5699 22.3523 41.8677 22.7302 42.2505C23.1081 42.6332 23.3985 43.0921 23.5817 43.5959C24.2097 44.9046 24.5157 44.0427 25.1921 44.4418C25.9967 44.9627 26.6557 45.6763 27.1084 46.5166C27.3499 47.1071 26.8346 47.2348 26.2871 47.7615C25.7396 48.2882 25.3853 47.8732 24.7895 47.9211C24.1936 47.969 24.0165 47.7615 23.5495 47.4742C23.2004 47.1612 22.748 46.9853 22.2773 46.9795C21.8407 47.0395 21.4288 47.216 21.0856 47.4902Z" fill="#60710C"/>
<path fill-rule="evenodd" clip-rule="evenodd" d="M32.1649 46.5644C32.0222 46.145 31.7642 45.7734 31.4199 45.4915C31.0757 45.2095 30.6589 45.0283 30.2164 44.9684C29.7497 45.0131 29.2788 44.9563 28.8365 44.8019C28.3942 44.6475 27.9913 44.3993 27.6559 44.0746C26.7862 43.3085 26.061 42.3952 25.5141 41.3773C25.2082 40.5952 25.5141 40.7868 25.5141 39.9409C25.5141 39.095 24.7089 38.8556 25.6913 38.1852C26.6736 37.5149 26.8185 36.4615 27.8814 36.8446C28.5009 37.0113 29.1397 37.0971 29.7816 37.0999C29.6528 37.3234 28.8959 37.1957 28.3806 37.3234C27.8653 37.451 27.3177 38.4885 27.6237 38.5842C28.2671 39.3735 28.7733 40.2635 29.1214 41.2177C29.3644 41.9302 29.8261 42.5497 30.4419 42.9893C31.0089 43.5428 31.415 44.2374 31.6174 45.0003C31.7463 45.4153 31.9878 46.0696 32.1649 46.5644Z" fill="#60710C"/>
<path fill-rule="evenodd" clip-rule="evenodd" d="M27.0278 48.5912C26.4963 48.9743 26.2709 49.3094 25.5301 49.1818C24.7893 49.0541 24.8537 48.6551 24.2579 49.086C23.6621 49.5169 23.7909 49.2775 23.3561 49.6765C23.0212 50.0647 22.5875 50.3568 22.1 50.5224C21.5525 50.682 21.4398 50.8736 20.8439 50.6501C20.2481 50.4267 20.0226 50.4107 19.9904 49.8361C19.9582 49.2616 20.8922 48.703 21.3592 48.0805C21.8263 47.458 22.0678 47.1548 22.6959 47.5538C23.3239 47.9528 22.9213 48.4316 23.6782 48.3518C24.4351 48.272 24.3223 48.1284 24.9504 48.3518C25.5784 48.5753 26.593 48.8626 27.0278 48.5912Z" fill="#748B11"/>
<path fill-rule="evenodd" clip-rule="evenodd" d="M24.3545 43.388C23.8808 42.5731 23.2453 41.8619 22.4865 41.2972C22.0606 41.0411 21.5996 40.8476 21.1177 40.7227C20.6346 40.7227 20.0387 40.18 19.5073 40.0523C18.9759 39.9246 18.8148 39.8289 18.9276 39.5895C19.0403 39.3501 19.5556 39.4139 20.7151 39.5895C21.8745 39.765 22.3254 39.7331 22.4543 39.4458C22.5831 39.1585 22.7441 38.6638 22.9052 39.1745C22.9752 39.8133 23.1435 40.4377 23.4044 41.0259C23.8392 41.8878 24.8698 43.7392 24.3545 43.388Z" fill="#748B11"/>
<path fill-rule="evenodd" clip-rule="evenodd" d="M31.3758 43.6275C31.1282 42.8637 30.6776 42.1801 30.0714 41.6484C29.2824 40.9142 29.3629 41.1696 29.1213 40.3556C28.8798 39.5416 28.6543 39.0149 28.5416 38.6C28.4289 38.185 28.5416 37.9296 28.9603 37.8817C29.379 37.8339 29.9909 38.2808 30.5706 38.4084C31.1504 38.5361 31.1665 38.2808 31.247 38.9511C31.3275 39.6214 31.247 39.6693 31.3436 40.5471C31.5231 41.1547 31.663 41.7731 31.7623 42.3985C31.8106 43.2285 31.7945 44.4095 31.3758 43.6275Z" fill="#748B11"/>
<path fill-rule="evenodd" clip-rule="evenodd" d="M18.8792 44.7607C18.4052 44.9873 18.015 45.3557 17.7637 45.8139C17.5123 46.2721 17.4124 46.7969 17.4782 47.3144C17.4782 49.3094 20.6989 51.2885 25.7394 51.4321C29.7551 51.6827 33.7757 51.0222 37.4951 49.5009C38.2211 49.1836 38.8178 48.6328 39.1889 47.9377C39.5601 47.2427 39.6838 46.4439 39.5403 45.6705C39.347 45.2395 18.8792 44.7607 18.8792 44.7607Z" fill="#932906"/>
<path fill-rule="evenodd" clip-rule="evenodd" d="M25.3208 42.9413C26.9312 42.9413 39.6048 42.0635 39.6692 46.293C39.7336 50.5225 24.6123 51.3205 20.6508 49.7245C16.6893 48.1284 15.5137 43.883 25.3208 42.9413Z" fill="#E76D41"/>
<path fill-rule="evenodd" clip-rule="evenodd" d="M32.9218 43.4838C34.4467 43.5255 35.9608 43.7506 37.4309 44.1541C39.1379 44.7606 40.0236 46.6759 38.1555 47.3462C36.2875 48.0165 37.5919 46.0694 36.8833 45.7502C36.1748 45.431 33.566 45.9576 32.7125 45.3033C31.859 44.6489 31.9878 43.5476 32.9218 43.4838Z" fill="#D7643A"/>
<path fill-rule="evenodd" clip-rule="evenodd" d="M31.553 43.6274C32.4065 44.3456 28.3323 44.585 28.7832 45.6065C29.2341 46.628 35.6111 46.2609 35.3535 47.4419C35.0958 48.623 29.2824 49.038 25.7879 48.7986C22.2934 48.5592 19.5074 46.6918 20.6991 45.4469C22.6315 43.388 30.1198 42.4783 31.553 43.6274Z" fill="#EC774B"/>
<path fill-rule="evenodd" clip-rule="evenodd" d="M25.3209 42.9414H26.6737C24.8217 43.0372 20.828 43.4362 19.9101 45.2876C18.6862 47.7135 20.6348 49.3734 28.3001 49.3575C35.9655 49.3415 39.6532 48.4158 39.5727 45.8302C39.6242 45.9958 39.6513 46.1678 39.6532 46.341C39.6532 50.5705 24.5319 51.3685 20.6348 49.7724C16.7377 48.1764 15.5138 43.8831 25.3209 42.9414Z" fill="#DA6238"/>
<path fill-rule="evenodd" clip-rule="evenodd" d="M22.8249 44.1864C22.9215 44.1864 23.6784 44.1864 23.6945 44.3779C23.7106 44.5694 22.7766 44.6811 22.535 44.5854C22.2935 44.4896 22.2291 44.2343 22.8249 44.1864Z" fill="#F08764"/>
<path fill-rule="evenodd" clip-rule="evenodd" d="M21.6655 45.9098C21.8265 45.9098 23.0504 45.9098 23.0504 46.245C23.0504 46.5802 21.601 46.7238 21.2146 46.5802C20.8281 46.4365 20.7153 46.0056 21.6655 45.9098Z" fill="#F08764"/>
<path fill-rule="evenodd" clip-rule="evenodd" d="M25.8362 44.8566C25.8362 44.8566 26.4481 44.8566 26.4481 45.0002C26.4481 45.1439 25.804 45.2237 25.6429 45.1438C25.4819 45.064 25.4175 44.9044 25.8362 44.8566Z" fill="#F08764"/>
<path fill-rule="evenodd" clip-rule="evenodd" d="M29.9749 45.0798C30.0715 45.0798 30.8284 45.0798 30.8445 45.2873C30.8606 45.4948 29.9266 45.5906 29.685 45.4948C29.4435 45.399 29.4435 45.1437 29.9749 45.0798Z" fill="#F08764"/>
<path fill-rule="evenodd" clip-rule="evenodd" d="M33.9041 43.9308C34.049 43.9308 35.289 43.9308 35.289 44.2659C35.289 44.6011 33.8236 44.7447 33.4532 44.5851C33.0828 44.4255 32.954 44.0744 33.9041 43.9308Z" fill="#F08764"/>
<path fill-rule="evenodd" clip-rule="evenodd" d="M26.6736 46.9155C26.6736 46.9155 27.4305 46.9155 27.4305 47.0911C27.4305 47.2666 26.6414 47.3624 26.4321 47.2826C26.2227 47.2028 26.2227 46.9634 26.6736 46.9155Z" fill="#F08764"/>
<path fill-rule="evenodd" clip-rule="evenodd" d="M34.6932 46.0057C34.6932 46.0057 35.1763 46.0057 35.1763 46.1334C35.1763 46.261 34.661 46.293 34.5322 46.2451C34.4033 46.1972 34.355 46.0536 34.6932 46.0057Z" fill="#F08764"/>
<path fill-rule="evenodd" clip-rule="evenodd" d="M30.9411 47.7295C31.0538 47.7295 32.0522 47.7295 32.0522 48.0008C32.0522 48.2721 30.8767 48.3839 30.5707 48.2562C30.2647 48.1285 30.1681 47.8093 30.9411 47.7295Z" fill="#F08764"/>
<path fill-rule="evenodd" clip-rule="evenodd" d="M72.0216 28.4015C71.1037 28.194 71.0714 27.6833 70.2985 28.5931C69.834 29.2308 69.2487 29.7728 68.5754 30.1891C67.5447 30.8913 66.965 31.2904 66.1598 30.5881C65.3546 29.8858 66.1598 29.6305 65.7089 29.2793C65.258 28.9282 65.4835 28.3856 64.791 28.625C64.1236 28.8662 63.4232 29.0061 62.7136 29.0399C61.7313 29.1357 61.1033 29.1836 60.6685 28.5931C60.2337 28.0025 60.7973 27.5397 60.7651 26.0554C60.7329 24.571 60.5718 24.6349 61.3931 24.0603C62.2144 23.4857 62.456 23.789 63.3256 23.8528C64.1952 23.9167 64.8071 23.5815 65.5801 23.6613C65.9672 23.617 66.3594 23.6682 66.7217 23.8102C67.0841 23.9522 67.4055 24.1806 67.6575 24.4753C68.511 25.3691 68.978 26.7097 69.4933 26.4544C70.0086 26.199 69.7348 25.0339 69.2034 24.4753C68.672 23.9167 68.7203 23.3261 67.8346 23.0548C66.9489 22.7835 66.2242 22.4962 65.9666 21.8099C65.7089 21.1236 66.1759 20.964 65.6928 20.7246C65.2097 20.4852 65.5318 20.0862 64.6461 19.6233C63.7604 19.1605 63.7765 19.0009 63.8892 18.1231C63.9265 17.6454 64.0718 17.1822 64.3143 16.7677C64.5568 16.3533 64.8904 15.9983 65.2902 15.729C66.1276 15.3619 67.3515 15.0267 67.8507 15.729C68.3499 16.4313 68.5432 17.0856 69.3161 16.958C70.0891 16.8303 71.1681 16.6068 71.2647 16.958C71.3613 17.3091 70.685 18.0752 70.3307 19.336C70.0251 20.1603 70.0251 21.0654 70.3307 21.8897C70.5722 22.991 70.4273 23.4857 70.5883 24.6668C70.7494 25.8479 70.4112 26.1352 71.2003 27.013C71.7878 27.6847 72.4588 28.2799 73.1971 28.7846C73.7608 29.1836 73.8574 30.237 74.0667 29.3432C74.2421 28.8542 74.2669 28.3245 74.1379 27.8215C74.0088 27.3185 73.7318 26.8648 73.3421 26.5182C72.9229 26.3155 72.5532 26.025 72.2585 25.6667C71.9638 25.3085 71.7511 24.8911 71.6351 24.4434C71.325 23.3109 71.216 22.1335 71.313 20.964C71.474 20.1341 71.6512 20.4692 72.0216 19.7191C72.392 18.969 72.0216 18.3784 73.1166 18.3146C74.2117 18.2507 75.0007 17.4527 75.6932 18.3146C76.3857 19.1764 76.901 19.0647 77.5451 19.9106C78.1893 20.7565 78.5758 20.7246 78.1249 21.7461C77.674 22.7675 77.2553 22.6558 76.9171 23.7092C76.7721 24.3707 76.5506 25.0133 76.2568 25.6244C75.6771 26.8534 75.355 26.8534 75.194 27.5397C75.033 28.226 74.582 29.1357 74.8719 29.423C75.4666 30.1152 76.1302 30.7461 76.8527 31.3063C77.4485 31.6574 78.3664 31.833 78.2537 32.1363C78.141 32.4395 77.674 32.4076 77.674 32.4076C75.6008 31.3559 73.696 30.0059 72.0216 28.4015Z" fill="#6A7E0F"/>
<path fill-rule="evenodd" clip-rule="evenodd" d="M71.2164 28.1141C70.9587 28.0183 70.7494 28.1141 70.2985 28.5929C69.834 29.2306 69.2487 29.7727 68.5754 30.1889C67.5447 30.8912 66.965 31.2902 66.1598 30.5879C65.3546 29.8857 66.1598 29.6303 65.7089 29.2792C65.258 28.9281 65.4835 28.3854 64.791 28.6248C64.1236 28.866 63.4232 29.0059 62.7136 29.0398C61.7313 29.1355 61.1033 29.1834 60.6685 28.5929C60.2337 28.0024 60.7973 27.5395 60.7651 26.0552C60.7329 24.5709 60.5718 24.6347 61.3931 24.0602C60.5557 24.7145 60.7329 24.922 61.2643 25.9435C61.7957 26.9649 61.6025 27.0447 61.9568 27.5395C62.311 28.0343 63.0035 27.8268 64.1146 27.3639C65.2258 26.9011 65.4835 27.3639 66.0954 27.6034C66.7073 27.8428 66.7073 27.9864 66.965 28.3216C67.2227 28.6567 67.3837 28.7046 68.0278 28.96C68.672 29.2153 68.5593 28.96 69.1712 28.6887C69.7831 28.4173 69.7509 28.1939 70.2018 27.8587C70.6527 27.5235 71.2164 28.0981 71.2164 28.0981V28.1141Z" fill="#60710C"/>
<path fill-rule="evenodd" clip-rule="evenodd" d="M64.2436 23.789C64.6859 23.682 65.1415 23.639 65.5963 23.6613C65.9809 23.6183 66.3703 23.6701 66.7299 23.8121C67.0895 23.9541 67.4081 24.1819 67.6576 24.4753C68.5111 25.3691 68.9781 26.7097 69.4934 26.4544C70.0087 26.199 69.7349 25.0339 69.2035 24.4753C68.6721 23.9167 68.7204 23.3261 67.8347 23.0548C66.949 22.7835 66.2243 22.4962 65.9667 21.8099C65.709 21.1236 66.176 20.964 65.6929 20.7246C65.2098 20.4852 65.5319 20.0862 64.6462 19.6233C63.7605 19.1605 63.7766 19.0009 63.8893 18.1231C63.9723 17.2342 64.4065 16.4138 65.0971 15.8407C66.0794 16.2078 67.3516 18.3465 67.7864 18.8094C68.1108 19.2345 68.3379 19.7246 68.452 20.2455C68.566 20.7664 68.5642 21.3057 68.4466 21.8259C68.2695 23.2783 68.9942 22.7037 69.3968 23.4219C69.8008 24.2898 69.9728 25.2462 69.896 26.199C69.7833 26.8055 69.3001 26.6618 68.5272 26.8215C67.7542 26.9811 67.722 26.4224 67.1906 26.1671C66.6591 25.9117 66.6108 25.6244 66.3854 25.1297C66.1599 24.6349 66.176 24.4434 65.5641 24.0444C65.1569 23.8378 64.6992 23.7493 64.2436 23.789Z" fill="#60710C"/>
<path fill-rule="evenodd" clip-rule="evenodd" d="M74.1152 28.8643C74.219 28.4406 74.2017 27.9967 74.0651 27.5823C73.9286 27.1679 73.6783 26.7994 73.3422 26.5181C72.9231 26.3154 72.5534 26.0248 72.2586 25.6666C71.9639 25.3084 71.7512 24.891 71.6352 24.4433C71.3251 23.3107 71.2161 22.1334 71.3131 20.9639C71.4742 20.134 71.6513 20.4691 72.0217 19.719C72.3921 18.9688 72.0217 18.3783 73.1168 18.3145C74.2118 18.2506 75.0009 17.4526 75.6933 18.3145C76.3858 19.1763 76.6918 19.0806 77.1749 19.5275C76.9333 19.6392 76.3697 19.1444 75.8705 18.9688C75.3713 18.7933 74.2601 19.3998 74.55 19.6392C74.6591 20.6514 74.6102 21.6742 74.405 22.6717C74.2009 23.4158 74.2461 24.2056 74.5339 24.9221C74.7366 25.6858 74.7366 26.4885 74.5339 27.2523C74.3889 27.6672 74.244 28.3535 74.1152 28.8643Z" fill="#60710C"/>
<path fill-rule="evenodd" clip-rule="evenodd" d="M68.688 27.8749C68.0278 27.8749 67.6735 28.0664 67.0777 27.5717C66.4818 27.0769 66.8039 26.7736 66.0631 26.8215C65.3224 26.8694 65.5639 26.7258 64.9842 26.8215C64.4887 26.956 63.9659 26.956 63.4704 26.8215C62.9068 26.6779 62.7136 26.8215 62.3271 26.2629C61.9406 25.7043 61.7796 25.6245 62.0533 25.1297C62.3271 24.635 63.4221 24.635 64.1468 24.3636C64.8715 24.0923 65.2418 23.9487 65.5639 24.619C65.886 25.2893 65.2741 25.4809 65.9665 25.816C66.659 26.1512 66.6429 25.9756 67.0455 26.4704C67.4481 26.9652 68.0922 27.9228 68.688 27.8749Z" fill="#748B11"/>
<path fill-rule="evenodd" clip-rule="evenodd" d="M69.2195 22.0493C69.2482 21.1141 69.0952 20.1821 68.7686 19.3041C68.5457 18.8517 68.2522 18.437 67.899 18.0752C67.5286 17.8039 67.287 17.0537 66.9006 16.6707C66.5141 16.2876 66.4496 16.1121 66.659 15.9844C66.8683 15.8567 67.3031 16.16 68.1727 16.9101C69.0423 17.6602 69.4127 17.8358 69.7831 17.7241C70.1535 17.6123 70.4434 17.1974 70.2984 17.7241C70.0153 18.3001 69.8147 18.9125 69.7026 19.5436C69.5899 20.5012 69.461 22.6079 69.2195 22.0493Z" fill="#748B11"/>
<path fill-rule="evenodd" clip-rule="evenodd" d="M75.0329 25.9593C75.2496 25.1812 75.2496 24.3594 75.0329 23.5812C74.743 22.5598 74.6786 22.8151 74.9201 21.9852C75.1617 21.1552 75.2422 20.5966 75.371 20.1817C75.4999 19.7667 75.7092 19.6071 76.1118 19.7986C76.5144 19.9901 76.7721 20.6924 77.1586 21.0914C77.545 21.4904 77.7383 21.2829 77.4484 21.8894C77.1716 22.3387 76.9189 22.8022 76.6915 23.278C76.5153 23.8868 76.3002 24.4838 76.0474 25.0655C75.6126 25.8635 74.9846 26.8371 75.0329 25.9593Z" fill="#748B11"/>
<path fill-rule="evenodd" clip-rule="evenodd" d="M83.1011 34.9293C82.7137 35.43 82.5299 36.0564 82.5858 36.6849C82.7468 37.6106 82.4247 39.5578 86.3218 39.9568C90.2189 40.3558 91.475 38.6959 91.7649 37.5468C91.9483 36.8184 91.9483 36.0566 91.7649 35.3283L83.1011 34.9293Z" fill="#691700"/>
<path fill-rule="evenodd" clip-rule="evenodd" d="M87.304 38.2807C89.8162 38.2807 91.8775 37.2114 91.8775 35.8867C91.8775 34.562 89.8162 33.5086 87.304 33.5086C84.7919 33.5086 82.7145 34.5779 82.7145 35.8867C82.7145 37.1954 84.7757 38.2807 87.304 38.2807Z" fill="#932906"/>
<path fill-rule="evenodd" clip-rule="evenodd" d="M90.6374 34.2269C90.9759 34.3578 91.2742 34.5738 91.5029 34.8537C91.7316 35.1335 91.8828 35.4675 91.9418 35.8229C91.9418 37.1476 89.8966 38.2169 87.3684 38.2169C84.8401 38.2169 82.7788 37.1476 82.7788 35.8229C82.7788 34.7855 84.051 33.9076 85.8224 33.5884C85.4451 33.646 85.0835 33.779 84.7597 33.9793C84.4358 34.1796 84.1563 34.443 83.9383 34.7535C83.1009 36.1581 84.2281 37.6424 87.159 37.5945C90.0899 37.5466 91.5392 36.6369 91.4587 35.6314C91.4487 35.3484 91.3686 35.0722 91.2253 34.8273C91.0821 34.5823 90.8802 34.3761 90.6374 34.2269Z" fill="#802000"/>
<path fill-rule="evenodd" clip-rule="evenodd" d="M86.8692 33.9076C85.8868 34.0353 84.2442 34.7694 84.3409 35.8069C84.4375 36.8443 87.2073 37.5625 88.093 37.0518C88.9787 36.541 87.5294 36.2697 87.4167 35.4557C87.304 34.6418 89.1237 33.9555 86.8692 33.9076Z" fill="#A3351A"/>
<path fill-rule="evenodd" clip-rule="evenodd" d="M54.9196 11.1641C54.5322 11.6648 54.3484 12.2912 54.4042 12.9197C54.5653 13.8454 54.2432 15.7926 58.1242 16.1916C62.0052 16.5906 63.2613 14.9307 63.5833 13.7496C63.7675 13.016 63.7675 12.2488 63.5833 11.5152L54.9196 11.1641Z" fill="#691700"/>
<path fill-rule="evenodd" clip-rule="evenodd" d="M59.1065 14.5159C61.6348 14.5159 63.6961 13.4466 63.6961 12.1219C63.6961 10.7971 61.6509 9.74376 59.1065 9.74376C56.5621 9.74376 54.5331 10.8131 54.5331 12.1219C54.5331 13.4306 56.5943 14.5159 59.1065 14.5159Z" fill="#932906"/>
<path fill-rule="evenodd" clip-rule="evenodd" d="M62.3917 10.4621C62.7302 10.593 63.0284 10.809 63.2571 11.0889C63.4858 11.3687 63.6371 11.7027 63.6961 12.0581C63.6961 13.3828 61.6509 14.4521 59.1065 14.4521C56.5621 14.4521 54.5331 13.3828 54.5331 12.0581C54.5331 11.0207 55.8053 10.1428 57.5767 9.82364C57.1985 9.8785 56.8359 10.0103 56.5116 10.2108C56.1874 10.4114 55.9085 10.6762 55.6925 10.9887C54.8552 12.3933 55.9824 13.8776 58.9133 13.8297C61.8442 13.7818 63.2935 12.8721 63.1969 11.8666C63.19 11.5848 63.1129 11.3091 62.9724 11.064C62.8319 10.8189 62.6324 10.6121 62.3917 10.4621Z" fill="#802000"/>
<path fill-rule="evenodd" clip-rule="evenodd" d="M58.6878 10.1428C57.7054 10.2705 56.0629 11.0046 56.1595 12.0421C56.2561 13.0795 59.0098 13.7977 59.8955 13.287C60.7812 12.7762 59.348 12.5049 59.2353 11.6909C59.1226 10.877 60.9262 10.1907 58.6878 10.1428Z" fill="#A3351A"/>
<path fill-rule="evenodd" clip-rule="evenodd" d="M36.2552 55.6937C35.8654 56.1993 35.6815 56.8316 35.7399 57.4653C35.9009 58.391 35.5788 60.3222 39.4759 60.6574C43.373 60.9926 44.6291 59.3965 44.9351 58.2633C45.1103 57.534 45.1103 56.7742 44.9351 56.0449L36.2552 55.6937Z" fill="#691700"/>
<path fill-rule="evenodd" clip-rule="evenodd" d="M40.4585 59.0452C42.9867 59.0452 45.0319 57.9758 45.0319 56.6671C45.0319 55.3583 42.9867 54.273 40.4585 54.273C37.9302 54.273 35.885 55.3424 35.885 56.6671C35.885 57.9918 37.9302 59.0452 40.4585 59.0452Z" fill="#932906"/>
<path fill-rule="evenodd" clip-rule="evenodd" d="M43.7275 54.9914C44.0678 55.1195 44.3677 55.3348 44.5968 55.6151C44.8259 55.8954 44.976 56.2309 45.0319 56.5874C45.0319 57.8961 42.9867 58.9655 40.4585 58.9655C37.9302 58.9655 35.885 57.9759 35.885 56.6672C35.885 55.6298 37.1572 54.7519 38.9286 54.4168C38.5539 54.4755 38.1951 54.6091 37.874 54.8094C37.5529 55.0096 37.2761 55.2725 37.0606 55.5819C36.2232 56.9864 37.3343 58.4867 40.2813 58.4388C43.2283 58.3909 44.6615 57.4652 44.581 56.4597C44.5832 56.1619 44.5053 55.8688 44.3553 55.6107C44.2053 55.3526 43.9886 55.1389 43.7275 54.9914Z" fill="#802000"/>
<path fill-rule="evenodd" clip-rule="evenodd" d="M40.0233 54.672C39.041 54.7997 37.3984 55.5339 37.495 56.5873C37.5917 57.6407 40.3615 58.3429 41.2472 57.8162C42.1329 57.2895 40.6836 57.0342 40.587 56.2202C40.4903 55.4062 42.3262 54.7199 40.0233 54.672Z" fill="#A3351A"/>
<path fill-rule="evenodd" clip-rule="evenodd" d="M12.8404 33.5246C12.4506 34.0302 12.2667 34.6625 12.3251 35.2962C12.4861 36.2219 12.164 38.1531 16.0611 38.4882C19.9582 38.8234 21.2143 37.2274 21.5042 36.0942C21.6889 35.366 21.6889 34.6039 21.5042 33.8757L12.8404 33.5246Z" fill="#691700"/>
<path fill-rule="evenodd" clip-rule="evenodd" d="M17.0435 36.8764C19.5557 36.8764 21.617 35.8071 21.617 34.4983C21.617 33.1896 19.5557 32.1042 17.0435 32.1042C14.5314 32.1042 12.454 33.1736 12.454 34.4983C12.454 35.823 14.5153 36.8764 17.0435 36.8764Z" fill="#932906"/>
<path fill-rule="evenodd" clip-rule="evenodd" d="M20.3126 32.9024C20.6511 33.0334 20.9493 33.2494 21.178 33.5293C21.4067 33.8091 21.558 34.1431 21.617 34.4985C21.617 35.8072 19.5718 36.8766 17.0274 36.8766C14.483 36.8766 12.454 35.8072 12.454 34.4985C12.454 33.461 13.7262 32.5673 15.4976 32.248C15.1211 32.3083 14.7606 32.4423 14.437 32.6424C14.1135 32.8425 13.8335 33.1045 13.6134 33.4132C12.776 34.8177 13.9033 36.3179 16.8342 36.2701C19.7651 36.2222 21.2144 35.2965 21.1339 34.291C21.1186 34.0114 21.0361 33.7395 20.8932 33.4979C20.7504 33.2564 20.5513 33.0522 20.3126 32.9024Z" fill="#802000"/>
<path fill-rule="evenodd" clip-rule="evenodd" d="M16.5606 32.5033C15.5782 32.6309 13.9357 33.3651 14.0323 34.4185C14.1289 35.4719 16.8987 36.1741 17.7844 35.6475C18.6701 35.1208 17.2208 34.8654 17.1081 34.0514C16.9954 33.2374 18.8473 32.5511 16.5606 32.5033Z" fill="#A3351A"/>
<path fill-rule="evenodd" clip-rule="evenodd" d="M112.345 23.6454C117.176 27.444 122.539 30.2849 120.751 34.1633C118.964 38.0417 119.141 40.707 118.384 43.7395C117.627 46.772 120.268 50.5227 113.408 50.9376C106.548 51.3526 104.519 45.6707 99.8005 45.559C95.0822 45.4473 90.6375 47.4902 89.7679 43.6916C88.8983 39.8931 93.4396 38.6003 97.8198 35.2007C102.2 31.8012 106.564 34.4506 103.778 28.5612C100.992 22.6718 104.938 17.5166 97.2239 16.1281C75.8543 12.2497 97.079 11.8188 112.345 23.6454Z" fill="#F7AB00"/>
<path fill-rule="evenodd" clip-rule="evenodd" d="M112.345 23.6451C117.176 27.4437 122.539 30.2846 120.751 34.163C118.964 38.0413 119.141 40.7067 118.384 43.7392C117.627 46.7716 120.268 50.5223 113.408 50.9373C107.611 51.2725 105.259 47.2026 101.797 45.9098C104.012 45.7701 106.189 45.2685 108.239 44.4255C113.778 42.0314 112.313 41.9197 111.83 38.7755C111.347 35.6313 109.334 35.2163 109.752 33.2213C110.171 31.2263 116.065 31.2582 115.244 27.699C114.906 26.1828 112.828 24.1718 110.558 22.3523L112.265 23.6132L112.345 23.6451ZM97.0788 45.6704C93.4394 46.0215 90.3958 46.7397 89.7355 43.6753C88.9947 40.2279 92.6181 38.8872 96.5152 36.0942C100.251 35.8069 94.3412 38.7915 93.7775 42.6698C93.5682 44.2339 94.9853 45.2235 97.0788 45.6704Z" fill="#F39600"/>
<path fill-rule="evenodd" clip-rule="evenodd" d="M100.445 36.2857C99.379 35.8841 98.4046 35.2764 97.5782 34.4982C97.0029 33.4617 96.6674 32.3114 96.5958 31.1305C97.9987 30.4811 99.3046 29.6433 100.477 28.6407C100.928 27.8587 98.4639 25.0177 99.5589 23.3419C102.103 19.4795 107.611 22.0172 110.139 26.0871C112.345 29.7101 111.862 34.6737 108.335 35.6633C106.725 36.1102 105.115 33.8757 103.842 34.1949C102.615 34.7278 101.471 35.4319 100.445 36.2857Z" fill="#7F4307"/>
<path fill-rule="evenodd" clip-rule="evenodd" d="M97.079 31.4657C97.079 31.4657 100.3 30.5719 101.073 29.327C101.846 28.0821 101.395 28.0821 100.976 26.5818C100.727 25.9061 100.682 25.1728 100.848 24.4723C101.014 23.7718 101.383 23.1347 101.91 22.6396C103.005 21.7618 107.627 22.6396 109.753 26.0392C111.878 29.4387 110.558 33.1096 109.028 34.0194C107.498 34.9291 105.598 32.5989 103.681 33.4288C101.765 34.2588 100.928 35.7431 99.559 35.0249C98.1901 34.3067 97.6909 35.2164 97.079 31.4657Z" fill="#6C3300"/>
<path fill-rule="evenodd" clip-rule="evenodd" d="M103.054 24.3637C104.084 23.9966 105.453 25.034 106.355 25.2574C107.257 25.4809 107.756 25.5766 108.239 26.6141C108.722 27.6515 109.06 28.0186 108.77 28.7687C108.48 29.5188 107.047 29.2794 106.564 28.9124C106.081 28.5453 105.324 27.1727 104.632 28.0186C104.212 28.4726 103.908 29.02 103.746 29.6146C103.44 30.3328 103.649 30.3807 102.812 31.0032C102.307 31.4453 101.706 31.7674 101.057 31.9448C100.38 32.1204 100.67 33.2376 99.6235 32.8226C98.5767 32.4077 98.2224 32.28 98.931 31.8012C99.6396 31.3224 100.654 31.2266 101.266 30.2051C101.878 29.1837 102.409 29.1837 102.103 28.1941C101.797 27.2046 101.347 27.0131 101.685 26.0874C102.023 25.1617 102.055 24.2839 103.054 24.3637Z" fill="#5A2A00"/>
<path fill-rule="evenodd" clip-rule="evenodd" d="M103.617 31.3861C103.955 32.0884 104.39 32.5512 104.084 32.6629C103.778 32.7747 102.812 33.7482 101.974 34.1472C101.137 34.5463 101.491 34.7857 100.686 34.5463C100.165 34.3355 99.626 34.17 99.0758 34.0515C98.4317 33.9238 98.0774 33.6525 98.1257 33.2375C98.174 32.8225 99.4784 33.6844 100.155 33.3812C100.831 33.0779 100.831 32.9183 101.363 32.3916C101.894 31.8649 101.797 31.817 102.248 31.6734C102.699 31.5298 103.617 31.3861 103.617 31.3861Z" fill="#4A2100"/>
<path fill-rule="evenodd" clip-rule="evenodd" d="M113.778 35.7912C113.391 36.2919 113.207 36.9183 113.263 37.5468C113.424 38.4725 113.102 40.4197 116.999 40.8187C120.896 41.2177 122.152 39.5578 122.458 38.4247C122.633 37.6899 122.633 36.9249 122.458 36.1902L113.778 35.7912Z" fill="#691700"/>
<path fill-rule="evenodd" clip-rule="evenodd" d="M118.014 39.1426C120.542 39.1426 122.603 38.0733 122.603 36.7486C122.603 35.4239 120.542 34.3705 118.014 34.3705C115.485 34.3705 113.424 35.4398 113.424 36.7486C113.424 38.0573 115.453 39.1426 118.014 39.1426Z" fill="#932906"/>
<path fill-rule="evenodd" clip-rule="evenodd" d="M121.234 35.0888C121.573 35.2198 121.871 35.4358 122.1 35.7156C122.328 35.9955 122.48 36.3295 122.539 36.6848C122.539 38.0095 120.477 39.0789 117.949 39.0789C115.421 39.0789 113.36 38.0095 113.36 36.6848C113.36 35.6474 114.632 34.7696 116.403 34.4504C116.027 34.5055 115.667 34.6375 115.345 34.8381C115.024 35.0387 114.748 35.3034 114.535 35.6155C113.698 37.02 114.809 38.5043 117.756 38.4564C120.703 38.4085 122.136 37.4988 122.056 36.4933C122.047 36.21 121.968 35.9333 121.824 35.6881C121.681 35.443 121.478 35.237 121.234 35.0888Z" fill="#802000"/>
<path fill-rule="evenodd" clip-rule="evenodd" d="M117.547 34.7695C116.565 34.8972 114.922 35.6314 115.019 36.6688C115.115 37.7062 117.885 38.4244 118.771 37.9137C119.656 37.403 118.223 37.1316 118.111 36.3177C117.998 35.5037 119.801 34.8174 117.547 34.7695Z" fill="#A3351A"/>
<path fill-rule="evenodd" clip-rule="evenodd" d="M98.4799 49.4851C98.963 48.6871 99.4461 48.8148 98.8341 47.7933C98.3533 47.1618 98.008 46.4394 97.8196 45.6706C97.4492 44.5055 97.256 43.7873 98.1739 43.2925C99.0918 42.7977 99.1079 43.516 99.5588 43.2925C100.01 43.0691 100.493 43.3723 100.477 42.6381C100.45 41.9341 100.526 41.23 100.702 40.5473C100.928 39.6057 101.073 38.9513 101.765 38.7598C102.457 38.5682 102.731 39.1907 104.181 39.6216C105.63 40.0526 105.598 39.877 105.888 40.8187C106.177 41.7603 105.888 41.9199 105.517 42.7179C105.147 43.516 105.308 44.2023 105.002 44.9045C104.696 45.6068 104.712 46.0696 103.585 46.6123C102.457 47.1549 101.04 47.1868 101.121 47.7455C101.201 48.3041 102.409 48.3998 103.102 48.0647C103.794 47.7295 104.374 47.9689 104.889 47.2188C105.404 46.4686 105.952 45.7823 106.661 45.8302C107.369 45.8781 107.401 46.2771 107.788 45.8302C108.174 45.3833 108.448 45.8302 109.173 45.1758C109.897 44.5215 110.042 44.5534 110.783 44.9205C111.235 45.0953 111.639 45.3726 111.964 45.7302C112.288 46.0877 112.523 46.5155 112.651 46.9794C112.764 47.8731 112.651 49.134 111.926 49.4053C111.202 49.6767 110.429 49.6607 110.316 50.4108C110.203 51.161 110.107 52.2622 109.736 52.2622C109.366 52.2622 108.851 51.3685 107.739 50.6662C107.05 50.1233 106.188 49.8405 105.308 49.8682C104.164 49.7565 103.697 49.4532 102.554 49.2617C101.411 49.0702 101.201 48.6552 100.106 49.134C99.2797 49.476 98.5004 49.9212 97.7874 50.4587C97.2399 50.8737 96.177 50.6502 96.9983 51.1131C97.4114 51.4243 97.907 51.6097 98.4246 51.6465C98.9421 51.6834 99.4594 51.5701 99.9131 51.3206C100.234 50.9851 100.626 50.7228 101.059 50.5519C101.493 50.3811 101.959 50.3057 102.425 50.331C103.589 50.3764 104.738 50.6137 105.823 51.0333C106.564 51.4483 106.177 51.5121 106.805 52.1026C107.434 52.6932 108.11 52.4218 107.804 53.555C107.498 54.6882 108.062 55.5979 106.999 55.965C105.936 56.3321 105.904 56.8907 104.857 57.2259C103.81 57.5611 103.746 57.9441 102.908 57.2259C102.071 56.5077 102.296 56.1246 101.395 55.4862C100.812 55.146 100.271 54.7388 99.7843 54.2732C98.7858 53.3475 98.8663 53.0443 98.2705 52.6772C97.6747 52.3101 96.9339 51.6238 96.5635 51.7994C95.7191 52.163 94.915 52.6123 94.1641 53.1401C93.6488 53.5869 93.1978 54.4009 92.9402 54.2094C92.6825 54.0179 92.8597 53.571 92.8597 53.571C94.5178 51.9399 96.412 50.5628 98.4799 49.4851Z" fill="#6A7E0F"/>
<path fill-rule="evenodd" clip-rule="evenodd" d="M98.9954 48.8627C99.1726 48.6392 99.1887 48.4317 98.8344 47.8412C98.3475 47.1955 98.002 46.4562 97.8198 45.6706C97.4495 44.5055 97.2562 43.7873 98.1741 43.2925C99.092 42.7977 99.1081 43.516 99.5591 43.2925C100.01 43.0691 100.493 43.3723 100.477 42.6381C100.451 41.9341 100.527 41.23 100.702 40.5473C100.928 39.6057 101.073 38.9513 101.765 38.7598C102.458 38.5682 102.731 39.1907 104.181 39.6216C105.63 40.0526 105.598 39.877 105.888 40.8187C105.517 39.8291 105.276 39.9408 104.116 40.1324C102.957 40.3239 102.973 40.1324 102.361 40.292C101.749 40.4516 101.765 41.1857 101.878 42.3828C101.991 43.5798 101.411 43.6596 101.041 44.1863C100.67 44.713 100.477 44.6332 100.074 44.7768C99.6718 44.9205 99.5913 45.0482 99.1404 45.5908C98.6894 46.1335 98.931 46.0696 99.1404 46.7559C99.2479 47.1792 99.4103 47.5869 99.6235 47.9689C99.8167 48.5115 99.0759 48.8627 99.0759 48.8627H98.9954Z" fill="#60710C"/>
<path fill-rule="evenodd" clip-rule="evenodd" d="M105.276 43.5637C105.248 44.0055 105.156 44.441 105.002 44.8565C104.68 45.5747 104.712 46.0216 103.585 46.5642C102.458 47.1069 101.041 47.1388 101.121 47.6974C101.202 48.256 102.409 48.3518 103.102 48.0166C103.794 47.6815 104.374 47.9209 104.889 47.1707C105.405 46.4206 105.952 45.7343 106.661 45.7822C107.369 45.8301 107.401 46.2291 107.788 45.7822C108.174 45.3353 108.448 45.7822 109.173 45.1278C109.898 44.4734 110.042 44.5054 110.783 44.8724C111.198 45.0412 111.573 45.2906 111.889 45.6058C112.204 45.9211 112.452 46.2958 112.619 46.7079C111.959 47.5219 109.511 48.0805 108.947 48.3039C108.438 48.4768 107.898 48.5406 107.362 48.4911C106.827 48.4416 106.307 48.2799 105.839 48.0166C104.503 47.3942 104.825 48.256 104.004 48.4156C103.052 48.5275 102.087 48.3956 101.202 48.0326C100.638 47.7453 100.944 47.3303 101.024 46.5642C101.105 45.7981 101.636 45.9099 102.055 45.4949C102.474 45.0799 102.764 45.1118 103.295 45.048C103.768 45.0662 104.232 44.913 104.599 44.6171C104.909 44.3268 105.142 43.9649 105.276 43.5637Z" fill="#60710C"/>
<path fill-rule="evenodd" clip-rule="evenodd" d="M97.401 51.3205C97.7831 51.5551 98.2237 51.6794 98.6732 51.6794C99.1227 51.6794 99.5633 51.5551 99.9454 51.3205C100.267 50.985 100.658 50.7227 101.092 50.5519C101.525 50.381 101.991 50.3056 102.458 50.331C103.622 50.3763 104.77 50.6136 105.855 51.0332C106.596 51.4482 106.21 51.512 106.838 52.1026C107.466 52.6931 108.142 52.4218 107.836 53.555C107.53 54.6881 108.094 55.5979 107.031 55.965C105.968 56.3321 105.984 56.6832 105.421 57.0024C105.421 56.747 106.033 56.364 106.355 55.949C106.677 55.534 106.355 54.353 106.129 54.4807C105.118 54.2823 104.145 53.9268 103.247 53.4273C102.605 53.0363 101.857 52.8522 101.105 52.9006C100.307 52.8407 99.5398 52.5707 98.8826 52.1185C98.4478 51.943 97.8519 51.5918 97.401 51.3205Z" fill="#60710C"/>
<path fill-rule="evenodd" clip-rule="evenodd" d="M100.01 46.5004C100.171 45.862 100.122 45.4789 100.783 45.0959C101.443 44.7128 101.636 45.0959 101.813 44.3617C101.991 43.6275 102.055 43.9148 102.119 43.3243C102.127 42.8191 102.265 42.3244 102.522 41.8878C102.844 41.409 102.796 41.1856 103.408 40.9781C104.02 40.7706 104.197 40.6589 104.599 40.9781C105.002 41.2973 104.599 42.4305 104.599 43.1966C104.599 43.9627 104.599 44.3617 103.923 44.4415C103.247 44.5213 103.182 43.9308 102.651 44.4415C102.119 44.9522 102.296 45.0161 101.685 45.2555C101.073 45.4949 100.122 45.9577 100.01 46.5004Z" fill="#748B11"/>
<path fill-rule="evenodd" clip-rule="evenodd" d="M105.437 48.8626C106.323 49.1802 107.266 49.316 108.207 49.2616C108.711 49.2011 109.201 49.0554 109.656 48.8307C110.042 48.5594 110.832 48.5594 111.266 48.32C111.701 48.0806 111.959 48.0646 112.023 48.32C112.088 48.5753 111.653 48.8626 110.654 49.4531C109.656 50.0437 109.398 50.331 109.398 50.6821C109.398 51.0332 109.704 51.4801 109.253 51.1769C108.772 50.7364 108.229 50.3657 107.643 50.0756C106.741 49.6127 104.825 48.8626 105.437 48.8626Z" fill="#748B11"/>
<path fill-rule="evenodd" clip-rule="evenodd" d="M99.9132 53.0763C100.601 53.5019 101.39 53.7387 102.2 53.7626C103.263 53.7626 103.037 53.6669 103.81 54.1457C104.583 54.6245 105.018 54.8799 105.421 55.1193C105.823 55.3587 105.872 55.614 105.566 55.9332C105.26 56.2525 104.503 56.2844 103.955 56.5238C103.408 56.7632 103.601 57.0185 103.102 56.5238C102.603 56.029 102.667 55.9332 102.007 55.3906C101.449 55.0369 100.912 54.6533 100.396 54.2414C99.8166 53.6509 99.0758 52.7571 99.9132 53.0763Z" fill="#748B11"/>
<path fill-rule="evenodd" clip-rule="evenodd" d="M93.6006 44.0745C93.1457 44.3073 92.7727 44.6715 92.5312 45.1189C92.2896 45.5664 92.1909 46.076 92.2479 46.5803C92.2479 48.5753 95.4687 50.5544 100.509 50.6821C104.54 50.9508 108.579 50.2954 112.313 48.7668C113.042 48.4338 113.636 47.8662 113.999 47.1564C114.361 46.4465 114.471 45.636 114.31 44.8566C114.068 44.4895 93.6006 44.0745 93.6006 44.0745Z" fill="#932906"/>
<path fill-rule="evenodd" clip-rule="evenodd" d="M100.042 42.1913C101.652 42.1913 114.326 41.3134 114.39 45.5429C114.455 49.7724 99.2529 50.5864 95.3558 48.9744C91.4587 47.3624 90.2349 43.1489 100.042 42.1913Z" fill="#E76D41"/>
<path fill-rule="evenodd" clip-rule="evenodd" d="M107.643 42.7337C109.169 42.7754 110.684 43.006 112.152 43.42C113.762 44.0265 114.745 45.9417 112.861 46.6121C110.976 47.2824 112.313 45.3193 111.605 45.016C110.896 44.7128 108.287 45.2395 107.434 44.5851C106.58 43.9307 106.741 42.7975 107.643 42.7337Z" fill="#D7643A"/>
<path fill-rule="evenodd" clip-rule="evenodd" d="M106.274 42.8775C107.128 43.6117 103.053 43.8511 103.488 44.8566C103.923 45.8621 110.332 45.5269 110.059 46.708C109.785 47.8891 104.004 48.304 100.509 48.0646C97.0146 47.8252 94.2286 45.9579 95.4203 44.697C97.3527 42.6541 104.841 41.6805 106.274 42.8775Z" fill="#EC774B"/>
<path fill-rule="evenodd" clip-rule="evenodd" d="M100.042 42.1913H101.395C99.5429 42.2711 95.5492 42.6701 94.6151 44.5215C93.4074 46.9475 95.3559 48.6074 103.021 48.6074C110.687 48.6074 114.294 47.6657 114.294 45.0642C114.317 45.2336 114.317 45.4054 114.294 45.5749C114.294 49.8204 99.1564 50.6184 95.2593 49.0064C91.3622 47.3944 90.2349 43.1489 100.042 42.1913Z" fill="#DA6238"/>
<path fill-rule="evenodd" clip-rule="evenodd" d="M97.5457 43.4363C97.5457 43.4363 98.3992 43.4363 98.3992 43.6438C98.3992 43.8513 97.4974 43.947 97.2559 43.8513C97.0143 43.7555 96.9499 43.5001 97.5457 43.4363Z" fill="#F08764"/>
<path fill-rule="evenodd" clip-rule="evenodd" d="M96.3864 45.1757C96.5313 45.1757 97.7713 45.1757 97.7713 45.4949C97.7713 45.8141 96.3059 45.9897 95.9355 45.8301C95.5651 45.6705 95.4685 45.2715 96.3864 45.1757Z" fill="#F08764"/>
<path fill-rule="evenodd" clip-rule="evenodd" d="M100.558 44.0745C100.558 44.0745 101.169 44.0745 101.169 44.2181C101.169 44.3618 100.525 44.4256 100.364 44.3618C100.203 44.2979 100.139 44.1543 100.558 44.0745Z" fill="#F08764"/>
<path fill-rule="evenodd" clip-rule="evenodd" d="M104.696 44.3457C104.696 44.3457 105.55 44.3457 105.55 44.5372C105.55 44.7288 104.648 44.8405 104.406 44.7447C104.165 44.6489 104.1 44.3936 104.696 44.3457Z" fill="#F08764"/>
<path fill-rule="evenodd" clip-rule="evenodd" d="M108.625 43.1965C108.77 43.1965 109.994 43.1167 110.01 43.5157C110.026 43.9147 108.545 44.0105 108.175 43.8509C107.804 43.6913 107.675 43.2923 108.625 43.1965Z" fill="#F08764"/>
<path fill-rule="evenodd" clip-rule="evenodd" d="M101.395 46.1814C101.395 46.1814 102.152 46.1814 102.152 46.357C102.152 46.5325 101.346 46.6283 101.153 46.5325C100.96 46.4368 100.879 46.2293 101.395 46.1814Z" fill="#F08764"/>
<path fill-rule="evenodd" clip-rule="evenodd" d="M109.414 45.2715C109.414 45.2715 109.897 45.2715 109.897 45.3833C109.897 45.495 109.382 45.5588 109.253 45.511C109.124 45.4631 109.076 45.3035 109.414 45.2715Z" fill="#F08764"/>
<path fill-rule="evenodd" clip-rule="evenodd" d="M105.646 46.9954C105.775 46.9954 106.773 46.9954 106.773 47.2508C106.773 47.5061 105.598 47.6498 105.292 47.5221C104.986 47.3944 104.889 47.0752 105.646 46.9954Z" fill="#F08764"/>
<path fill-rule="evenodd" clip-rule="evenodd" d="M95.855 48.0007C95.855 48.0007 99.575 46.4047 99.9615 46.4047C100.348 46.4047 102.441 49.3892 100.847 54.3848C99.2529 59.3804 92.7953 61.2159 88.8177 60.3221C84.8401 59.4283 83.6323 55.6457 83.9866 55.0073C84.3409 54.3689 88.6244 51.6875 95.855 48.0007Z" fill="#E53C0D"/>
<path fill-rule="evenodd" clip-rule="evenodd" d="M99.9615 46.4366C100.348 46.4366 102.441 49.4212 100.847 54.4168C99.2529 59.4124 92.7953 61.2478 88.8177 60.354C84.8401 59.4603 83.6323 55.6777 83.9866 55.0392C84.4053 59.8274 93.4395 61.8064 97.7552 56.9705C99.0095 55.5529 99.8719 53.8376 100.258 51.9916C100.645 50.1456 100.543 48.2318 99.9615 46.4366Z" fill="#DC380D"/>
<path fill-rule="evenodd" clip-rule="evenodd" d="M95.855 48.0006L96.0483 47.9208C96.0483 47.9208 95.9033 48.3198 96.3864 48.8944C96.8696 49.469 97.4171 49.5488 97.095 50.3627C96.7729 51.1767 95.9516 51.5757 95.855 52.5174C95.7584 53.4591 96.0805 54.3848 95.4846 55.0551C94.8888 55.7254 93.3429 55.0551 93.0208 56.2042C92.6987 57.3534 93.1335 58.2791 92.4732 58.0078C91.813 57.7364 92.6665 55.5179 91.3943 55.4381C90.1221 55.3583 90.2187 55.6456 89.2525 55.6935C88.3621 55.8497 87.4447 55.6916 86.6598 55.2466C86.1126 54.9268 85.6922 54.4312 85.4681 53.8421C88.8156 51.7009 92.2835 49.7506 95.855 48.0006Z" fill="#BF220B"/>
<path fill-rule="evenodd" clip-rule="evenodd" d="M85.4681 53.8902C88.5086 51.9171 91.6592 50.1161 94.9049 48.4956C95.0632 48.7076 95.1565 48.9604 95.1737 49.2236C95.1908 49.4869 95.131 49.7494 95.0015 49.9799C94.3735 51.161 94.0192 51.1769 93.1979 51.6876C92.3766 52.1984 92.1995 52.757 91.8452 52.3899C91.6349 52.1906 91.37 52.057 91.0837 52.0059C90.7973 51.9548 90.5021 51.9885 90.2348 52.1026C89.4347 52.2943 88.6689 52.6065 87.9642 53.0283C86.9336 53.6508 86.3699 54.9116 85.4681 53.8902Z" fill="#E84D29"/>
<path fill-rule="evenodd" clip-rule="evenodd" d="M95.9839 48.6393C96.0966 48.8947 96.7246 49.4852 96.5958 49.9321C96.467 50.379 95.5813 51.0653 95.4685 51.3526C95.2418 51.96 95.1325 52.6044 95.1465 53.2519C95.2592 53.8265 95.1465 54.8479 94.3896 55.0554C93.947 55.2195 93.4882 55.3372 93.0208 55.4065C92.6343 55.4065 92.6504 54.7681 92.4894 54.3053C92.3295 53.9478 92.0427 53.6609 91.6835 53.4991C91.3243 53.3373 90.9177 53.3118 90.5408 53.4275C89.5102 53.7307 88.4957 53.6828 88.9305 53.1721C89.3653 52.6614 89.4941 52.1985 90.5408 52.39C91.5876 52.5815 92.5216 52.9965 92.8114 52.5656C93.1013 52.1347 93.1174 51.991 93.4556 51.8633C94.1627 51.5759 94.7679 51.0871 95.1948 50.4588C95.6779 49.6768 96.3865 49.4054 95.9839 48.6393Z" fill="#A42006"/>
<path fill-rule="evenodd" clip-rule="evenodd" d="M99.6071 47.7613C99.2045 47.5698 97.6103 47.7613 97.417 48.2561C97.2238 48.7509 98.19 49.4372 97.6586 50.5703C97.1271 51.7035 96.3381 52.3898 96.4991 53.0442C96.6601 53.6986 96.6762 55.3106 95.9677 55.7734C95.2591 56.2363 94.3573 56.1884 94.1319 56.8268C93.9064 57.4652 94.1319 58.7101 95.0337 58.4228C96.904 57.4243 98.3758 55.8247 99.207 53.887C100.038 51.9494 100.179 49.789 99.6071 47.7613Z" fill="#E63F0C"/>
<path fill-rule="evenodd" clip-rule="evenodd" d="M91.7647 58.0239C91.4749 57.3855 92.0385 55.8533 90.9756 56.0927C89.9043 56.5728 88.6993 56.6742 87.5617 56.38C86.1606 55.8692 85.13 54.7839 84.8079 54.9595C84.4858 55.1351 84.5986 56.4598 85.7258 57.4653C86.8531 58.4708 90.6375 60.2903 91.7647 58.0239Z" fill="#E63F0C"/>
<path fill-rule="evenodd" clip-rule="evenodd" d="M84.3731 11.8347C83.9833 12.3403 83.7994 12.9726 83.8578 13.6063C84.0188 14.532 83.6968 16.4632 87.5938 16.7984C91.4909 17.1335 92.747 15.5375 93.0369 14.4043C93.2216 13.6761 93.2216 12.914 93.0369 12.1858L84.3731 11.8347Z" fill="#691700"/>
<path fill-rule="evenodd" clip-rule="evenodd" d="M88.56 15.1861C91.0883 15.1861 93.1496 14.1168 93.1496 12.808C93.1496 11.4993 91.0883 10.414 88.56 10.414C86.0317 10.414 83.9866 11.4833 83.9866 12.808C83.9866 14.1327 86.0478 15.1861 88.56 15.1861Z" fill="#932906"/>
<path fill-rule="evenodd" clip-rule="evenodd" d="M91.8452 11.1323C92.1943 11.27 92.4997 11.4982 92.7292 11.793C92.9587 12.0879 93.1039 12.4385 93.1496 12.8082C93.1496 14.1169 91.1044 15.1863 88.56 15.1863C86.0156 15.1863 83.9866 14.1169 83.9866 12.8082C83.9866 11.7708 85.2588 10.8929 87.0302 10.5578C86.6532 10.6163 86.2919 10.7496 85.9682 10.9498C85.6444 11.15 85.3648 11.413 85.146 11.7229C84.3086 13.1274 85.4359 14.6277 88.3668 14.5798C91.2976 14.5319 92.747 13.6062 92.6504 12.6007C92.6543 12.3081 92.5824 12.0194 92.4414 11.7622C92.3004 11.5051 92.0951 11.2882 91.8452 11.1323Z" fill="#802000"/>
<path fill-rule="evenodd" clip-rule="evenodd" d="M88.1415 10.813C87.1592 10.9407 85.5166 11.6748 85.6132 12.7282C85.7098 13.7816 88.4797 14.4839 89.3654 13.9572C90.2511 13.4305 88.8017 13.1751 88.689 12.3611C88.5763 11.5472 90.3799 10.8609 88.1415 10.813Z" fill="#A3351A"/>
<path fill-rule="evenodd" clip-rule="evenodd" d="M41.634 37.3553C41.2423 37.8538 41.0579 38.482 41.1187 39.1109C41.2797 40.0366 40.9576 41.9838 44.8547 42.303C48.7518 42.6222 50.0079 41.0581 50.3139 39.9089C50.5104 39.1847 50.5324 38.4247 50.3783 37.6905L41.634 37.3553Z" fill="#691700"/>
<path fill-rule="evenodd" clip-rule="evenodd" d="M45.837 40.6908C48.3653 40.6908 50.4265 39.6214 50.4265 38.3127C50.4265 37.0039 48.3653 35.9346 45.837 35.9346C43.3087 35.9346 41.2474 37.0039 41.2474 38.3127C41.2474 39.6214 43.3087 40.6908 45.837 40.6908Z" fill="#932906"/>
<path fill-rule="evenodd" clip-rule="evenodd" d="M49.1221 36.6529C49.4624 36.7811 49.7623 36.9963 49.9914 37.2766C50.2205 37.557 50.3707 37.8924 50.4265 38.2489C50.4265 39.5577 48.3653 40.627 45.837 40.627C43.3087 40.627 41.2474 39.5577 41.2474 38.2489C41.2474 37.2115 42.5196 36.3337 44.291 35.9985C43.9163 36.0573 43.5575 36.1908 43.2364 36.3911C42.9153 36.5914 42.6386 36.8542 42.423 37.1636C41.5856 38.5841 42.6968 40.0684 45.5632 40.0205C48.4297 39.9726 49.9434 39.0629 49.8629 38.0414C49.8633 37.7676 49.796 37.4979 49.6668 37.2558C49.5377 37.0138 49.3507 36.8067 49.1221 36.6529Z" fill="#802000"/>
<path fill-rule="evenodd" clip-rule="evenodd" d="M45.4022 36.3176C44.4199 36.4453 42.7773 37.1795 42.874 38.2329C42.9706 39.2863 45.7404 39.9885 46.6261 39.4778C47.5118 38.967 46.0625 38.6798 45.9659 37.8817C45.8692 37.0837 47.6568 36.3655 45.4022 36.3176Z" fill="#A3351A"/>
<path fill-rule="evenodd" clip-rule="evenodd" d="M73.1972 44.0745C72.8055 44.5737 72.616 45.1997 72.6658 45.8301C72.8268 46.7558 72.5208 48.703 76.4018 49.0222C80.2828 49.3414 81.555 47.7773 81.861 46.6281C82.0457 45.9 82.0457 45.1378 81.861 44.4097L73.1972 44.0745Z" fill="#691700"/>
<path d="M77.3841 47.3625C79.9188 47.3625 81.9737 46.2978 81.9737 44.9844C81.9737 43.671 79.9188 42.6063 77.3841 42.6063C74.8494 42.6063 72.7946 43.671 72.7946 44.9844C72.7946 46.2978 74.8494 47.3625 77.3841 47.3625Z" fill="#932906"/>
<path fill-rule="evenodd" clip-rule="evenodd" d="M80.6693 43.3246C81.0095 43.4528 81.3094 43.668 81.5386 43.9483C81.7677 44.2286 81.9178 44.5641 81.9737 44.9206C81.9737 46.2294 79.9124 47.2987 77.3841 47.2987C74.8558 47.2987 72.7946 46.2294 72.7946 44.9206C72.7946 43.8832 74.0668 43.0054 75.8543 42.6702C75.4767 42.7269 75.1148 42.8595 74.7908 43.0599C74.4668 43.2602 74.1875 43.5241 73.9701 43.8353C73.1327 45.2558 74.26 46.7401 77.1103 46.6922C79.9607 46.6443 81.4906 45.7346 81.41 44.7131C81.4104 44.4393 81.3431 44.1696 81.214 43.9275C81.0848 43.6854 80.8978 43.4784 80.6693 43.3246Z" fill="#802000"/>
<path fill-rule="evenodd" clip-rule="evenodd" d="M76.9494 42.9893C75.9832 43.117 74.3245 43.8512 74.4212 44.9046C74.5178 45.9579 77.2876 46.6602 78.1733 46.1495C79.059 45.6387 77.6258 45.3674 77.5131 44.5534C77.4003 43.7395 79.204 43.0372 76.9494 42.9893Z" fill="#A3351A"/>
<path fill-rule="evenodd" clip-rule="evenodd" d="M77.6256 60.9447C77.2357 61.4503 77.0518 62.0827 77.1102 62.7163C77.2713 63.642 76.9492 65.5732 80.8463 65.9084C84.7434 66.2436 85.9995 64.6475 86.2893 63.5144C86.4741 62.7862 86.4741 62.024 86.2893 61.2959L77.6256 60.9447Z" fill="#691700"/>
<path d="M81.8126 64.2962C84.3473 64.2962 86.4021 63.2315 86.4021 61.9181C86.4021 60.6048 84.3473 59.54 81.8126 59.54C79.2778 59.54 77.223 60.6048 77.223 61.9181C77.223 63.2315 79.2778 64.2962 81.8126 64.2962Z" fill="#932906"/>
<path fill-rule="evenodd" clip-rule="evenodd" d="M85.0979 60.2423C85.4363 60.3733 85.7346 60.5893 85.9633 60.8692C86.192 61.149 86.3433 61.483 86.4023 61.8384C86.4023 63.1471 84.3571 64.2165 81.8127 64.2165C79.2683 64.2165 77.2393 63.1471 77.2393 61.8384C77.2393 60.8009 78.5114 59.9072 80.2829 59.588C79.9058 59.6464 79.5446 59.7798 79.2209 59.98C78.8971 60.1802 78.6175 60.4431 78.3987 60.7531C77.5613 62.1576 78.6886 63.6578 81.6195 63.61C84.5503 63.5621 85.9997 62.6364 85.9192 61.6309C85.9039 61.3513 85.8214 61.0794 85.6785 60.8378C85.5356 60.5963 85.3366 60.3921 85.0979 60.2423Z" fill="#802000"/>
<path fill-rule="evenodd" clip-rule="evenodd" d="M81.3941 59.923C80.4117 60.0507 78.7692 60.7849 78.8658 61.8383C78.9624 62.8917 81.7322 63.5939 82.6179 63.0672C83.5036 62.5405 82.0543 62.2852 81.9416 61.4712C81.8288 60.6572 83.6325 60.0348 81.3941 59.923Z" fill="#A3351A"/>
</svg>
