<svg width="134" height="76" viewBox="0 0 134 76" fill="none" xmlns="http://www.w3.org/2000/svg">
<path d="M67 73.0457C104.003 73.0457 134 57.6749 134 38.714C134 19.7532 104.003 4.38234 67 4.38234C29.9969 4.38234 0 19.7532 0 38.714C0 57.6749 29.9969 73.0457 67 73.0457Z" fill="#EBE1BD"/>
<path d="M66.9999 70.2163C100.969 70.2163 128.507 56.1123 128.507 38.7141C128.507 21.3158 100.969 7.21179 66.9999 7.21179C33.0306 7.21179 5.49292 21.3158 5.49292 38.7141C5.49292 56.1123 33.0306 70.2163 66.9999 70.2163Z" fill="#EFE7C9"/>
<path d="M67.0001 59.3217C91.5533 59.3217 111.458 49.5865 111.458 37.5775C111.458 25.5686 91.5533 15.8334 67.0001 15.8334C42.447 15.8334 22.5427 25.5686 22.5427 37.5775C22.5427 49.5865 42.447 59.3217 67.0001 59.3217Z" fill="#DCD2AB"/>
<path fill-rule="evenodd" clip-rule="evenodd" d="M78.7278 16.5911C97.5894 19.1086 111.457 27.5523 111.457 37.5777C111.418 38.7921 111.224 39.9822 110.889 41.0795C110.553 42.1769 110.082 43.1598 109.503 43.9718C117.621 25.1239 79.6694 16.7916 78.7278 16.5911Z" fill="#D1C3A4"/>
<path fill-rule="evenodd" clip-rule="evenodd" d="M26.0525 14.6526C19.4181 17.4151 3.22452 25.792 3.06758 39.1593C2.8821 57.2051 30.6323 66.9633 56.8131 69.6144C59.1102 69.8595 59.952 70.0155 58.6679 69.6144C34.7841 62.2624 -21.2299 48.8951 26.0525 14.6526Z" fill="#FBF3DC"/>
<path fill-rule="evenodd" clip-rule="evenodd" d="M108.732 14.6526C115.367 17.4151 131.56 25.792 131.717 39.1593C131.903 57.2051 104.152 66.9633 77.9716 69.6144C75.6745 69.8595 74.8327 70.0155 76.1311 69.6144C100.043 62.2624 156.015 48.8951 108.732 14.6526Z" fill="#FBF3DC"/>
<path fill-rule="evenodd" clip-rule="evenodd" d="M55.3292 16.5911C36.4676 19.1086 22.5996 27.5523 22.5996 37.5777C22.6394 38.7921 22.8326 39.9822 23.1681 41.0795C23.5035 42.1769 23.9746 43.1598 24.5542 43.9718C16.4361 25.1239 54.3875 16.7916 55.3292 16.5911Z" fill="#D1C3A4"/>
<path fill-rule="evenodd" clip-rule="evenodd" d="M67.0001 57.8069C86.9745 57.8069 103.239 49.8311 103.239 39.9839C103.239 30.1366 86.9603 22.1608 67.0001 22.1608C47.0399 22.1608 30.7465 30.1143 30.7465 39.9839C30.7465 49.8534 47.0399 57.8069 67.0001 57.8069Z" fill="#EFE7C9"/>
<path fill-rule="evenodd" clip-rule="evenodd" d="M104.124 7.92452C103.104 10.001 102.228 12.2416 101.513 14.6082C101.399 15.9226 99.0304 10.1524 95.0926 13.16C91.1547 16.1677 90.8123 22.7845 92.1392 24.8119C93.4661 26.8392 92.9239 28.2205 92.4531 28.8889C91.9822 29.5573 90.4271 32.654 90.4271 32.654C90.4271 32.654 87.0029 29.7355 86.1469 25.6362C85.2908 21.5369 86.2753 14.2294 92.2962 8.14731C94.0665 6.42658 96.1049 5.49606 98.1901 5.45679C100.275 5.41751 102.327 6.27098 104.124 7.92452Z" fill="#F1AB00"/>
<path fill-rule="evenodd" clip-rule="evenodd" d="M102.597 11.3999C102.135 12.4029 101.77 13.5063 101.513 14.6749C101.399 15.9894 99.0305 10.2192 95.0927 13.2268C91.1548 16.2344 90.8124 22.8513 92.1393 24.8786C93.4662 26.906 92.924 28.2873 92.4532 28.9557C92.282 29.2007 91.9681 29.7577 91.6257 30.3592C90.8439 28.2851 90.2803 26.0285 89.9564 23.6756C89.6785 20.8259 90.0602 17.9149 91.0329 15.465C92.0057 13.0151 93.5057 11.1868 95.2639 10.3083C97.7225 9.49786 100.281 9.87872 102.597 11.3999Z" fill="#FCC322"/>
<path fill-rule="evenodd" clip-rule="evenodd" d="M101.028 9.0829C101.028 9.0829 96.1057 6.72135 92.9954 10.1746C89.8851 13.6278 88.3014 19.7545 89.0576 23.6755C89.8137 27.5966 89.1717 28.51 88.1872 27.7971C87.2028 27.0842 85.933 20.5788 88.815 14.6303C91.697 8.68188 95.7633 4.91676 101.028 9.0829Z" fill="#E4A300"/>
<path fill-rule="evenodd" clip-rule="evenodd" d="M99.8153 12.1797C98.5255 11.36 97.0816 11.36 95.7919 12.1797C94.2418 13.0281 92.9134 14.6485 92.011 16.7915C91.4403 18.351 91.4117 19.1753 90.7697 18.8857C90.1277 18.5961 91.2263 14.2294 94.3366 11.4891C95.1824 10.7003 96.1646 10.3429 97.1466 10.4666C98.1286 10.5904 99.0615 11.1893 99.8153 12.1797Z" fill="#FFD871"/>
<path fill-rule="evenodd" clip-rule="evenodd" d="M90.9408 39.4489C90.7839 38.7806 90.9408 38.2236 91.7255 38.1122C92.5102 38.0008 94.3935 39.0256 95.4208 38.1122C96.4745 37.419 97.4408 36.4382 98.2743 35.216C98.8164 34.1466 99.4585 30.025 101.399 29.6908C103.339 29.3566 103.539 29.4457 104.252 25.7697C104.966 22.0937 106.25 18.2172 107.776 16.8582C109.303 15.4992 109.76 14.6303 111.129 15.3878C112.499 16.1453 114.411 16.8582 114.511 18.8633C114.54 20.0018 114.776 21.1039 115.19 22.0422C115.604 22.9805 116.18 23.7167 116.851 24.1657C117.925 24.7642 119.083 24.9027 120.203 24.5667C121.288 24.3662 121.516 24.3216 122.7 26.0371C123.884 27.7526 124.698 29.4903 123.57 32.0078C122.448 34.2296 121.006 36.0078 119.362 37.1988C118.377 37.8894 117.507 37.5107 117.464 39.4267C117.523 41.5212 117.259 43.6072 116.694 45.5088C115.98 47.4693 116.351 48.0263 114.981 48.6501C113.612 49.2739 113.455 48.5164 112.684 49.5858C112.235 50.188 111.841 50.8854 111.514 51.6577C111.514 51.6577 109.645 56.3586 107.691 56.5591C105.736 56.7596 106.264 58.0072 104.837 55.8462C103.411 53.6851 104.224 53.039 102.654 52.0588C101.085 51.0785 100.671 50.6775 100.086 48.962C99.5269 47.1381 98.769 45.4796 97.8463 44.0607C97.1927 42.9564 96.3434 42.1808 95.4065 41.8328C94.0368 41.4318 91.1263 40.8525 90.9408 39.4489Z" fill="#778004"/>
<path fill-rule="evenodd" clip-rule="evenodd" d="M91.0693 38.4687C91.2615 38.2536 91.4894 38.1298 91.7256 38.1122C92.4533 38.0008 94.3936 39.0256 95.4209 38.1122C96.4746 37.419 97.4409 36.4382 98.2744 35.216C98.8165 34.1466 99.4586 30.025 101.399 29.6908C103.339 29.3566 103.539 29.4457 104.252 25.7697C104.966 22.0937 106.25 18.2172 107.777 16.8582C109.303 15.4992 109.76 14.6303 111.129 15.3878C112.499 16.1453 114.411 16.8582 114.511 18.8633C114.541 20.0018 114.776 21.1039 115.19 22.0422C115.604 22.9805 116.18 23.7167 116.851 24.1657C117.925 24.7642 119.083 24.9027 120.203 24.5667C121.288 24.3662 121.516 24.3216 122.7 26.0371C123.884 27.7526 124.698 29.4903 123.571 32.0078C122.448 34.2296 121.006 36.0078 119.362 37.1988C118.377 37.8894 117.507 37.5107 117.464 39.4267C117.523 41.5212 117.259 43.6072 116.694 45.5088C115.98 47.4693 116.351 48.0263 114.982 48.6501C113.612 49.2739 113.555 48.6501 112.927 49.2962C113.589 47.9478 113.99 46.3323 114.083 44.6399C114.368 40.3401 113.726 41.9887 114.596 38.7583C115.467 35.5279 116.58 33.8124 114.596 32.743C112.613 31.6736 110.858 27.6189 109.061 29.9359C107.263 32.2529 107.819 32.1638 105.522 34.9709C103.225 37.778 104.509 34.9709 101.984 34.5476C99.4586 34.1243 100.928 36.7755 98.4313 39.4489C95.9345 42.1224 91.0693 38.4687 91.0693 38.4687Z" fill="#6A7203"/>
<path fill-rule="evenodd" clip-rule="evenodd" d="M98.7166 33.7902C99.2159 32.1861 99.9435 30.0251 101.327 29.78C103.268 29.4458 103.468 29.5349 104.181 25.8589C104.894 22.1829 106.178 18.3064 107.705 16.9474C109.232 15.5884 109.688 14.7195 111.058 15.477C112.428 16.2345 114.339 16.9474 114.439 18.9525C114.469 20.091 114.705 21.1932 115.119 22.1314C115.533 23.0697 116.108 23.8059 116.779 24.2549C117.854 24.8534 119.011 24.9919 120.132 24.6559C121.216 24.4554 121.445 24.4108 122.629 26.1263C123.57 27.4853 124.284 28.8889 123.97 30.5821C123.77 27.3739 121.93 26.4605 121.116 25.6584C120.303 24.8564 117.279 29.1116 115.552 26.5941C113.826 24.0766 113.269 24.1435 113.526 21.1358C113.783 18.1282 112.371 20.267 111.286 18.596C110.202 16.9251 109.574 19.3758 108.704 20.3784C107.833 21.3809 107.577 23.8093 107.049 26.26C106.521 28.7106 106.878 28.6661 106.492 30.2701C106.107 31.8742 105.893 31.6292 104.481 32.3421C103.068 33.055 102.94 31.139 101.242 31.2059C100.711 31.2444 100.197 31.5045 99.753 31.959C99.3088 32.4136 98.9509 33.046 98.7166 33.7902Z" fill="#5F6501"/>
<path fill-rule="evenodd" clip-rule="evenodd" d="M99.5584 40.0061C100.728 39.2709 100.671 38.6471 102.112 39.2263C103.553 39.8056 103.753 40.5408 105.108 39.2263C106.464 37.9119 105.722 38.001 107.448 37.2881C108.503 36.5671 109.675 36.3801 110.801 36.7534C112.313 37.1767 112.699 36.4415 112.727 38.5803C112.843 39.4291 112.85 40.3054 112.747 41.1583C112.644 42.0111 112.434 42.8236 112.128 43.5484C111.286 45.7763 112.014 46.5115 111.144 48.3161C110.273 50.1207 109.517 52.3708 107.948 52.7719C106.464 52.7003 105.046 51.7989 103.953 50.2321C102.983 49.1627 103.154 50.8559 101.613 48.4275C100.072 45.9991 99.487 44.2836 98.9163 43.6375C98.3456 42.9915 97.7179 41.3205 99.5584 40.0061Z" fill="#7F8905"/>
<path fill-rule="evenodd" clip-rule="evenodd" d="M91.2118 24.3888C91.4829 19.4206 91.0263 17.3041 94.3078 14.4524C97.5893 11.6007 99.3014 12.3359 101.755 9.64019C104.209 6.94445 107.462 6.49888 109.403 10.1972C111.63 15.1682 113.032 20.925 113.483 26.9508C113.669 31.4066 107.305 36.5976 105.208 40.3181C103.111 44.0387 99.3014 45.9992 96.9473 43.3035C94.5932 40.6078 91.2118 24.3888 91.2118 24.3888Z" fill="#E9E7E8"/>
<path fill-rule="evenodd" clip-rule="evenodd" d="M98.26 40.7191C97.6607 39.516 95.806 40.7191 94.9356 37.3104C94.2425 35.3131 93.7607 33.1539 93.5089 30.9164C93.0523 27.2404 91.9537 25.9482 93.2806 23.8985C94.6075 21.8489 94.7787 19.1532 96.1341 19.7101C97.4895 20.2671 96.7761 22.339 99.7723 22.8292C102.768 23.3193 102.997 22.4727 105.479 23.8985C107.962 25.3244 109.346 25.9482 109.018 29.2232C108.758 31.9179 107.85 34.3563 106.478 36.0405C105.051 38.2684 104.523 40.4963 102.697 41.8553C100.871 43.2143 98.6166 42.9915 98.26 40.7191Z" fill="#EDEEEE"/>
<path fill-rule="evenodd" clip-rule="evenodd" d="M96.0772 30.2927C96.1628 32.5206 95.5779 33.4117 97.504 35.1049C99.4301 36.7981 98.6454 38.313 100.272 38.4467C101.898 38.5804 104.138 38.2462 104.78 35.6841C105.422 33.1221 106.692 32.8325 104.78 31.8522C102.869 30.8719 102.184 31.8522 100.957 30.0031C99.7297 28.1539 94.4793 25.0349 96.0772 30.2927Z" fill="#F6F6F6"/>
<path fill-rule="evenodd" clip-rule="evenodd" d="M92.9096 22.5396C93.0662 21.3132 93.452 20.1868 94.0182 19.3026C94.5845 18.4183 95.3059 17.8159 96.0913 17.5714C97.518 17.4378 98.1315 19.6434 99.9149 19.4206C101.698 19.1978 102.768 17.5714 104.095 17.5714C105.78 17.5237 107.432 18.3029 108.818 19.7993C109.774 21.292 109.545 21.7153 110.915 23.4308C112.285 25.1462 112.185 23.0075 111.643 20.4454C111.101 17.8834 111.186 15.6777 110.045 13.7618C108.903 11.8458 108.918 8.43713 106.364 8.59308C104.264 8.65516 102.218 9.63541 100.457 11.4225C98.2742 13.2716 97.1328 12.1354 95.5919 14.4078C94.051 16.6803 91.4829 19.7993 92.9096 22.5396Z" fill="#E2DFE1"/>
<path fill-rule="evenodd" clip-rule="evenodd" d="M109.86 25.5916C110.226 26.2552 110.47 27.0618 110.565 27.9251C110.661 28.7884 110.604 29.676 110.402 30.493C109.803 32.0525 108.048 33.0996 108.975 33.7011C109.902 34.3027 111.743 30.6489 112.114 29.0003C112.322 28.3881 112.366 27.6725 112.238 27.0091C112.11 26.3458 111.819 25.7883 111.429 25.458C110.573 24.5445 108.761 23.542 109.86 25.5916Z" fill="#E2DFE1"/>
<path fill-rule="evenodd" clip-rule="evenodd" d="M62.1776 22.9181C60.7403 22.5129 59.4368 21.3446 58.4878 19.6111C57.5388 17.8775 57.0026 15.6851 56.9699 13.4051C56.5419 6.56548 63.5187 -1.36579 69.4968 1.4859C76.3023 4.73861 70.6239 23.3192 62.1776 22.9181Z" fill="#422E46"/>
<path fill-rule="evenodd" clip-rule="evenodd" d="M62.1776 22.9181C60.7403 22.5129 59.4368 21.3446 58.4878 19.6111C57.5388 17.8775 57.0026 15.6851 56.9699 13.4051C56.5419 6.56548 63.5187 -1.36579 69.4968 1.4859C69.671 1.56898 69.8424 1.66564 70.0104 1.77553C69.7964 1.77553 64.974 0.572472 61.7495 4.67178C58.5251 8.77108 59.5951 16.5241 64.1893 17.794C65.9974 18.2872 67.858 17.6863 69.3926 16.1136C70.9271 14.541 72.0204 12.1146 72.4501 9.32805C71.8794 15.633 67.5992 23.1855 62.1776 22.9181Z" fill="#3A253D"/>
<path fill-rule="evenodd" clip-rule="evenodd" d="M62.1776 22.9184C60.7403 22.5132 59.4368 21.3449 58.4878 19.6113C57.5388 17.8777 57.0026 15.6854 56.9699 13.4053C56.6846 8.77133 59.8234 3.60264 63.7184 1.66438C63.5187 1.79806 59.4382 4.53835 58.254 9.37286C57.9843 10.549 57.882 11.8029 57.9542 13.0471C58.0263 14.2913 58.2712 15.496 58.6718 16.5774C59.0724 17.6588 59.619 18.591 60.2738 19.309C60.9285 20.027 61.6755 20.5137 62.4629 20.7351C65.7159 21.5371 67.7561 19.5766 70.2957 16.6135C69.3485 18.5756 68.1219 20.1668 66.7129 21.261C65.3039 22.3553 63.7512 22.9227 62.1776 22.9184Z" fill="#2D1A30"/>
<path fill-rule="evenodd" clip-rule="evenodd" d="M68.1842 6.23141C68.1859 5.92383 68.2339 5.62118 68.3243 5.34794C68.4148 5.07469 68.5452 4.83851 68.7049 4.6585C68.8646 4.47848 69.0492 4.35968 69.2438 4.31169C69.4384 4.26371 69.6375 4.28788 69.825 4.38227C70.7951 4.89468 71.1376 7.1894 69.9534 7.56814C68.7692 7.94688 68.1556 7.1894 68.1842 6.23141Z" fill="#1A041E"/>
<path fill-rule="evenodd" clip-rule="evenodd" d="M68.0843 5.22868C67.9956 5.38411 67.931 5.56926 67.8954 5.76986C67.8598 5.97045 67.8542 6.18113 67.879 6.38564C67.9038 6.59015 67.9584 6.78303 68.0385 6.94939C68.1186 7.11576 68.2222 7.25117 68.3411 7.34517C69.0545 7.81303 68.869 9.01608 68.1128 9.06064C67.3566 9.1052 66.8715 8.54823 66.9999 7.18922C67.0698 6.7527 67.2043 6.34789 67.3926 6.00736C67.581 5.66684 67.8179 5.40012 68.0843 5.22868Z" fill="#543C56"/>
<path fill-rule="evenodd" clip-rule="evenodd" d="M66.5006 2.91158C65.8056 3.35564 65.1862 4.04556 64.691 4.92701C64.1959 5.80846 63.8385 6.85737 63.6471 7.99115C63.2191 11.6003 65.2165 14.0955 64.2178 15.7442C63.2191 17.3928 59.9375 13.0262 61.4499 7.94659C61.924 6.47572 62.6434 5.23173 63.5323 4.34563C64.4211 3.45953 65.4466 2.96412 66.5006 2.91158Z" fill="#4E3852"/>
<path fill-rule="evenodd" clip-rule="evenodd" d="M5.35021 34.0129C7.27632 33.3223 8.2037 33.7456 8.64599 32.5202C10.3866 28.3764 10.7148 32.5202 12.7693 28.9111C13.982 26.6832 14.2959 24.4553 15.3232 22.8958C16.3504 21.3363 16.7499 20.3114 17.6202 21.1803C18.4905 22.0492 18.9328 23.5419 20.2026 23.4082C21.4724 23.2745 22.8421 21.0244 23.3557 21.8041C23.8694 22.5839 25.8668 25.7475 27.0225 25.2128C28.1782 24.6781 28.649 24.1211 29.3909 24.6335C30.1328 25.146 33.1718 27.6412 33.2716 30.6934C33.3715 33.7456 30.4181 35.1491 30.732 38.1345C31.0459 41.1199 31.9162 43.8156 30.5608 44.8182C29.2054 45.8207 28.1496 46.6227 28.0926 47.7144C28.0355 48.8061 27.6788 55.6457 24.169 56.2026C20.6592 56.7596 20.06 55.7125 18.8758 53.3955C17.6916 51.0785 17.449 49.6972 16.5644 47.9149C15.6799 46.1326 14.9522 43.7042 13.8536 43.3255C12.9446 43.0229 12.0131 42.9179 11.0857 43.0136C9.80165 43.0136 9.54483 43.9493 8.43197 42.4566C7.53312 41.2536 2.1543 35.1492 5.35021 34.0129Z" fill="#778004"/>
<path fill-rule="evenodd" clip-rule="evenodd" d="M5.35021 34.0131L5.80676 33.8572C5.62524 33.917 5.46185 34.0703 5.34283 34.2925C5.22381 34.5147 5.15607 34.793 5.15047 35.0825C5.12694 35.4321 5.14891 35.7854 5.21508 36.1214C5.28126 36.4573 5.39027 36.7689 5.53554 37.0374C5.68082 37.3058 5.85935 37.5257 6.06043 37.6836C6.26151 37.8416 6.48098 37.9344 6.70562 37.9565C7.84701 38.2907 8.13237 39.1373 8.67453 38.6248C9.04015 38.2891 9.38838 37.9092 9.71605 37.4886C10.7005 36.3524 10.7433 35.8623 11.5851 35.84C13.0832 35.7268 14.5511 36.5254 15.6798 38.0679C16.9941 39.2732 18.2527 40.6207 19.4465 42.1003C20.1313 43.3925 21.9575 45.509 22.5853 44.5956C23.2131 43.6821 22.2714 41.9667 24.3402 43.2366C26.409 44.5065 26.6801 45.1748 27.7929 43.4594C28.9058 41.7439 29.0627 42.6573 28.8915 39.6942C28.7203 36.7311 28.5634 35.9514 29.4908 34.7038C30.4181 33.4562 31.6737 32.6764 31.9448 31.8075C32.2158 30.9386 33.2431 30.0921 32.2301 27.7305C32.8012 28.519 33.171 29.6027 33.2716 30.7827C33.3572 33.8349 30.4181 35.2385 30.732 38.2238C31.0459 41.2092 31.9162 43.9049 30.5608 44.9075C29.2054 45.91 28.1496 46.7121 28.0926 47.8037C28.0355 48.8954 27.6788 55.735 24.169 56.292C20.6592 56.8489 20.06 55.8018 18.8758 53.4848C17.6916 51.1678 17.449 49.7865 16.5644 48.0042C15.6799 46.2219 14.9522 43.7935 13.8536 43.4148C12.9446 43.1122 12.0131 43.0072 11.0857 43.1029C9.80165 43.1029 9.54483 44.0386 8.43197 42.5459C7.53312 41.2537 2.1543 35.1494 5.35021 34.0131Z" fill="#6A7203"/>
<path fill-rule="evenodd" clip-rule="evenodd" d="M30.8321 36.7089C30.7263 37.1571 30.692 37.6389 30.7323 38.1125C30.9891 41.1869 31.9165 43.7936 30.5611 44.7961C29.2056 45.7987 28.1499 46.6007 28.0928 47.6924C28.0357 48.784 27.679 55.6236 24.1692 56.1806C20.6594 56.7376 20.0602 55.6905 18.876 53.3735C17.6918 51.0565 17.4493 49.6752 16.5647 47.8929C15.6801 46.1106 14.9524 43.6822 13.8538 43.3034C12.9448 43.0008 12.0134 42.8959 11.086 42.9915C9.80189 42.9915 9.54507 43.9272 8.43221 42.4346C8.33234 42.2786 8.14687 42.0781 7.93286 41.7885C8.23304 42.042 8.56892 42.1747 8.91018 42.1747C9.25144 42.1747 9.58732 42.042 9.8875 41.7885C11.4569 40.6745 11.2001 40.6522 12.37 39.8502C13.54 39.0482 13.0263 38.7586 14.2533 39.516C15.4803 40.2735 16.1081 39.8502 16.2223 41.7439C16.3364 43.6376 15.9084 44.3283 16.9927 44.9521C18.077 45.5759 18.1055 45.3308 18.4194 47.0686C18.656 48.7998 19.247 50.3638 20.103 51.5243C21.2016 53.1061 21.4584 54.3315 22.1575 53.1952C22.8566 52.059 22.3858 52.059 23.2276 50.7223C24.0694 49.3856 24.0979 48.7395 24.9111 48.7172C25.7244 48.6949 25.7387 50.2767 26.4806 48.7172C27.2225 47.1577 26.7659 45.9101 28.3924 45.0635C30.0189 44.2169 30.2329 46.1328 30.3613 43.7713C30.4897 41.4097 29.3769 38.2684 30.8321 36.6643V36.7089Z" fill="#5F6501"/>
<path fill-rule="evenodd" clip-rule="evenodd" d="M12.1275 33.0105C13.3545 32.7209 13.012 34.2804 13.9822 31.4956C14.9524 28.7107 14.396 28.9112 15.7514 28.1983C17.1068 27.4854 16.7644 26.7948 18.0342 27.0621C19.304 27.3294 19.5608 27.9532 20.8877 27.7973C21.8956 27.6529 22.91 27.9297 23.8268 28.5993C25.1109 29.2231 25.7814 26.7725 26.9086 29.2231C28.0357 31.6738 26.9086 31.9412 26.9086 35.3498C26.9086 38.7585 26.5947 40.0729 24.7256 39.8056C23.4793 39.9022 22.2413 39.4382 21.1588 38.4689C19.6179 37.2435 20.317 36.7534 18.7333 37.0876C18.0994 37.2832 17.4526 37.358 16.8072 37.3104C16.8072 37.3104 15.1522 34.6369 13.9537 34.6146C12.7877 34.3514 11.5998 34.4498 10.4582 34.9042C9.47372 35.6394 10.1586 33.4784 12.1275 33.0105Z" fill="#7F8905"/>
<path fill-rule="evenodd" clip-rule="evenodd" d="M101.855 30.8496C99.8864 30.6491 99.1303 29.8471 98.4169 30.8496C95.9772 34.0132 96.448 29.8025 93.7942 32.4314C92.2248 33.991 91.5115 36.0183 90.2416 37.0432C88.9718 38.068 88.4297 38.8923 87.7306 37.6447C87.0315 36.3971 86.9173 34.793 85.6618 34.3697C84.4062 33.9464 82.6941 35.4837 82.3375 34.5034C81.9808 33.5231 80.6682 29.5798 79.484 29.5798C78.2998 29.5798 77.7148 29.8917 77.1013 29.0451C76.4878 28.1985 74.0481 24.5893 74.5189 21.5148C74.9897 18.4403 78.0002 18.5963 78.314 15.5441C78.6279 12.4919 78.2284 9.57336 79.7408 9.19462C81.2531 8.81588 82.3945 8.54853 82.5943 7.52371C82.794 6.49888 84.4633 0.10486 87.916 1.17424C91.3688 2.24363 91.7683 3.40212 92.4816 6.23154C93.195 9.06095 93.1807 10.4422 93.6658 12.5364C94.1509 14.6307 94.4363 17.2818 95.4207 18.1507C96.2362 18.8495 97.1102 19.3669 98.0174 19.688C99.2444 20.2449 99.6582 19.4874 100.457 21.4034C101.085 22.9184 105.108 31.1838 101.855 30.8496Z" fill="#778004"/>
<path fill-rule="evenodd" clip-rule="evenodd" d="M101.855 30.8496H101.384C101.57 30.8698 101.755 30.7933 101.91 30.632C102.065 30.4708 102.181 30.2339 102.241 29.9585C102.325 29.6358 102.368 29.2897 102.366 28.9408C102.364 28.5919 102.317 28.2472 102.227 27.9273C102.138 27.6073 102.009 27.3185 101.847 27.0781C101.685 26.8377 101.494 26.6504 101.285 26.5276C100.257 25.681 100.143 24.7452 99.5154 24.9903C99.1026 25.1548 98.6974 25.3633 98.3027 25.6141C97.147 26.2602 97.0186 26.7281 96.2197 26.3493C94.7627 25.837 93.4924 24.4533 92.6813 22.4951C91.6473 20.7457 90.6938 18.8845 89.8278 16.9254C89.3998 15.3881 88.0444 12.4696 87.2739 13.1157C86.5035 13.7618 87.0885 15.7892 85.3478 13.6281C83.6072 11.4671 83.4645 10.7319 82.0806 11.8681C80.6967 13.0043 80.6538 12.0463 80.3257 14.9871C79.9975 17.9279 79.9547 18.7077 78.8989 19.4429C77.8431 20.1781 76.4307 20.4009 76.0454 21.0915C75.6602 21.7822 74.4903 22.1609 75.0182 24.8789C74.5933 23.8906 74.411 22.6962 74.5046 21.5148C74.9754 18.5517 77.9858 18.5963 78.2997 15.5441C78.6136 12.4919 78.2141 9.57336 79.7265 9.19462C81.2388 8.81588 82.3802 8.54853 82.5799 7.52371C82.7797 6.49888 84.449 0.10486 87.9017 1.17424C91.3544 2.24363 91.7539 3.40212 92.4673 6.23154C93.1807 9.06095 93.1664 10.4422 93.6515 12.5364C94.1366 14.6307 94.4219 17.2818 95.4064 18.1507C96.2219 18.8495 97.0959 19.3669 98.0031 19.688C99.2301 20.2449 99.6438 19.4874 100.443 21.4034C101.085 22.9184 105.108 31.1838 101.855 30.8496Z" fill="#6A7203"/>
<path fill-rule="evenodd" clip-rule="evenodd" d="M77.9431 16.7694C78.1298 16.4008 78.2526 15.9635 78.2998 15.4995C78.6137 12.425 78.2142 9.52876 79.7265 9.15002C81.2389 8.77128 82.3803 8.50394 82.58 7.47911C82.7798 6.45428 84.4491 0.0602586 87.9018 1.12964C91.3545 2.19903 91.754 3.35753 92.4674 6.18694C93.1808 9.01635 93.1665 10.3976 93.6516 12.4918C94.1367 14.5861 94.422 17.2372 95.4065 18.1061C96.222 18.8049 97.096 19.3223 98.0032 19.6433C99.2302 20.2003 99.6439 19.4428 100.443 21.3588C100.514 21.5593 100.643 21.849 100.8 22.2054C100.558 21.8324 100.26 21.5596 99.9339 21.4117C99.6075 21.2639 99.2626 21.2457 98.9306 21.3588C97.2185 21.7153 97.5038 21.8489 96.1912 22.094C94.8786 22.3391 95.3637 22.8515 94.3222 21.5593C93.2807 20.2672 92.6101 20.4231 92.8954 18.5517C93.1808 16.6803 93.6801 16.2124 92.7527 15.1207C91.8254 14.0291 91.7683 14.2519 91.7826 12.4473C91.8722 10.6992 91.5915 8.95361 90.9836 7.47911C90.2274 5.47402 90.2131 4.15956 89.3286 4.93932C88.444 5.71908 88.9005 5.94187 87.9018 6.83302C86.9031 7.72417 86.7034 8.34798 85.9186 7.99152C85.1339 7.63506 85.4193 6.1201 84.4919 7.21176C83.5645 8.30342 83.6929 9.77383 81.9951 9.84066C80.2973 9.9075 80.4257 7.99152 79.855 10.1971C79.2843 12.4027 79.7836 15.9005 78.1001 16.7694H77.9431Z" fill="#5F6501"/>
<path fill-rule="evenodd" clip-rule="evenodd" d="M95.1783 28.7551C93.9371 28.4877 94.5648 27.1287 93.1238 29.3789C91.6828 31.629 92.2392 31.6068 90.8125 31.6068C89.3858 31.6068 89.5855 32.4979 88.4156 31.6068C87.2456 30.7156 87.1172 30.0472 85.7618 29.6017C84.7725 29.271 83.854 28.55 83.0938 27.5075C81.9809 26.3267 80.8966 28.3763 80.2403 25.5246C79.584 22.673 80.7539 22.918 81.4245 19.6876C82.0951 16.4572 82.5944 15.2318 84.278 16.3458C85.4904 16.8179 86.5931 17.8139 87.4596 19.2197C88.7152 21.0912 87.9447 21.2471 89.5142 21.6481C90.1575 21.7455 90.7904 21.9701 91.3975 22.3165C91.3975 22.3165 92.4961 25.5915 93.5804 26.1485C94.65 26.9321 95.8097 27.3716 96.9903 27.4406C98.2031 27.4183 97.1901 29.2006 95.1783 28.7551Z" fill="#7F8905"/>
<path fill-rule="evenodd" clip-rule="evenodd" d="M52.1475 37.7114C50.4497 36.1519 50.0074 34.9265 49.0943 35.2607C46.0125 36.3969 47.6676 33.0328 44.5144 33.4561C42.6597 33.768 41.4327 35.0602 40.0202 35.1048C38.6077 35.1493 37.8658 35.4835 37.5947 33.8794C37.3236 32.2754 37.6803 30.7604 36.6816 29.4237C35.6829 28.0869 33.714 28.3543 33.6855 27.1958C33.6569 26.0373 33.5998 21.6261 32.5298 20.8018C31.4597 19.9774 30.8605 19.8438 30.5466 18.5739C30.2327 17.304 29.1198 12.3358 30.3897 10.0188C31.6595 7.70181 34.3418 9.84057 35.5117 7.34534C36.6816 4.85011 37.1382 1.93159 38.5792 2.64451C40.0202 3.35743 41.1331 3.9144 41.6467 3.1792C42.1603 2.444 45.4418 -2.14544 48.224 1.21866C51.0061 4.58277 51.0061 5.98634 50.8492 8.92714C50.6923 11.8679 50.2785 13.1824 50.1073 15.388C49.9361 17.5936 49.4367 20.178 50.1073 21.6484C50.6326 22.8476 51.267 23.9208 51.9906 24.8342C52.918 26.2155 53.5172 25.8145 53.6599 28.0869C53.7455 30.092 54.9725 40.2957 52.1475 37.7114Z" fill="#778004"/>
<path fill-rule="evenodd" clip-rule="evenodd" d="M52.1476 37.7115L51.7481 37.3328C51.9105 37.4755 52.098 37.5331 52.2829 37.497C52.4678 37.4609 52.6404 37.333 52.7753 37.1323C52.9445 36.903 53.0823 36.6229 53.1807 36.3087C53.2791 35.9945 53.3359 35.6526 53.3479 35.3034C53.3599 34.9542 53.3267 34.6047 53.2504 34.2759C53.1741 33.9471 53.0562 33.6456 52.9038 33.3894C52.2332 31.919 52.3901 31.0056 51.7624 30.8051C51.3503 30.6456 50.9302 30.5413 50.5068 30.4932C49.2941 30.2481 49.0801 30.4932 48.4238 29.6912C47.2707 28.2026 46.538 26.0665 46.3835 23.7427C45.927 19.933 45.3563 18.4403 45.4276 16.7694C45.4989 15.0985 45.0852 11.6007 44.2291 11.6007C43.3731 11.6007 43.3018 13.8286 42.3601 10.6873C41.4185 7.546 41.5041 6.78852 39.9489 6.83308C38.3938 6.87763 38.6648 6.05332 37.4806 8.3926C36.2964 10.7319 36.0539 11.4671 34.8697 11.378C33.6855 11.2888 32.3871 10.5091 31.8022 10.8433C31.2172 11.1774 30.1044 10.7096 29.8047 13.4944C29.7349 12.3137 29.9429 11.1337 30.3897 10.1749C31.6595 7.94702 34.3418 9.99667 35.5117 7.50144C36.6817 5.00621 37.1382 2.08769 38.5792 2.80061C40.0202 3.51353 41.1331 4.0705 41.6467 3.3353C42.1604 2.6001 45.4419 -1.98934 48.224 1.37476C51.0062 4.73886 51.0062 6.14243 50.8493 9.08324C50.6923 12.024 50.2785 13.3385 50.1073 15.5441C49.9361 17.7497 49.4368 20.334 50.1073 21.8045C50.6326 23.0037 51.2671 24.0769 51.9907 24.9903C52.918 26.3716 53.5173 25.9706 53.6599 28.243C53.7455 30.0922 54.9725 40.2959 52.1476 37.7115Z" fill="#6A7203"/>
<path fill-rule="evenodd" clip-rule="evenodd" d="M34.8267 8.4149C35.0953 8.20286 35.3295 7.8981 35.5115 7.52375C36.6672 5.00624 37.138 2.10999 38.579 2.82292C40.02 3.53584 41.1329 4.09281 41.6465 3.35761C42.1602 2.62241 45.4417 -1.96703 48.2238 1.39707C51.006 4.76117 51.006 6.16474 50.849 9.10555C50.6921 12.0464 50.2783 13.3608 50.1071 15.5664C49.9359 17.772 49.4366 20.3564 50.1071 21.8268C50.6324 23.026 51.2669 24.0992 51.9904 25.0126C52.9178 26.3939 53.5171 25.9929 53.6597 28.2653C53.6597 28.4881 53.6597 28.8446 53.7453 29.2679C53.6394 28.7621 53.4529 28.3066 53.2033 27.9442C52.9538 27.5818 52.6493 27.3243 52.3186 27.196C50.6778 26.3271 50.8918 26.6167 49.6648 25.9483C48.4378 25.28 48.7089 25.9483 48.1382 24.166C47.5675 22.3837 46.9397 21.9381 47.6817 20.4232C48.4236 18.9082 49.1084 18.886 48.5377 17.2596C47.967 15.6332 47.9099 15.8115 48.4378 14.1851C49.0199 12.689 49.2706 10.9353 49.1512 9.19466C49.0513 6.96678 49.408 5.69689 48.395 5.76372C47.382 5.83056 47.7245 6.36525 46.5403 6.40981C45.3561 6.45436 45.0279 6.9445 44.4287 6.07562C43.8294 5.20675 44.4287 4.04825 43.3158 4.33788C42.203 4.6275 41.8891 6.05334 40.3339 4.9394C38.7787 3.82546 39.4636 2.19911 38.3222 3.75863C37.1808 5.31815 36.6101 8.81592 34.8695 8.4149H34.8267Z" fill="#5F6501"/>
<path fill-rule="evenodd" clip-rule="evenodd" d="M46.7829 31.1837C45.7557 30.0698 46.6973 29.29 44.7712 30.2926C42.8451 31.2951 43.3445 31.7184 42.0461 30.7827C40.7478 29.847 40.6907 30.7827 39.8775 29.1786C39.0642 27.5745 39.1641 26.9507 38.0798 25.5026C37.2911 24.5122 36.6773 23.2239 36.2964 21.7598C35.6401 19.9329 34.0706 21.0023 34.3274 18.0169C34.5843 15.0316 35.5402 16.0564 37.0668 13.5612C38.5934 11.0659 39.3781 10.4421 40.6337 12.6254C41.5828 13.8902 42.2807 15.5521 42.6454 17.4154C43.2303 19.9552 42.5027 19.6433 43.7868 21.0246C44.3377 21.5581 44.8413 22.2022 45.2848 22.9405C45.2848 22.9405 45.2848 26.6388 46.1409 27.8864C46.8659 29.3336 47.7741 30.5319 48.8089 31.4065C49.879 32.0971 48.4094 32.9215 46.7829 31.1837Z" fill="#7F8905"/>
<path fill-rule="evenodd" clip-rule="evenodd" d="M40.006 21.7817C40.006 21.7817 44.486 24.0096 44.8427 24.4552C45.1994 24.9007 44.7713 31.5398 39.5494 36.6417C34.3276 41.7435 27.2366 36.7531 24.326 30.7824C21.4155 24.8116 23.2988 18.1057 24.1263 17.6824C24.9538 17.2591 30.7749 18.3953 40.006 21.7817Z" fill="#E53C0D"/>
<path fill-rule="evenodd" clip-rule="evenodd" d="M44.8427 24.4555C45.1994 24.8788 44.7713 31.5402 39.5494 36.642C34.3276 41.7439 27.2366 36.7534 24.326 30.7827C21.4155 24.812 23.2988 18.106 24.1263 17.6827C20.8733 24.8342 27.3793 38.3129 34.884 36.642C37.0765 36.1262 39.1461 34.7326 40.8912 32.597C42.6364 30.4614 43.9978 27.6565 44.8427 24.4555Z" fill="#DC380D"/>
<path fill-rule="evenodd" clip-rule="evenodd" d="M40.006 21.7821L40.2343 21.9157C40.2343 21.9157 39.8205 22.2945 39.8063 23.6535C39.792 25.0125 40.22 25.8814 39.3069 26.5497C38.3938 27.2181 37.3665 26.9062 36.5676 28.1092C35.7686 29.3123 35.3406 30.9832 34.2848 31.2283C33.229 31.4733 32.4015 28.6662 31.2315 29.9138C30.0616 31.1614 29.8048 32.9438 29.3768 31.7853C28.9487 30.6268 31.4455 28.5325 30.3755 26.9285C29.3054 25.3244 29.1627 25.8368 28.2782 24.7006C27.3507 23.9221 26.6396 22.6372 26.2807 21.0914C26.0218 19.9988 26.0218 18.7976 26.2807 17.705C30.9017 18.6559 35.4842 20.0171 40.006 21.7821Z" fill="#BF220B"/>
<path fill-rule="evenodd" clip-rule="evenodd" d="M26.2806 17.7496C30.4908 18.5926 34.668 19.7974 38.7932 21.3588C38.7726 21.8492 38.6621 22.3199 38.4749 22.7149C38.2877 23.1099 38.0317 23.4125 37.7374 23.5867C36.8399 24.2223 35.8236 24.3176 34.8839 23.854C33.7711 23.609 33.1718 24.1659 33.1433 23.2302C33.1147 22.2945 32.701 21.6261 31.9876 21.0023C31.1341 20.33 30.22 19.8643 29.2768 19.6211C27.8072 19.1086 26.3092 20.2671 26.2806 17.7496Z" fill="#E84D29"/>
<path fill-rule="evenodd" clip-rule="evenodd" d="M39.6349 22.829C39.5493 23.3414 39.6349 24.8787 39.1926 25.3688C38.7504 25.8589 37.4092 25.7475 37.1238 26.0149C36.451 26.5707 35.8548 27.3277 35.369 28.2428C35.0265 29.1562 34.1705 30.4707 33.3287 29.8469C32.8055 29.5594 32.3033 29.186 31.8306 28.7329C31.4597 28.3319 32.0018 27.3962 32.2016 26.505C32.3332 25.8182 32.2983 25.0798 32.1036 24.4306C31.9088 23.7814 31.5679 23.2668 31.1458 22.985C29.9901 22.2052 29.1341 20.9353 29.9045 20.7571C30.675 20.5789 31.1315 20.0664 31.959 21.6037C32.7865 23.1409 33.2574 24.7896 33.8424 24.5445C34.4273 24.2994 34.5557 24.0989 34.9409 24.2994C35.787 24.7051 36.6916 24.7051 37.5376 24.2994C38.5649 23.8984 39.4067 24.3663 39.6349 22.829Z" fill="#A42006"/>
<path fill-rule="evenodd" clip-rule="evenodd" d="M43.53 25.9704C43.316 25.2129 41.6895 23.7425 41.2044 24.0767C40.7193 24.4109 40.9904 26.6388 39.6493 27.619C38.3081 28.5993 37.0811 28.577 36.7958 29.691C36.5104 30.8049 35.2264 33.0774 34.2562 32.8991C33.286 32.7209 32.5583 31.607 31.8164 32.2085C31.0745 32.81 30.3897 34.8597 31.4027 35.4835C33.8148 36.2601 36.3241 35.7434 38.5248 34.0171C40.7256 32.2908 42.489 29.4557 43.53 25.9704Z" fill="#E63F0C"/>
<path fill-rule="evenodd" clip-rule="evenodd" d="M28.7062 30.9832C28.9345 29.7579 30.618 28.2652 29.4766 27.3295C28.3352 26.3938 27.094 26.0819 26.2379 23.7203C25.3819 21.3588 25.2963 18.6185 24.8825 18.4848C24.4688 18.3511 23.5414 20.3562 23.7696 22.9406C23.9979 25.5249 25.9668 32.7878 28.7062 30.9832Z" fill="#E63F0C"/>
<path fill-rule="evenodd" clip-rule="evenodd" d="M59.1387 52.148C59.1387 52.8832 58.9104 53.3288 58.1828 53.1728C57.4552 53.0169 55.7145 51.3237 54.6017 51.7693C53.495 52.0868 52.4326 52.7051 51.4628 53.5961C50.778 54.4427 49.551 58.2301 47.6106 57.8514C45.6702 57.4727 45.499 57.3167 44.2863 60.6585C43.0736 64.0004 41.2331 67.3422 39.5495 68.0105C37.8659 68.6789 37.2952 69.4587 36.0825 68.2556C34.8698 67.0526 33.1006 65.6267 33.229 63.6439C33.3754 62.5332 33.3194 61.3807 33.0671 60.3173C32.8149 59.2539 32.3767 58.3224 31.8023 57.6286C30.8399 56.6698 29.7326 56.1241 28.5921 56.0468C27.5078 55.8463 27.2795 55.824 26.3806 53.8189C25.4818 51.8138 24.9539 49.7419 26.3806 47.6922C27.7989 45.9243 29.4668 44.7099 31.2458 44.1499C32.3016 43.838 33.0863 44.5064 33.4002 42.7686C33.6582 40.7007 34.2307 38.7599 35.0695 37.1098C36.0682 35.4389 35.7829 34.7705 37.1954 34.6591C38.6078 34.5477 38.6221 35.3275 39.5638 34.6591C40.0863 34.2344 40.5668 33.6942 40.9905 33.0551C40.9905 33.0551 43.5016 29.1563 45.4277 29.6687C47.3538 30.1811 47.0684 28.7775 48.1813 31.4064C49.2942 34.0353 48.3525 34.3472 49.7365 35.8622C51.1204 37.3771 51.4628 37.9118 51.7767 39.8055C52.0458 41.7754 52.5283 43.6591 53.2035 45.3752C53.7155 46.6307 54.4487 47.6286 55.315 48.2492C56.4136 49.1404 59.1673 50.7222 59.1387 52.148Z" fill="#778004"/>
<path fill-rule="evenodd" clip-rule="evenodd" d="M58.8676 53.0835C58.6438 53.1826 58.4067 53.1826 58.1828 53.0835C57.4552 52.9276 55.7145 51.2344 54.6017 51.68C53.495 51.9975 52.4326 52.6158 51.4628 53.5068C50.778 54.3534 49.551 58.1408 47.6106 57.7621C45.6702 57.3833 45.499 57.2274 44.2863 60.5692C43.0736 63.911 41.2331 67.2529 39.5495 67.9212C37.8659 68.5896 37.2952 69.3694 36.0825 68.1663C34.8698 66.9632 33.1006 65.5374 33.229 63.5546C33.3754 62.4439 33.3194 61.2914 33.0671 60.228C32.8149 59.1646 32.3767 58.2331 31.8023 57.5393C30.8399 56.5804 29.7326 56.0348 28.5921 55.9575C27.5078 55.757 27.2795 55.7347 26.3806 53.7296C25.4818 51.7245 24.9539 49.6526 26.3806 47.6029C27.7989 45.835 29.4668 44.6206 31.2458 44.0606C32.3016 43.7487 33.0863 44.4171 33.4002 42.6793C33.6668 40.6428 34.2389 38.734 35.0695 37.1096C36.0682 35.4387 35.7829 34.7703 37.1954 34.6589C38.6078 34.5475 38.6221 35.1714 39.2927 34.6589C38.4459 35.7254 37.8204 37.1596 37.495 38.7805C36.5819 42.8576 37.495 41.4763 36.0682 44.3057C34.6415 47.1351 33.4145 48.405 35.2407 50.1873C37.067 51.9696 38.0942 56.5145 40.2201 54.9104C42.3459 53.3063 41.7609 53.0835 44.4004 51.2567C47.0399 49.4298 45.3849 51.6577 47.7818 52.9499C50.1787 54.242 49.2086 51.1007 51.9622 49.4521C54.7158 47.8035 58.8676 53.0835 58.8676 53.0835Z" fill="#6A7203"/>
<path fill-rule="evenodd" clip-rule="evenodd" d="M50.7349 54.933C50.0216 56.3143 48.9943 58.1635 47.6104 57.8961C45.67 57.5397 45.4988 57.3614 44.286 60.7033C43.0733 64.0451 41.2328 67.3869 39.5492 68.0553C37.8657 68.7236 37.295 69.5034 36.0822 68.3003C34.8695 67.0973 33.1003 65.6714 33.2288 63.6886C33.3752 62.5779 33.3191 61.4254 33.0669 60.362C32.8147 59.2986 32.3764 58.3671 31.802 57.6733C30.8396 56.7145 29.7323 56.1689 28.5918 56.0915C27.5075 55.891 27.2792 55.8687 26.3804 53.8636C25.667 52.1927 25.1676 50.5887 25.7383 48.9846C25.453 52.1705 27.1651 53.73 27.8357 54.8216C28.5062 55.9133 32.1159 52.8165 33.3857 55.891C34.6555 58.9655 35.2405 59.0992 34.5556 61.9286C33.8708 64.758 35.5543 63.1985 36.3676 65.2036C37.1808 67.2087 38.151 65.0699 39.1355 64.4015C40.1199 63.7332 40.7334 61.4385 41.618 59.2774C42.5026 57.1164 42.1317 57.0495 42.7594 55.5568C43.3872 54.0642 43.5299 54.4429 44.9994 54.2647C46.469 54.0864 46.3406 55.9801 47.9956 56.4926C48.4996 56.6249 49.0169 56.5508 49.4971 56.2775C49.9772 56.0041 50.4038 55.5409 50.7349 54.933Z" fill="#5F6501"/>
<path fill-rule="evenodd" clip-rule="evenodd" d="M50.8351 48.5389C49.5938 48.8286 49.551 49.4524 48.2384 48.383C46.9258 47.3136 46.8117 46.5116 45.3849 47.1799C43.9582 47.8483 44.6002 48.1602 42.8168 48.2493C41.685 48.5676 40.5178 48.3262 39.4782 47.5587C38.0514 46.623 37.5806 47.2022 37.866 45.108C37.897 43.3542 38.3685 41.6898 39.1786 40.474C40.32 38.6917 39.735 37.6223 40.8479 36.1965C41.9607 34.7706 43.0165 32.8101 44.6002 33.0774C46.1839 33.3448 47.2968 35.5949 48.0957 36.9762C48.8947 38.3575 48.9803 36.642 50.1217 39.5606C51.2631 42.4791 51.5485 44.3505 52.0336 45.1971C52.5187 46.0437 52.8183 47.9151 50.8351 48.5389Z" fill="#7F8905"/>
<path fill-rule="evenodd" clip-rule="evenodd" d="M100.899 32.4761C100.899 32.4761 104.038 27.0178 104.438 26.6836C104.837 26.3494 108.604 29.7135 109.374 39.338C110.145 48.9624 104.352 56.916 99.658 58.5646C94.964 60.2132 91.8537 54.7995 91.9393 53.4405C92.025 52.0815 95.1067 44.217 100.899 32.4761Z" fill="#E53C0D"/>
<path fill-rule="evenodd" clip-rule="evenodd" d="M104.438 26.6831C104.837 26.3712 108.547 29.7131 109.374 39.2484C110.202 48.7837 104.352 56.8264 99.658 58.475C94.964 60.1237 91.8537 54.7099 91.9393 53.3509C94.7928 60.948 105.308 57.2497 107.448 45.8875C108.052 42.5531 108.092 39.0313 107.564 35.6656C107.037 32.2999 105.959 29.2052 104.438 26.6831Z" fill="#DC380D"/>
<path fill-rule="evenodd" clip-rule="evenodd" d="M100.899 32.4759L101.056 32.1863C101.056 32.1863 101.056 32.9438 101.898 33.5453C102.74 34.1468 103.325 33.8126 103.325 35.439C103.325 37.0653 102.74 38.3575 103.097 39.8948C103.453 41.432 104.267 42.8356 103.981 44.3505C103.696 45.8655 101.698 45.9769 101.941 48.1602C102.183 50.3435 103.111 51.502 102.283 51.5689C101.456 51.6357 101.242 47.2913 99.8436 48.1379C98.4454 48.9845 98.7165 49.4078 97.7178 50.2321C96.8953 51.1829 95.8861 51.6557 94.8643 51.5689C94.1181 51.4798 93.4159 50.9828 92.8811 50.1653C95.339 44.0384 98.016 38.1325 100.899 32.4759Z" fill="#BF220B"/>
<path fill-rule="evenodd" clip-rule="evenodd" d="M92.9097 50.3214C95.1418 44.6812 97.571 39.2369 100.186 34.0133C100.458 34.2475 100.68 34.5991 100.827 35.0259C100.974 35.4527 101.039 35.9365 101.014 36.4194C101.028 37.983 100.661 39.4967 99.9863 40.6524C99.3728 42.1228 99.4584 43.2145 98.902 42.8803C98.5919 42.7465 98.2645 42.7441 97.9536 42.8733C97.6427 43.0025 97.3594 43.2587 97.1328 43.6155C96.387 44.5549 95.7374 45.6668 95.2067 46.9128C94.3364 48.7173 94.3364 51.324 92.9097 50.3214Z" fill="#E84D29"/>
<path fill-rule="evenodd" clip-rule="evenodd" d="M101.342 33.434C101.599 33.7682 102.555 34.2583 102.64 35.1049C102.726 35.9515 102.141 37.8007 102.169 38.3131C102.224 39.5096 102.432 40.6765 102.783 41.744C103.168 42.6129 103.567 44.3729 102.883 45.3309C102.491 45.9434 102.066 46.5025 101.613 47.0018C101.228 47.3583 100.899 46.1998 100.486 45.576C100.145 45.0969 99.7029 44.8318 99.2444 44.8318C98.786 44.8318 98.3438 45.0969 98.0032 45.576C97.0615 46.8904 95.9629 47.5811 96.1627 46.4003C96.3624 45.2195 96.2625 44.3506 97.5038 43.816C98.7451 43.2813 99.8865 43.3035 99.9864 42.3456C100.086 41.3876 99.9863 41.1648 100.3 40.6969C100.912 39.7116 101.319 38.4618 101.47 37.11C101.542 35.3946 102.141 34.392 101.342 33.434Z" fill="#A42006"/>
<path fill-rule="evenodd" clip-rule="evenodd" d="M104.737 29.1561C104.209 29.1561 102.669 30.8493 102.669 31.6736C102.669 32.498 104.095 33.0326 104.095 35.3496C104.095 37.6666 103.596 39.3821 104.095 40.3624C104.595 41.3426 105.422 43.9938 104.909 45.3083C104.395 46.6227 103.482 47.202 103.482 48.4719C103.482 49.7418 104.438 51.5909 105.208 50.4324C106.688 47.3291 107.447 43.5321 107.362 39.6654C107.276 35.7987 106.351 32.0925 104.737 29.1561Z" fill="#E63F0C"/>
<path fill-rule="evenodd" clip-rule="evenodd" d="M101.599 52.3042C100.971 51.4799 100.8 48.4722 99.7867 49.7198C98.7737 50.9674 98.0746 52.5938 96.3339 52.8389C94.5933 53.0839 92.9668 52.0591 92.7243 52.5938C92.4817 53.1285 93.2522 55.2673 94.9357 56.0693C96.6193 56.8713 101.47 56.9827 101.599 52.3042Z" fill="#E63F0C"/>
<path fill-rule="evenodd" clip-rule="evenodd" d="M53.6884 7.47891C56.014 7.10017 56.9271 6.27585 58.6963 9.55084C60.4655 12.8258 60.3799 14.8532 61.9778 17.237C62.8021 18.2349 63.3471 19.6921 63.4987 21.3035C63.6503 22.9149 63.3967 24.5553 62.791 25.8812C60.8171 29.0824 58.3663 31.4704 55.6573 32.8322C53.6028 33.6788 50.3498 27.2625 48.3524 25.4356C46.3549 23.6088 44.8997 19.6209 45.8128 16.5241C46.7259 13.4274 53.6884 7.47891 53.6884 7.47891Z" fill="#E9E7E8"/>
<path fill-rule="evenodd" clip-rule="evenodd" d="M47.1683 17.7047C47.6391 16.8581 46.8544 14.9421 48.2669 13.494C49.0885 12.4441 50.0136 11.609 51.0062 11.0211C52.647 9.97397 53.075 8.5704 54.2164 9.75118C55.3578 10.932 56.6133 10.776 56.542 12.3355C56.4706 13.895 55.4148 13.4272 55.6146 16.7913C55.8143 20.1554 56.2281 20.3559 55.9427 23.4749C55.6574 26.594 55.5433 28.1981 53.9881 28.1981C52.7127 28.2668 51.4666 27.5917 50.4926 26.3044C49.2085 24.9899 48.167 24.7448 47.2824 22.8957C46.3978 21.0465 46.1695 18.3731 47.1683 17.7047Z" fill="#EDEEEE"/>
<path fill-rule="evenodd" clip-rule="evenodd" d="M51.6623 13.7841C50.6921 14.1851 50.15 13.6505 49.6506 16.012C49.1512 18.3736 48.338 17.7275 48.5092 19.5766C48.6804 21.4258 49.1513 23.8987 50.4211 24.2329C51.6909 24.5671 51.9905 25.9929 52.176 23.6982C52.3614 21.4035 51.8478 20.7797 52.4898 19.2424C53.1319 17.7052 53.8595 11.2443 51.6623 13.7841Z" fill="#F6F6F6"/>
<path fill-rule="evenodd" clip-rule="evenodd" d="M54.7728 9.10552C55.3608 9.10438 55.9355 9.37728 56.4236 9.88928C56.9116 10.4013 57.2906 11.1291 57.5122 11.9795C57.769 13.539 56.8559 14.5638 57.1983 16.4353C57.5407 18.3067 58.4538 19.3315 58.625 20.891C58.896 22.7717 58.776 24.7383 58.2826 26.5053C57.7404 27.7975 57.5122 27.597 56.8559 29.357C56.1996 31.117 57.2411 30.7383 58.2826 29.758C59.3241 28.7777 60.3942 28.5772 61.1361 27.0177C61.878 25.4582 63.4332 24.9903 63.0051 22.1609C62.6774 19.8111 61.9362 17.6507 60.865 15.9228C59.6951 13.695 60.066 12.3137 58.7962 10.8878C57.5264 9.46198 55.8144 7.10043 54.7728 9.10552Z" fill="#E2DFE1"/>
<path fill-rule="evenodd" clip-rule="evenodd" d="M55.8144 28.5768C55.5607 29.0828 55.2232 29.4707 54.8384 29.6985C54.4536 29.9263 54.0362 29.9852 53.6315 29.869C52.8325 29.4234 52.1049 27.6411 51.9622 28.755C51.8195 29.869 53.7599 31.4285 54.5731 31.6067C54.8834 31.7527 55.2181 31.7012 55.5041 31.4633C55.7901 31.2253 56.0042 30.8204 56.0997 30.3368C56.3565 29.2229 56.5563 27.0618 55.8144 28.5768Z" fill="#E2DFE1"/>
<path fill-rule="evenodd" clip-rule="evenodd" d="M47.0683 14.6749C47.0683 13.962 47.5106 13.6278 48.1812 14.0956C48.8518 14.5635 50.2072 17.0587 51.3629 17.0587C52.482 17.247 53.6139 17.1111 54.7014 16.6577C55.5147 16.1453 57.3695 13.0708 59.1672 14.2516C60.9649 15.4324 61.1075 15.6997 62.8624 13.004C64.6173 10.3082 66.9714 7.99124 68.7121 8.01352C70.4527 8.0358 71.1376 7.6125 72.0935 9.30569C73.0494 10.9989 74.4761 13.1154 73.9483 14.92C73.6126 15.9364 73.4679 17.0803 73.531 18.2197C73.5942 19.359 73.8625 20.4472 74.3049 21.3585C75.071 22.7089 76.0571 23.7098 77.1584 24.2548C78.1714 24.9232 78.3854 25.0568 78.8705 27.4629C79.3556 29.869 79.5268 31.9187 77.7577 33.3223C76.0775 34.396 74.2606 34.8459 72.4502 34.6367C71.3801 34.4585 70.7381 33.4782 70.1246 35.0155C69.522 36.8876 68.6354 38.5014 67.5422 39.7163C66.3009 40.8971 66.4578 41.6546 65.0739 41.1644C63.6899 40.6743 63.7755 39.8722 62.7768 40.2064C62.1907 40.3843 61.6238 40.6919 61.0933 41.1199C61.0933 41.1199 57.9829 43.771 56.228 42.4343C54.4731 41.0976 54.4874 42.568 53.9025 39.5826C53.3175 36.5973 54.2592 36.6864 53.1891 34.6144C52.119 32.5425 51.905 31.8964 51.9335 29.9359C52.0214 27.9158 51.8814 25.8873 51.5198 23.9429C51.2927 22.489 50.7965 21.1718 50.0931 20.1555C49.1514 18.7742 46.7973 16.0339 47.0683 14.6749Z" fill="#778004"/>
<path fill-rule="evenodd" clip-rule="evenodd" d="M47.4963 13.8951C47.7317 13.8725 47.967 13.9414 48.1812 14.0956C48.8375 14.5635 50.2072 16.9473 51.3628 17.0141C52.482 17.2024 53.6138 17.0665 54.7014 16.6131C55.5147 16.1007 57.3694 13.0262 59.1671 14.207C60.9648 15.3878 61.1075 15.6551 62.8624 12.9594C64.6173 10.2636 66.9714 7.94664 68.712 7.96892C70.4527 7.9912 71.1375 7.5679 72.0935 9.26109C73.0494 10.9543 74.4761 13.0708 73.9482 14.8754C73.6126 15.8918 73.4679 17.0357 73.531 18.1751C73.5941 19.3144 73.8624 20.4026 74.3049 21.3139C75.071 22.6643 76.0571 23.6652 77.1584 24.2102C78.1714 24.8785 78.3854 25.0122 78.8705 27.4183C79.3556 29.8245 79.5268 31.8741 77.7576 33.2777C76.0775 34.3514 74.2606 34.8013 72.4501 34.5921C71.3801 34.4139 70.738 33.4336 70.1245 34.9709C69.5219 36.843 68.6354 38.4568 67.5421 39.6717C66.3009 40.8525 66.4578 41.61 65.0739 41.1198C63.6899 40.6297 63.7755 40.0059 63.0621 40.095C64.0662 39.4323 64.9276 38.3345 65.5447 36.9314C67.1426 33.3891 66.0583 34.3471 67.8275 32.2083C69.5966 30.0695 71.1233 29.4234 69.6822 26.9059C68.2412 24.3884 68.0272 19.5985 65.7444 20.2223C63.4616 20.8461 63.9325 21.2917 61.079 21.8932C58.2255 22.4947 60.2086 21.0912 58.1256 18.8187C56.0425 16.5463 56.4848 19.9772 53.4887 20.3559C50.4925 20.7347 47.4963 13.8951 47.4963 13.8951Z" fill="#6A7203"/>
<path fill-rule="evenodd" clip-rule="evenodd" d="M55.6289 15.6997C56.0936 15.0132 56.6601 14.5176 57.2776 14.2571C57.8952 13.9965 58.5444 13.9793 59.1673 14.207C60.965 15.41 61.1076 15.6551 62.8625 12.9594C64.6174 10.2636 66.9715 7.94664 68.7122 7.96892C70.4528 7.9912 71.1376 7.5679 72.0936 9.26109C73.0495 10.9543 74.4762 13.0708 73.9483 14.8754C73.6127 15.8918 73.468 17.0357 73.5311 18.1751C73.5943 19.3144 73.8626 20.4026 74.305 21.3139C75.0711 22.6643 76.0572 23.6652 77.1585 24.2102C78.1715 24.8785 78.3855 25.0122 78.8706 27.4183C79.2701 29.3343 79.4556 31.0943 78.6138 32.3865C79.4556 29.4457 78.143 27.2178 77.6436 25.8811C77.1442 24.5444 73.2064 25.8811 72.5073 22.4279C71.8082 18.9747 71.2946 18.5291 72.5073 16.1007C73.72 13.6723 71.7797 14.4743 71.3517 12.1796C70.9236 9.8849 69.611 11.5335 68.4982 11.7563C67.3853 11.9791 66.4437 13.9842 65.2024 15.5883C63.9611 17.1924 64.3035 17.5711 63.4475 18.6628C62.5914 19.7544 62.5058 19.398 61.0648 18.9301C59.6238 18.4622 60.0946 16.7022 58.5965 15.4546C58.1321 15.0823 57.6129 14.9088 57.0916 14.9518C56.5702 14.9949 56.0656 15.2529 55.6289 15.6997Z" fill="#5F6501"/>
<path fill-rule="evenodd" clip-rule="evenodd" d="M54.3875 21.7595C55.6431 22.0269 55.8143 21.4254 56.8558 23.0294C57.8973 24.6335 57.883 25.4578 59.4239 25.4578C60.9648 25.4578 60.3513 24.8563 62.0777 25.4578C63.2215 25.6422 64.2994 26.3825 65.1595 27.5743C66.3437 29.0893 66.9143 28.7328 66.2723 30.6488C65.6303 32.5648 65.5875 33.2777 64.1893 34.503C62.791 35.7284 63.1477 36.9983 61.8209 37.8894C60.494 38.7806 59.1386 40.1173 57.6548 39.2484C56.1709 38.3795 55.5146 35.6615 54.9867 33.9906C54.4588 32.3197 54.0879 33.9906 53.56 30.6265C53.0321 27.2624 53.0178 25.391 52.7182 24.3884C52.4186 23.3859 52.3901 21.5145 54.3875 21.7595Z" fill="#7F8905"/>
<path fill-rule="evenodd" clip-rule="evenodd" d="M18.2766 24.9456C19.4839 26.7915 20.808 28.4412 22.2287 29.8693C23.0562 30.2035 19.0756 33.122 20.5024 39.6274C21.9291 46.1328 26.0667 47.4027 27.522 45.665C28.9772 43.9272 29.7905 44.8852 30.1614 45.665C30.5324 46.4447 32.216 49.2964 32.216 49.2964C32.216 49.2964 29.9332 54.1978 27.2081 55.0666C24.483 55.9355 19.9745 53.4403 16.8927 43.348C16.0208 40.3772 15.6888 37.0894 15.9329 33.8439C16.177 30.5984 16.9878 27.5201 18.2766 24.9456Z" fill="#F1AB00"/>
<path fill-rule="evenodd" clip-rule="evenodd" d="M20.3026 27.7528C20.8745 28.6328 21.5229 29.3828 22.2287 29.9807C23.0562 30.3149 19.0756 33.2334 20.5023 39.7388C21.929 46.2442 26.0666 47.5141 27.5219 45.7764C28.9772 44.0386 29.7904 44.9966 30.1614 45.7764C30.4047 46.2896 30.6667 46.7806 30.9461 47.2468C29.5216 48.1949 28.0092 48.7815 26.4661 48.9845C24.6254 49.0189 22.8367 48.0325 21.4181 46.2007C19.9994 44.369 19.043 41.8108 18.7189 38.9813C18.5028 35.0741 19.0553 31.1568 20.3026 27.7528Z" fill="#FCC322"/>
<path fill-rule="evenodd" clip-rule="evenodd" d="M18.6335 29.8915C18.6335 29.8915 16.4934 37.2212 18.2911 42.4791C20.0888 47.7369 23.7841 50.9673 26.3665 50.2989C28.9489 49.6306 29.4482 50.7445 28.8775 52.1703C28.3068 53.5962 24.0123 54.7324 20.6024 49.5192C17.1925 44.3059 15.2949 37.6223 18.6335 29.8915Z" fill="#E4A300"/>
<path fill-rule="evenodd" clip-rule="evenodd" d="M20.431 32.164C19.7483 34.0526 19.564 36.2824 19.9174 38.3798C20.2461 40.8919 21.1052 43.1592 22.3571 44.8183C23.2702 45.9323 23.7839 46.066 23.527 47.0462C23.2702 48.0265 20.6735 45.7541 19.2468 40.5854C18.8599 39.1634 18.766 37.5886 18.9782 36.0796C19.1904 34.5705 19.6982 33.202 20.431 32.164Z" fill="#FFD871"/>
<path fill-rule="evenodd" clip-rule="evenodd" d="M68.0272 44.5733C68.0272 44.5733 63.4188 45.9769 62.9765 45.8655C62.5342 45.7541 60.8506 39.6052 63.8611 31.206C66.8715 22.8069 74.633 21.8489 79.0274 24.9234C83.4218 27.9979 83.8212 35.2608 83.222 36.2633C82.6228 37.2659 77.2154 40.6077 68.0272 44.5733Z" fill="#E53C0D"/>
<path fill-rule="evenodd" clip-rule="evenodd" d="M62.9481 45.8655C62.4916 45.8655 60.8223 39.6052 63.8327 31.206C66.8431 22.8069 74.6046 21.8489 78.999 24.9234C83.3934 27.9979 83.7929 35.2608 83.1937 36.2633C83.85 27.5523 74.0054 20.6682 67.9275 27.7083C66.1645 29.8063 64.7793 32.5812 63.9067 35.7631C63.0341 38.9449 62.7039 42.4253 62.9481 45.8655Z" fill="#DC380D"/>
<path fill-rule="evenodd" clip-rule="evenodd" d="M68.0271 44.5731H67.7989C67.7989 44.5731 68.0414 43.927 67.6419 42.7017C67.2424 41.4763 66.6147 41.1644 67.1854 39.7832C67.7561 38.4019 68.7691 38.0231 69.0972 36.3745C69.4254 34.7259 69.2969 32.9435 70.1387 31.9187C70.9805 30.8939 72.5927 32.743 73.2348 30.7825C73.8768 28.822 73.5915 26.9951 74.2763 27.7303C74.9611 28.4655 73.4631 32.1861 74.9041 32.7653C76.3451 33.3446 76.3308 32.7653 77.4151 33.0772C78.4628 33.0907 79.4736 33.6826 80.2686 34.7481C80.8298 35.521 81.1986 36.5781 81.3102 37.7335C76.9689 40.4041 72.5341 42.6876 68.0271 44.5731Z" fill="#BF220B"/>
<path fill-rule="evenodd" clip-rule="evenodd" d="M81.3102 37.8226C77.3574 40.2362 73.3233 42.3112 69.2257 44.0384C69.1 43.5974 69.0574 43.1096 69.1029 42.6321C69.1484 42.1547 69.2801 41.7074 69.4825 41.3426C70.0801 40.0873 70.9544 39.2222 71.9365 38.9142C72.9923 38.3127 73.3632 37.3547 73.6486 38.1567C73.8426 38.5602 74.1027 38.8745 74.4015 39.0666C74.7003 39.2587 75.0267 39.3215 75.3464 39.2484C76.3205 39.2065 77.2839 38.9207 78.1999 38.4018C79.5553 37.778 80.5112 35.617 81.3102 37.8226Z" fill="#E84D29"/>
<path fill-rule="evenodd" clip-rule="evenodd" d="M68.0414 43.3922C67.9558 42.8798 67.3851 41.5876 67.6562 40.8301C67.9273 40.0726 69.0829 39.1592 69.2684 38.6022C69.6788 37.5894 69.9598 36.4622 70.0959 35.2827C70.0959 34.2356 70.4669 32.4756 71.38 32.3419C71.932 32.2078 72.491 32.1556 73.0493 32.1859C73.4916 32.1859 73.3061 33.5004 73.3917 34.4138C73.4967 35.1032 73.7587 35.7095 74.1288 36.1194C74.499 36.5294 74.952 36.715 75.4034 36.6417C76.659 36.4635 77.8003 36.9313 77.1868 37.7111C76.5733 38.4908 76.3308 39.2483 75.1323 38.5131C73.9339 37.7779 73.0208 36.6863 72.5785 37.3323C72.1362 37.9784 72.0791 38.2681 71.6796 38.3794C70.8069 38.6155 70.0008 39.2604 69.3683 40.2286C68.6549 41.5653 67.7703 41.8549 68.0414 43.3922Z" fill="#A42006"/>
<path fill-rule="evenodd" clip-rule="evenodd" d="M63.69 43.6151C64.1038 44.1276 65.9871 44.2167 66.3152 43.6151C66.6434 43.0136 65.7017 41.209 66.5863 39.3376C67.4709 37.4662 68.5267 36.575 68.4981 35.3051C68.4696 34.0353 68.8406 31.1836 69.7537 30.6043C70.6668 30.0251 71.637 30.4484 72.1078 29.379C72.5786 28.3096 72.5216 25.9926 71.4658 26.1931C69.0984 27.2945 67.0403 29.6174 65.6279 32.782C64.2154 35.9466 63.5323 39.7657 63.69 43.6151Z" fill="#E63F0C"/>
<path fill-rule="evenodd" clip-rule="evenodd" d="M75.1038 28.0422C75.275 29.2898 74.262 31.8519 75.5461 31.8073C76.8302 31.7628 78.0287 31.1167 79.4982 32.5648C80.9678 34.0129 81.8951 36.3299 82.3517 36.1294C82.8083 35.9289 82.9509 33.5005 81.9094 31.2726C80.8679 29.0447 76.9586 24.3885 75.1038 28.0422Z" fill="#E63F0C"/>
<path fill-rule="evenodd" clip-rule="evenodd" d="M52.176 44.8184C53.4601 47.0462 54.3162 47.6255 54.2591 49.0736C54.0736 54.0418 55.9569 50.9228 56.1852 55.7573C56.3279 58.6535 55.7144 60.7477 55.9427 62.9533C56.1709 65.1589 56.0711 66.3174 57.1269 66.4734C58.1827 66.6293 59.0958 65.7827 60.0517 67.0972C61.0076 68.4116 61.2502 71.553 61.9635 71.3302C62.6769 71.1074 65.5019 70.5058 66.2438 71.9985C66.9857 73.4912 67.1426 74.4046 67.9273 74.672C68.712 74.9393 72.1077 75.7859 73.349 73.4244C74.5902 71.0628 72.764 67.32 74.148 65.0921C75.5319 62.8642 77.2725 61.6389 76.5734 59.5669C75.8743 57.495 75.3321 55.8464 75.7031 54.9329C76.0741 54.0195 78.4139 48.2493 75.803 44.4619C73.192 40.6745 72.3074 41.031 70.4812 41.7662C68.655 42.5014 67.8988 43.3925 66.5291 43.994C65.1594 44.5956 63.6756 45.8655 62.5913 45.1525C61.7555 44.5766 60.9732 43.8272 60.2657 42.9247C59.2384 41.7216 59.3811 40.6968 57.9258 40.8973C56.7131 41.031 50.1073 40.9196 52.176 44.8184Z" fill="#778004"/>
<path fill-rule="evenodd" clip-rule="evenodd" d="M52.176 44.8184L52.4899 45.3531C52.3788 45.1218 52.3187 44.8403 52.3187 44.5511C52.3187 44.2619 52.3788 43.9804 52.4899 43.7491C52.6066 43.4512 52.76 43.1926 52.9414 42.9884C53.1227 42.7842 53.3283 42.6384 53.5461 42.5596C53.764 42.4808 53.9897 42.4705 54.21 42.5294C54.4304 42.5882 54.6411 42.7151 54.8298 42.9025C55.8856 43.6822 56.442 43.2812 56.6703 44.1946C56.846 44.8042 56.9845 45.4382 57.084 46.0883C57.4407 47.9152 57.2695 48.3162 57.9543 49.1405C59.0748 50.6899 60.5402 51.49 62.0348 51.3684C64.5174 51.3684 65.5732 52.0368 66.6147 51.6358C67.6562 51.2347 69.9247 51.257 70.0817 52.5715C70.2386 53.8859 68.8261 54.3761 70.9663 55.2895C73.1064 56.2029 73.5915 55.9133 73.8197 58.3417C74.048 60.7701 74.5331 60.1686 73.2491 62.3742C71.965 64.5798 71.5512 65.0699 71.8223 66.8299C72.0934 68.59 72.8068 70.5059 72.7069 71.4639C72.607 72.4219 73.0778 74.0483 71.3657 75.0063C72.1252 74.9021 72.8349 74.3719 73.3632 73.5136C74.6045 71.152 72.7782 67.4092 74.1622 65.1813C75.5461 62.9534 77.2867 61.7281 76.5876 59.6561C75.8885 57.5842 75.3464 55.9356 75.7173 55.0222C76.0883 54.1087 78.4282 48.3385 75.8172 44.5511C73.2063 40.7637 72.3217 41.1202 70.4954 41.8554C68.6692 42.5906 67.913 43.4817 66.5434 44.0832C65.1737 44.6848 63.6899 45.9547 62.6055 45.2417C61.7697 44.6658 60.9875 43.9164 60.2799 43.0139C59.2527 41.8108 59.3954 40.786 57.9401 40.9865C56.7131 41.031 50.1072 40.9196 52.176 44.8184Z" fill="#6A7203"/>
<path fill-rule="evenodd" clip-rule="evenodd" d="M73.6772 66.362C73.7536 65.9068 73.9063 65.4916 74.1195 65.159C75.5462 62.9311 77.2441 61.7058 76.545 59.6338C75.8459 57.5619 75.3037 55.9133 75.6746 54.9998C76.0456 54.0864 78.3855 48.3162 75.7745 44.5288C73.1636 40.7414 72.279 41.0979 70.4528 41.8331C68.6265 42.5683 67.8704 43.4594 66.5007 44.0609C65.131 44.6625 63.6472 45.9324 62.5628 45.2194C61.727 44.6435 60.9448 43.8941 60.2373 42.9916C59.21 41.7885 59.3527 40.7637 57.8974 40.9642H57.2411C57.5783 41.0465 57.897 41.2586 58.1685 41.5814C58.44 41.9043 58.6558 42.3277 58.7962 42.8133C59.638 45.1749 59.4097 45.0412 60.0518 46.6676C60.6938 48.2939 60.1517 48.1602 61.4785 48.7172C62.8054 49.2742 63.0907 50.1653 63.9183 48.7172C64.7458 47.2691 64.6459 46.3557 65.7588 46.8458C66.8716 47.3359 66.786 47.581 67.7134 46.4893C68.5591 45.3382 69.6197 44.6429 70.7381 44.5065C72.1649 44.2614 72.9068 43.504 73.0352 45.0635C73.1636 46.623 72.7783 46.1997 72.9496 48.0488C73.1208 49.898 72.9496 50.455 73.5345 51.2347C74.1195 52.0145 74.7901 50.7669 74.8186 52.6383C74.8471 54.5097 73.9911 55.1558 74.9613 57.3391C75.9315 59.5224 76.8446 58.208 76.0599 60.2131C75.2752 62.2182 73.2064 63.7109 73.72 66.3398L73.6772 66.362Z" fill="#5F6501"/>
<path fill-rule="evenodd" clip-rule="evenodd" d="M57.2411 51.9254C58.1257 53.3067 58.4395 51.7249 58.1399 54.8663C57.8403 58.0076 57.4979 57.3392 58.3111 59.1661C59.1244 60.9929 58.5965 61.238 59.7379 62.196C60.8793 63.154 61.3216 62.9089 62.3631 64.4239C63.1222 65.4643 64.0417 66.1783 65.0311 66.4958C66.3009 67.2087 65.8872 69.7931 67.7277 68.8796C69.5682 67.9662 68.7692 66.6518 70.0247 63.9115C71.2803 61.1712 71.5941 59.8122 70.0247 58.2526C69.0618 57.0226 67.8933 56.2494 66.6576 56.0248C64.9455 55.5792 65.3307 56.6263 64.1893 54.8885C63.765 54.1493 63.2861 53.4912 62.7626 52.928C62.7626 52.928 60.4085 53.5072 59.4953 52.4601C58.4529 51.6037 57.5349 50.4205 56.7988 48.9846C56.1139 47.336 55.8143 49.7421 57.2411 51.9254Z" fill="#7F8905"/>
<path fill-rule="evenodd" clip-rule="evenodd" d="M50.1073 60.6142C49.5794 58.7427 48.3809 56.1584 48.1811 55.089C47.9814 54.0196 46.9827 50.1877 47.7103 48.4054C48.438 46.6231 51.32 44.2392 51.9906 43.1921C52.6611 42.145 54.8441 38.7364 56.6703 38.7364C58.4965 38.7364 60.8792 37.6892 60.9505 39.1597C60.9547 41.8243 61.45 44.4307 62.3773 46.6676C63.6471 49.1629 65.7872 52.0814 66.1867 54.5766C66.5862 57.0718 67.9273 55.9356 66.6575 59.2774C65.1641 62.5849 63.2137 65.3259 60.9505 67.2978C60.0802 67.7211 57.3409 70.4391 55.4147 69.7039C53.4886 68.9687 50.1073 60.6142 50.1073 60.6142Z" fill="#E9E7E8"/>
<path fill-rule="evenodd" clip-rule="evenodd" d="M66.3009 54.7769C66.7574 56.8711 67.9274 55.98 66.7146 59.2327C65.2212 62.5402 63.2708 65.2812 61.0076 67.2531C60.1373 67.6764 57.398 70.3944 55.4719 69.6592C54.2834 68.7813 53.2645 67.4286 52.5185 65.7381C51.905 63.6439 51.6054 61.8393 52.1618 62.3963C53.0433 64.109 54.1934 65.4367 55.5004 66.2505C57.0413 67.409 57.0413 67.8769 58.1399 67.4981C59.2219 67.0124 60.2726 66.371 61.2787 65.5822C62.2153 65.1435 63.0424 64.2644 63.6471 63.0647C64.5174 61.6165 65.4163 59.7451 64.8884 57.8514C64.3605 55.9577 64.1179 55.4676 64.4176 54.3759C64.7172 53.2842 65.1309 53.9526 66.2723 54.8438L66.3009 54.7769Z" fill="#EDEEEE"/>
<path fill-rule="evenodd" clip-rule="evenodd" d="M50.1073 60.6142C49.5794 58.7427 48.3809 56.1584 48.1811 55.089C47.9814 54.0196 46.9827 50.1877 47.7103 48.4054C48.438 46.6231 51.32 44.2392 51.9906 43.1921C52.6611 42.145 54.8441 38.7364 56.6703 38.7364C58.4965 38.7364 60.8792 37.6892 60.9505 39.1597C60.9547 41.8243 61.45 44.4307 62.3773 46.6676C63.0478 47.9821 63.961 49.4079 64.7314 50.8338C64.0038 49.6084 62.9622 50.0094 61.5212 49.7198C60.981 49.6903 60.4501 49.4917 59.9599 49.1358C59.4697 48.7799 59.0303 48.2739 58.6677 47.6479C57.5406 46.1775 57.7404 45.2418 56.2708 45.42C54.8841 45.2812 53.5174 45.9926 52.4614 47.4028C51.9774 48.1081 51.6143 48.9914 51.4049 49.972C51.1956 50.9526 51.1468 51.9994 51.2629 53.0171C51.2629 55.4232 50.3213 55.1113 50.3926 57.4729C50.733 60.1042 51.2743 62.6622 52.0048 65.0922C50.9062 62.8643 50.0502 60.8592 50.0502 60.8592L50.1073 60.6142Z" fill="#E2DFE1"/>
<path fill-rule="evenodd" clip-rule="evenodd" d="M49.2655 58.1188C48.8479 57.1719 48.4986 56.1558 48.224 55.0889C48.0242 53.9527 47.0255 50.1876 47.7532 48.4053C48.4808 46.623 51.3628 44.2391 52.0334 43.192C53.1357 41.313 54.49 39.8372 55.9998 38.8699C55.9998 39.672 54.573 41.833 53.1463 42.8801C51.7195 43.9272 51.5341 45.7987 50.9634 47.7815C50.7879 48.7554 50.4976 49.6696 50.1073 50.4772C49.6079 51.5689 48.6805 50.7891 48.3809 52.1927C48.0813 53.5962 49.2655 58.1188 49.2655 58.1188Z" fill="#D6D6D7"/>
<path fill-rule="evenodd" clip-rule="evenodd" d="M53.8312 62.9085C54.4445 63.9927 55.2255 64.8134 56.0997 65.2923C57.8974 66.6513 58.5965 67.5202 59.9377 65.7156C60.7652 64.5911 61.6695 63.6124 62.6342 62.7971C63.8755 61.5495 64.8742 60.5692 64.8171 59.4107C64.6882 58.1147 64.3272 56.9021 63.7756 55.9129C63.0765 54.3088 62.3489 54.0861 61.2788 55.601C60.2087 57.116 60.1089 60.0568 58.14 60.235C56.1711 60.4133 54.5588 59.0988 53.0893 59.5221C51.6197 59.9454 52.3331 61.6163 53.8312 62.9085Z" fill="#E2DFE1"/>
<path fill-rule="evenodd" clip-rule="evenodd" d="M55.0582 57.8962C54.0024 57.161 54.5017 55.4009 54.302 53.6186C54.1022 51.8363 53.6314 49.0292 54.8299 48.1603C56.0283 47.2914 56.2566 49.5639 58.6964 50.0317C61.1361 50.4996 62.7055 50.0317 63.5045 51.2348C64.3035 52.4378 60.9649 52.7275 60.066 55.1336C59.1672 57.5397 58.7677 58.4308 57.5978 58.7427C56.7171 58.8391 55.8369 58.5457 55.0582 57.8962Z" fill="#EDEEEE"/>
<path fill-rule="evenodd" clip-rule="evenodd" d="M57.027 52.705C57.027 53.9527 56.0283 55.3562 57.3979 55.6236C58.7676 55.8909 58.8247 55.7795 59.4382 54.5319C60.0517 53.2843 61.2074 52.7942 61.4356 52.304C61.6639 51.8139 60.8364 50.9005 59.8092 50.8559C58.7819 50.8113 57.027 51.3906 57.027 52.705Z" fill="#F6F6F6"/>
<path fill-rule="evenodd" clip-rule="evenodd" d="M42.9737 45.6205C43.0043 47.4399 42.6322 49.2201 41.92 50.6609C41.2079 52.1017 40.1993 53.1148 39.0644 53.5295C35.7115 55.1558 30.618 47.9375 31.0746 40.1622C31.5597 31.3621 41.8037 35.2831 42.9737 45.6205Z" fill="#422E46"/>
<path fill-rule="evenodd" clip-rule="evenodd" d="M42.9737 45.6203C43.0043 47.4397 42.6322 49.22 41.92 50.6607C41.2079 52.1015 40.1993 53.1147 39.0644 53.5293C35.7115 55.1557 30.618 47.9373 31.0746 40.162C31.0667 39.932 31.0667 39.7014 31.0746 39.4714C31.2143 43.1203 32.2338 46.5511 33.9281 49.0736C34.4927 49.8717 35.2004 50.3802 35.9559 50.5307C36.7114 50.6813 37.4782 50.4664 38.1531 49.9153C38.8279 49.3641 39.3783 48.5031 39.73 47.4483C40.0818 46.3935 40.2179 45.1957 40.1202 44.0163C40.084 41.7297 39.4861 39.5523 38.4504 37.9349C37.4146 36.3176 36.0202 35.384 34.5559 35.3275C36.4987 35.2968 38.3905 36.2991 39.9203 38.1696C41.4501 40.0401 42.5269 42.6676 42.9737 45.6203Z" fill="#3A253D"/>
<path fill-rule="evenodd" clip-rule="evenodd" d="M42.9736 45.6205C43.0043 47.4399 42.6321 49.2201 41.92 50.6609C41.2078 52.1017 40.1992 53.1149 39.0643 53.5295C36.7815 54.6212 33.6998 51.6581 32.1018 47.2023C32.2017 47.4251 34.2276 51.97 36.8386 52.6161C37.4699 52.7521 38.1127 52.6721 38.7222 52.3815C39.3318 52.091 39.8935 51.5969 40.3686 50.9335C40.8437 50.2701 41.2206 49.4533 41.4734 48.5397C41.7261 47.6261 41.8485 46.6376 41.8322 45.6428C41.7181 41.5435 40.4055 39.3824 38.5079 36.7313C39.6411 37.5743 40.634 38.8155 41.4087 40.3577C42.1835 41.8999 42.7191 43.7012 42.9736 45.6205Z" fill="#2D1A30"/>
<path fill-rule="evenodd" clip-rule="evenodd" d="M33.657 41.0306C33.5019 41.0771 33.3419 41.0663 33.19 40.999C33.038 40.9317 32.8982 40.8099 32.7817 40.6432C32.6653 40.4765 32.5754 40.2696 32.5193 40.039C32.4632 39.8084 32.4424 39.5606 32.4586 39.3152C32.5727 38.0453 33.657 37.2655 34.0423 38.6691C34.4275 40.0727 34.1421 40.9193 33.657 41.0306Z" fill="#1A041E"/>
<path fill-rule="evenodd" clip-rule="evenodd" d="M33.1719 41.2981C33.2623 41.3879 33.3652 41.4426 33.4719 41.4575C33.5786 41.4724 33.6861 41.4472 33.7853 41.3839C33.8845 41.3207 33.9726 41.2212 34.0421 41.0938C34.1116 40.9665 34.1606 40.815 34.1849 40.652C34.299 39.694 34.941 39.7386 35.0837 40.652C35.1394 40.8403 35.1624 41.0482 35.1503 41.2547C35.1382 41.4613 35.0914 41.6592 35.0148 41.8286C34.9381 41.998 34.8342 42.1329 34.7136 42.2197C34.5929 42.3064 34.4598 42.342 34.3275 42.3229C34.0961 42.3114 33.87 42.212 33.6686 42.0335C33.4673 41.8549 33.2968 41.6025 33.1719 41.2981Z" fill="#543C56"/>
<path fill-rule="evenodd" clip-rule="evenodd" d="M32.2729 43.6151C32.6047 44.4008 33.0499 45.0541 33.5728 45.5223C34.0956 45.9904 34.6815 46.2605 35.2834 46.3108C37.1524 46.3108 38.1369 43.3923 39.0643 44.3503C39.9916 45.3082 38.408 50.0536 35.6115 48.9843C34.7954 48.6467 34.0534 47.9687 33.4653 47.0228C32.8771 46.0769 32.465 44.8989 32.2729 43.6151Z" fill="#4E3852"/>
<path fill-rule="evenodd" clip-rule="evenodd" d="M118.491 51.5464C117.317 51.4796 116.195 50.7756 115.317 49.5557C114.439 48.3357 113.862 46.6762 113.683 44.8628C112.856 39.5381 117.792 32.0524 122.714 33.2555C128.322 34.7259 125.183 50.477 118.491 51.5464Z" fill="#422E46"/>
<path fill-rule="evenodd" clip-rule="evenodd" d="M118.491 51.5464C117.317 51.4796 116.195 50.7756 115.317 49.5557C114.439 48.3357 113.862 46.6762 113.683 44.8628C112.856 39.5381 117.792 32.0524 122.714 33.2555L123.142 33.3892C120.814 33.3585 118.564 34.6943 116.836 37.132C116.297 37.9647 115.934 39.0344 115.795 40.1981C115.656 41.3619 115.748 42.5642 116.058 43.6444C116.368 44.7245 116.882 45.6312 117.531 46.243C118.18 46.8549 118.933 47.1428 119.69 47.0684C121.155 47.1571 122.585 46.3621 123.685 44.8481C124.785 43.3341 125.469 41.2173 125.596 38.9366C125.514 41.9901 124.763 44.9071 123.471 47.2017C122.178 49.4962 120.42 51.0296 118.491 51.5464Z" fill="#3A253D"/>
<path fill-rule="evenodd" clip-rule="evenodd" d="M118.491 51.5466C117.317 51.4797 116.195 50.7758 115.317 49.5558C114.44 48.3359 113.862 46.6764 113.683 44.8629C113.127 41.2538 115.224 36.6198 118.178 34.4142C118.021 34.5478 114.982 37.4441 114.411 41.4543C114.282 42.4305 114.291 43.4389 114.437 44.4094C114.583 45.3798 114.862 46.2889 115.256 47.0734C115.65 47.858 116.148 48.4991 116.717 48.9523C117.286 49.4054 117.911 49.6597 118.549 49.6974C121.174 49.6974 122.643 47.8483 124.441 45.0634C123.839 46.7905 122.988 48.2753 121.956 49.4005C120.923 50.5257 119.737 51.2604 118.491 51.5466Z" fill="#2D1A30"/>
<path fill-rule="evenodd" clip-rule="evenodd" d="M122.015 37.3327C121.992 37.0872 122.007 36.8368 122.058 36.602C122.11 36.3673 122.196 36.1551 122.311 35.983C122.425 35.8109 122.564 35.6839 122.716 35.6125C122.868 35.5411 123.029 35.5275 123.185 35.5726C123.984 35.8177 124.412 37.5554 123.513 38.0679C122.615 38.5803 122.058 38.0901 122.015 37.3327Z" fill="#1A041E"/>
<path fill-rule="evenodd" clip-rule="evenodd" d="M121.873 36.5529C121.809 36.689 121.767 36.8473 121.75 37.0142C121.734 37.1812 121.744 37.3518 121.779 37.5115C121.814 37.6713 121.873 37.8155 121.952 37.9317C122.03 38.048 122.125 38.1329 122.229 38.1792C122.829 38.4243 122.757 39.4045 122.229 39.5828C121.701 39.761 121.216 39.3823 121.216 38.2906C121.23 37.9407 121.297 37.601 121.411 37.2991C121.525 36.9971 121.683 36.7415 121.873 36.5529Z" fill="#543C56"/>
<path fill-rule="evenodd" clip-rule="evenodd" d="M120.46 34.9934C119.943 35.4573 119.5 36.1001 119.166 36.8724C118.832 37.6448 118.616 38.5262 118.534 39.4492C118.463 42.3677 120.232 43.905 119.561 45.4645C118.891 47.024 115.952 44.0832 116.808 39.8057C117.082 38.5639 117.566 37.461 118.209 36.6139C118.852 35.7667 119.63 35.2068 120.46 34.9934Z" fill="#4E3852"/>
<path fill-rule="evenodd" clip-rule="evenodd" d="M84.7488 47.6922C83.5779 47.6161 82.4602 46.9084 81.586 45.6897C80.7119 44.4709 80.1354 42.8166 79.9549 41.0085C79.1274 35.6616 84.0639 28.1759 88.9719 29.379C94.5933 30.8494 91.483 46.5114 84.7488 47.6922Z" fill="#422E46"/>
<path fill-rule="evenodd" clip-rule="evenodd" d="M84.7488 47.6922C83.5779 47.6161 82.4602 46.9084 81.586 45.6897C80.7119 44.4709 80.1354 42.8166 79.9549 41.0085C79.1274 35.6616 84.0639 28.1759 88.9719 29.379L89.4142 29.5349C87.0859 29.4805 84.8315 30.8106 83.108 33.2555C82.5691 34.0882 82.2059 35.1579 82.0668 36.3216C81.9276 37.4854 82.0193 38.6877 82.3295 39.7679C82.6397 40.848 83.1537 41.7546 83.8027 42.3665C84.4517 42.9784 85.2049 43.2663 85.9615 43.1919C87.4265 43.2806 88.8572 42.4856 89.9569 40.9716C91.0566 39.4576 91.741 37.3408 91.8682 35.0601C91.7881 38.1207 91.0371 41.0455 89.7412 43.3449C88.4452 45.6444 86.6827 47.1791 84.7488 47.6922Z" fill="#3A253D"/>
<path fill-rule="evenodd" clip-rule="evenodd" d="M84.7486 47.6924C83.5777 47.6163 82.46 46.9086 81.5859 45.6898C80.7117 44.4711 80.1352 42.8168 79.9547 41.0087C79.3983 37.3773 81.4956 32.7655 84.4347 30.5377C84.292 30.6936 81.253 33.5676 80.6823 37.5778C80.551 38.5527 80.5576 39.5606 80.7017 40.5311C80.8458 41.5015 81.124 42.4111 81.5167 43.1963C81.9094 43.9814 82.4072 44.6231 82.9753 45.0764C83.5434 45.5298 84.1681 45.7839 84.8057 45.8209C87.4451 45.8209 88.9147 43.9718 90.6981 41.1869C90.0998 42.9204 89.2502 44.4114 88.2172 45.5409C87.1842 46.6704 85.9964 47.4072 84.7486 47.6924Z" fill="#2D1A30"/>
<path fill-rule="evenodd" clip-rule="evenodd" d="M88.2869 33.4561C88.267 33.2117 88.284 32.9634 88.3364 32.731C88.3889 32.4986 88.4753 32.2886 88.589 32.1176C88.7026 31.9467 88.8403 31.8196 88.9909 31.7464C89.1416 31.6732 89.3011 31.656 89.4568 31.6961C90.2558 31.9412 90.6838 33.6789 89.7707 34.1913C88.8576 34.7038 88.3297 34.2136 88.2869 33.4561Z" fill="#1A041E"/>
<path fill-rule="evenodd" clip-rule="evenodd" d="M88.1443 32.6541C88.0803 32.7902 88.0383 32.9485 88.022 33.1154C88.0057 33.2824 88.0155 33.453 88.0505 33.6127C88.0856 33.7725 88.1448 33.9166 88.2232 34.0329C88.3017 34.1492 88.397 34.2341 88.5009 34.2804C89.0859 34.5255 89.0288 35.5057 88.5009 35.684C88.377 35.7568 88.2429 35.7776 88.1122 35.7441C87.9815 35.7106 87.8588 35.6242 87.7562 35.4933C87.6536 35.3625 87.5748 35.1919 87.5278 34.9986C87.4807 34.8052 87.467 34.596 87.4879 34.3918C87.5021 34.0419 87.5689 33.7022 87.6829 33.4003C87.797 33.0983 87.955 32.8427 88.1443 32.6541Z" fill="#543C56"/>
<path fill-rule="evenodd" clip-rule="evenodd" d="M86.7319 31.1169C86.2129 31.5782 85.7691 32.2202 85.4351 32.9931C85.101 33.7659 84.8856 34.6487 84.8058 35.5727C84.8058 38.5135 86.4893 40.0285 85.8187 41.588C85.1482 43.1475 82.2091 40.2067 83.0794 35.9292C83.3538 34.6874 83.8381 33.5845 84.4811 32.7374C85.1241 31.8902 85.9018 31.3303 86.7319 31.1169Z" fill="#4E3852"/>
<path fill-rule="evenodd" clip-rule="evenodd" d="M72.5071 57.4503C74.205 55.8685 75.1038 55.8462 75.3606 54.4426C76.2024 49.6527 77.3581 53.5292 78.5708 49.0066C79.2984 46.3331 79.1558 44.0384 79.8121 42.0556C80.4684 40.0728 80.6253 38.9366 81.6526 39.3153C82.6798 39.694 83.3789 40.9417 84.5061 40.1842C85.6332 39.4267 86.5321 36.6196 87.1741 37.1097C87.8161 37.5998 90.3415 39.6718 91.3402 38.6024C92.3389 37.533 92.6671 36.7755 93.4803 36.9092C94.2935 37.0429 97.6607 37.9563 98.3598 40.7857C99.0589 43.6151 96.5621 46.2886 97.4181 49.0957C98.2742 51.9028 99.6724 53.9302 98.5881 55.5566C97.5037 57.1829 96.6477 58.4528 96.8189 59.4999C96.9901 60.547 98.0031 67.253 94.7644 69.4586C91.5257 71.6642 90.7552 70.9958 89.1715 69.4586C87.5879 67.9213 87.06 66.6291 85.89 65.337C84.7201 64.0448 83.5216 62.1065 82.4088 62.2848C81.4832 62.4376 80.5758 62.79 79.7122 63.3319C78.4995 63.9557 78.4424 64.9582 77.087 64.0894C76.0312 63.2873 69.7107 60.0792 72.5071 57.4503Z" fill="#778004"/>
<path fill-rule="evenodd" clip-rule="evenodd" d="M72.5071 57.4505L72.9351 57.1609C72.777 57.3068 72.6537 57.5294 72.5842 57.7949C72.5146 58.0604 72.5026 58.3541 72.5499 58.6313C72.5968 58.9738 72.6874 59.298 72.8163 59.5847C72.9453 59.8713 73.1098 60.1144 73.3003 60.2995C73.4907 60.4846 73.7031 60.6078 73.9247 60.6619C74.1463 60.7159 74.3726 60.6997 74.5902 60.6141C75.7458 60.3913 76.1881 61.0597 76.6019 60.3022C76.887 59.81 77.1447 59.2808 77.3723 58.7204C78.0857 57.1609 78.0286 56.6707 78.7991 56.2474C80.174 55.3986 81.7043 55.3986 83.0793 56.2474C84.5691 56.7645 86.033 57.4495 87.4594 58.2971C88.3582 59.1882 90.5269 60.3022 90.9407 59.1437C91.3544 57.9852 90.1131 56.7821 92.3674 56.9158C94.6217 57.0495 94.9784 57.6287 95.6917 55.4454C96.4051 53.2621 96.7475 54.0864 95.9914 51.3238C95.2352 48.5612 94.9356 47.9374 95.5633 46.3111C96.1911 44.6847 97.2469 43.3257 97.3468 42.3677C97.4466 41.4097 98.2313 40.1399 96.8046 38.3575C97.4972 38.8329 98.0587 39.678 98.3883 40.7414C99.0874 43.5931 96.5906 46.2442 97.4466 49.0514C98.3027 51.8585 99.7009 53.8859 98.6166 55.5122C97.5322 57.1386 96.6762 58.4085 96.8474 59.4556C97.0186 60.5027 98.0316 67.2086 94.7929 69.4142C91.5542 71.6198 90.7837 70.9515 89.2 69.4142C87.6163 67.877 87.0885 66.5848 85.9185 65.2927C84.7486 64.0005 83.5501 62.0622 82.4373 62.2404C81.5118 62.3933 80.6043 62.7457 79.7407 63.2876C78.528 63.9114 78.4709 64.9139 77.1155 64.045C76.0312 63.2876 69.7107 60.0794 72.5071 57.4505Z" fill="#6A7203"/>
<path fill-rule="evenodd" clip-rule="evenodd" d="M97.2898 47.7144C97.2702 48.1901 97.3292 48.6658 97.461 49.0957C98.317 51.8806 99.7153 53.9302 98.6309 55.5566C97.5466 57.1829 96.6906 58.4528 96.8618 59.4999C97.033 60.547 98.046 67.253 94.8073 69.4586C91.5685 71.6642 90.7981 70.9958 89.2144 69.4586C87.6307 67.9213 87.1028 66.6291 85.9329 65.337C84.763 64.0448 83.5645 62.1065 82.4516 62.2848C81.5261 62.4376 80.6186 62.79 79.7551 63.3319C78.5423 63.9557 78.4853 64.9582 77.1299 64.0894L76.5164 63.7106C76.8522 63.8059 77.1979 63.7682 77.522 63.6008C77.846 63.4335 78.138 63.1418 78.3711 62.7526C79.6409 60.9258 79.3841 61.0372 80.34 59.7004C81.296 58.3637 80.7538 58.3414 82.0664 58.4751C83.379 58.6088 83.8926 57.8959 84.392 59.6336C84.8914 61.3713 84.606 62.2402 85.8187 62.3293C87.0315 62.4185 86.9459 62.1511 87.6022 63.6438C88.1647 65.1357 89.0275 66.2951 90.0562 66.9411C91.4829 67.9213 91.911 68.9684 92.3532 67.5426C92.7955 66.1167 92.3532 66.3395 92.8811 64.6686C93.409 62.9977 93.3092 62.4407 94.0796 61.9506C94.8501 61.4605 95.1782 63.0423 95.5777 61.26C95.9772 59.4776 95.3066 58.4751 96.6763 56.8042C98.046 55.1333 98.6452 56.8042 98.3028 54.5763C97.9604 52.3484 96.2768 49.8309 97.3469 47.603L97.2898 47.7144Z" fill="#5F6501"/>
<path fill-rule="evenodd" clip-rule="evenodd" d="M78.7565 53.2173C79.8693 52.3484 79.8551 53.9971 80.1832 50.9894C80.5114 47.9818 80.0548 48.3382 81.2105 47.0238C82.3661 45.7093 81.9096 45.1969 83.1508 44.7959C84.3921 44.3949 84.7916 44.9296 86.0757 44.1052C87.0075 43.4931 88.0254 43.2704 89.029 43.4592C90.3844 43.4592 90.5271 40.7634 92.0823 42.5457C93.6374 44.328 92.6102 45.1524 93.2379 48.4051C93.8657 51.6578 93.88 53.0613 92.0537 53.7297C90.8899 54.4277 89.6224 54.5901 88.4013 54.1976C86.6892 53.7743 87.2599 52.9722 85.8189 54.0416C85.2586 54.54 84.659 54.922 84.0354 55.1778C84.0354 55.1778 81.9238 53.4624 80.8395 53.9748C79.6774 54.2802 78.5663 54.9469 77.5723 55.9353C76.759 57.027 77.0016 54.5986 78.7565 53.2173Z" fill="#7F8905"/>
<path fill-rule="evenodd" clip-rule="evenodd" d="M82.2804 56.7595C80.8429 55.3805 79.3177 54.2382 77.7291 53.3509C76.8731 53.3509 80.3401 49.0733 78.0288 43.2363C75.7174 37.3992 71.4942 37.5552 70.3243 39.7608C69.1544 41.9664 68.227 41.3203 67.7562 40.6519C67.2853 39.9836 65.2308 37.8448 65.2308 37.8448C65.2308 37.8448 66.7574 32.2528 69.2828 30.4482C71.8081 28.6436 76.5735 29.5571 81.0249 38.3127C82.2984 40.9112 83.0893 44.0071 83.3108 47.2609C83.5322 50.5148 83.1758 53.801 82.2804 56.7595Z" fill="#F1AB00"/>
<path fill-rule="evenodd" clip-rule="evenodd" d="M79.9121 54.7323C79.2327 54.1042 78.4969 53.6386 77.7292 53.351C76.8731 53.351 80.3401 49.0734 78.0288 43.2364C75.7174 37.3993 71.4943 37.5553 70.3243 39.7609C69.1544 41.9665 68.227 41.3204 67.7562 40.652C67.5707 40.407 67.1998 39.9614 66.786 39.4935C68.0348 38.0767 69.4225 36.9857 70.895 36.2631C72.6798 35.568 74.5646 35.8853 76.2135 37.1584C77.8623 38.4315 79.168 40.5776 79.8978 43.2141C80.659 46.9603 80.664 50.9815 79.9121 54.7323Z" fill="#FCC322"/>
<path fill-rule="evenodd" clip-rule="evenodd" d="M81.2389 52.0591C81.2389 52.0591 82.2805 44.1724 79.8122 39.6721C77.3439 35.1718 73.2491 33.3003 70.8237 34.8599C68.3982 36.4194 67.7562 35.4837 68.1128 33.9019C68.4695 32.3201 72.493 29.7135 76.5592 33.6122C80.6254 37.511 83.3933 43.3704 81.2389 52.0591Z" fill="#E4A300"/>
<path fill-rule="evenodd" clip-rule="evenodd" d="M79.1559 50.477C79.5605 48.3947 79.4273 46.1478 78.7849 44.2167C78.0983 41.887 76.9334 39.9818 75.4749 38.8029C74.4333 38.0454 73.9054 38.09 74.0481 37.0652C74.1908 36.0404 77.0585 37.3102 79.0845 41.8774C79.667 43.1217 79.9869 44.6183 79.9996 46.1594C80.0124 47.7006 79.7175 49.2096 79.1559 50.477Z" fill="#FFD871"/>
</svg>
