<svg width="134" height="51" viewBox="0 0 134 51" fill="none" xmlns="http://www.w3.org/2000/svg">
<path fill-rule="evenodd" clip-rule="evenodd" d="M12.0428 21.597C9.86974 21.3155 7.66313 21.4446 5.5377 21.9775C1.85558 22.8735 4.2367 25.451 4.9363 25.7332C5.63591 26.0155 0.701841 24.0149 0.800031 23.8799C1.16991 23.1206 1.64058 22.4146 2.19926 21.7811C4.69324 20.8174 7.28666 20.134 9.93171 19.7437C10.6538 19.6717 11.3826 19.7131 12.0919 19.8664L12.0428 21.597Z" fill="#462B1D"/>
<path fill-rule="evenodd" clip-rule="evenodd" d="M12.0797 20.1731C10.3368 20.1731 6.67922 20.4554 4.71541 21.4741C2.13792 22.8488 2.81299 24.7021 6.12691 25.1563C9.44082 25.6104 14.7185 25.4877 15.4427 25.8804C16.1668 26.2732 18.3884 27.4392 16.265 27.9301C15.8109 28.0283 12.7547 27.9301 12.092 27.9301C4.83816 28.0529 -0.930504 26.8869 0.12504 23.0206C0.984203 19.9522 8.1889 19.0071 12.3988 18.5407L12.0429 19.7681C12.0429 19.7681 12.0797 19.989 12.0797 20.1731Z" fill="#5F3E2D"/>
<path fill-rule="evenodd" clip-rule="evenodd" d="M11.5641 25.5122C12.8824 25.4865 14.1996 25.6059 15.4917 25.8681C16.0441 26.1995 18.4375 27.4269 16.3141 27.9179C15.86 28.0161 12.8038 27.9179 12.141 27.9179C8.02931 27.9915 4.39628 27.6478 2.21155 26.6905C10.57 28.6297 14.1048 27.2183 13.6875 26.5187C13.2702 25.8191 11.5764 25.5122 11.5641 25.5122Z" fill="#462B1D"/>
<path fill-rule="evenodd" clip-rule="evenodd" d="M5.34139 25.7456C5.34139 25.7456 3.14439 25.451 2.51842 24.1622C2.40121 23.9375 2.32951 23.6918 2.30741 23.4392C2.28532 23.1867 2.31326 22.9323 2.38965 22.6906C2.46604 22.4489 2.58937 22.2246 2.75258 22.0306C2.91579 21.8366 3.11567 21.6768 3.34076 21.5602C4.02809 21.0815 1.24196 21.5602 0.738732 23.2662C0.235508 24.9723 1.52425 26.3592 4.62951 26.7029C7.73477 27.0466 8.79032 26.212 5.34139 25.7456Z" fill="#7D5846"/>
<path fill-rule="evenodd" clip-rule="evenodd" d="M121.967 21.597C124.136 21.3156 126.338 21.4446 128.459 21.9774C132.142 22.8734 129.773 25.4509 129.061 25.7332C128.349 26.0155 133.295 24.0149 133.197 23.8799C132.832 23.1204 132.366 22.4143 131.81 21.7811C129.311 20.819 126.714 20.1357 124.065 19.7436C123.343 19.6727 122.615 19.7141 121.905 19.8664L121.967 21.597Z" fill="#462B1D"/>
<path fill-rule="evenodd" clip-rule="evenodd" d="M36.4799 43.53C18.2533 36.1658 10.4472 20.5413 12.3988 20.2958C84.1266 11.3114 50.2878 11.3114 122.003 20.2958C123.955 20.5413 116.149 36.1167 97.9223 43.53C76.4187 52.2935 58.0449 52.2935 36.4799 43.53Z" fill="#694A3A"/>
<path fill-rule="evenodd" clip-rule="evenodd" d="M84.9123 15.2637C92.9393 16.3929 104.231 18.0621 122.028 20.2959C123.98 20.5414 116.174 36.1168 97.947 43.5301C88.9987 47.3634 79.44 49.5743 69.7174 50.0598C72.2703 49.7898 88.9258 47.8751 96.1428 42.5973C103.961 36.8778 81.9297 38.1788 69.3737 37.8228C56.8176 37.4669 60.6594 28.1757 65.4952 24.6163C67.7168 22.9716 76.0997 19.044 84.9123 15.2637Z" fill="#5F3E2D"/>
<path fill-rule="evenodd" clip-rule="evenodd" d="M36.4799 43.5301C18.2533 36.1658 10.4472 20.5413 12.3988 20.2958C30.6744 18.0006 42.0767 16.3069 50.1406 15.1777C59.0268 18.9825 67.5202 22.9592 69.7786 24.6162C74.6267 28.1756 78.4684 37.4791 65.9124 37.8228C53.3563 38.1664 31.3249 36.8777 39.1433 42.5973C46.9617 48.3168 65.2128 50.0229 65.8756 50.0965L62.2548 49.9247C53.3784 49.1735 44.678 47.015 36.4799 43.5301Z" fill="#5F3E2D"/>
<path fill-rule="evenodd" clip-rule="evenodd" d="M67.2257 37.2215C97.4683 37.2215 122.126 29.6241 122.126 20.296C122.126 10.9679 97.4683 3.37048 67.2257 3.37048C36.9832 3.37048 12.3252 10.9679 12.3252 20.296C12.3252 29.6241 36.9954 37.2215 67.2257 37.2215Z" fill="#917264"/>
<path fill-rule="evenodd" clip-rule="evenodd" d="M97.3946 6.15668C112.295 9.17602 122.126 14.3801 122.126 20.296C122.126 24.0395 118.186 27.5007 111.509 30.2992C109.055 28.3354 105.643 24.3587 107.655 18.4304C110.638 9.66697 96.5232 6.59853 96.5232 6.59853C96.8047 6.43418 97.0957 6.28664 97.3946 6.15668Z" fill="#7A5E52"/>
<path fill-rule="evenodd" clip-rule="evenodd" d="M99.8618 6.68433C102.439 7.27347 104.845 7.9117 107.054 8.64813C109.754 10.5874 111.792 12.9194 113.252 13.9504C115.437 15.4846 116.161 15.1778 118.812 18.0621C119.572 18.7878 120.117 19.7096 120.386 20.7256C120.654 21.7415 120.636 22.812 120.334 23.8185C120.334 23.8185 113.252 21.5233 107.435 19.179C107.496 18.9335 107.57 18.6881 107.656 18.4303C109.767 12.2934 103.335 8.8936 99.3831 7.45757C99.4984 7.17493 99.6602 6.91358 99.8618 6.68433Z" fill="#6C554B"/>
<path fill-rule="evenodd" clip-rule="evenodd" d="M121.93 20.1731C123.673 20.1731 127.318 20.4554 129.294 21.4741C131.872 22.8488 131.184 24.7021 127.883 25.1563C124.581 25.6104 119.291 25.4877 118.567 25.8804C117.843 26.2732 115.621 27.4392 117.732 27.9301C118.199 28.0283 121.255 27.9301 121.918 27.9301C129.171 28.0529 134.94 26.8869 133.872 23.0206C133.025 19.9522 125.821 19.0071 121.599 18.5407L121.954 19.7681C121.954 19.7681 121.918 19.989 121.93 20.1731Z" fill="#5F3E2D"/>
<path fill-rule="evenodd" clip-rule="evenodd" d="M122.396 25.5122C121.082 25.4853 119.769 25.6047 118.481 25.8681C117.916 26.1995 115.535 27.4269 117.646 27.9179C118.113 28.0161 121.169 27.9179 121.832 27.9179C125.931 27.9915 129.564 27.6478 131.749 26.6905C123.39 28.6297 119.856 27.2183 120.285 26.5186C120.715 25.819 122.384 25.5122 122.396 25.5122Z" fill="#462B1D"/>
<path fill-rule="evenodd" clip-rule="evenodd" d="M67.2256 2.75677C82.4451 2.75677 96.2285 4.67148 106.232 7.7522C116.431 10.8943 122.74 15.3251 122.74 20.296C122.74 25.2669 116.431 29.6609 106.232 32.852C96.2285 35.9328 82.4451 37.8352 67.2256 37.8352C52.0062 37.8352 38.2227 35.9328 28.2319 32.852C18.0692 29.6609 11.7114 25.2669 11.7114 20.296C11.7114 15.3251 18.0324 10.8943 28.2319 7.7522C38.2227 4.67148 52.0062 2.75677 67.2256 2.75677ZM105.863 8.89366C96.0444 5.84976 82.3346 3.98415 67.2256 3.98415C52.1166 3.98415 38.4682 5.86204 28.5878 8.89366C18.9161 11.8762 12.9388 15.9142 12.9388 20.2837C12.9388 24.6532 18.9161 28.6912 28.5878 31.6738C38.4682 34.7177 52.1289 36.5833 67.2256 36.5833C82.3224 36.5833 95.9953 34.7054 105.863 31.6738C115.535 28.6912 121.512 24.6654 121.512 20.2837C121.512 15.902 115.535 11.8885 105.863 8.90593V8.89366Z" fill="#886655"/>
<path fill-rule="evenodd" clip-rule="evenodd" d="M90.8281 36.2028C83.0098 37.3105 75.122 37.8561 67.2256 37.8352C61.3897 37.862 55.5562 37.5916 49.7478 37.0251C49.4757 36.6294 49.2646 36.1949 49.1218 35.7364C55.1359 36.3646 61.1788 36.6759 67.2256 36.6692C75.2715 36.6942 83.3082 36.124 91.27 34.9631C91.201 35.4002 91.0511 35.8206 90.8281 36.2028Z" fill="#AD8677"/>
<path fill-rule="evenodd" clip-rule="evenodd" d="M120.236 24.113C113.927 31.3177 92.5832 36.62 67.2256 36.62C41.4507 36.62 19.7997 31.1336 13.9206 23.7448C13.8592 23.5484 12.8037 19.6576 14.3748 17.927C15.9458 16.1964 16.314 16.5646 16.8295 15.595C17.0587 15.0449 17.4115 14.555 17.8606 14.1634C18.3098 13.7717 18.8431 13.4888 19.4193 13.3366C20.708 13.0912 19.4929 14.6254 21.9968 13.4226C24.5006 12.2197 24.5743 9.29857 26.5871 10.035C28.3177 10.6487 28.6246 11.2624 29.4837 11.3606C30.8339 10.4278 30.797 9.4704 33.1659 9.10219C36.222 8.62352 36.3079 8.78307 37.8422 7.49433C38.8599 6.6022 39.9385 5.78196 41.0702 5.03958C42.9972 3.66492 44.3718 2.58482 46.3847 2.58482C48.6939 2.38133 50.9693 1.89492 53.1598 1.13652C55.0991 0.571927 53.6508 -0.557259 56.842 0.326452C58.5203 0.865076 60.2534 1.21499 62.0092 1.36972C62.9788 1.45564 64.2676 4.11904 66.1209 3.71401C67.9743 3.30898 68.5757 1.86067 69.9872 1.70111C71.3986 1.54155 71.2146 0.964687 72.8961 1.13652C74.218 1.43926 75.4397 2.07757 76.4432 2.98986C76.4432 2.98986 77.0814 4.5118 78.1369 4.21723C79.1925 3.92266 79.7448 4.21723 79.6589 2.68301C79.573 1.14879 88.2505 4.62227 89.9811 6.36514C91.7117 8.10802 90.7912 8.62352 93.1355 8.21848C95.4798 7.81345 96.8176 7.81345 97.0017 8.78307C97.1858 9.7527 103.63 9.18811 105.311 11.0414C105.818 11.5658 106.233 12.1715 106.538 12.8334C107.226 12.8948 107.766 12.9316 108.097 13.4962C108.539 14.2572 108.416 14.7236 109.263 15.0672C111.052 15.6715 112.871 16.1835 114.713 16.6015C116.566 17.0065 116.48 17.0801 118.174 18.7003C119.868 20.3204 121.169 21.9528 120.236 24.113Z" fill="#F5A100"/>
<path fill-rule="evenodd" clip-rule="evenodd" d="M120.236 24.113C113.927 31.3177 92.5832 36.6199 67.2256 36.6199C41.4507 36.6199 19.7997 31.1336 13.9206 23.7448C13.8592 23.5484 12.8037 19.6576 14.3748 17.927C15.9458 16.1964 16.314 16.5646 16.8295 15.595C17.0587 15.0449 17.4115 14.555 17.8606 14.1633C18.3098 13.7717 18.8431 13.4888 19.4193 13.3366C18.4 13.8284 17.5487 14.6103 16.9722 15.5842C16.3957 16.5581 16.1198 17.6805 16.179 18.8107C16.179 23.0083 19.4806 26.2363 22.0704 25.9909C24.6602 25.7454 23.9237 23.6588 25.2125 24.1375C26.5012 24.6162 24.562 27.2796 25.9366 28.0897C27.3113 28.8997 26.5012 27.9301 29.0051 28.8997C31.5089 29.8694 34.246 28.2492 35.7679 27.4392C37.2899 26.6291 37.9527 24.8617 39.7201 23.6588C41.4875 22.456 43.9177 23.4134 45.4519 23.0083C46.9861 22.6033 46.3356 23.1679 47.9067 22.1246C48.4809 21.6367 49.1515 21.2752 49.8747 21.0637C50.598 20.8522 51.3577 20.7955 52.1043 20.8972C54.2768 20.9709 55.7864 21.29 56.707 22.9101C57.6275 24.5303 58.2289 27.341 60.0086 27.341C61.7883 27.341 61.9479 26.9359 64.0344 26.9359C66.1209 26.9359 66.6978 26.8623 66.8574 27.341C67.0169 27.8196 66.7837 30.1639 68.7966 30.569C69.9959 30.7181 71.1819 30.9602 72.3437 31.2931C73.792 31.7718 75.0072 31.0476 76.5414 32.1032C78.0756 33.1587 80.7267 30.4831 83.476 29.5134C86.2254 28.5438 84.998 29.8448 87.5878 29.3539C90.1775 28.8629 89.1097 28.3106 91.859 27.9915C94.6083 27.6724 94.3138 28.5561 96.6089 29.0348C98.9041 29.5134 100.291 29.5993 101.617 28.7893C102.942 27.9792 103.789 26.9359 105.642 27.2673C108.882 27.7092 112.169 26.9018 114.835 25.009C117.401 23.2047 119.291 21.4005 118.518 19.1298C119.941 20.5659 121.046 22.1123 120.236 24.113Z" fill="#F09800"/>
<path fill-rule="evenodd" clip-rule="evenodd" d="M128.668 25.7456C128.668 25.7456 130.865 25.451 131.491 24.1622C131.605 23.9342 131.673 23.686 131.69 23.4317C131.708 23.1775 131.676 22.9222 131.595 22.6806C131.514 22.4389 131.386 22.2156 131.219 22.0233C131.051 21.8311 130.848 21.6737 130.62 21.5602C129.932 21.0815 132.719 21.5602 133.222 23.2662C133.725 24.9723 132.436 26.3592 129.331 26.7029C126.226 27.0466 125.219 26.212 128.668 25.7456Z" fill="#7D5846"/>
<path fill-rule="evenodd" clip-rule="evenodd" d="M51.7239 28.8752C51.7239 28.8752 53.5282 24.6776 55.2219 26.1259C56.9157 27.5742 50.3125 31.4159 51.7239 28.8752Z" fill="#E18D00"/>
<path fill-rule="evenodd" clip-rule="evenodd" d="M61.9112 30.483C61.9112 30.6794 62.2303 32.1154 63.3349 31.7104C64.4396 31.3054 61.7516 28.4333 61.9112 30.483Z" fill="#E18D00"/>
<path fill-rule="evenodd" clip-rule="evenodd" d="M33.8288 14.7971C36.6518 12.5388 36.0872 12.3424 37.781 12.4651C39.4747 12.5879 39.2293 13.4347 40.2357 12.5388C41.2422 11.6428 42.6905 10.845 43.1323 10.3663C43.5742 9.88763 42.8132 8.51297 46.0412 8.99165C49.2692 9.47032 47.6491 9.88763 50.472 10.6854C53.295 11.4832 55.4797 9.39668 57.1735 9.15121C58.8673 8.90573 60.6347 8.2675 61.6043 9.64216C62.574 11.0168 60.9661 13.1525 61.9357 13.7784C62.9053 14.4044 63.2981 14.3921 63.2981 15.2022C63.2981 16.0122 64.8324 16.4295 62.574 17.3746C60.3156 18.3197 58.1309 19.3998 56.0443 19.0684C53.9578 18.737 54.2646 17.841 52.2517 18.3443C50.2388 18.8475 50.1529 19.5716 48.2996 18.8352C47.1547 18.3 46.0511 17.6806 44.9979 16.9819C43.9424 16.4909 44.8261 15.9386 42.85 16.2209C40.874 16.5032 40.9967 14.9935 39.1679 16.7364C37.3391 18.4793 36.9341 19.5594 34.9089 18.9088C32.8837 18.2583 30.3431 16.1595 33.8288 14.7971Z" fill="#F09800"/>
<path fill-rule="evenodd" clip-rule="evenodd" d="M53.6631 2.21674C54.9519 1.33303 54.4364 0.694796 56.6457 0.989366C57.909 1.21306 59.1438 1.57528 60.3278 2.06946C61.4201 2.31493 61.0642 1.99581 61.9479 3.03908C62.8316 4.08235 63.6417 3.6896 63.433 4.41375C63.2244 5.1379 63.5558 6.05843 61.1379 6.05843C58.7199 6.05843 57.7503 5.94797 56.9403 6.42664C56.1302 6.90532 55.5287 7.75221 53.7981 7.02806C52.5876 6.34669 51.2338 5.95986 49.846 5.89887C48.4032 5.84528 46.9611 6.02347 45.5747 6.42664C44.7647 6.79486 43.7214 6.83168 42.3958 7.23671C41.0703 7.64175 41.0211 8.27998 40.2602 7.75221C39.4992 7.22444 41.1439 5.18699 42.6168 4.56103C44.0896 3.93507 44.0405 3.16182 46.7898 3.24774C48.4746 3.29684 50.1499 2.97853 51.6993 2.31493C52.3238 2.0602 53.0164 2.02557 53.6631 2.21674Z" fill="#F8B132"/>
<path fill-rule="evenodd" clip-rule="evenodd" d="M95.6763 17.7063C97.4437 17.7063 96.9036 16.9822 98.3396 16.5771C99.7757 16.1721 100.672 15.2884 101.727 16.8962C102.783 18.5041 102.365 18.6759 103.9 19.0687C105.434 19.4615 107.447 19.5597 106.477 21.3271C105.508 23.0945 105.25 24.4814 102.525 24.4814C99.8002 24.4814 99.4688 22.7017 97.2105 23.745C94.9521 24.7883 94.4611 25.8438 92.4482 25.9297C90.4354 26.0156 90.5949 26.8994 89.0607 25.7702C87.5265 24.641 86.6059 24.641 85.5136 23.6714C84.4212 22.7017 88.177 23.4259 87.0478 21.0939C85.9186 18.7619 84.3844 18.0254 86.0045 17.0558C87.6247 16.0862 87.5264 16.0862 89.6253 17.0558C91.7241 18.0254 94.2648 16.5894 95.6763 17.7063Z" fill="#F09800"/>
<path fill-rule="evenodd" clip-rule="evenodd" d="M108.895 18.8597C109.3 21.6827 110.871 23.4133 112.148 22.8855C113.424 22.3578 109.582 16.5032 108.895 18.8597Z" fill="#F8B132"/>
<path fill-rule="evenodd" clip-rule="evenodd" d="M73.5956 22.186C71.6564 23.4134 70.8954 25.0704 71.6809 25.8682C72.4665 26.6659 75.5349 21.9651 73.5956 22.186Z" fill="#F8B132"/>
<path fill-rule="evenodd" clip-rule="evenodd" d="M27.2746 16.933C25.7894 15.2147 23.9852 14.7483 23.3592 15.7056C22.7333 16.663 27.8883 18.7986 27.2746 16.933Z" fill="#F8B132"/>
<path fill-rule="evenodd" clip-rule="evenodd" d="M29.9502 20.7991C29.2506 22.9593 29.7661 24.739 30.8585 24.8126C31.9509 24.8862 31.2758 19.3753 29.9502 20.7991Z" fill="#F8B132"/>
<path fill-rule="evenodd" clip-rule="evenodd" d="M64.0344 40.0321C66.0473 40.2776 89.0238 38.9029 88.0542 42.4868C87.0845 46.0708 73.7061 47.6173 62.9789 46.844C52.2516 46.0708 43.7091 39.5534 64.0344 40.0321Z" fill="#765647"/>
<path fill-rule="evenodd" clip-rule="evenodd" d="M70.8464 14.5148C70.9615 14.8518 71.101 15.18 71.2637 15.4967C71.3864 15.7913 72.1228 15.9509 72.491 16.4295C72.6969 16.874 72.7543 17.3729 72.6549 17.8525C72.5554 18.3321 72.3043 18.767 71.9387 19.0929C71.0428 19.8907 70.3186 20.8358 69.2385 20.664C68.1584 20.4922 67.4956 19.4366 67.2379 19.3262C66.3628 18.8383 65.6953 18.0486 65.36 17.1046C65.0437 16.1516 64.8539 15.1613 64.7954 14.1589C64.7159 12.6595 65.0559 11.1676 65.7773 9.85081C66.5288 9.19523 67.3998 8.69095 68.3425 8.36568C69.3028 7.67451 70.4295 7.25094 71.6073 7.13831C72.5722 7.21644 73.4954 7.5653 74.2707 8.14475C75.3283 8.28932 76.3418 8.66205 77.241 9.23712C77.979 9.87798 78.5658 10.6744 78.9593 11.5691C79.3936 12.6468 79.6266 13.795 79.6467 14.9567C79.1056 16.5151 78.1304 17.8863 76.836 18.9088C75.8786 19.3139 75.4613 19.2034 75.3386 19.0561C75.2158 18.9088 76.5659 17.8288 76.7009 17.031C76.7635 16.2344 76.7635 15.4341 76.7009 14.6376C76.7009 14.0607 76.8973 13.6802 76.6273 13.4102C76.3573 13.1402 75.8786 13.0911 75.0562 12.9561C74.4471 12.8406 73.8566 12.6424 73.3011 12.3669C73.0679 12.2687 72.7365 12.4774 72.3438 12.8333C71.951 13.1893 71.4601 13.2015 71.3619 13.447C71.2637 13.6925 70.8464 14.5148 70.8464 14.5148Z" fill="#F18D66"/>
<path fill-rule="evenodd" clip-rule="evenodd" d="M68.9685 20.6027C68.0234 20.3326 67.4588 19.3753 67.2134 19.3753C66.3383 18.8874 65.6708 18.0978 65.3355 17.1537C65.0192 16.2008 64.8294 15.2104 64.7709 14.208C64.6913 12.7086 65.0314 11.2168 65.7528 9.89994C66.5043 9.24436 67.3753 8.74009 68.318 8.41482C69.2783 7.72365 70.405 7.30007 71.5828 7.18744C72.5477 7.26558 73.4708 7.61443 74.2462 8.19389C75.3038 8.33845 76.3173 8.71118 77.2165 9.28625C77.9545 9.92711 78.5413 10.7235 78.9348 11.6183C79.3691 12.6959 79.6021 13.8441 79.6221 15.0058C79.0811 16.5642 78.1059 17.9354 76.8114 18.958C76.4327 19.153 76.0097 19.246 75.584 19.228C76.3786 18.7509 77.0744 18.1259 77.6338 17.3869C78.1616 16.6137 77.9529 16.6382 78.0757 15.6932C78.2494 14.9982 78.586 14.3545 79.0575 13.8153C79.1803 13.5698 79.1434 13.2629 78.7752 12.9438C78.407 12.6247 77.7933 13.1279 77.3515 13.1893C76.9096 13.2507 77.1428 12.8334 76.9342 12.637C76.7255 12.4406 77.8424 11.2991 77.5601 10.8205C77.2778 10.3418 76.5537 10.71 76.1855 10.5014C75.8173 10.2927 75.8664 9.92449 75.7682 9.544C75.67 9.16351 75.1054 9.22488 74.5408 9.98586C73.9762 10.7468 73.6325 10.7346 73.1539 10.5014C72.6752 10.2682 73.2152 9.17579 73.0802 8.68484C72.9452 8.19389 72.7365 8.68484 72.2579 8.90577C71.8698 9.18 71.4075 9.32982 70.9323 9.33535C70.3186 9.33535 70.0363 8.42709 69.889 9.23716C69.7418 10.0472 70.5027 11.7778 70.0854 11.9374C69.6681 12.0969 69.349 11.5201 69.1649 11.1028C68.9808 10.6855 69.1649 11.4587 68.5144 11.471C67.9454 11.4603 67.4033 11.2267 67.0047 10.8205C66.7838 10.575 66.6365 9.98586 66.4033 10.1454C66.0704 10.3494 65.8127 10.6559 65.6689 11.0189C65.525 11.3818 65.5028 11.7816 65.6055 12.1583C65.8633 13.4839 68.3916 14.0976 68.5757 14.1835C68.6865 14.3015 68.7587 14.4504 68.7828 14.6104C68.8069 14.7705 68.7818 14.9341 68.7108 15.0795C68.3362 15.402 67.9241 15.6781 67.4834 15.9018C67.1643 16.0736 67.2256 16.5278 67.3361 16.8592C67.4466 17.1906 67.0415 17.436 67.0661 17.9147C67.0906 18.3934 67.6552 18.5161 68.3671 18.332C68.9755 18.0529 69.5285 17.6662 69.9995 17.1906C70.1468 17.1906 70.5518 17.3378 70.6745 17.301C70.7973 17.2642 70.3186 18.2706 70.0363 18.5284C69.754 18.7861 70.4168 18.9212 70.3554 19.228C70.2941 19.5348 70.5518 19.6821 70.245 20.0872C69.872 20.3679 69.4318 20.5457 68.9685 20.6027Z" fill="#EE7B49"/>
<path fill-rule="evenodd" clip-rule="evenodd" d="M70.8466 14.5149C70.9617 14.8519 71.1012 15.18 71.2639 15.4968C71.3866 15.7914 72.123 15.9509 72.4912 16.4296C72.6971 16.8741 72.7545 17.373 72.6551 17.8526C72.5556 18.3322 72.3045 18.7671 71.9389 19.093C71.3991 19.6932 70.7597 20.1957 70.0488 20.5781C70.3793 20.2887 70.672 19.9588 70.9202 19.5962C71.2025 19.1544 70.8466 19.1421 70.9202 18.6266C71.0377 18.2539 71.0876 17.8632 71.0675 17.4729C71.0675 17.1169 71.0675 16.9083 70.5888 17.0188C70.1101 17.1292 69.6437 17.657 69.1037 17.387C68.5636 17.1169 68.2323 17.0679 68.355 16.5155C68.4777 15.9632 68.7355 15.9755 68.7355 15.5827C68.7355 15.19 68.8459 15.7055 68.625 15.0795C68.5417 14.9008 68.4984 14.706 68.4984 14.5088C68.4984 14.3116 68.5417 14.1168 68.625 13.938C68.7355 13.4962 68.8214 14.1099 68.625 13.0175C68.4286 11.9251 68.2445 11.3728 68.76 11.2992C69.2755 11.2255 69.7296 11.9129 70.417 11.5324C70.8464 11.258 71.2564 10.9546 71.6443 10.6241C72.1549 10.3233 72.7167 10.1194 73.3013 10.0227C73.6082 10.0227 73.8905 9.86316 74.1605 10.3787C74.4305 10.8942 74.5778 11.3237 75.0319 11.201C75.486 11.0783 75.6088 10.5996 76.3943 11.201C77.1798 11.8024 76.9589 13.1893 77.6217 13.2262C78.2844 13.263 78.8491 13.0052 78.6036 13.5576C78.3581 14.1099 77.6585 14.0485 77.4867 15.2022C77.3148 16.356 77.4867 16.2578 77.0203 17.2397C76.7102 18.0163 76.1707 18.68 75.4738 19.1421C75.4263 19.16 75.3739 19.16 75.3265 19.1421C75.2406 18.9703 76.5539 17.9147 76.6889 17.1292C76.7515 16.3327 76.7515 15.5324 76.6889 14.7358C76.6889 14.159 76.8853 13.7785 76.6152 13.5085C76.3452 13.2384 75.8665 13.1893 75.0442 13.0543C74.435 12.9389 73.8445 12.7407 73.289 12.4652C73.0558 12.367 72.7244 12.5757 72.3317 12.9316C71.9389 13.2875 71.448 13.2998 71.3498 13.5453C71.2516 13.7908 70.8466 14.5149 70.8466 14.5149Z" fill="#F4A582"/>
<path fill-rule="evenodd" clip-rule="evenodd" d="M71.2883 15.5706C71.4108 15.6872 71.5518 15.7826 71.7057 15.8529C71.3552 16.7583 70.7707 17.5546 70.0119 18.1603C69.3106 18.7923 68.5502 19.3554 67.7412 19.8418C67.5855 19.6613 67.4083 19.5006 67.2135 19.3631C67.1137 19.3206 67.019 19.2671 66.9312 19.2036C67.6552 19.08 68.3379 18.7808 68.9195 18.3322C69.8797 17.5728 70.684 16.6351 71.2883 15.5706Z" fill="#F6B498"/>
<path fill-rule="evenodd" clip-rule="evenodd" d="M64.8324 14.6623C64.8267 14.4931 64.8062 14.3247 64.7711 14.1591C64.7172 13.6178 64.7462 13.0715 64.857 12.5389C65.5746 13.2352 66.4572 13.7377 67.4222 13.9995C68.602 14.3079 69.8375 14.3373 71.0307 14.0854L70.8957 14.38C69.7193 14.859 68.4785 15.1609 67.2136 15.276C66.3811 15.2735 65.5624 15.0626 64.8324 14.6623Z" fill="#F6B498"/>
<path fill-rule="evenodd" clip-rule="evenodd" d="M68.0603 8.48862C68.1516 8.46017 68.2384 8.41884 68.3181 8.36589C68.7424 8.05866 69.2044 7.80705 69.6927 7.61719C69.4554 8.13218 69.3223 8.68907 69.3013 9.25574C69.2802 9.8224 69.3715 10.3876 69.57 10.9188C70.0458 11.8629 70.7998 12.6383 71.7302 13.1404C71.5338 13.2263 71.362 13.2877 71.3129 13.4227C70.1131 12.9681 69.0897 12.1426 68.3917 11.0661C67.9938 10.2689 67.8771 9.36058 68.0603 8.48862Z" fill="#F6B498"/>
<path fill-rule="evenodd" clip-rule="evenodd" d="M73.9026 7.97314C74.0018 8.06244 74.119 8.1294 74.2463 8.16952L74.8109 8.26771C74.4981 8.74941 74.2814 9.28705 74.1727 9.85103C73.9933 10.811 74.0184 11.798 74.2463 12.7476C73.9454 12.6454 73.6504 12.5266 73.3626 12.3917C73.1761 11.4995 73.147 10.5815 73.2767 9.6792C73.3875 9.07924 73.5991 8.50239 73.9026 7.97314Z" fill="#F6B498"/>
<path fill-rule="evenodd" clip-rule="evenodd" d="M78.8612 11.4587L78.9348 11.5937C79.0413 11.8103 79.1275 12.0363 79.1926 12.2687C78.6817 12.3496 78.188 12.5156 77.732 12.7597C77.3445 12.9659 76.9856 13.2217 76.6642 13.5207L76.5783 13.3857C76.5118 13.3112 76.4329 13.2489 76.3451 13.2016C76.6699 12.8018 77.0501 12.4505 77.4743 12.1583C77.8901 11.8425 78.3601 11.6054 78.8612 11.4587Z" fill="#F6B498"/>
<path fill-rule="evenodd" clip-rule="evenodd" d="M71.2883 15.5706C71.4108 15.6872 71.5519 15.7826 71.7057 15.8529C71.5303 16.2949 71.2904 16.7085 70.9938 17.0802C70.9938 16.9452 70.8342 16.8961 70.5765 16.9575C70.3958 17.0288 70.2196 17.1108 70.0487 17.203C70.5107 16.6977 70.9256 16.1513 71.2883 15.5706Z" fill="#F8C8B4"/>
<path fill-rule="evenodd" clip-rule="evenodd" d="M68.5512 14.2082C69.3712 14.2834 70.1976 14.2421 71.006 14.0854L70.871 14.38C70.1263 14.6634 69.3636 14.8971 68.5881 15.0796C68.5231 14.9445 68.4863 14.7975 68.48 14.6477C68.4737 14.4979 68.4979 14.3483 68.5512 14.2082Z" fill="#F8C8B4"/>
<path fill-rule="evenodd" clip-rule="evenodd" d="M70.0118 11.6553C70.4731 12.2662 71.0587 12.7724 71.7301 13.1404C71.5337 13.2263 71.3619 13.2877 71.3128 13.4227C70.2332 13.0029 69.2845 12.3041 68.5635 11.3975C68.5925 11.3639 68.6282 11.3367 68.6684 11.3177C68.7085 11.2986 68.7522 11.2882 68.7966 11.287C69.1894 11.2502 69.619 11.643 70.0118 11.6553Z" fill="#F8C8B4"/>
<path fill-rule="evenodd" clip-rule="evenodd" d="M74.099 10.3296C74.0073 11.1503 74.0571 11.9806 74.2463 12.7844C73.9453 12.6821 73.6503 12.5633 73.3626 12.4284C73.1996 11.6208 73.1583 10.7935 73.2399 9.97366C73.5344 9.94911 73.829 9.82638 74.099 10.3296Z" fill="#F8C8B4"/>
<path fill-rule="evenodd" clip-rule="evenodd" d="M77.2902 13.0299C77.0644 13.1704 76.8545 13.335 76.6642 13.5208L76.5783 13.3858C76.5118 13.3114 76.4329 13.2491 76.3451 13.2017C76.5373 12.9429 76.7508 12.7007 76.9833 12.4775C77.0503 12.6791 77.1544 12.8665 77.2902 13.0299Z" fill="#F8C8B4"/>
<path fill-rule="evenodd" clip-rule="evenodd" d="M75.7559 18.7862C75.0085 18.6786 74.2466 18.733 73.5221 18.9458C72.5525 19.3017 71.951 21.0078 71.951 21.0078C72.7195 20.9808 73.4692 20.7637 74.1332 20.376C74.7972 19.9884 75.3547 19.4421 75.7559 18.7862Z" fill="#EE7B49"/>
<path fill-rule="evenodd" clip-rule="evenodd" d="M75.7558 18.7861C75.0859 19.3596 74.6028 20.1205 74.3689 20.9709C74.3799 21.7923 74.6458 22.59 75.1299 23.2538C75.6527 22.6481 75.9899 21.9045 76.1009 21.1122C76.2119 20.3198 76.0921 19.5122 75.7558 18.7861Z" fill="#EE7B49"/>
<path fill-rule="evenodd" clip-rule="evenodd" d="M42.3836 24.9967C42.176 24.77 41.9502 24.5606 41.7086 24.3707C41.5122 24.1866 40.8617 24.3707 40.4075 24.0639C40.0789 23.7902 39.8492 23.4162 39.7538 22.9993C39.6585 22.5824 39.7027 22.1457 39.8797 21.7564C40.3093 20.799 40.5425 19.7803 41.4754 19.5348C42.4082 19.2894 43.2919 19.8908 43.5373 19.8785C44.4078 19.9586 45.2214 20.3458 45.8325 20.9709C46.4229 21.6215 46.93 22.343 47.3422 23.1188C47.9364 24.2857 48.1996 25.5931 48.1032 26.8991C47.7367 27.6876 47.2245 28.3997 46.5935 28.9979C46.0764 29.8905 45.3252 30.6247 44.421 31.1213C43.6344 31.4057 42.7832 31.4611 41.9663 31.2808C41.069 31.5362 40.1279 31.599 39.2047 31.4649C38.3873 31.2311 37.6353 30.811 37.0077 30.2376C36.2739 29.5338 35.675 28.7019 35.2403 27.7828C35.1152 26.346 35.4004 24.9032 36.0626 23.622C36.6763 22.9592 37.0445 22.8978 37.1918 22.9715C37.3391 23.0451 36.7131 24.3952 36.8359 25.0703C37.0821 25.7218 37.3775 26.3537 37.7196 26.9605C37.8791 27.4391 37.9037 27.7951 38.2351 27.9546C38.5665 28.1142 38.9469 27.9546 39.6465 27.746C40.1733 27.6238 40.7143 27.5742 41.2544 27.5987C41.4754 27.5987 41.6595 27.2919 41.8558 26.8745C42.0522 26.4572 42.4204 26.2609 42.4081 26.0277C42.3959 25.7945 42.3836 24.9967 42.3836 24.9967Z" fill="#F18D66"/>
<path fill-rule="evenodd" clip-rule="evenodd" d="M41.684 19.4858C42.3208 19.5002 42.9494 19.6334 43.5373 19.8785C44.4078 19.9587 45.2214 20.3459 45.8325 20.9709C46.4229 21.6215 46.93 22.343 47.3422 23.1188C47.9364 24.2857 48.1996 25.5932 48.1032 26.8991C47.7367 27.6876 47.2245 28.3997 46.5935 28.9979C46.0764 29.8905 45.3252 30.6248 44.421 31.1213C43.6344 31.4058 42.7832 31.4611 41.9663 31.2809C41.069 31.5363 40.1279 31.599 39.2047 31.465C38.3873 31.2312 37.6353 30.8111 37.0077 30.2376C36.2739 29.5338 35.675 28.7019 35.2403 27.7828C35.1152 26.346 35.4004 24.9032 36.0626 23.622C36.2925 23.334 36.5926 23.11 36.934 22.9715C36.4749 23.6435 36.1498 24.3978 35.9767 25.1931C35.8417 26.0031 35.9767 25.905 36.2344 26.7028C36.34 27.3201 36.3065 27.9533 36.1363 28.5561C36.1363 28.7893 36.259 29.0225 36.664 29.133C37.0691 29.2434 37.3882 28.642 37.7073 28.4334C38.0264 28.2247 38.0019 28.642 38.2351 28.7279C38.4683 28.8138 38.0019 30.1149 38.3946 30.3972C38.7874 30.6794 39.2415 30.1271 39.622 30.164C40.0025 30.2008 40.0761 30.5076 40.297 30.7654C40.518 31.0231 40.9353 30.7654 41.0703 29.9921C41.2053 29.2189 41.5244 29.0716 41.9908 29.0839C42.4572 29.0961 42.4204 30.164 42.7027 30.5076C42.985 30.8513 42.9973 30.4217 43.2673 30.0412C43.476 29.6783 43.7938 29.3905 44.1756 29.2189C44.6542 28.9734 45.2066 29.6116 45.0347 28.912C44.8629 28.2124 43.6478 27.1201 43.9178 26.8378C44.1878 26.5555 44.642 26.9114 44.9488 27.1692C45.2557 27.4269 44.7892 26.9114 45.3293 26.6414C45.7898 26.4551 46.3048 26.4551 46.7653 26.6414C47.0354 26.7641 47.3545 27.1814 47.4895 26.9605C47.6779 26.6788 47.7701 26.3437 47.7524 26.0052C47.7347 25.6668 47.608 25.3432 47.3913 25.0826C46.7163 24.113 44.4824 24.5426 44.3106 24.5303C44.1785 24.4789 44.0659 24.3873 43.9888 24.2683C43.9117 24.1493 43.8739 24.0091 43.881 23.8675C44.0678 23.4719 44.3028 23.1009 44.5806 22.7629C44.777 22.5174 44.5806 22.1737 44.3597 21.9528C44.1388 21.7319 44.3597 21.3882 44.2001 21.02C44.0406 20.6518 43.5128 20.75 42.9728 21.155C42.5883 21.593 42.2849 22.0958 42.0768 22.6401C41.9786 22.7383 41.5858 22.7261 41.4999 22.7997C41.414 22.8733 41.4263 21.9037 41.5613 21.5723C41.6963 21.2409 41.1194 21.4005 41.058 21.1305C40.9967 20.8604 40.7389 20.8359 40.8371 20.4063C40.9353 19.9767 41.3894 19.7313 41.684 19.4858Z" fill="#EE7B49"/>
<path fill-rule="evenodd" clip-rule="evenodd" d="M42.3835 24.9968C42.1759 24.7701 41.9502 24.5608 41.7085 24.3709C41.5121 24.1867 40.8616 24.3709 40.4075 24.064C40.0788 23.7904 39.8491 23.4163 39.7538 22.9994C39.6584 22.5825 39.7026 22.1459 39.8797 21.7565C40.0891 21.0819 40.4175 20.4501 40.8493 19.8909C40.6947 20.2412 40.5795 20.6076 40.5056 20.9833C40.5056 21.4374 40.7388 21.327 40.8493 21.7688C40.8924 22.1063 40.9919 22.4341 41.1438 22.7384C41.3157 22.9962 41.3893 23.1557 41.6839 22.9225C41.9785 22.6893 42.2117 22.0757 42.7395 22.1002C43.2672 22.1248 43.5495 22.0388 43.6477 22.5175C43.7459 22.9962 43.5372 23.0821 43.6477 23.4012C43.7582 23.7203 43.525 23.4012 43.9177 23.7572C44.0464 23.8733 44.1491 24.0154 44.2189 24.174C44.2887 24.3327 44.3241 24.5044 44.3228 24.6777C44.3964 25.0582 44.1141 24.6041 44.6296 25.4141C45.1451 26.2242 45.5256 26.6415 45.1328 26.8256C44.7401 27.0097 44.1387 26.6906 43.7336 27.2429C43.4943 27.6122 43.2811 27.9977 43.0954 28.3966C42.8234 28.8115 42.4782 29.1733 42.0767 29.4645C41.8435 29.6117 41.6594 29.8204 41.2666 29.4645C40.8738 29.1085 40.5915 28.8631 40.2724 29.1208C39.9533 29.3785 40.0392 29.7959 39.1923 29.624C38.3454 29.4522 38.0386 28.2371 37.4495 28.3966C36.8603 28.5562 36.5412 29.0226 36.5535 28.4826C36.5657 27.9425 37.1181 27.7707 36.848 26.7888C36.578 25.8069 36.443 25.9542 36.4921 24.9968C36.4557 24.2703 36.6443 23.5502 37.0322 22.9348C37.0755 22.9177 37.1238 22.9177 37.1672 22.9348C37.2899 23.0453 36.6762 24.3709 36.799 25.0336C37.0452 25.6852 37.3406 26.3171 37.6827 26.9238C37.8422 27.4025 37.8668 27.7584 38.1982 27.918C38.5295 28.0775 38.91 27.918 39.6096 27.7093C40.1364 27.5871 40.6773 27.5376 41.2175 27.562C41.4384 27.562 41.6225 27.2552 41.8189 26.8379C42.0153 26.4206 42.3835 26.2242 42.3712 25.991C42.3589 25.7578 42.3835 24.9968 42.3835 24.9968Z" fill="#F4A582"/>
<path fill-rule="evenodd" clip-rule="evenodd" d="M41.6472 24.3341C41.5098 24.2819 41.3646 24.2528 41.2176 24.2482C41.1627 23.3983 41.341 22.5495 41.7331 21.7935C42.0691 21.0458 42.4803 20.3344 42.9605 19.6701C43.1478 19.7602 43.3458 19.8262 43.5497 19.8665C43.6436 19.8576 43.738 19.8576 43.8319 19.8665C43.3134 20.2294 42.892 20.7141 42.6046 21.278C42.0843 22.2224 41.7588 23.2617 41.6472 24.3341Z" fill="#F6B498"/>
<path fill-rule="evenodd" clip-rule="evenodd" d="M47.109 22.7385C47.1685 22.8756 47.247 23.0037 47.3422 23.119C47.5694 23.5329 47.7426 23.9743 47.8576 24.4323C47.0369 24.1357 46.1545 24.0512 45.2924 24.1868C44.2418 24.3685 43.2468 24.7884 42.3835 25.4142V25.1196C43.1521 24.3229 44.0278 23.6372 44.9856 23.0822C45.6538 22.793 46.3836 22.6749 47.109 22.7385Z" fill="#F6B498"/>
<path fill-rule="evenodd" clip-rule="evenodd" d="M46.753 28.8015C46.6903 28.8586 46.6365 28.9248 46.5934 28.9979C46.365 29.3905 46.0888 29.7533 45.7711 30.078C45.7738 29.0806 45.381 28.1228 44.6787 27.4146C43.9633 26.8304 43.0841 26.483 42.1626 26.4204C42.2976 26.2854 42.3958 26.175 42.3958 26.0399C43.5251 25.9529 44.6515 26.2421 45.5992 26.8623C46.1965 27.3559 46.6042 28.0412 46.753 28.8015Z" fill="#F6B498"/>
<path fill-rule="evenodd" clip-rule="evenodd" d="M42.2854 31.3055C42.176 31.284 42.0634 31.284 41.954 31.3055L41.463 31.4283C41.537 30.9338 41.5162 30.4298 41.4017 29.9431C41.1964 29.1135 40.8201 28.336 40.297 27.6602C40.575 27.6439 40.8537 27.6439 41.1316 27.6602C41.6035 28.2954 41.957 29.0106 42.1749 29.7713C42.304 30.2719 42.3414 30.7916 42.2854 31.3055Z" fill="#F6B498"/>
<path fill-rule="evenodd" clip-rule="evenodd" d="M37.1059 30.3236L36.9955 30.2377C36.83 30.1099 36.6814 29.9614 36.5536 29.7959C36.9262 29.5413 37.2574 29.2308 37.5355 28.8753C37.7633 28.5725 37.9529 28.2427 38.1001 27.8934L38.2228 27.9671C38.3027 28.0077 38.391 28.0287 38.4806 28.0284C38.3607 28.4595 38.1832 28.8723 37.9528 29.2558C37.7325 29.6568 37.4462 30.0178 37.1059 30.3236Z" fill="#F6B498"/>
<path fill-rule="evenodd" clip-rule="evenodd" d="M41.6471 24.334C41.5096 24.2817 41.3644 24.2527 41.2175 24.2481C41.1836 23.8363 41.2167 23.4218 41.3157 23.0207C41.4016 23.1066 41.4998 23.1189 41.6839 23.0207C41.807 22.8976 41.9218 22.7663 42.0275 22.6279C41.8509 23.1844 41.7236 23.7552 41.6471 24.334Z" fill="#F8C8B4"/>
<path fill-rule="evenodd" clip-rule="evenodd" d="M44.3105 24.4198C43.6243 24.6635 42.9756 25.0023 42.3835 25.4263V25.1317C42.874 24.6415 43.3946 24.1824 43.9423 23.757C44.0456 23.8366 44.1315 23.9364 44.1948 24.0504C44.2581 24.1644 44.2975 24.2901 44.3105 24.4198Z" fill="#F8C8B4"/>
<path fill-rule="evenodd" clip-rule="evenodd" d="M44.065 26.985C43.478 26.6643 42.8296 26.4718 42.1626 26.4204C42.2976 26.2854 42.3958 26.1749 42.3958 26.0399C43.4032 25.9767 44.4087 26.1888 45.3047 26.6536C45.2957 26.692 45.2776 26.7276 45.252 26.7575C45.2264 26.7874 45.1939 26.8107 45.1574 26.8254C44.8628 27.0096 44.4332 26.8377 44.065 26.985Z" fill="#F8C8B4"/>
<path fill-rule="evenodd" clip-rule="evenodd" d="M41.2912 29.5013C41.0702 28.8266 40.7338 28.1954 40.297 27.6357C40.575 27.6194 40.8537 27.6194 41.1316 27.6357C41.5477 28.2003 41.8747 28.8253 42.1012 29.489C41.868 29.6608 41.684 29.8204 41.2912 29.5013Z" fill="#F8C8B4"/>
<path fill-rule="evenodd" clip-rule="evenodd" d="M37.7809 28.5071C37.9084 28.3142 38.0153 28.1086 38.1 27.8934L38.2228 27.9671C38.3026 28.0077 38.3909 28.0287 38.4805 28.0284C38.3993 28.306 38.2968 28.5768 38.1737 28.8385C38.0652 28.7039 37.9318 28.5914 37.7809 28.5071Z" fill="#F8C8B4"/>
<path fill-rule="evenodd" clip-rule="evenodd" d="M36.9216 23.389C37.5519 23.2071 38.1344 22.8886 38.6277 22.4562C39.2782 21.8303 39.1555 20.2592 39.1555 20.2592C38.5516 20.5532 38.0309 20.9935 37.6407 21.5402C37.2506 22.0868 37.0034 22.7224 36.9216 23.389Z" fill="#EE7B49"/>
<path fill-rule="evenodd" clip-rule="evenodd" d="M36.9217 23.389C37.2436 22.6914 37.3546 21.9149 37.2409 21.1551C36.9309 20.5022 36.4302 19.9587 35.8049 19.5964C35.6111 20.2693 35.6133 20.9835 35.8111 21.6553C36.0089 22.327 36.3942 22.9284 36.9217 23.389Z" fill="#EE7B49"/>
<path fill-rule="evenodd" clip-rule="evenodd" d="M120.236 24.113C113.927 31.3177 92.5832 36.62 67.2256 36.62C41.4507 36.62 19.7997 31.1336 13.9206 23.7448C13.8592 23.5484 12.8037 19.6576 14.3748 17.927C14.748 17.506 15.1588 17.1198 15.6021 16.7733C15.6021 16.7733 13.6874 19.1422 14.1293 21.0691C14.5711 22.9961 14.9762 23.8185 15.5776 24.1008C16.179 24.383 16.805 24.2603 17.2714 25.144C17.7378 26.0277 17.4309 25.9541 18.0814 26.3714C18.7319 26.7887 19.1247 26.531 20.2907 27.5006C21.4567 28.4702 22.9173 27.2551 23.9728 27.9424C25.0284 28.6298 25.102 29.5135 25.593 29.8326C26.0839 30.1517 33.0432 32.496 34.4546 31.8946C35.5942 31.5239 36.6206 30.8692 37.4371 29.9922C38.0017 29.2312 38.1245 27.9793 39.3764 28.7648C40.6283 29.5503 39.9042 29.9922 41.598 30.299C43.2918 30.6058 43.8931 29.5748 44.9855 30.1026C46.0779 30.6304 45.8692 32.1523 46.5934 32.6433C47.3175 33.1342 48.2871 32.6433 48.8517 33.4043C49.4163 34.1652 49.0972 34.3371 49.9441 34.4475C50.791 34.558 53.9699 35.2576 55.2586 34.4475C56.5474 33.6375 55.9828 33.9689 56.7929 33.4902C57.6029 33.0115 56.8788 32.6801 58.2044 32.361C59.5299 32.0419 59.6159 31.0232 60.6591 32.2014C61.7024 33.3797 60.7328 34.0916 62.2302 34.0057C63.7276 33.9198 64.4885 33.4902 65.4581 34.3371C66.4278 35.184 66.7469 35.9081 67.4711 35.5644C68.1952 35.2208 71.9387 36.264 72.5033 35.5644C73.0679 34.8648 73.3134 34.6194 73.5588 34.6194C73.8043 34.6194 73.9761 33.8093 74.8721 34.2512C75.7681 34.693 75.8295 35.5399 76.4432 35.1962C77.0367 34.9004 77.5895 34.5291 78.0878 34.0916C78.542 33.6743 79.1557 32.9992 79.6466 33.4902C80.1376 33.9811 83.1078 35.0244 84.5561 34.4598C86.0044 33.8952 86.3727 34.4598 87.6246 34.4598C88.335 34.6057 89.0712 34.5634 89.7602 34.3371C90.4844 34.0916 91.6135 34.4966 91.4908 33.527C91.3681 32.5574 94.3997 32.4837 96.4003 32.2996C98.4009 32.1155 97.9345 32.0173 98.9901 31.2073C100.046 30.3972 100.217 30.9986 101.322 31.2809C102.427 31.5632 102.549 32.2996 103.261 31.4896C103.973 30.6795 104.354 29.7099 104.869 30.2622C105.385 30.8145 112.332 28.6052 112.81 27.8811C113.289 27.1569 113.093 26.6537 114.271 26.8746C115.449 27.0955 119.463 25.2913 120.408 23.3643C120.374 23.6186 120.316 23.8693 120.236 24.113Z" fill="#E18D00"/>
<path fill-rule="evenodd" clip-rule="evenodd" d="M81.2545 23.9044C81.178 22.2799 81.7221 20.6872 82.7765 19.449C84.593 16.9943 90.2389 14.1959 94.2156 14.38C98.1923 14.5641 100.353 19.1422 99.0024 20.6764C97.6523 22.2106 81.2545 23.9044 81.2545 23.9044Z" fill="#FFE9C7"/>
<path fill-rule="evenodd" clip-rule="evenodd" d="M81.2545 23.9044C81.178 22.28 81.7221 20.6872 82.7765 19.4491C84.4825 17.1907 89.5393 14.5396 93.4547 14.38C93.7861 14.515 94.007 14.6869 94.0438 14.8955C94.0438 14.8955 88.9502 15.6442 86.8882 17.1171C84.8262 18.5899 88.4592 17.1171 93.8597 16.9575C96.744 16.8593 98.3642 17.5835 99.2847 18.4303C99.43 18.7983 99.4802 19.197 99.4309 19.5895C99.3816 19.982 99.2342 20.3558 99.0024 20.6764C97.5786 22.2229 81.2545 23.9044 81.2545 23.9044Z" fill="#EFD0A3"/>
<path fill-rule="evenodd" clip-rule="evenodd" d="M81.2792 22.9102C81.4627 21.6442 81.9795 20.4497 82.7766 19.449C84.5931 16.9943 90.239 14.1959 94.2157 14.38C95.4783 14.4699 96.6747 14.9788 97.6152 15.8259C98.5558 16.673 99.1865 17.8099 99.4075 19.0563C98.4379 14.3309 92.9392 13.7785 87.4161 16.6015C81.8929 19.4245 81.2914 22.8243 81.2792 22.9102Z" fill="#372D24"/>
<path fill-rule="evenodd" clip-rule="evenodd" d="M91.0367 17.5956C92.8431 17.3068 94.6801 17.2613 96.4985 17.4606C98.8428 17.8288 99.6284 19.854 99.2356 20.3326C98.8428 20.8113 91.0367 17.5956 91.0367 17.5956Z" fill="#F8B669"/>
<path fill-rule="evenodd" clip-rule="evenodd" d="M81.6965 24.5673C81.4755 24.4814 81.1932 24.1009 81.1932 23.4259C81.1932 22.7508 83.9426 18.3936 89.8708 17.6817C95.799 16.9699 99.4075 19.9647 99.5548 20.8975C99.7021 21.8303 99.9844 23.8432 93.8966 25.451C87.8088 27.0589 84.1021 26.1997 81.6965 24.5673Z" fill="#372D24"/>
<path fill-rule="evenodd" clip-rule="evenodd" d="M81.6965 24.5671C81.4755 24.4811 81.1932 24.1007 81.1932 23.4256C81.1932 22.7505 83.5621 18.9948 88.6434 17.8901H88.9012C88.7293 17.8901 84.409 19.2771 83.3534 21.6705C82.2979 24.0638 85.7345 25.8067 91.1595 24.788C96.5845 23.7693 100.304 20.8358 96.3636 18.5406C98.3152 19.3384 99.4198 20.4554 99.5057 20.9954C99.6653 21.9159 99.9353 23.9411 93.8475 25.549C87.7597 27.1568 84.1021 26.1995 81.6965 24.5671Z" fill="#251B12"/>
<path fill-rule="evenodd" clip-rule="evenodd" d="M95.9954 20.4679C95.3694 21.2411 92.6324 21.3639 89.7603 21.9407C86.8883 22.5176 85.0104 23.1681 84.5194 22.3458C83.5253 20.7379 86.3482 18.9091 89.1466 18.2831C92.2151 17.5958 97.8487 18.1359 95.9954 20.4679Z" fill="#4E4338"/>
<path fill-rule="evenodd" clip-rule="evenodd" d="M86.5078 19.7435C87.7883 18.8688 89.2907 18.3751 90.8404 18.3198C94.0071 17.9516 93.9825 18.9212 93.1725 19.1176C92.3624 19.314 90.6686 18.4916 86.5078 19.7435Z" fill="#67594E"/>
<path fill-rule="evenodd" clip-rule="evenodd" d="M94.6943 17.6201C95.6665 17.7087 96.6125 17.9837 97.4805 18.4302C98.4501 19.0807 98.8306 19.6576 99.0393 19.5962C99.2479 19.5348 98.1064 17.166 94.6943 17.6201Z" fill="#FAC482"/>
<path fill-rule="evenodd" clip-rule="evenodd" d="M78.2108 26.4083C78.4195 25.0704 78.6527 22.898 80.7515 22.8121C82.8503 22.7262 83.8567 23.659 85.035 24.0395C85.9862 24.4559 87.0163 24.6611 88.0544 24.6409C89.024 24.5181 88.9013 24.2849 90.0673 24.7268C91.2333 25.1686 94.179 25.3282 94.2649 26.1751C94.3508 27.022 91.4788 28.188 89.1836 27.9548C86.8884 27.7216 78.2108 26.4083 78.2108 26.4083Z" fill="#F5A100"/>
<path fill-rule="evenodd" clip-rule="evenodd" d="M50.9262 3.88591C51.7731 3.68952 52.1536 3.00219 52.7059 3.08811C53.0519 3.14026 53.3928 3.2224 53.7246 3.33358C53.7246 3.33358 53.8351 3.08811 55.2834 2.59716C56.7317 2.10621 57.3822 1.75027 58.0695 2.24122C58.7568 2.73217 59.1742 2.79354 59.1987 3.19858C59.2233 3.60361 59.3951 4.42595 57.9713 4.94145C57.5205 5.17564 57.026 5.31399 56.519 5.34778C56.0121 5.38158 55.5036 5.3101 55.0256 5.13783C53.7982 4.78189 55.0256 4.09456 53.2828 4.59778C52.4389 4.99238 51.4836 5.07922 50.5825 4.84326C49.797 4.59778 49.7233 3.88591 50.9262 3.88591Z" fill="#FABC52"/>
<path fill-rule="evenodd" clip-rule="evenodd" d="M80.6655 24.9108C79.254 25.6841 80.2727 26.2855 79.0208 26.7642C77.7689 27.2428 77.0815 27.4515 77.1184 27.9915C77.1552 28.5316 76.9833 29.6608 78.4685 29.5503C79.7611 29.3166 81.0056 28.8686 82.1506 28.2247C82.8379 27.8934 83.6848 27.1692 84.7772 27.5374C85.8696 27.9056 86.0046 28.3352 87.1092 27.7338C88.2138 27.1324 88.0052 27.2919 89.7358 27.0096C91.4664 26.7273 91.3437 25.0704 89.5762 25.1195C88.28 25.3062 86.9693 25.3719 85.6609 25.3159C84.543 25.2623 83.4407 25.0303 82.3961 24.6285C81.4142 24.3094 81.2546 23.9044 80.6655 24.9108Z" fill="#F8B132"/>
<path fill-rule="evenodd" clip-rule="evenodd" d="M83.2184 10.8082C83.6235 10.0718 83.5007 10.5259 83.5007 9.34767C83.5007 8.16939 82.703 8.58669 83.6726 7.70298C84.6422 6.81927 83.6726 6.24241 85.0841 6.47561C86.4956 6.70881 86.606 6.56152 87.2565 7.32249C87.907 8.08347 87.8211 8.41486 88.8276 8.64806C89.834 8.88126 90.3986 8.29212 91.2823 8.73398C92.166 9.17583 91.5646 9.49495 93.1725 10.1086C94.7803 10.7223 96.2409 10.8696 95.885 11.5938C95.6286 11.9824 95.2964 12.3154 94.9084 12.5727C94.5204 12.8299 94.0844 13.0063 93.6266 13.0912C92.6938 13.2875 91.491 13.2139 89.7113 13.4962C87.9316 13.7785 87.0479 13.4962 86.4096 14.4536C85.81 15.4279 85.0111 16.2645 84.0653 16.9083C83.2553 17.3133 83.7094 17.5465 82.3716 17.5956C81.0337 17.6447 79.475 17.5097 79.9168 16.5033C80.3587 15.4968 80.9601 15.2759 81.4019 14.2449C81.8438 13.2139 82.2979 10.3541 83.2184 10.8082Z" fill="#F09800"/>
<path fill-rule="evenodd" clip-rule="evenodd" d="M61.5308 22.0143C62.9054 21.4006 63.1877 21.8547 63.3473 20.7255C63.5069 19.5963 63.3473 19.2281 64.4396 18.8231C64.7865 18.6134 65.1898 18.5161 65.5941 18.5447C65.9985 18.5732 66.3841 18.7262 66.698 18.9827C67.3853 19.5104 67.459 19.7559 68.5882 19.5473C69.7174 19.3386 71.1289 19.0686 71.0429 19.9523C70.9082 20.8091 70.6345 21.6383 70.2329 22.407C70.0365 22.8121 69.7542 22.407 69.7542 23.573C69.7542 24.7391 69.4228 24.8004 70.1101 25.7946C70.7974 26.7888 72.0126 26.396 70.957 27.562C69.9015 28.728 70.0365 30.2254 68.981 28.6176C67.9254 27.0097 67.8149 25.5859 66.5998 25.4632C65.3847 25.3405 65.1515 25.3896 63.4209 25.1441C61.6903 24.8986 61.0766 25.1441 60.1561 24.334C59.2356 23.524 59.0269 24.334 58.8673 23.1066C58.7078 21.8793 60.1684 22.0143 61.5308 22.0143Z" fill="#F8B132"/>
<path fill-rule="evenodd" clip-rule="evenodd" d="M20.6099 12.3303C21.1131 12.3303 21.6531 12.183 21.9722 12.539C22.2072 12.8941 22.5457 13.1684 22.9419 13.3245C23.5433 13.57 24.3902 14.4537 24.1693 15.0674C24.1171 15.466 23.9678 15.8457 23.7345 16.1732C23.5013 16.5006 23.1912 16.7657 22.8314 16.9452C21.6777 17.6571 21.2236 18.1726 21.1131 18.8845C21.0583 19.1613 21.0833 19.448 21.1855 19.711C21.2877 19.974 21.4627 20.2025 21.69 20.3696C22.095 20.6397 23.3592 20.6274 23.5679 21.1306C23.7765 21.6338 22.0214 22.2598 20.524 21.4006C19.6942 20.7816 19.0442 19.9527 18.6408 18.9993C18.2374 18.0459 18.0952 17.0022 18.2288 15.9756C18.5602 13.9136 19.6771 12.4776 20.6099 12.3303Z" fill="#C6370A"/>
<path fill-rule="evenodd" clip-rule="evenodd" d="M20.6099 12.3303C21.1131 12.3303 21.6532 12.183 21.9723 12.539C22.2072 12.8941 22.5457 13.1684 22.9419 13.3245C23.249 13.4678 23.5193 13.6794 23.732 13.9432C23.9448 14.207 24.0943 14.5159 24.1693 14.8464C24.1363 14.6705 24.0624 14.5048 23.9535 14.3627C23.8446 14.2206 23.7039 14.1061 23.5426 14.0285C23.3813 13.9508 23.204 13.9122 23.0251 13.9157C22.8461 13.9192 22.6705 13.9647 22.5123 14.0486C21.8864 14.2573 21.5918 14.9201 21.4813 14.4046C21.3709 13.8891 22.2669 13.1772 20.8799 13.705C19.493 14.2327 18.6829 17.7185 19.7753 19.6823C20.8677 21.6461 22.23 21.6216 22.9051 21.462C23.5802 21.3024 23.1137 20.7992 23.1137 20.7992C23.2041 20.8224 23.2888 20.8638 23.3626 20.9207C23.4365 20.9777 23.498 21.0491 23.5433 21.1306C23.7397 21.6338 21.9969 22.2598 20.4995 21.4006C19.6697 20.7816 19.0197 19.9527 18.6163 18.9993C18.2129 18.0459 18.0707 17.0022 18.2042 15.9756C18.5602 13.9136 19.6771 12.4776 20.6099 12.3303Z" fill="#B33207"/>
<path fill-rule="evenodd" clip-rule="evenodd" d="M22.7087 13.2139C22.6901 13.0384 22.7139 12.861 22.7779 12.6966C22.842 12.5321 22.9445 12.3854 23.0769 12.2688C23.2061 12.1331 23.3663 12.0309 23.5438 11.971C23.7213 11.9112 23.9107 11.8954 24.0957 11.9251C24.4271 11.9251 24.7462 11.9251 24.4025 11.6674C24.0588 11.4096 23.6906 10.8941 23.2488 11.1151C22.9586 11.306 22.7167 11.5617 22.5421 11.862C22.3674 12.1623 22.2648 12.499 22.2423 12.8457C22.3405 13.4348 22.5492 13.6189 22.7087 13.2139Z" fill="#6A7E0F"/>
<path fill-rule="evenodd" clip-rule="evenodd" d="M23.2978 14.4291C23.801 14.7237 24.0219 15.3619 23.2364 16.037C22.4509 16.7121 21.7022 16.6507 21.1376 17.694C20.573 18.7372 20.7817 19.7437 20.3275 19.5473C19.8734 19.3509 19.8612 17.4976 20.8799 16.1106C21.8986 14.7237 22.9051 14.245 23.2978 14.4291Z" fill="#E63F0C"/>
<path fill-rule="evenodd" clip-rule="evenodd" d="M23.8134 11.3605C23.9853 11.4832 24.0957 11.7287 23.8134 11.7533C23.6577 11.741 23.5014 11.767 23.3581 11.8291C23.2147 11.8911 23.0888 11.9873 22.9911 12.1092C22.7088 12.4529 22.5983 13.0297 22.4388 12.9561C22.2792 12.8824 22.4388 12.1706 22.9543 11.7287C23.0639 11.6108 23.1969 11.5171 23.3449 11.4537C23.4929 11.3903 23.6525 11.3585 23.8134 11.3605Z" fill="#5D6E0B"/>
<path fill-rule="evenodd" clip-rule="evenodd" d="M97.2596 13.3491C97.2596 12.8459 96.9159 12.3549 97.2596 11.9744C97.5639 11.6765 97.7658 11.2898 97.8364 10.8698C97.9592 10.2316 98.6588 9.23738 99.297 9.28648C99.6995 9.2584 100.103 9.32995 100.471 9.49479C100.839 9.65963 101.161 9.91268 101.408 10.2316C102.329 11.2257 102.967 11.5694 103.654 11.5449C103.934 11.5438 104.208 11.4623 104.443 11.3099C104.678 11.1576 104.864 10.9409 104.98 10.6857C105.176 10.2438 104.918 8.99191 105.373 8.69734C105.827 8.40277 106.784 9.92471 106.232 11.6185C105.779 12.5567 105.087 13.3586 104.225 13.9427C103.363 14.5269 102.361 14.8726 101.322 14.9447C99.2111 15.0429 97.5909 14.2328 97.2596 13.3491Z" fill="#C6370A"/>
<path fill-rule="evenodd" clip-rule="evenodd" d="M97.2596 13.3491C97.2596 12.8459 96.9159 12.3549 97.2596 11.9744C97.5639 11.6765 97.7658 11.2898 97.8364 10.8698C97.9062 10.5326 98.0535 10.2163 98.2665 9.94578C98.4795 9.67527 98.7524 9.45796 99.0638 9.31103C98.8973 9.37701 98.7487 9.48126 98.6299 9.61534C98.5111 9.74942 98.4256 9.90957 98.3802 10.0828C98.3348 10.2561 98.3308 10.4376 98.3685 10.6127C98.4062 10.7878 98.4846 10.9515 98.5974 11.0907C98.9288 11.6553 99.6284 11.8271 99.1497 12.0235C98.671 12.2199 97.7996 11.4958 98.5851 12.76C99.3707 14.0242 102.942 14.1223 104.648 12.674C106.354 11.2257 106.072 9.90017 105.802 9.24966C105.532 8.59915 105.103 9.17601 105.103 9.17601C105.11 9.08398 105.135 8.9943 105.177 8.91214C105.22 8.82998 105.277 8.75698 105.348 8.69734C105.79 8.40277 106.759 9.92471 106.207 11.6185C105.755 12.5567 105.063 13.3586 104.2 13.9427C103.338 14.5269 102.337 14.8726 101.298 14.9447C99.2111 15.0429 97.5909 14.2328 97.2596 13.3491Z" fill="#B33207"/>
<path fill-rule="evenodd" clip-rule="evenodd" d="M97.7137 11.1152C97.5457 11.169 97.367 11.1804 97.1935 11.1483C97.02 11.1161 96.8571 11.0415 96.7195 10.9311C96.5598 10.8349 96.4268 10.7003 96.3324 10.5395C96.2381 10.3787 96.1856 10.1969 96.1795 10.0105C96.1181 9.67915 96.0322 9.37231 95.8727 9.76507C95.7131 10.1578 95.2467 10.612 95.5535 10.9924C95.7954 11.2458 96.094 11.4381 96.4248 11.5533C96.7556 11.6685 97.109 11.7035 97.456 11.6552C97.996 11.4466 98.1433 11.2502 97.7137 11.1152Z" fill="#6A7E0F"/>
<path fill-rule="evenodd" clip-rule="evenodd" d="M98.7938 10.2927C98.9779 9.75264 99.5671 9.40897 100.377 10.0472C101.187 10.6854 101.285 11.4341 102.415 11.7778C103.544 12.1215 104.501 11.7778 104.391 12.2074C104.28 12.637 102.464 13.0666 100.917 12.3424C99.3707 11.6182 98.6833 10.7223 98.7938 10.2927Z" fill="#E63F0C"/>
<path fill-rule="evenodd" clip-rule="evenodd" d="M95.6763 10.391C95.7745 10.1946 95.9831 10.0473 96.0568 10.2928C96.077 10.4496 96.1343 10.5993 96.2239 10.7295C96.3136 10.8597 96.433 10.9667 96.5722 11.0415C96.965 11.2379 97.5541 11.2379 97.505 11.4097C97.456 11.5815 96.7441 11.5202 96.2163 11.1397C95.9457 10.9699 95.752 10.7013 95.6763 10.391Z" fill="#5D6E0B"/>
<path fill-rule="evenodd" clip-rule="evenodd" d="M30.6621 19.1175C29.936 18.1506 29.6028 16.9448 29.7293 15.7422C30.2744 12.5655 32.0353 9.72591 34.6388 7.82566C37.1672 6.27917 40.4443 8.14478 40.2233 9.69127C40.0024 11.2378 30.6621 19.1175 30.6621 19.1175Z" fill="#FFE9C7"/>
<path fill-rule="evenodd" clip-rule="evenodd" d="M30.6621 19.1176C29.936 18.1507 29.6028 16.9448 29.7293 15.7423C30.2437 12.7625 31.8172 10.0688 34.1601 8.15713C34.2534 8.11672 34.3556 8.10113 34.4566 8.11189C34.5577 8.12264 34.6543 8.15937 34.737 8.2185C33.347 9.47117 32.1771 10.9482 31.2758 12.588C30.613 14.3554 32.2454 11.9497 35.4857 9.56861C36.021 9.08981 36.6459 8.72182 37.3242 8.48587C38.0026 8.24993 38.7209 8.15071 39.4378 8.19395C39.6837 8.35696 39.8837 8.5801 40.0191 8.84217C40.1544 9.10424 40.2205 9.39655 40.2111 9.69135C39.9902 11.2501 30.6621 19.1176 30.6621 19.1176Z" fill="#EFD0A3"/>
<path fill-rule="evenodd" clip-rule="evenodd" d="M30.2572 18.504C29.8371 17.6474 29.6549 16.6936 29.7294 15.7424C30.2745 12.5656 32.0355 9.72609 34.6389 7.82583C35.4535 7.35228 36.4028 7.16395 37.3365 7.29067C38.2702 7.41738 39.135 7.8519 39.7939 8.52544C37.2164 6.07069 33.657 7.99767 31.3986 12.0603C29.1403 16.1229 30.2326 18.4426 30.2572 18.504Z" fill="#372D24"/>
<path fill-rule="evenodd" clip-rule="evenodd" d="M34.0253 11.1397C35.0149 10.2183 36.1207 9.43018 37.3146 8.79544C38.9102 8.03446 40.2481 8.955 40.2113 9.40913C40.1744 9.86326 34.0253 11.1397 34.0253 11.1397Z" fill="#F8B669"/>
<path fill-rule="evenodd" clip-rule="evenodd" d="M31.2144 19.3386C31.0425 19.3386 30.7112 19.265 30.4289 18.8477C30.1466 18.4304 29.9993 14.6132 33.3378 11.6798C36.6762 8.74639 40.162 9.09006 40.6407 9.59328C41.1193 10.0965 42.1503 11.2134 39.0819 14.7605C36.0134 18.3077 33.3746 19.3386 31.2144 19.3386Z" fill="#372D24"/>
<path fill-rule="evenodd" clip-rule="evenodd" d="M31.2145 19.3384C31.0426 19.3384 30.7113 19.2648 30.429 18.8474C30.1467 18.4301 30.0239 15.1653 32.675 12.3301L32.8101 12.1828C32.7242 12.281 30.6253 14.9198 30.9813 16.8345C31.3372 18.7493 34.1724 18.3688 37.1181 15.4722C40.0638 12.5756 41.0826 9.21254 37.695 9.44574C38.6624 9.12186 39.7175 9.18341 40.6407 9.61758C41.1194 10.1208 42.1504 11.2377 39.0819 14.7848C36.0135 18.3319 33.3746 19.3384 31.2145 19.3384Z" fill="#251B12"/>
<path fill-rule="evenodd" clip-rule="evenodd" d="M38.2718 10.8205C38.2718 11.5569 36.5781 12.7843 35.0684 14.343C33.5587 15.9018 32.6136 17.0801 32.0122 16.7978C30.7848 16.2209 31.6931 13.9135 33.1537 12.3547C34.6143 10.7959 38.4314 8.6112 38.2718 10.8205Z" fill="#4E4338"/>
<path fill-rule="evenodd" clip-rule="evenodd" d="M32.135 14.3554C32.5633 13.2841 33.2816 12.3533 34.2093 11.6674C35.989 10.1086 36.394 10.71 35.9767 11.1764C34.504 11.9798 33.1997 13.059 32.135 14.3554Z" fill="#67594E"/>
<path fill-rule="evenodd" clip-rule="evenodd" d="M36.2836 9.61763C36.9156 9.25973 37.6123 9.03031 38.3333 8.94257C39.2047 8.94257 39.6834 9.13895 39.7816 9.00394C39.8798 8.86893 38.186 7.91158 36.2836 9.61763Z" fill="#FAC482"/>
<path fill-rule="evenodd" clip-rule="evenodd" d="M52.0799 5.18681C52.0799 5.18681 51.368 2.5234 52.7672 1.86062C54.1664 1.19784 56.4493 3.088 58.7568 6.15644C61.0643 9.22488 63.1631 15.1163 61.2116 15.8773C59.26 16.6382 52.0799 5.18681 52.0799 5.18681Z" fill="#372D24"/>
<path fill-rule="evenodd" clip-rule="evenodd" d="M52.1658 5.11342C52.1658 5.11342 51.8098 2.65867 52.5954 2.13089C53.9209 1.24718 56.2775 3.41964 58.3886 6.24261C59.2968 7.46998 63.5804 15.1288 61.187 15.9389C60.917 15.9757 52.1658 5.11342 52.1658 5.11342Z" fill="#FFE9C7"/>
<path fill-rule="evenodd" clip-rule="evenodd" d="M52.1657 5.11321C52.0988 4.59649 52.0742 4.07517 52.0921 3.55444C52.0921 3.55444 52.0921 3.49307 52.0921 3.46852C52.086 3.41551 52.086 3.36198 52.0921 3.30897C52.4848 -0.373163 58.9408 9.20037 58.9531 9.22492C60.7328 12.0233 61.0765 14.4658 60.8187 15.6318C59.1618 13.7908 52.1657 5.11321 52.1657 5.11321Z" fill="#EFD0A3"/>
<path fill-rule="evenodd" clip-rule="evenodd" d="M52.1903 7.212C52.1903 7.212 51.503 5.50595 52.3376 4.89226C53.1722 4.27857 54.9151 5.51822 56.8543 7.81341C58.7936 10.1086 61.3833 15.2636 60.8556 15.8282C60.3278 16.3928 53.2826 10.7591 52.1903 7.212Z" fill="#F8B669"/>
<path fill-rule="evenodd" clip-rule="evenodd" d="M52.1903 7.21201C52.1903 7.21201 51.503 5.50595 52.3376 4.89226C52.4856 4.79559 52.6562 4.73909 52.8327 4.72833C53.0092 4.71757 53.1854 4.75292 53.344 4.8309C53.1537 4.78017 52.952 4.79356 52.7701 4.86899C52.5881 4.94443 52.4362 5.0777 52.3376 5.24821C51.8835 5.88644 52.534 6.41421 53.7123 7.70296C54.8905 8.9917 57.8362 12.0724 58.9654 13.4103C59.935 14.5394 60.4751 14.073 59.8246 12.5634C60.6224 14.1712 61.1133 15.5582 60.8556 15.8405C60.3278 16.4173 53.2826 10.7714 52.1903 7.24883V7.21201ZM59.2109 11.3728C59.2468 11.457 59.2878 11.539 59.3336 11.6183L59.2109 11.3728Z" fill="#EEAA59"/>
<path fill-rule="evenodd" clip-rule="evenodd" d="M48.7537 7.73973C48.6099 6.8985 48.6972 6.034 49.0063 5.23852C49.3154 4.44303 49.8347 3.7464 50.5088 3.22298C50.9138 2.97751 50.9016 5.38317 52.9636 8.00975C53.9945 9.23713 60.9906 15.9754 60.8433 16.2209C60.696 16.4664 59.2968 17.0187 57.3944 16.1227C53.7368 14.3676 49.981 12.2687 48.7537 7.73973Z" fill="#372D24"/>
<path fill-rule="evenodd" clip-rule="evenodd" d="M48.7537 7.73983C48.6099 6.89859 48.6972 6.0341 49.0063 5.23862C49.3154 4.44313 49.8347 3.7465 50.5088 3.22308C49.803 3.98011 49.3683 4.94991 49.2728 5.98051C49.1773 7.01111 49.4264 8.04427 49.981 8.91811C51.7491 11.8235 54.4616 14.0334 57.6644 15.1777C59.4441 15.5459 58.7445 13.8522 57.4558 12.5634C58.6974 13.6975 59.8466 14.9288 60.8924 16.2455C60.6715 16.6138 59.3459 17.0433 57.4435 16.1474C53.7368 14.3677 49.981 12.2688 48.7537 7.73983Z" fill="#251B12"/>
<path fill-rule="evenodd" clip-rule="evenodd" d="M52.8777 5.56724C52.9882 5.18675 53.8964 5.17448 55.3324 6.72097C56.7685 8.26746 59.5178 12.4037 59.4442 13.0297C59.3705 13.6556 52.2395 5.89863 52.8777 5.56724Z" fill="#FAC482"/>
<path fill-rule="evenodd" clip-rule="evenodd" d="M50.3615 7.8749C50.4469 7.73142 50.5666 7.61144 50.7099 7.52575C50.8532 7.44007 51.0156 7.39139 51.1824 7.38408C51.3492 7.37678 51.5152 7.41108 51.6654 7.48391C51.8157 7.55673 51.9454 7.66579 52.043 7.80126C53.0937 9.24032 54.2463 10.6021 55.492 11.8761C57.0875 13.3858 58.364 14.3309 57.824 14.6868C57.2839 15.0428 49.981 10.5015 50.3615 7.8749Z" fill="#67594E"/>
<path fill-rule="evenodd" clip-rule="evenodd" d="M55.2588 16.2456C56.1425 16.086 56.0566 15.0182 57.3576 14.6132C58.6586 14.2081 60.0578 14.5273 60.377 13.754C60.6961 12.9808 59.9106 12.1707 61.7148 12.3916C63.519 12.6125 65.581 13.1403 66.3788 14.4413C67.1766 15.7424 69.4473 16.4542 66.833 17.8166C64.2187 19.179 57.1121 19.314 55.2588 16.2456Z" fill="#F5A100"/>
<path fill-rule="evenodd" clip-rule="evenodd" d="M67.8147 34.9508C67.7889 34.5994 67.7355 34.2506 67.6552 33.9076C67.6552 33.6007 66.9433 33.257 66.7101 32.6802C66.6167 32.193 66.6863 31.6886 66.9081 31.245C67.13 30.8013 67.4917 30.443 67.9375 30.2254C69.0176 29.6854 69.9504 28.9981 70.9568 29.3908C71.9633 29.7836 72.3315 31.0232 72.5524 31.1828C73.2623 31.8835 73.6977 32.8153 73.7798 33.8094C73.8629 34.7001 73.809 35.5983 73.6202 36.4728C71.4478 36.4728 68.2443 36.4728 65.3109 36.4728C65.5377 36.4091 65.7561 36.3185 65.9614 36.2028C66.4278 35.9573 66.9188 36.08 67.066 35.8468C67.2133 35.6136 67.8147 34.914 67.8147 34.914V34.9508ZM59.3949 36.4114C59.3213 36.1414 59.2845 35.9205 59.2354 35.7609C59.0822 34.6063 59.1404 33.4334 59.4072 32.2997C60.3177 30.9356 61.5937 29.8552 63.0893 29.1822C64.1203 29.0226 64.4886 29.1822 64.5745 29.4154C64.6604 29.6486 63.1262 30.3359 62.7579 31.0355C62.5297 31.7902 62.3614 32.5618 62.2547 33.343C62.0583 33.883 61.8251 34.2144 62.0092 34.5703C62.1933 34.9263 62.6598 35.0613 63.4207 35.405C63.9803 35.6724 64.5006 36.0152 64.9672 36.4237H65.0531L59.3949 36.4114Z" fill="#F18D66"/>
<path fill-rule="evenodd" clip-rule="evenodd" d="M71.1409 29.5257C71.9755 30.0289 72.3069 31.0599 72.5156 31.2072C73.2254 31.9079 73.6609 32.8397 73.7429 33.8338C73.826 34.7246 73.7722 35.6228 73.5834 36.4972C72.7611 36.4972 71.8037 36.4972 70.7604 36.4972C70.294 36.1413 69.8767 35.9081 69.8154 35.859C69.7368 35.7165 69.703 35.5536 69.7183 35.3916C69.7336 35.2296 69.7974 35.076 69.9013 34.9507C70.3556 34.7363 70.8334 34.5757 71.325 34.472C71.681 34.3861 71.7423 33.932 71.7178 33.5883C71.6932 33.2447 72.1474 33.0974 72.2456 32.631C72.3438 32.1646 71.8283 31.9068 71.0918 31.9068C70.431 32.0261 69.7957 32.2586 69.214 32.5942C69.0667 32.5942 68.723 32.3119 68.588 32.3241C68.453 32.3364 69.1771 31.465 69.5208 31.2809C69.8645 31.0968 69.2508 30.8022 69.3981 30.5322C69.5453 30.2621 69.3121 30.0289 69.7171 29.7098C70.1549 29.5254 70.6307 29.4496 71.1041 29.4889L71.1409 29.5257ZM59.3949 36.4113C59.3213 36.1413 59.2845 35.9203 59.2354 35.7608C59.0822 34.6062 59.1404 33.4333 59.4072 32.2996C60.3177 30.9355 61.5937 29.8551 63.0893 29.1821C63.4922 29.0812 63.9138 29.0812 64.3167 29.1821C63.4224 29.4598 62.5893 29.9055 61.8619 30.4953C61.1623 31.109 61.371 31.1336 61.0151 32.0173C60.6661 32.6458 60.1793 33.1871 59.5913 33.6006C59.4195 33.797 59.3704 34.1038 59.6527 34.4966C59.935 34.8893 60.6468 34.5825 61.0887 34.6193C61.5305 34.6562 61.1992 35.0244 61.3465 35.2576C61.4938 35.4908 60.7573 35.9326 60.4259 36.399L59.3949 36.4113Z" fill="#EE7B49"/>
<path fill-rule="evenodd" clip-rule="evenodd" d="M67.8148 34.9507C67.789 34.5993 67.7356 34.2505 67.6553 33.9074C67.6553 33.6006 66.9434 33.2569 66.7102 32.68C66.6168 32.1929 66.6864 31.6885 66.9082 31.2448C67.1301 30.8012 67.4918 30.4429 67.9376 30.2253C68.6165 29.7871 69.3629 29.4637 70.1468 29.2679C69.757 29.468 69.3906 29.7109 69.0545 29.9921C68.674 30.348 69.0545 30.4585 68.7967 30.9372C68.6006 31.2738 68.4558 31.6379 68.3672 32.0173C68.3672 32.3609 68.2812 32.5696 68.7108 32.5696C69.1404 32.5696 69.7909 32.2014 70.245 32.5696C70.6992 32.9378 71.0183 33.0974 70.7483 33.6006C70.4782 34.1038 70.245 34.0179 70.1468 34.3984C70.0486 34.7789 70.0732 34.2511 70.1468 34.9139C70.1816 35.1092 70.1721 35.3099 70.119 35.5011C70.0659 35.6923 69.9705 35.8691 69.84 36.0185C69.6682 36.3499 69.6927 36.0185 69.6314 36.4849H65.3601C65.5869 36.4213 65.8053 36.3306 66.0106 36.2149C66.477 35.9694 66.9679 36.0922 67.1152 35.859C67.2625 35.6258 67.8639 34.9261 67.8639 34.9261L67.8148 34.9507ZM61.4325 36.4481C61.1624 35.6871 61.4938 34.7298 60.9047 34.5457C60.3155 34.3616 59.6773 34.4475 60.0455 33.9811C60.4138 33.5147 61.0765 33.7479 61.5307 32.6678C61.9848 31.5877 61.7761 31.6368 62.5003 30.8144C62.996 30.1415 63.6854 29.6362 64.4764 29.3661C64.5038 29.3655 64.5311 29.3706 64.5565 29.3812C64.5819 29.3918 64.6047 29.4075 64.6236 29.4275C64.6236 29.6116 63.1508 30.348 62.7949 31.0354C62.5542 31.789 62.3736 32.5606 62.2548 33.3428C62.0584 33.8829 61.8252 34.2143 62.0093 34.5702C62.1934 34.9261 62.6599 35.0612 63.4208 35.4048C63.9804 35.6723 64.5007 36.015 64.9673 36.4235H65.0532L61.4325 36.4481Z" fill="#F4A582"/>
<path fill-rule="evenodd" clip-rule="evenodd" d="M67.6306 33.8216C67.5425 33.677 67.4304 33.5483 67.2992 33.4411C67.8688 32.6525 68.6347 32.0263 69.5208 31.6246C70.3602 31.208 71.2351 30.8671 72.1351 30.6059C72.2332 30.8231 72.3613 31.0256 72.5155 31.2073C72.5995 31.2785 72.6775 31.3565 72.7487 31.4405C72.0152 31.37 71.2758 31.4883 70.6008 31.7842C69.4891 32.2664 68.4807 32.9581 67.6306 33.8216Z" fill="#F6B498"/>
<path fill-rule="evenodd" clip-rule="evenodd" d="M73.6448 36.3253V36.4972H71.3496L71.006 36.2762C69.9392 35.6858 68.7505 35.3498 67.5325 35.2943C67.5966 35.2042 67.6663 35.1181 67.7411 35.0366C68.9946 34.8539 70.268 34.8539 71.5214 35.0366C72.3305 35.2713 73.0631 35.7159 73.6448 36.3253Z" fill="#F6B498"/>
<path fill-rule="evenodd" clip-rule="evenodd" d="M67.0293 36.5219C66.8944 36.3589 66.7466 36.2071 66.5874 36.0678C66.8083 36.0678 66.9802 36.0678 67.0661 35.8837C67.3332 36.0799 67.5874 36.293 67.8271 36.5219H67.0293Z" fill="#F6B498"/>
<path fill-rule="evenodd" clip-rule="evenodd" d="M64.01 36.485C64.01 36.215 64.01 35.9818 64.01 35.8099C64.3414 36.0309 64.6114 36.2518 64.771 36.3745V36.4973L64.01 36.485Z" fill="#F6B498"/>
<path fill-rule="evenodd" clip-rule="evenodd" d="M59.2723 35.908C59.2753 35.859 59.2753 35.8098 59.2723 35.7607C59.2148 35.5237 59.1859 35.2805 59.1864 35.0366C59.7045 35.0852 60.227 35.0478 60.7329 34.9261C61.1617 34.8224 61.5745 34.6614 61.9603 34.4474C61.955 34.5005 61.955 34.554 61.9603 34.607C62.0076 34.6948 62.0699 34.7738 62.1444 34.8402C61.7309 35.1474 61.2764 35.3953 60.7943 35.5766C60.3078 35.7674 59.7941 35.8793 59.2723 35.908Z" fill="#F6B498"/>
<path fill-rule="evenodd" clip-rule="evenodd" d="M67.6306 33.8215C67.5425 33.6769 67.4304 33.5482 67.2992 33.4411C67.5818 33.0387 67.9207 32.6791 68.3057 32.3732C68.3057 32.5205 68.4161 32.5942 68.6739 32.5942C68.8736 32.5779 69.071 32.5409 69.263 32.4837C68.6804 32.8805 68.1342 33.3282 67.6306 33.8215Z" fill="#F8C8B4"/>
<path fill-rule="evenodd" clip-rule="evenodd" d="M69.9504 35.7977C69.1609 35.5134 68.3337 35.3479 67.4956 35.3068C67.5598 35.2166 67.6295 35.1305 67.7043 35.049C68.4947 34.9605 69.2901 34.9236 70.0854 34.9385C70.1542 35.2316 70.1057 35.5399 69.9504 35.7977Z" fill="#F8C8B4"/>
<path fill-rule="evenodd" clip-rule="evenodd" d="M67.0293 36.5219C66.8912 36.3619 66.7436 36.2102 66.5874 36.0678C66.8083 36.0678 66.9802 36.0678 67.0661 35.8837C67.3332 36.0799 67.5874 36.293 67.8271 36.5219H67.0293Z" fill="#F8C8B4"/>
<path fill-rule="evenodd" clip-rule="evenodd" d="M64.01 36.485C64.01 36.215 64.01 35.9818 64.01 35.8099C64.3414 36.0309 64.6114 36.2518 64.771 36.3745V36.4973L64.01 36.485Z" fill="#F8C8B4"/>
<path fill-rule="evenodd" clip-rule="evenodd" d="M61.1747 34.7788C61.431 34.6943 61.6778 34.5832 61.9111 34.4474C61.9058 34.5005 61.9058 34.554 61.9111 34.607C61.9585 34.6948 62.0208 34.7738 62.0952 34.8402C61.8306 35.0396 61.5469 35.2122 61.2483 35.3557C61.2676 35.1603 61.2424 34.9631 61.1747 34.7788Z" fill="#F8C8B4"/>
<path fill-rule="evenodd" clip-rule="evenodd" d="M64.0959 29.5871C64.787 29.8764 65.5319 30.0145 66.2807 29.9922C67.3117 29.8817 68.3304 28.3966 68.3304 28.3966C67.5813 28.2258 66.8014 28.2453 66.0617 28.4533C65.3221 28.6612 64.6463 29.051 64.0959 29.5871Z" fill="#EE7B49"/>
<path fill-rule="evenodd" clip-rule="evenodd" d="M64.0958 29.5872C64.8671 29.1878 65.5064 28.574 65.9369 27.8197C66.1403 27.0048 66.0845 26.1467 65.7773 25.365C65.1155 25.8278 64.6036 26.4742 64.3048 27.2244C64.006 27.9747 63.9333 28.7961 64.0958 29.5872Z" fill="#EE7B49"/>
<path fill-rule="evenodd" clip-rule="evenodd" d="M79.8063 3.61579C79.8063 3.61579 83.7585 5.89871 82.1138 7.40839C80.4691 8.91806 77.4375 1.90974 79.8063 3.61579Z" fill="#E18D00"/>
<path fill-rule="evenodd" clip-rule="evenodd" d="M68.3917 6.15656C71.2514 6.29157 73.2398 5.06419 72.9575 3.70181C72.6752 2.33942 66.2315 5.02737 68.3917 6.15656Z" fill="#F8B132"/>
</svg>
