<svg width="96" height="75" viewBox="0 0 96 75" fill="none" xmlns="http://www.w3.org/2000/svg">
<path fill-rule="evenodd" clip-rule="evenodd" d="M51.356 14.13L57.3978 50.0258C57.5633 51.5335 58.145 52.9654 59.0779 54.1614C60.3918 56.3154 65.7767 57.9955 72.2279 57.9955C78.679 57.9955 84.0747 56.3477 85.3886 54.1614C86.3215 52.9654 86.9032 51.5335 87.0687 50.0258L93.1214 14.13L73.8218 10.5005V9.91895L72.2602 10.2097L70.7093 9.91895V10.5005L51.356 14.13Z" fill="#F3D5AB"/>
<path fill-rule="evenodd" clip-rule="evenodd" d="M51.356 14.13L57.3978 50.0258C57.5633 51.5335 58.145 52.9654 59.0779 54.1614C60.1549 55.9384 63.9028 57.3924 68.7708 57.8232C68.7708 57.8232 62.7074 56.8216 60.4026 54.3553C58.0979 51.889 59.4656 51.1243 62.8797 51.4582C66.2937 51.7921 70.6124 52.6644 76.4389 52.0721C82.2654 51.4797 83.2347 50.5428 83.4285 49.5089C83.6224 48.475 86.0563 27.5276 86.0563 27.5276C86.0563 27.5276 75.7604 31.1355 67.6938 30.4139C45.3141 28.4323 60.0149 24.6628 73.2833 24.4905C78.9052 24.5292 84.4925 23.6077 89.8042 21.7658C90.6564 21.1385 91.4626 20.451 92.2167 19.7087L93.1644 14.13L73.8218 10.5005V9.91895L72.2602 10.2097L70.7093 9.91895V10.5005L51.356 14.13Z" fill="#DEBD90"/>
<path fill-rule="evenodd" clip-rule="evenodd" d="M72.2386 6.90337C74.8565 6.89779 77.4719 7.06328 80.0682 7.39878L94.1336 7.51725L95.0922 14.8084C95.1028 14.9267 95.1028 15.0456 95.0922 15.1638C95.0922 19.741 84.8393 23.4566 72.1955 23.4566C59.5517 23.4566 49.3096 19.741 49.3096 15.1638C49.3083 14.8909 49.3445 14.6191 49.4173 14.3561L50.3866 7.11876L65.3997 7.248C67.6708 7.0018 69.9542 6.88673 72.2386 6.90337Z" fill="#0B0000"/>
<path fill-rule="evenodd" clip-rule="evenodd" d="M90.6981 20.0967C87.6425 21.4862 84.3979 22.4153 81.0699 22.8537C82.2869 22.2829 82.9438 21.0767 82.8469 18.8043C82.7687 17.4217 82.1682 16.1205 81.1668 15.1641C79.4652 11.19 85.5824 9.30529 89.0934 11.4485C91.9474 13.1932 91.6566 18.0396 90.6981 20.0967Z" fill="#291E16"/>
<path fill-rule="evenodd" clip-rule="evenodd" d="M65.3136 23.1012C56.0623 22.0243 49.3527 18.901 49.3527 15.1962C49.3513 14.9233 49.3876 14.6515 49.4604 14.3885L50.4297 7.15112L65.4428 7.28036C67.0152 7.09728 68.6738 6.97881 70.3754 6.93573C71.4524 10.339 71.7647 15.767 66.8214 15.5516C59.724 15.3362 53.8114 14.4746 56.1485 18.2656C58.4855 22.0566 65.012 23.0582 65.3136 23.1012Z" fill="#010000"/>
<path fill-rule="evenodd" clip-rule="evenodd" d="M72.2386 15.8855C84.3116 15.8855 94.1552 12.3207 94.1552 7.94813C94.1552 3.57558 84.3116 0 72.2386 0C60.1656 0 50.3328 3.57558 50.3328 7.94813C50.3328 12.3207 60.1764 15.8855 72.2386 15.8855Z" fill="#372B23"/>
<path fill-rule="evenodd" clip-rule="evenodd" d="M52.9176 25.2444L56.687 47.9473C56.687 47.9473 59.5518 51.2644 69.2447 51.5874C78.9375 51.9105 82.8362 49.8966 82.8362 49.8966L86.0671 27.5276C86.0671 27.5276 65.6045 32.2125 52.9176 25.2444Z" fill="#87552B"/>
<path fill-rule="evenodd" clip-rule="evenodd" d="M52.9176 25.2444L56.687 47.9473C56.687 47.9473 58.7764 50.3597 65.3891 51.2751C58.1625 49.9181 58.2379 30.2416 58.281 27.4307C56.4188 26.8997 54.6203 26.1665 52.9176 25.2444Z" fill="#754620"/>
<path fill-rule="evenodd" clip-rule="evenodd" d="M72.1741 33.1173C71.1937 33.0658 70.2137 33.2246 69.2997 33.5831C68.3858 33.9416 67.5592 34.4915 66.8753 35.1958C64.3983 37.6406 63.2567 43.6825 66.4445 44.8887C68.0277 45.4703 70.2463 44.6302 72.0664 43.1655C75.642 40.2684 76.999 33.6019 72.1741 33.1173Z" fill="#4F2500"/>
<path fill-rule="evenodd" clip-rule="evenodd" d="M74.1664 34.0219C74.1664 34.0219 72.174 33.3757 71.1293 35.9174C70.0846 38.4591 69.5677 41.8947 68.1353 42.9716C66.7029 44.0486 65.9275 43.4563 65.9275 43.1655C65.9275 42.8747 67.4245 43.2947 67.8445 41.1515C68.4312 38.6743 69.532 36.348 71.0755 34.3235C72.174 33.1172 74.1664 34.0219 74.1664 34.0219Z" fill="#340E00"/>
<path d="M72.2386 14.9378C82.945 14.9378 91.6243 11.794 91.6243 7.91591C91.6243 4.0378 82.945 0.893982 72.2386 0.893982C61.5322 0.893982 52.8529 4.0378 52.8529 7.91591C52.8529 11.794 61.5322 14.9378 72.2386 14.9378Z" fill="#291E16"/>
<path fill-rule="evenodd" clip-rule="evenodd" d="M72.2387 11.7069C71.7756 11.7069 70.354 11.6423 69.7617 11.5885C69.1694 11.5346 68.4585 13.667 68.5554 13.9578C68.6524 14.2486 71.1941 14.4102 72.2387 14.3994C73.2834 14.3886 75.8359 14.2271 75.922 13.9578C76.0082 13.6886 75.4374 11.5238 74.7266 11.5885C74.0158 11.6531 72.7126 11.6962 72.2387 11.7069Z" fill="#0B0000"/>
<path fill-rule="evenodd" clip-rule="evenodd" d="M87.3055 25.0184C87.3055 25.0184 84.6992 48.8844 84.0746 50.2522C83.4499 51.6199 82.1253 52.9231 77.9573 53.2462C73.7894 53.5693 64.7535 52.7184 64.3012 53.5046C63.8489 54.2908 66.6382 57.1449 74.3171 56.6279C81.996 56.111 85.4424 53.3108 86.0239 50.166C86.6055 47.0212 89.7718 21.0444 87.3055 25.0184Z" fill="#FFE9C7"/>
<path fill-rule="evenodd" clip-rule="evenodd" d="M79.1743 31.0602C79.1743 31.0602 78.9159 39.6761 76.2449 43.4886C73.574 47.3011 65.712 47.7104 65.4751 48.7551C65.2382 49.7997 71.1939 50.909 76.0726 49.832C80.9514 48.7551 81.9314 46.6011 82.7068 40.7854C83.4823 34.9697 84.6347 28.8093 84.6347 28.8093C84.6347 28.8093 83.3315 30.9633 79.1743 31.0602Z" fill="#966037"/>
<path fill-rule="evenodd" clip-rule="evenodd" d="M71.2693 1.66937C68.4459 1.7299 65.6308 1.99989 62.8473 2.47711C59.4009 3.18792 54.7268 5.20188 54.393 7.77587C54.0591 10.3499 60.0794 12.2346 63.1058 12.3961C66.1321 12.5577 57.5162 10.2422 58.4532 7.21583C59.3902 4.18951 64.312 3.05868 71.2693 1.66937Z" fill="#372B23"/>
<path fill-rule="evenodd" clip-rule="evenodd" d="M73.0679 1.66937C75.8913 1.7299 78.7064 1.99989 81.4899 2.47711C84.9362 3.18792 89.6103 5.20188 89.9442 7.77587C90.2781 10.3499 84.2577 12.2346 81.2314 12.3961C78.2051 12.5577 86.821 10.2422 85.884 7.21583C84.947 4.18951 80.0144 3.05868 73.0679 1.66937Z" fill="#372B23"/>
<path fill-rule="evenodd" clip-rule="evenodd" d="M50.1496 25.0721C55.2007 26.6768 55.6638 29.7032 58.3563 32.9341C59.5086 34.3127 62.9981 35.0881 66.5844 40.1822C70.1708 45.2763 69.2661 47.118 69.4384 47.8073C69.6107 48.4965 72.8524 49.0135 74.9526 51.1997C76.2408 52.6297 77.0274 54.4409 77.1927 56.3585C78.5024 58.0612 79.4216 60.0312 79.885 62.1287C80.3484 64.2263 80.3448 66.4001 79.8744 68.4961C78.3127 75.7981 71.4955 76.1104 68.9538 73.5256C66.4121 70.9409 71.657 68.8084 70.0308 66.956C68.4045 65.1036 66.509 66.4714 61.5441 65.7175C56.5792 64.9636 56.7946 62.6912 55.0822 62.4865C53.3698 62.2819 51.582 63.5635 49.008 63.0358C37.2258 60.7418 40.2845 61.7219 29.3423 56.7893C26.9514 55.7123 26.2729 53.6661 24.6898 52.8475C23.1066 52.029 21.9758 54.0107 17.4847 51.7706C12.9937 49.5304 12.2398 47.3226 9.83816 47.8934C7.43648 48.4642 10.4951 53.2783 6.93032 53.8814C3.36551 54.4846 -2.04097 50.3382 0.899193 43.467C1.72386 41.4813 2.97531 39.7013 4.56479 38.2533C6.15427 36.8052 8.04284 35.7246 10.0966 35.0881C11.3338 33.6194 13.0166 32.5947 14.8892 32.1695C17.8617 31.5987 20.8342 33.0418 21.3511 32.5787C21.8681 32.1156 22.2127 30.0586 28.0715 27.9908C33.9303 25.923 37.2366 27.28 38.9706 26.8169C42.977 25.6752 45.0986 23.4244 50.1496 25.0721Z" fill="#E08610"/>
<path fill-rule="evenodd" clip-rule="evenodd" d="M61.6088 35.2065C62.4576 35.7901 63.2572 36.4421 63.9997 37.1559C65.437 39.9521 66.0848 43.0872 65.8737 46.2241C65.1952 51.049 60.6611 55.9169 59.5626 55.5077C58.4641 55.0984 59.9826 50.1874 61.8889 42.7993C62.7828 39.2237 62.3412 36.7789 61.6088 35.2065Z" fill="#EC972C"/>
<path fill-rule="evenodd" clip-rule="evenodd" d="M70.6124 48.572C71.5766 48.9584 72.5092 49.4193 73.4018 49.9506C73.9211 51.2833 74.1948 52.699 74.2095 54.1292C74.2095 57.3602 72.4541 59.8588 70.8817 59.2234C69.3093 58.588 67.8661 59.9234 66.0891 59.7403C64.3121 59.5572 66.6168 57.6833 69.1477 53.2784C70.0541 51.8716 70.5604 50.2447 70.6124 48.572Z" fill="#EC972C"/>
<path fill-rule="evenodd" clip-rule="evenodd" d="M50.1497 25.0722C52.498 25.7308 54.5173 27.2395 55.8146 29.3047C56.4265 32.9533 56.3094 36.6869 55.47 40.29C54.1453 46.7519 49.7728 52.7507 42.837 50.489C35.9012 48.2273 35.5781 40.5161 38.0121 32.848C38.5426 31.0544 39.4529 29.396 40.6813 27.9855C41.9096 26.5751 43.4272 25.4455 45.1309 24.6737C46.8101 24.3697 48.5395 24.507 50.1497 25.0722Z" fill="#EC972C"/>
<path fill-rule="evenodd" clip-rule="evenodd" d="M29.3962 27.4955C31.7477 26.833 34.1999 26.6031 36.6335 26.817C34.4812 27.7507 32.6368 29.274 31.3132 31.2111C28.5885 35.4113 26.1006 44.1349 24.9375 43.521C23.7743 42.9071 21.9973 37.2853 26.176 31.1249C27.0745 29.7705 28.1584 28.5488 29.3962 27.4955Z" fill="#EC972C"/>
<path fill-rule="evenodd" clip-rule="evenodd" d="M13.9847 32.3419C14.2539 32.2557 14.5339 32.1911 14.8247 32.1265C16.5887 31.9124 18.3775 32.0441 20.0912 32.5142C18.9388 34.5066 18.7019 40.0531 18.5511 41.7547C18.4003 43.4564 19.1757 45.8903 17.6249 45.2657C16.074 44.641 16.1494 43.3163 14.9863 42.4009C13.8231 41.4855 12.7569 42.8102 11.8092 42.5086C10.8614 42.2071 10.226 39.0838 11.3568 35.8313C11.8776 34.4389 12.7903 33.227 13.9847 32.3419Z" fill="#EC972C"/>
<path fill-rule="evenodd" clip-rule="evenodd" d="M39.8645 26.6553C39.8645 26.6553 34.0703 35.9712 35.0396 43.8871C36.0089 51.8029 39.6491 54.1292 43.6555 54.6569C47.6618 55.1846 53.1329 50.4028 55.5023 44.1886C56.9324 40.6436 57.7517 36.882 57.9255 33.0634C59.1474 37.5877 59.0502 42.3671 57.6455 46.838C55.2654 53.9461 48.0172 59.2879 44.9694 60.128C43.2354 60.6019 40.7799 61.5388 38.7983 60.9357C37.2797 60.4726 36.1381 58.5987 35.1581 57.9417C32.9072 56.4124 29.9562 46.9672 30.8501 42.767C31.744 38.5668 32.8533 30.7586 39.8645 26.6553Z" fill="#DB7D00"/>
<path fill-rule="evenodd" clip-rule="evenodd" d="M52.6483 54.6569C49.8482 57.5756 46.7141 59.5464 44.9694 60.0419C44.2801 60.225 43.494 60.4834 42.6539 60.6988C41.8175 60.7206 40.9817 60.6374 40.1661 60.4511C37.6366 59.7492 35.4078 58.2356 33.8226 56.1432C32.1446 52.9084 31.1096 49.379 30.7748 45.7503C31.3348 40.4623 33.1657 32.3526 37.0967 28.874C37.0967 28.874 32.0887 37.3821 33.2518 46.3103C34.8673 58.7064 45.5941 60.9142 53.273 50.0044C55.5912 46.3891 57.3351 42.4363 58.4425 38.2868C58.4425 38.2868 55.3408 51.0491 52.6483 54.6569Z" fill="#D47400"/>
<path fill-rule="evenodd" clip-rule="evenodd" d="M38.2599 60.688C40.5216 61.4742 42.5678 61.765 48.9543 63.0035C51.5283 63.4989 53.2622 62.2065 55.0285 62.4542C56.7947 62.7019 56.5686 64.9744 61.4904 65.6852C66.4122 66.396 68.3508 65.0605 69.9878 66.913C71.6248 68.7654 66.3691 70.9086 68.9108 73.4825C70.7525 75.3565 74.8235 75.7119 77.5267 73.0087C77.4082 73.1056 75.9866 74.2257 72.8418 73.9241C69.697 73.6226 69.2124 71.2532 71.0756 69.4008C72.9388 67.5484 77.6452 59.8372 76.8805 58.4802C76.1158 57.1232 73.1757 63.8651 71.3233 64.2097C69.4708 64.5543 70.3863 61.948 69.6863 60.9788C68.9862 60.0095 65.0014 62.8527 62.6966 62.6265C60.3919 62.4004 69.1585 51.7813 68.3292 48.8412C67.5 45.901 61.2104 58.6956 58.6364 58.8894C56.0624 59.0833 60.2303 42.4654 58.9703 41.4315C57.7102 40.3976 56.2347 58.8679 42.0616 60.2464C40.6508 60.4187 39.38 60.5588 38.2599 60.688Z" fill="#DB7D00"/>
<path fill-rule="evenodd" clip-rule="evenodd" d="M39.3476 61.0327C37.0428 60.3758 35.2335 59.4388 29.2778 56.7248C26.8869 55.6478 26.2084 53.6015 24.6252 52.783C23.042 51.9645 21.9112 53.9462 17.4202 51.706C12.9292 49.4659 12.1753 47.2581 9.7736 47.8289C7.37193 48.3997 10.4305 53.2138 6.86573 53.8169C4.28097 54.28 0.748485 52.223 0.102295 48.432C0.102295 48.5828 0.651537 50.3167 3.39784 51.8784C6.14415 53.44 7.89966 51.7922 7.45809 49.2074C7.01653 46.6227 7.58732 37.5976 8.99817 36.9406C10.409 36.2837 8.93355 43.4025 10.2367 44.8241C11.5398 46.2457 12.3045 43.5102 13.4676 43.1117C14.6308 42.7132 16.214 47.3443 18.2279 48.4966C20.2419 49.649 19.1864 35.8852 21.5666 33.9789C23.9467 32.0726 21.7066 46.138 23.7205 47.7858C25.7345 49.4336 31.8841 33.4404 33.5103 33.3219C35.1366 33.2035 25.6914 49.1536 36.472 58.448C37.549 59.4388 38.5075 60.2788 39.3476 61.0327Z" fill="#DB7D00"/>
<path fill-rule="evenodd" clip-rule="evenodd" d="M37.2905 60.3326C36.5904 60.0526 35.815 59.7187 34.8565 59.2556C35.7114 59.5069 36.5296 59.8689 37.2905 60.3326ZM31.3886 57.7155L29.2347 56.757C26.8438 55.68 26.1652 53.6337 24.5821 52.8152C22.9989 51.9967 21.8681 53.9784 17.3771 51.7382C12.886 49.4981 12.1321 47.2903 9.73047 47.8611C7.50111 48.3888 9.96742 52.5352 7.49036 53.6445C7.78114 53.4614 8.13655 53.0199 8.16886 51.9644C8.22271 50.1766 7.75959 43.467 8.35193 41.0869C8.94427 38.7068 8.35193 44.4471 10.5059 46.278C12.6599 48.1088 13.0691 46.9457 13.9199 47.3549C14.7708 47.7642 15.8262 50.769 18.9818 51.7813C22.1373 52.7937 22.1481 49.1104 23.839 49.0673C25.5298 49.0243 25.8745 50.1443 26.1329 51.3182C26.5436 52.6785 27.2195 53.9441 28.1215 55.0421C29.0235 56.14 30.1339 57.0486 31.3886 57.7155Z" fill="#D47400"/>
<path fill-rule="evenodd" clip-rule="evenodd" d="M73.7572 50.1875C74.1872 50.4858 74.5875 50.8248 74.9526 51.1999C76.2409 52.6298 77.0274 54.441 77.1927 56.3586C78.5024 58.0613 79.4216 60.0313 79.885 62.1288C80.3485 64.2264 80.3448 66.4002 79.8744 68.4962C79.5865 69.9948 78.9357 71.3999 77.9789 72.5887C77.8712 72.5349 77.4404 73.3426 77.3328 73.2672C77.2251 73.1919 77.4943 72.2549 77.3974 72.1903C77.3004 72.1256 79.8744 66.913 78.3666 62.6697C76.8589 58.4264 76.0727 57.791 75.685 58.5233C75.2973 59.2557 71.097 65.1791 69.7293 65.0929C68.3615 65.0068 79.0882 56.7356 74.7264 51.566C74.3585 51.1397 74.0338 50.678 73.7572 50.1875Z" fill="#BC6600"/>
<path fill-rule="evenodd" clip-rule="evenodd" d="M65.2383 38.5021C65.6799 39.0191 66.1322 39.5791 66.5845 40.2361C69.3739 44.1671 69.4493 46.1703 69.4278 47.1934C68.2969 51.5983 65.3568 55.3677 63.5367 58.1678C61.3073 61.5819 58.2271 63.7143 59.0133 61.6142C59.7995 59.5141 66.0353 53.6876 67.2522 48.055C67.5855 46.3644 67.5258 44.6198 67.0776 42.956C66.6294 41.2921 65.8048 39.7535 64.6675 38.4591C64.6675 38.4591 64.3013 37.7052 64.5275 37.7267C64.7536 37.7482 65.1629 38.4375 65.2383 38.5021Z" fill="#BC6600"/>
<path fill-rule="evenodd" clip-rule="evenodd" d="M0.00536326 47.6241C-0.0433533 46.179 0.240348 44.742 0.834629 43.4239C1.65929 41.4381 2.91075 39.6581 4.50023 38.2101C6.08971 36.7621 7.97828 35.6815 10.0321 35.0449C10.8795 34.0442 11.9341 33.2395 13.123 32.6863C7.94274 35.368 11.4644 46.9348 10.3659 46.2563C9.2674 45.5778 9.18124 38.2651 9.28894 37.4466C9.39664 36.6281 8.38429 36.6819 4.70101 39.2882C1.01773 41.8945 0.0376728 47.441 0.00536326 47.6241Z" fill="#BC6600"/>
<path fill-rule="evenodd" clip-rule="evenodd" d="M20.6619 32.611C20.8758 32.6641 21.1018 32.6373 21.2973 32.5356C21.825 32.0725 22.1589 30.0154 28.0177 27.9476C28.33 27.8292 28.6423 27.7322 28.9439 27.6353C27.4613 28.1223 26.0977 28.9157 24.9418 29.964C23.7858 31.0124 22.8634 32.2922 22.2343 33.7203C19.9834 39.0298 21.7066 47.3764 21.1573 49.5519C20.608 51.7274 19.3049 48.1949 19.4557 44.167C19.5526 41.0007 19.3588 36.6389 20.6619 32.611Z" fill="#BC6600"/>
<path fill-rule="evenodd" clip-rule="evenodd" d="M39.8645 26.6553C37.7946 27.9759 36.1259 29.8383 35.0396 32.0403C33.3595 35.2066 32.2072 40.3976 31.8625 45.0179C31.5933 48.5719 31.8625 51.7706 32.6164 53.4722C35.1473 58.8571 37.3013 58.3186 36.5151 58.5771C35.7289 58.8356 30.1716 55.9924 29.687 49.1212C29.2347 42.7455 30.2794 31.4264 39.843 26.6769L39.8645 26.6553Z" fill="#BC6600"/>
<path fill-rule="evenodd" clip-rule="evenodd" d="M57.5055 32.2772C58.4161 34.5137 58.7063 36.9545 58.3455 39.3422C57.8932 42.8854 55.8469 47.7965 53.4668 51.7706C51.6359 54.8292 49.6004 57.317 47.9742 58.2325C42.7723 61.2157 41.3507 59.5033 41.8353 60.1603C42.32 60.8172 48.5126 61.7111 52.8744 56.3693C56.9023 51.4259 62.5673 41.6254 57.5593 32.2556L57.5055 32.2772Z" fill="#BC6600"/>
<path fill-rule="evenodd" clip-rule="evenodd" d="M40.3169 61.2912C41.0492 61.4635 41.8785 61.6358 42.9124 61.8405C42.0749 61.5448 41.2023 61.3601 40.3169 61.2912ZM46.6495 62.5513L48.922 62.9928C51.496 63.4883 53.2299 62.2066 54.9962 62.4436C56.7624 62.6805 56.547 64.9637 61.5119 65.6745C66.4768 66.3853 68.3615 65.0499 69.9986 66.9023C71.6356 68.7547 67.1122 70.5856 68.4907 72.9226C68.3615 72.6103 68.3292 72.0503 68.9108 71.1671C69.8908 69.6701 74.1449 64.4575 75.028 62.1743C75.9112 59.8911 73.0895 64.9206 70.3216 65.1899C67.5538 65.4591 67.8338 64.2637 66.8861 64.1129C65.9383 63.9621 63.3643 65.8038 60.198 64.8129C57.0317 63.8221 59.121 60.8066 57.7963 59.7942C56.4716 58.7818 55.5024 59.5142 54.6192 60.3111C53.9084 61.0112 51.2698 62.9067 46.628 62.5513H46.6495Z" fill="#D47400"/>
<path fill-rule="evenodd" clip-rule="evenodd" d="M16.6986 32.8912C15.9241 32.8693 15.1593 33.0683 14.4937 33.465C13.8282 33.8617 13.2892 34.4396 12.9399 35.1313C11.8629 37.5006 12.0245 40.4193 13.5969 40.7639C15.1693 41.1085 16.0632 40.1823 16.8278 40.8177C17.5925 41.4532 17.3233 39.9562 17.7864 37.6945C18.2495 35.4328 18.6264 33.0312 16.6986 32.8912Z" fill="#F7AD54"/>
<path fill-rule="evenodd" clip-rule="evenodd" d="M6.77971 39.2452C6.34545 41.093 6.17862 42.9935 6.28431 44.8886C6.56433 47.2903 6.41355 51.2751 5.0027 51.1136C3.59185 50.9521 0.920932 48.895 1.77175 46.3856C2.62257 43.8763 4.70114 39.2883 6.77971 39.2452Z" fill="#EC972C"/>
<path fill-rule="evenodd" clip-rule="evenodd" d="M4.4641 42.8101C4.09793 43.0255 2.54706 45.8472 2.83785 47.3011C3.12863 48.7551 4.17331 50.0259 4.78719 49.7674C5.40107 49.509 4.99182 47.6135 4.99182 46.6119C4.99182 45.6103 5.70264 41.3023 4.4641 42.8101Z" fill="#F7AD54"/>
<path fill-rule="evenodd" clip-rule="evenodd" d="M32.541 28.3893C30.7065 29.5815 29.2906 31.3174 28.4916 33.3542C27.07 36.8329 26.2407 40.6346 25.2606 40.4623C24.2806 40.29 24.0652 36.3374 26.6715 32.4388C29.2778 28.5401 31.3025 27.8077 32.541 28.3893Z" fill="#F7AD54"/>
<path fill-rule="evenodd" clip-rule="evenodd" d="M48.6204 26.0629C46.6602 26.0629 42.1584 27.9046 40.7368 33.5264C39.3152 39.1483 39.8752 43.1547 43.9032 45.1902C47.9311 47.2257 52.9606 44.1886 53.7576 37.4682C54.5545 30.7478 53.8114 26.9999 48.6204 26.0629Z" fill="#F5A442"/>
<path fill-rule="evenodd" clip-rule="evenodd" d="M47.3495 27.5924C46.0225 28.0333 44.906 28.9504 44.2155 30.1664C42.5785 33.1604 42.5139 34.5497 44.4955 34.9159C46.4772 35.2821 47.4249 34.2697 49.105 35.5944C50.7851 36.9191 49.8051 38.5668 50.9144 38.6315C52.3791 38.7284 54.9854 24.8138 47.3495 27.5924Z" fill="#F7AD54"/>
<path fill-rule="evenodd" clip-rule="evenodd" d="M77.7096 61.528C77.7096 61.528 79.0128 69.9823 76.008 71.9316C73.0032 73.8809 70.8816 73.2132 72.4647 70.5208C74.0479 67.8283 77.225 65.7928 77.7096 61.528Z" fill="#EC972C"/>
<path fill-rule="evenodd" clip-rule="evenodd" d="M77.365 65.976C77.5481 66.3745 77.1819 69.5624 76.105 70.5963C75.028 71.6302 73.4448 72.0502 73.1002 71.4794C72.7555 70.9086 74.1772 69.5947 74.748 68.7762C75.3188 67.9577 77.2789 64.0159 77.365 65.976Z" fill="#F7AD54"/>
<path fill-rule="evenodd" clip-rule="evenodd" d="M72.9278 51.4258C72.9278 51.4258 74.0048 55.3999 72.4109 57.0584C70.8169 58.717 68.8783 58.6955 68.803 57.7262C68.7276 56.7569 70.2031 56.8 70.6015 54.8829C71 52.9659 71.6893 49.4442 72.9278 51.4258Z" fill="#F7AD54"/>
<path fill-rule="evenodd" clip-rule="evenodd" d="M64.0428 39.6331C65.1401 41.9528 65.373 44.588 64.6997 47.0643C63.5043 50.9414 61.5872 52.8046 60.8872 52.4492C60.1872 52.0938 61.5549 50.2414 62.2011 46.9027C62.8473 43.5641 63.3643 38.0822 64.0428 39.6331Z" fill="#F7AD54"/>
</svg>
