<svg width="122" height="75" viewBox="0 0 122 75" fill="none" xmlns="http://www.w3.org/2000/svg">
<path fill-rule="evenodd" clip-rule="evenodd" d="M102.033 5.90037C102.391 6.94986 103.297 10.3846 101.842 10.6708C98.2644 11.279 97.1911 2.09595 104.156 0.342817C108.926 -0.84979 113.697 1.04646 114.031 6.38934C114.615 16.6815 104.144 16.0733 96.7498 18.1246C94.0307 18.8879 57.036 29.0131 41.8899 34.6541C26.7438 40.2952 1.67516 51.9946 0.0651381 51.7919C-1.54488 51.5891 27.0777 38.8879 43.0944 32.4359C59.1111 25.9839 99.3378 15.7394 103.524 13.9982C107.71 12.257 110.477 11.0763 110.835 7.79661C111.669 0.175852 101.115 3.14545 102.033 5.90037Z" fill="#CCCCCE"/>
<path fill-rule="evenodd" clip-rule="evenodd" d="M14.5911 45.9719C11.0132 47.5222 7.79321 48.8938 5.30066 49.9194C6.97031 49.0249 11.1086 47.0929 10.6555 46.8783C10.2023 46.6636 7.63817 47.7846 7.55469 47.8204C9.49864 46.9259 11.7288 45.9003 14.1259 44.827L14.4599 45.0178L14.5911 45.9719Z" fill="#ABABAC"/>
<path fill-rule="evenodd" clip-rule="evenodd" d="M110.071 9.99083C110.514 9.32415 110.785 8.5578 110.858 7.76066C111.586 0.915101 103.071 2.66824 102.081 5.10116C102.081 5.10116 102.749 2.56089 107.066 2.37008C111.383 2.17926 112.957 6.98548 110.071 10.0028V9.99083Z" fill="#ABABAC"/>
<path fill-rule="evenodd" clip-rule="evenodd" d="M112.612 12.2329C109.57 16.5024 102.296 16.5502 96.7499 18.0886L94.4243 18.7326C94.1047 18.1594 93.864 17.5456 93.7087 16.9079C96.5471 16.1089 98.9324 15.4291 100.686 14.8924C100.208 15.0475 97.6682 15.8465 97.6444 16.4547C97.6205 17.063 107.34 16.9079 112.612 12.2329Z" fill="#ABABAC"/>
<path fill-rule="evenodd" clip-rule="evenodd" d="M61.3056 22.3701C61.3056 22.3701 60.5065 18.0887 59.9937 16.574C59.588 15.4618 59.6264 14.2359 60.101 13.1513C60.3992 12.6504 66.2429 11.3385 68.163 11.3385C70.0831 11.3385 72.5399 12.3999 73.1004 14.2127C73.6609 16.0255 75.7719 26.8543 76.3801 27.9634C76.9883 29.0726 78.6937 31.6009 78.9442 32.9008C79.1743 33.5572 79.2158 34.2649 79.064 34.9437C78.9123 35.6225 78.5733 36.2452 78.0855 36.741C76.8333 37.9336 67.9126 41.2729 67.0539 40.9748C66.1952 40.6766 62.7128 29.1799 61.3056 22.3701Z" fill="#F1E4C5"/>
<path fill-rule="evenodd" clip-rule="evenodd" d="M61.3054 22.37C61.3054 22.37 61.2339 21.9884 61.1146 21.416C61.1146 21.416 62.9155 27.379 64.287 28.7386C65.6585 30.0981 65.6108 29.6569 65.9208 31.565C66.2309 33.4732 65.9208 34.3438 67.2327 35.2979C68.5446 36.252 68.4849 35.7511 71.0013 36.1566C73.5177 36.5621 75.092 37.218 76.3442 36.3116C77.5964 35.4052 78.9918 34.5227 78.9918 33.4374C79.1511 34.031 79.1477 34.6564 78.982 35.2482C78.8162 35.84 78.4941 36.3762 78.0496 36.8006C76.7974 37.9932 67.8767 41.3325 67.018 41.0343C66.1593 40.7362 62.7127 29.1798 61.3054 22.37Z" fill="#E6D8B5"/>
<path fill-rule="evenodd" clip-rule="evenodd" d="M59.7432 15.286C59.6644 14.5551 59.7882 13.8166 60.101 13.1513C60.3991 12.6504 66.2429 11.3385 68.163 11.3385C70.0831 11.3385 72.5399 12.3999 73.1004 14.2127C73.6609 16.0255 75.7719 26.8543 76.3801 27.9634C76.5232 28.2377 76.7379 28.5955 76.9764 28.9891C75.8483 27.4923 74.6338 26.0627 73.3389 24.7076C71.4308 22.4655 71.3115 22.0958 70.9537 20.2353C70.596 18.3749 72.1463 17.385 72.1463 15.9658C72.1463 14.5466 71.2161 13.831 69.3437 13.3302C67.4713 12.8293 67.1851 13.6283 66.3025 13.8788C65.9364 13.9488 65.5599 13.9449 65.1953 13.867C64.8307 13.7892 64.4853 13.6391 64.1797 13.4256C63.2651 13.0214 62.2342 12.9663 61.2817 13.2705C60.8385 13.3892 60.4472 13.6513 60.1688 14.016C59.8904 14.3806 59.7408 14.8273 59.7432 15.286Z" fill="#E6D8B5"/>
<path fill-rule="evenodd" clip-rule="evenodd" d="M73.0289 14.1174V14.2128C73.0224 14.1813 73.0224 14.1488 73.0289 14.1174ZM73.2912 15.0715C73.8398 17.3613 74.9132 22.5968 75.6765 25.6737C75.6765 25.6737 74.3049 23.2885 73.649 22.1675C72.9931 21.0464 72.683 21.273 72.9573 20.2951C73.1727 19.3762 73.2847 18.4362 73.2912 17.4925C73.3691 16.6878 73.3811 15.8781 73.327 15.0715H73.2912Z" fill="#D9CBA1"/>
<path fill-rule="evenodd" clip-rule="evenodd" d="M13.3985 50.1339C13.3985 50.1339 11.7407 46.1029 10.9298 45.3635C10.4722 44.9559 10.1124 44.4505 9.87707 43.8848C9.6417 43.319 9.5368 42.7075 9.57019 42.0957C9.57019 40.4261 9.22434 38.1124 10.0234 37.0033C10.8224 35.8942 11.8361 35.1428 12.0389 33.831C12.2416 32.5191 12.2416 29.3945 13.959 28.4404C15.6763 27.4863 16.6304 28.178 17.3818 27.6294C18.0578 27.1542 18.8891 26.9539 19.7074 27.0689C21.4477 27.6304 23.2363 28.0296 25.0502 28.2615C26.4098 28.2615 27.5189 29.4541 29.129 31.4338C30.739 33.4136 33.315 34.8924 33.5177 36.3593C33.7205 37.8262 30.5839 42.8232 30.5839 45.7451C30.5839 48.667 30.8105 50.5155 30.1546 50.5155C27.6431 50.3214 25.1227 50.2696 22.6054 50.3605C20.5303 50.6109 18.4193 52.221 16.6424 52.4476C14.8654 52.6742 13.3985 50.1339 13.3985 50.1339Z" fill="#7B2300"/>
<path fill-rule="evenodd" clip-rule="evenodd" d="M13.3984 50.134C13.3984 50.134 11.7407 46.103 10.9297 45.3636C10.4722 44.956 10.1124 44.4506 9.87704 43.8849C9.64166 43.3192 9.53676 42.7077 9.57015 42.0958C9.57015 41.1895 9.4509 40.1042 9.48668 39.1143C9.48668 39.1143 9.64172 41.6904 10.9417 42.5371C12.2416 43.3839 13.9113 43.1096 14.0424 43.837C14.1736 44.5645 13.1838 48.6075 14.1856 49.9194C15.1873 51.2312 16.2607 52.3046 17.3102 52.0303C18.3597 51.756 21.8182 49.8716 22.6054 50.4083C20.5302 50.6588 18.4193 52.2688 16.6423 52.4954C14.8653 52.722 13.3984 50.134 13.3984 50.134Z" fill="#691B00"/>
<path fill-rule="evenodd" clip-rule="evenodd" d="M9.51062 38.8399C9.5137 38.1874 9.69514 37.5482 10.0354 36.9914C10.8463 35.8823 11.8481 35.1309 12.0509 33.8191C12.2536 32.5072 12.2536 29.3826 13.971 28.4285C15.6883 27.4744 16.6424 28.1661 17.3938 27.6175C18.0697 27.1423 18.9011 26.942 19.7193 27.057C21.4597 27.6185 23.2483 28.0177 25.0622 28.2496C26.4218 28.2496 27.5309 29.4422 29.1409 31.4219C30.751 33.4017 33.327 34.8805 33.5297 36.3474C33.7325 37.8143 30.5959 42.8113 30.5959 45.7332C30.688 47.1995 30.668 48.6707 30.5363 50.1339C28.4969 48.2258 28.2823 42.0123 27.519 41.7857C25.7955 41.1759 24.2786 40.093 23.1421 38.6611C22.0569 36.9676 23.2375 33.4732 19.8625 32.6145C16.4874 31.7559 14.4719 35.6438 13.9948 36.2997C13.5178 36.9556 12.6353 36.6217 11.2161 36.896C9.79686 37.1703 9.52255 38.8161 9.51062 38.8399Z" fill="#6F1E00"/>
<path fill-rule="evenodd" clip-rule="evenodd" d="M25.3842 28.3093C26.5768 28.512 27.6621 29.5973 29.1409 31.4458C30.6197 33.2944 33.3269 34.9044 33.5297 36.3713C33.5442 36.7287 33.4875 37.0855 33.3627 37.4208C32.1581 38.6107 30.8445 39.6847 29.439 40.6289C28.4373 40.927 25.9805 39.6033 25.0025 37.3492C24.0246 35.0952 24.5016 33.5806 25.408 30.8018C25.7102 29.9969 25.7016 29.1083 25.3842 28.3093Z" fill="#691B00"/>
<path fill-rule="evenodd" clip-rule="evenodd" d="M28.1749 24.1352C29.3675 23.3839 31.4546 22.9426 32.0628 24.0398C34.0915 29.0734 35.7263 34.257 36.9525 39.5437C37.3818 42.1913 38.0139 44.9701 37.6442 46.4131C37.4653 47.1406 36.6543 47.2718 36.1892 47.403C34.8296 47.8085 34.4242 46.4966 34.2214 44.6838C33.9528 41.2097 33.2764 37.7792 32.2059 34.4632C30.739 30.301 27.519 24.0398 28.1749 24.1352Z" fill="#B82209"/>
<path fill-rule="evenodd" clip-rule="evenodd" d="M28.1749 24.1353C28.9522 23.6533 29.8483 23.3973 30.7629 23.3959C30.7629 23.3959 28.8785 23.7298 28.8785 24.66C28.8785 25.5903 31.7766 29.6451 32.8141 33.4734C33.6646 36.573 34.3375 39.7187 34.8296 42.895C35.1039 44.994 35.104 45.9481 35.8076 46.3058C36.5112 46.6636 37.6919 45.7573 37.525 42.9308C37.7661 44.0638 37.8064 45.2304 37.6442 46.3774C37.4653 47.1049 36.6543 47.2361 36.1892 47.3673C34.8296 47.7727 34.4242 46.4609 34.2214 44.6481C33.9528 41.174 33.2764 37.7435 32.2059 34.4275C30.739 30.3011 27.519 24.0399 28.1749 24.1353Z" fill="#9C1A04"/>
<path fill-rule="evenodd" clip-rule="evenodd" d="M33.5773 24.8388C33.2195 23.4316 33.4699 22.7279 34.3286 22.5252C35.1873 22.3225 37.2505 23.7893 37.656 25.292C38.0615 26.7947 40.3751 35.1787 40.7806 37.7905C41.1861 40.4024 40.9237 45.1489 39.9219 45.459C38.9201 45.7691 38.1569 45.6021 38.2046 44.6958C37.9056 41.2454 37.3757 37.8189 36.6184 34.4393C35.9863 32.0422 33.5773 24.8388 33.5773 24.8388Z" fill="#B82209"/>
<path fill-rule="evenodd" clip-rule="evenodd" d="M33.5773 24.839C33.2195 23.4317 33.4699 22.7281 34.3286 22.5253C35.0859 22.5475 35.8047 22.8641 36.3322 23.4078C35.724 23.1574 34.6864 22.8354 34.1736 23.3244C33.4222 24.028 34.7818 24.6005 35.8313 27.8801C37.1779 31.7895 38.1249 35.8252 38.6578 39.9255C38.8486 42.251 40.1008 42.0602 40.9595 41.1181C40.9595 43.2528 40.5779 45.2922 39.9219 45.4949C38.9082 45.7931 38.1569 45.638 38.2046 44.7317C37.9056 41.2813 37.3757 37.8548 36.6184 34.4752C35.9863 32.0423 33.5773 24.839 33.5773 24.839Z" fill="#9C1A04"/>
<path fill-rule="evenodd" clip-rule="evenodd" d="M39.2304 31.3981C39.6879 30.8396 40.029 30.1953 40.2338 29.503C40.4387 28.8108 40.503 28.0846 40.423 27.3671C40.4826 24.6479 40.2799 23.1333 40.7808 21.7141C41.2817 20.2949 40.9835 18.1363 43.166 17.9932C45.3484 17.8501 47.2447 18.9473 49.4629 18.5418C51.6812 18.1363 54.3049 17.54 55.5095 18.5418C56.714 19.5436 56.6186 21.5233 59.3377 23.3122C62.0569 25.1011 64.4779 27.8918 64.4779 29.6569C64.4779 31.4219 61.2101 34.8447 61.2101 38.7803C61.3396 40.5217 60.8404 42.2519 59.8032 43.6567C58.766 45.0615 57.2595 46.0479 55.5572 46.4369C51.884 47.4506 51.0253 46.4369 48.008 44.8745C44.9907 43.3122 41.1863 41.6068 40.0413 38.6849C38.8964 35.763 38.4433 32.2448 39.2304 31.3981Z" fill="#7B2300"/>
<path fill-rule="evenodd" clip-rule="evenodd" d="M39.2304 31.3982C39.6879 30.8398 40.029 30.1955 40.2338 29.5032C40.4386 28.8109 40.503 28.0847 40.423 27.3672C40.4826 24.6481 40.2799 23.1335 40.7808 21.7143C41.2816 20.2951 40.9835 18.1365 43.166 17.9933C42.4585 18.5371 41.8852 19.236 41.4903 20.0362C41.0954 20.8363 40.8894 21.7164 40.8881 22.6087C41.0073 25.4829 41.6394 25.4114 41.4844 26.7471C41.3293 28.0828 39.4331 31.5175 41.9853 32.8652C44.5375 34.2128 45.4439 34.2724 45.5631 35.5366C45.6824 36.8007 43.7503 40.307 44.7998 41.8813C45.8493 43.4555 50.7629 44.8986 51.5619 46.6517C50.3196 46.1701 49.1223 45.5795 47.9841 44.8866C44.9549 43.3243 41.1624 41.6189 40.0175 38.697C38.8726 35.7751 38.4433 32.245 39.2304 31.3982Z" fill="#6F1E00"/>
<path fill-rule="evenodd" clip-rule="evenodd" d="M53.4701 17.9933C54.1925 17.9389 54.9118 18.1324 55.5094 18.5419C56.702 19.5556 56.6185 21.5234 59.3377 23.3123C62.0568 25.1012 64.4778 27.892 64.4778 29.657C64.4778 30.9689 62.6531 33.2348 61.7348 35.9063C62.1761 34.1532 59.8982 32.9009 58.5387 33.1513C57.1791 33.4018 55.5094 34.9164 54.5553 37.4805C53.6013 40.0446 52.8857 41.6666 50.9775 39.9492C49.0694 38.2319 49.3556 35.7632 49.5106 33.7C49.6656 31.6367 47.3997 29.7763 47.9006 27.7369C48.4015 25.6976 53.4462 24.8627 54.6507 22.5968C54.9858 21.9437 55.0939 21.1976 54.9578 20.4763C54.8218 19.755 54.4494 19.0996 53.8994 18.6135C53.7305 18.4259 53.5862 18.2174 53.4701 17.9933Z" fill="#6F1E00"/>
<path fill-rule="evenodd" clip-rule="evenodd" d="M55.5095 18.5419C56.7021 19.5556 56.6187 21.5234 59.3378 23.3123C62.0569 25.1012 64.4779 27.8919 64.4779 29.657C64.4623 29.9978 64.3855 30.3331 64.2514 30.6468C64.3349 27.9277 60.3157 27.5222 57.7397 27.6772C55.1637 27.8323 54.2454 30.4441 53.4105 27.7727C52.5757 25.1012 55.6288 24.1948 56.5829 22.7399C57.537 21.2849 55.5095 18.5419 55.5095 18.5419Z" fill="#691B00"/>
<path fill-rule="evenodd" clip-rule="evenodd" d="M78.9919 27.8203C78.9919 27.8203 75.4141 23.7058 74.46 20.76C73.8454 18.5294 73.6592 16.2025 73.9114 13.9025C73.9114 11.9944 73.1481 10.3247 74.9131 9.2156C76.6782 8.10648 79.3497 8.46426 81.3175 8.023C83.2853 7.58173 84.5852 7.00927 85.8494 8.63122C87.1135 10.2532 88.0199 12.3044 91.2877 13.9741C94.5554 15.6437 98.2525 17.3492 98.4433 19.6628C98.6341 21.9765 92.0986 26.5203 92.0986 28.4881C92.0986 30.4559 93.005 32.1614 91.4427 32.6145C89.8804 33.0677 88.819 32.7696 86.7558 33.1751C84.6926 33.5806 81.7229 31.6008 78.9919 27.8203Z" fill="#7B2300"/>
<path fill-rule="evenodd" clip-rule="evenodd" d="M81.3772 8.01121C83.345 7.55802 84.6449 6.9975 85.9091 8.61945C87.1733 10.2414 88.0796 12.2927 91.3474 13.9623C94.6151 15.632 98.3122 17.3374 98.503 19.6511C98.5097 20.1092 98.3766 20.5585 98.1214 20.9391C98.2765 18.8282 96.8096 18.0887 94.1381 17.3613C91.4667 16.6338 86.1238 19.4722 84.4064 16.0017C82.6891 12.5312 85.8733 10.7065 84.967 9.1442C84.0606 7.58188 81.3772 8.01121 81.3772 8.01121Z" fill="#6F1E00"/>
<path fill-rule="evenodd" clip-rule="evenodd" d="M86.2787 9.19177C87.4664 11.2215 89.2025 12.8749 91.2877 13.9622C92.2657 14.4512 93.2794 14.9521 94.2215 15.4649C91.8363 14.7374 88.2585 15.93 87.0659 14.8209C85.6705 13.4613 86.9585 13.5448 87.1851 12.0063C87.2084 10.991 86.8845 9.99804 86.2668 9.19177H86.2787ZM95.6288 16.3474C95.8673 16.5025 96.1059 16.6575 96.3325 16.8245C96.2251 16.8245 95.9985 16.741 95.6884 16.2997L95.6288 16.3474Z" fill="#691B00"/>
<path fill-rule="evenodd" clip-rule="evenodd" d="M78.992 27.8203C78.992 27.8203 75.4142 23.7058 74.4601 20.76C73.8455 18.5294 73.6594 16.2025 73.9115 13.9025C73.7736 12.8309 73.7456 11.7479 73.828 10.6706C74.4917 12.1772 74.864 13.7959 74.9252 15.441C75.0325 18.1125 75.5812 21.9884 79.2663 24.7076C82.9515 27.4267 81.9854 25.9002 83.6432 25.0177C85.3009 24.1351 86.6247 23.3003 87.6742 23.6581C88.7237 24.0159 88.2824 25.2204 90.5961 24.7076C92.9098 24.1947 93.673 22.8471 95.0326 22.4893C95.2958 22.4612 95.5615 22.5092 95.7983 22.6275C96.035 22.7459 96.2329 22.9297 96.3683 23.1572C94.4959 25.0892 92.1107 27.2836 92.1107 28.4762C92.1107 30.4321 93.0171 32.1494 91.4548 32.6026C89.8925 33.0558 88.831 32.7577 86.7678 33.1632C84.7046 33.5686 81.7231 31.6008 78.992 27.8203Z" fill="#6F1E00"/>
<path fill-rule="evenodd" clip-rule="evenodd" d="M62.5579 16.2878C63.7505 15.8823 64.1679 16.741 65.277 15.9777C66.3862 15.2145 69.0576 14.4154 69.153 16.1328C69.2484 17.8501 67.9604 20.2711 69.6539 22.2866C71.3474 24.3021 74.1381 25.5067 74.9014 28.679C75.6646 31.8513 76.3564 32.4119 74.9014 33.5687C73.4464 34.7255 71.419 35.6915 70.0117 34.0696C68.6044 32.4476 70.3098 31.7559 68.0439 30.1936C65.7779 28.6313 65.0981 28.4166 65.0266 26.8662C64.955 25.3159 65.3724 25.459 64.8715 24.0994C64.1441 22.2628 60.3516 17.0511 62.5579 16.2878Z" fill="#FDF1D2"/>
<path fill-rule="evenodd" clip-rule="evenodd" d="M72.0032 26.7233C72.7784 27.0691 73.5893 27.3792 73.6132 28.226C73.637 29.0727 74.5673 30.3488 74.6507 31.0763C74.7342 31.8038 73.2315 33.4615 72.5279 33.4615C72.3109 33.4401 72.1007 33.3742 71.9104 33.2679C71.72 33.1617 71.5536 33.0173 71.4216 32.8438C71.2895 32.6703 71.1947 32.4715 71.1429 32.2597C71.0911 32.048 71.0835 31.8278 71.1206 31.613C71.1922 30.4204 71.6216 30.3369 71.2161 28.9773C71.0269 27.9843 70.7144 27.0187 70.2858 26.1031C69.7372 25.0894 70.0592 24.672 72.0032 26.7233Z" fill="#FFF6DE"/>
<path fill-rule="evenodd" clip-rule="evenodd" d="M44.2036 18.5539C44.8834 18.9356 45.6229 19.6869 45.599 20.3429C45.5752 20.9988 45.4201 21.5355 46.3026 21.8813C47.1852 22.2272 48.5448 21.7263 49.0457 23.2886C49.5466 24.8509 48.4732 24.9821 47.8531 25.8885C47.2329 26.7948 46.887 26.3178 47.1136 25.4591C47.3402 24.6005 47.5191 23.7179 46.7916 23.3363C46.0641 22.9547 46.2073 23.3363 45.2055 22.5849C44.2037 21.8336 43.5954 21.6786 43.5119 23.0859C43.4285 24.4931 44.3468 25.7573 43.822 26.5921C43.4342 27.2839 42.8652 27.857 42.1762 28.2498C41.7469 28.4049 42.8799 26.7948 42.2836 25.6857C41.6873 24.5766 41.091 24.2784 41.4726 23.1097C41.8542 21.9409 41.9258 21.13 42.4624 20.7245C42.9991 20.319 43.1661 20.5694 43.4404 19.997C43.7147 19.4245 43.6312 18.3512 44.2036 18.5539Z" fill="#9C452B"/>
<path fill-rule="evenodd" clip-rule="evenodd" d="M48.9263 41.2849C50.1189 42.2867 51.8482 43.2527 53.3509 42.4775C54.8536 41.7023 55.3664 42.1794 56.0223 40.5097C56.6782 38.8401 56.7856 37.0869 57.8351 36.4787C58.8846 35.8705 57.8351 37.2897 57.8351 38.697C57.8351 40.1042 59.1469 40.4143 58.3479 41.5711C57.5489 42.728 57.7874 43.0857 58.2406 43.6343C58.6938 44.1829 58.2405 45.149 56.0223 45.3517C53.804 45.5544 54.0068 44.7435 51.8959 44.493C49.785 44.2426 49.6776 44.2426 48.3181 43.0857C46.9585 41.9289 46.6007 40.4262 48.9263 41.2849Z" fill="#9C452B"/>
<path fill-rule="evenodd" clip-rule="evenodd" d="M48.819 19.2099C50.2859 19.2099 51.5381 18.3035 52.528 18.8282C53.5178 19.353 54.9132 21.0942 53.5298 22.5611C52.1463 24.028 51.6216 25.2802 50.9657 23.9206C50.3097 22.5611 50.8583 22.3345 49.7015 21.9051C48.5447 21.4758 48.1153 21.7262 47.4356 20.796C46.7558 19.8658 46.5769 19.1264 48.819 19.2099Z" fill="#852900"/>
<path fill-rule="evenodd" clip-rule="evenodd" d="M46.0521 27.701C46.4576 29.6092 47.8648 29.7642 47.7098 31.8274C47.5548 33.8906 46.8034 35.1548 47.8648 36.7171C48.9263 38.2794 49.9281 39.3408 48.9263 39.5913C47.9245 39.8417 46.6484 39.7463 46.5411 40.8554C46.4337 41.9646 45.587 41.2609 46.1833 38.7922C46.7796 36.3235 47.3759 35.1548 45.8374 34.0218C44.299 32.8888 42.2596 33.02 42.51 31.1953C42.7605 29.3706 45.4796 31.4816 46.0521 27.701Z" fill="#852900"/>
<path fill-rule="evenodd" clip-rule="evenodd" d="M83.5238 31.2073C83.9658 31.2527 84.4098 31.1415 84.7781 30.893C85.1465 30.6445 85.4159 30.2745 85.5393 29.8477C85.7898 28.7863 85.3127 27.9514 86.2429 27.4625C87.1732 26.9735 88.1511 27.5937 89.4868 26.8542C90.8226 26.1148 92.3849 24.3855 92.4445 25.1011C92.5042 25.8167 91.3593 27.1166 90.2978 27.5937C89.2364 28.0707 88.2823 27.5937 87.6741 28.4523C87.0659 29.311 86.4815 29.9789 87.1971 30.0862C87.7525 30.1285 88.301 30.2366 88.8309 30.4082C90.0235 30.7183 91.0253 30.6587 90.9776 31.1119C90.9299 31.565 90.9776 31.9705 89.785 31.9467C88.5924 31.9228 88.5924 30.8614 87.1613 31.6247C85.7301 32.3879 85.599 32.6503 84.9669 32.2567C84.4652 31.9362 83.9833 31.5858 83.5238 31.2073Z" fill="#8C2D06"/>
<path fill-rule="evenodd" clip-rule="evenodd" d="M78.7533 10.4442C80.5661 10.79 81.8302 11.6368 81.6275 13.4138C81.4248 15.1908 80.0175 16.1806 82.5339 17.7429C85.0503 19.3053 87.0181 19.2576 85.4319 21.2492C83.8458 23.2409 83.5953 25.5068 81.5321 24.2426C79.4689 22.9785 76.5351 21.118 76.6901 18.5062C76.8452 15.8944 77.3461 14.6779 76.6901 13.4615C76.0342 12.245 77.6442 10.0387 78.7533 10.4442Z" fill="#852900"/>
<path fill-rule="evenodd" clip-rule="evenodd" d="M89.5584 19.8298C89.9275 19.3052 90.4508 18.9085 91.0556 18.6948C91.6604 18.4811 92.3168 18.461 92.9335 18.6372C94.4124 19.0189 96.3086 18.7923 96.404 19.9014C96.4994 21.0105 95.2114 20.605 93.6849 21.8453C92.1583 23.0856 91.896 23.5269 90.8107 23.5508C89.7254 23.5746 88.6759 21.2848 89.5584 19.8298Z" fill="#852900"/>
<path fill-rule="evenodd" clip-rule="evenodd" d="M76.0582 8.71479L79.3021 9.19182C81.1626 9.46612 81.4369 9.37072 81.6873 9.97895C81.9378 10.5872 82.3433 10.0982 82.4506 11.0046C82.5579 11.911 82.224 11.7917 82.3433 13.2467C82.4625 14.7017 82.7249 15.2145 82.9992 15.2383C83.2735 15.2622 82.5698 13.676 82.9992 12.8531C83.4285 12.0302 83.6313 12.1018 83.3808 11.3385C83.1304 10.5752 83.1781 10.1459 82.7249 9.75235C82.2717 9.35879 82.1167 8.84597 82.7249 8.9533C83.3331 9.06064 83.9175 8.9533 83.4047 8.61937C82.8919 8.28544 83.0708 7.98728 82.3194 8.14232C80.304 8.81115 78.1616 9.00704 76.0582 8.71479Z" fill="#9C452B"/>
<path fill-rule="evenodd" clip-rule="evenodd" d="M101.568 2.99018C102.501 2.26654 103.575 1.74713 104.722 1.46565C105.868 1.18417 107.061 1.14692 108.223 1.35632C112.325 2.01225 112.79 6.74689 111.8 9.32292C110.811 11.899 107.447 13.6759 105.074 14.3319C102.701 14.9878 108.306 14.797 110.739 12.8411C111.74 12.0848 112.506 11.0589 112.945 9.88345C114.221 6.38911 113.267 2.6324 109.618 1.14164C107.412 0.235258 104.454 0.378374 101.568 2.99018Z" fill="#E5E3E4"/>
<path fill-rule="evenodd" clip-rule="evenodd" d="M99.2663 5.43512C99.0934 6.33316 99.126 7.25869 99.3617 8.14232C99.7672 9.33493 100.208 10.456 101.389 10.456C102.57 10.456 102.331 9.26338 101.675 8.66707C101.019 8.07077 99.6479 8.39278 99.2663 5.43512Z" fill="#D6D6D7"/>
<path fill-rule="evenodd" clip-rule="evenodd" d="M1.66341 50.8733C1.66341 50.8733 9.53461 46.9973 9.8924 47.1524C10.2502 47.3074 1.16252 51.6246 1.66341 50.8733Z" fill="#E6E6E5"/>
<path fill-rule="evenodd" clip-rule="evenodd" d="M29.8684 25.4947C29.7372 25.3397 29.6895 24.5287 29.8684 24.4452C30.0473 24.3618 31.4665 23.8251 31.9913 24.9342C32.516 26.0433 34.4957 31.9586 35.4618 35.3695C36.22 38.0977 36.7074 40.8939 36.9167 43.7177C36.9167 44.6003 36.5709 45.1608 36.0103 45.1847C35.4498 45.2085 34.3526 31.5532 29.8684 25.4947Z" fill="#DC260E"/>
<path fill-rule="evenodd" clip-rule="evenodd" d="M35.2591 25.0893C34.9848 24.4333 35.0564 23.8967 35.5096 23.8967C35.9628 23.8967 36.8453 24.3737 37.3701 26.1149C37.8948 27.8561 38.992 30.8854 38.6342 31.434C38.2912 31.9397 38.0371 32.5004 37.8829 33.0917C37.8829 33.4375 36.7737 27.9277 35.2591 25.0893Z" fill="#DC260E"/>
<path fill-rule="evenodd" clip-rule="evenodd" d="M11.5143 35.1429C11.7915 34.7481 11.975 34.2954 12.0509 33.8191C12.2537 32.5072 12.2537 29.3826 13.9711 28.4285C15.6884 27.4744 16.6425 28.1661 17.3938 27.6175C18.0698 27.1423 18.9012 26.942 19.7194 27.057C21.2226 27.5379 22.7566 27.9165 24.3109 28.19C23.5477 28.1184 20.912 27.3909 19.1827 27.856C18.8526 27.8763 18.5439 28.0264 18.3241 28.2734H18.2525C18.0117 28.4732 17.7919 28.697 17.5966 28.9413C17.4377 28.9523 17.2783 28.9523 17.1195 28.9413C16.6544 28.9413 16.7379 28.6074 16.1893 28.5597C15.6407 28.512 15.259 28.834 14.5793 29.0367C13.8995 29.2395 13.7444 29.8 13.3866 30.3247C13.0604 31.0739 12.7932 31.8475 12.5876 32.6384C12.206 33.6283 12.4564 33.2228 12.4803 33.831C12.5041 34.4392 11.5143 35.1429 11.5143 35.1429Z" fill="#410300"/>
<path fill-rule="evenodd" clip-rule="evenodd" d="M16.2964 45.2204C17.6798 46.1268 17.7752 46.2222 18.6816 46.2699C19.236 46.3967 19.8149 46.3636 20.3512 46.1745C21.2099 45.924 21.3531 45.3635 21.9136 45.2204C22.4741 45.0773 22.164 44.8149 23.1658 45.113C24.1676 45.4112 23.774 45.6139 24.9905 45.4112C25.9521 45.3543 26.8541 44.9268 27.5069 44.2186C28.1032 43.5149 28.616 43.4076 28.5683 42.2985C28.5206 41.1894 28.2106 40.7362 28.8069 40.7123C29.4032 40.6885 30.3572 39.2812 30.3572 39.2812C30.3572 39.2812 30.6315 39.472 30.4526 39.9848C30.2737 40.4977 29.26 40.7123 29.1646 41.4398C29.1271 41.9042 29.1271 42.3708 29.1646 42.8352C29.2 43.0013 29.1886 43.1739 29.1318 43.3339C29.075 43.4939 28.9749 43.635 28.8426 43.7415C28.461 44.0874 28.3417 43.9443 27.9124 44.4929C27.4831 45.0415 26.9702 45.3754 27.173 45.6855C27.3757 45.9956 27.5308 46.0194 27.7812 46.568C28.0317 47.1166 28.3059 47.534 28.1151 47.5102C27.9243 47.4863 27.7096 47.3313 27.2565 46.8304C26.8033 46.3295 26.8271 46.2699 26.1951 46.2222C25.7983 46.1878 25.3992 46.1878 25.0024 46.2222C23.8098 46.2222 23.3924 45.4827 22.5099 45.9359C22.0971 46.1165 21.6985 46.3278 21.3173 46.568C20.9118 46.8423 22.0686 46.9735 20.2559 46.9974C18.4431 47.0212 17.9422 47.1763 17.489 46.7231C17.0358 46.2699 16.2964 45.2204 16.2964 45.2204Z" fill="#5E1100"/>
<path fill-rule="evenodd" clip-rule="evenodd" d="M22.999 43.9801C24.609 44.3856 25.3842 44.9939 26.064 44.4095C26.7437 43.8251 27.6263 43.2169 26.7676 42.716C25.9089 42.2151 24.2512 42.0123 23.9531 41.3087C23.0981 40.1785 22.4481 38.907 22.0329 37.552C21.377 35.1668 21.3293 34.332 19.1111 35.6438C16.8928 36.9557 18.7652 39.8179 16.7259 41.6069C14.6865 43.3958 15.8672 44.2425 17.99 44.5407C20.1129 44.8388 20.6734 45.2682 22.999 43.9801Z" fill="#852900"/>
<path fill-rule="evenodd" clip-rule="evenodd" d="M16.702 50.2771C17.6084 50.2771 17.7754 50.2771 18.0855 49.8477C18.4043 49.3585 18.8082 48.9304 19.2781 48.5836C19.8386 48.19 19.2065 48.3928 20.3395 48.0588C21.4725 47.7249 21.4248 47.9634 21.8303 47.3552C22.2357 46.747 22.4266 46.2699 23.0229 46.1626C23.421 46.1026 23.8273 46.127 24.2155 46.2341C24.6115 46.2785 25.0096 46.3023 25.4081 46.3057C25.4081 46.3057 25.5512 46.4608 24.8476 46.6396C24.1439 46.8185 23.2137 46.9139 23.0825 47.3433C22.9513 47.7726 22.9871 48.1781 22.355 48.2258C21.7229 48.2735 21.3771 48.0231 21.222 48.4762C21.067 48.9294 21.0909 49.3349 21.6514 49.2872C22.2065 49.1429 22.7731 49.0472 23.3449 49.001C24.1201 49.001 25.6585 48.4285 26.0402 48.7505C26.3312 48.9869 26.6625 49.1687 27.0181 49.2872C27.4713 49.5138 27.7456 49.3588 28.2107 49.5854C28.6758 49.812 28.7593 50.0863 28.2107 50.0505C27.2814 49.7968 26.3316 49.6252 25.3723 49.5377C23.655 49.4542 24.4659 49.156 22.9274 49.5377C22.0103 49.6423 21.1116 49.871 20.256 50.2175C19.7537 50.5516 19.1657 50.7338 18.5625 50.7422C17.9103 50.771 17.2639 50.6094 16.702 50.2771Z" fill="#9C452B"/>
<path fill-rule="evenodd" clip-rule="evenodd" d="M10.8701 37.731C11.3675 37.9522 11.9009 38.0815 12.4444 38.1126C12.7896 38.1832 13.147 38.1667 13.4843 38.0647C13.8216 37.9627 14.1282 37.7783 14.3764 37.5282C15.0085 36.8484 15.2828 36.3356 15.891 36.443C16.4992 36.5503 15.891 36.598 16.2965 37.2539C16.702 37.9099 16.9763 38.2915 16.2965 38.5181C15.6167 38.7447 15.0085 38.7447 14.925 39.174C14.8415 39.6034 15.557 39.8538 14.6507 40.3666C13.7443 40.8794 13.3984 41.5592 12.7902 40.8675C12.182 40.1758 12.5517 40.2354 11.8481 39.7703C11.1444 39.3052 10.3692 37.5044 10.8701 37.731Z" fill="#9C452B"/>
<path fill-rule="evenodd" clip-rule="evenodd" d="M44.4064 52.5193C44.4064 52.5193 44.4064 53.8312 41.89 54.5348C39.3736 55.2385 35.5334 56.8485 34.5316 60.1759C33.5298 63.5033 33.7206 65.5187 38.2525 66.2224C42.7844 66.926 42.2835 65.0298 46.2191 66.7352C50.1547 68.4407 56.7022 75 74.639 75C92.5758 75 107.197 68.2379 112.242 59.9731C117.287 51.7084 116.166 48.9892 118.491 47.2719C120.817 45.5545 122.069 46.0793 121.807 43.2408C121.544 40.4024 121.306 38.8163 118.384 38.6135C115.462 38.4108 114.257 40.0208 110.214 39.5199C106.172 39.019 103.262 35.5843 87.5549 34.177C71.8483 32.7698 51.3951 38.4466 44.4064 52.5193Z" fill="#ED9A37"/>
<path fill-rule="evenodd" clip-rule="evenodd" d="M35.414 58.3988C35.0411 58.9219 34.7551 59.5018 34.5672 60.1161C33.5535 63.4435 33.7563 65.459 38.2882 66.1627C42.8201 66.8663 42.3192 64.97 46.2548 66.6755C50.1904 68.3809 56.7378 74.9402 74.6746 74.9402C92.6115 74.9402 107.233 68.1782 112.278 59.9134C117.322 51.6486 116.201 48.9295 118.527 47.2121C120.852 45.4948 122.105 46.0195 121.842 43.1811C121.842 42.5967 121.759 42.0601 121.687 41.5711C121.759 42.7637 119.958 44.4214 119.481 44.8031C119.004 45.1847 117.263 45.0535 116.058 45.1966C114.854 45.3397 115.044 46.914 114.866 48.8818C114.732 50.0374 114.513 51.1815 114.21 52.3046C113.864 54.177 110.99 57.397 108.771 61.1299C106.553 64.8627 101.007 67.3791 92.4445 69.8955C83.8816 72.4119 73.5416 71.4101 70.0712 70.5992C66.6007 69.7882 61.8064 70.3964 57.1672 70.0506C52.5279 69.7047 47.8648 65.459 46.7915 64.6838C45.7181 63.9086 45.5989 62.5848 45.3961 62.2032C45.1934 61.8216 44.2035 61.0941 43.8696 61.905C43.5356 62.716 43.5118 63.7417 41.9018 63.7655C40.7488 63.6406 39.5825 63.7793 38.4909 64.171C38.1482 64.2947 37.7843 64.3486 37.4204 64.3295C37.0566 64.3103 36.7003 64.2186 36.3724 64.0597C36.0446 63.9008 35.7519 63.6779 35.5115 63.4041C35.2711 63.1303 35.0879 62.8112 34.9727 62.4656C34.448 60.9629 35.4259 58.4346 35.4379 58.3988H35.414Z" fill="#E08610"/>
<path fill-rule="evenodd" clip-rule="evenodd" d="M53.1242 60.4024C52.0762 59.8655 51.1661 59.0942 50.4647 58.1484C49.4629 56.6934 49.8684 56.1925 49.1529 55.2742C48.4373 54.3559 49.3079 54.0816 50.3455 52.6028C51.3831 51.1239 51.1922 50.2175 55.1159 48.4763C58.4678 46.9828 61.6637 45.1611 64.6568 43.038C66.437 41.624 68.6874 40.9378 70.9537 41.1179C73.017 41.1179 77.7516 41.5234 80.4946 40.6647C83.2376 39.8061 90.4171 40.1042 94.1499 39.5556C97.8828 39.007 97.0718 39.3052 100.113 40.2116C103.154 41.1179 106.422 43.2885 108.986 43.694C111.55 44.0995 112.564 43.7894 112.015 45.6021C111.467 47.4149 110.906 47.9158 110.823 49.6809C110.739 51.4459 109.869 53.0202 109.189 53.2587C108.509 53.4972 53.1242 60.4024 53.1242 60.4024Z" fill="#E08610"/>
<path fill-rule="evenodd" clip-rule="evenodd" d="M50.6556 56.6934C50.5483 55.0715 53.5298 52.7101 56.5471 50.4919C59.5644 48.2736 63.8578 45.5068 65.8256 45.149C67.7934 44.7912 68.5925 45.149 71.1685 44.4454C73.7275 43.5609 76.3682 42.9337 79.0516 42.573C81.0988 42.631 83.1469 42.4993 85.1697 42.1794C88.4988 41.5593 91.8654 41.1609 95.2473 40.9868C96.8931 40.9868 102.51 43.7656 104.621 43.8133C106.732 43.861 109.392 46.0315 109.714 47.3911C110.036 48.7507 109.511 50.5635 109.618 52.0781C109.725 53.5927 107.4 54.9045 106.243 55.8109C105.086 56.7173 99.7434 59.5319 97.8233 61.0942C95.9032 62.6565 94.9968 64.1711 91.0731 63.9684C87.1495 63.7656 80.4828 62.5134 76.4995 62.9666C72.5162 63.4198 66.577 64.9224 62.3909 63.9684C58.2048 63.0143 53.9234 61.2492 52.5638 59.9851C51.6674 59.061 51.0121 57.9306 50.6556 56.6934Z" fill="#F6F0CA"/>
<path fill-rule="evenodd" clip-rule="evenodd" d="M50.6556 56.6934C50.5483 55.0715 53.5298 52.7101 56.5471 50.4919C59.5644 48.2736 63.8578 45.5068 65.8256 45.149C67.7934 44.7912 68.5925 45.149 71.1685 44.4454C73.7275 43.5609 76.3682 42.9337 79.0516 42.573C81.0988 42.631 83.1469 42.4993 85.1697 42.1794C88.4988 41.5593 91.8654 41.1609 95.2473 40.9868C96.8931 40.9868 102.51 43.7656 104.621 43.8133C106.416 44.0417 108.053 44.9563 109.189 46.3655C108.002 45.4489 106.57 44.9051 105.074 44.8032C103.612 44.6629 102.174 44.3383 100.793 43.8371C99.004 43.2051 96.4637 42.6445 94.9729 42.251C93.4822 41.8574 89.4989 42.4299 89.6778 42.8354C89.8567 43.2408 90.3099 43.1335 91.3236 43.1097C92.3373 43.0858 95.2473 43.6344 96.9646 43.8371C98.6493 44.1843 100.301 44.675 101.902 45.304C103.656 45.6841 105.352 46.2936 106.947 47.1168C108.402 47.9993 108.282 48.9773 107.364 48.5479C106.446 48.1186 103.512 46.8902 102.033 46.3058C98.6985 45.4928 95.2981 44.9779 91.8722 44.7674C88.9503 44.6004 83.989 44.9224 82.9276 44.9701C81.3607 45.2287 79.8462 45.7403 78.4434 46.4847C77.537 47.0453 73.1721 46.7829 71.0135 47.7966C68.8548 48.8103 66.6724 48.6076 64.156 49.0608C61.6396 49.514 56.7976 52.889 55.2353 54.344C53.6729 55.799 52.3134 56.1568 53.3271 57.9814C54.3408 59.8061 57.1554 60.5455 59.0636 61.5593C60.9717 62.573 62.9992 62.6088 65.5156 63.0142C68.032 63.4197 70.1071 63.1693 74.5913 62.4657C79.0755 61.762 78.5746 62.8115 78.5746 62.8115C77.8814 62.8084 77.1886 62.8443 76.4995 62.9189C72.5281 63.372 66.577 64.8747 62.3909 63.9206C58.2048 62.9666 53.9234 61.2015 52.5638 59.9373C51.6741 59.0268 51.0192 57.9135 50.6556 56.6934Z" fill="#F8D6A7"/>
<path fill-rule="evenodd" clip-rule="evenodd" d="M72.2656 50.8257C73.5655 47.5699 78.3598 45.4828 82.7844 45.8287C88.5447 46.2699 93.8518 50.2175 91.7289 54.9402C90.5363 57.5043 86.0283 59.1501 80.0056 58.518C76.9883 58.2556 70.0354 56.4071 72.2656 50.8257Z" fill="#F28E00"/>
<path fill-rule="evenodd" clip-rule="evenodd" d="M72.2656 50.8258C72.436 50.4035 72.6562 50.0032 72.9215 49.6331C71.4188 52.5193 75.0563 55.8824 80.6377 56.2879C85.8971 56.6695 95.5334 53.1513 87.9007 47.2122C91.1565 48.8341 93.172 51.7083 91.7289 54.9283C90.5363 57.4924 86.0283 59.1382 80.0056 58.5061C76.9883 58.2557 70.0354 56.4072 72.2656 50.8258Z" fill="#F08600"/>
<path fill-rule="evenodd" clip-rule="evenodd" d="M91.0969 49.7523C91.6848 50.4674 92.0566 51.3353 92.1686 52.2542C92.2805 53.1731 92.128 54.1049 91.729 54.9402C90.5364 57.5043 86.0284 59.1501 80.0057 58.518L79.469 58.4584C83.011 58.7565 94.8894 57.218 91.0969 49.7523Z" fill="#EB6E00"/>
<path fill-rule="evenodd" clip-rule="evenodd" d="M80.9358 46.6397C83.798 46.4489 87.507 47.8323 88.0318 49.3231C88.5565 50.8138 83.8934 50.8019 81.6633 51.4459C70.1427 54.7613 71.6692 47.2479 80.9358 46.6397Z" fill="#F6A337"/>
<path fill-rule="evenodd" clip-rule="evenodd" d="M80.8404 47.0213C82.1046 46.9259 83.7266 47.5461 83.9651 48.214C84.2036 48.8818 82.1404 48.858 81.1625 49.1442C76.082 50.5872 76.7617 47.2837 80.8404 47.0213Z" fill="#FAC885"/>
<path fill-rule="evenodd" clip-rule="evenodd" d="M41.067 55.9898C38.3955 56.7411 36.2965 56.9916 36.2965 58.6016C36.2965 60.2116 35.3901 61.8336 36.702 62.1794C38.0139 62.5253 39.5642 63.1931 40.9238 62.084C42.2834 60.9749 42.1164 59.8657 43.8577 59.6988C45.5989 59.5318 46.0162 59.4483 46.9226 61.0107C48.5832 63.2211 50.7188 65.0306 53.1719 66.3058C55.472 67.4367 58.0355 67.923 60.5899 67.7131C63.0586 67.5104 64.3109 65.9003 62.7486 65.149C61.1862 64.3977 53.8755 63.9564 51.1564 60.8079C48.4373 57.6594 47.5786 56.3237 47.7813 54.9641C47.984 53.6046 48.8428 52.7459 49.451 51.2909C50.0592 49.8359 51.3591 47.4626 49.8445 48.0112C48.3299 48.5598 47.984 49.3231 46.3263 51.9469C44.6686 54.5706 43.6311 55.8348 41.067 55.9898Z" fill="#F7AB4C"/>
<path fill-rule="evenodd" clip-rule="evenodd" d="M38.4432 58.4824C37.5249 59.2337 36.0579 60.8676 37.501 60.9988C38.9441 61.13 38.6936 60.0447 39.9578 59.6273C41.2219 59.2099 42.6531 59.1741 42.8797 58.6136C43.1063 58.053 43.5475 56.8962 42.6888 56.7889C41.1277 56.8792 39.6379 57.4734 38.4432 58.4824Z" fill="#F8B669"/>
<path fill-rule="evenodd" clip-rule="evenodd" d="M70.5244 65.4113C72.9096 64.648 78.5864 63.9444 81.3533 64.648C84.1201 65.3516 92.85 65.7571 95.0086 64.803C97.1672 63.8489 99.2424 61.8811 102.069 60.5693C104.469 59.5139 106.735 58.1767 108.819 56.586C110.679 55.131 109.427 60.0684 105.993 62.382C103.224 64.1491 100.348 65.7423 97.3819 67.1525C94.2559 68.7326 90.8461 69.6733 87.3521 69.9193C83.0978 70.1828 78.8279 70.0311 74.6031 69.4661C70.3693 69.1441 63.488 66.2461 70.5244 65.4113Z" fill="#F7AB4C"/>
<path fill-rule="evenodd" clip-rule="evenodd" d="M51.5621 61.7859C53.2193 63.0623 55.1306 63.9691 57.1673 64.4455C60.3874 65.1014 60.9718 64.9344 61.1507 65.5546C61.3295 66.1747 60.1369 67.5224 58.3719 67.1169C56.9562 66.818 55.5852 66.3369 54.2932 65.6858C53.2816 65.1475 52.3569 64.46 51.5501 63.6464C50.6676 62.7877 49.4035 60.5218 51.5621 61.7859Z" fill="#F8B669"/>
<path fill-rule="evenodd" clip-rule="evenodd" d="M75.414 68.5359C74.1499 68.1066 74.7581 67.4029 74.281 66.747C73.804 66.0911 75.8911 65.3397 78.5387 65.936C80.8537 66.4096 83.2122 66.6375 85.575 66.6158C87.2805 66.6158 92.4683 66.6993 94.8893 65.8406C97.3103 64.982 94.0306 67.8561 89.451 68.357C84.8714 68.8579 78.7533 69.4184 75.414 68.5359Z" fill="#F8B669"/>
<path fill-rule="evenodd" clip-rule="evenodd" d="M114.889 40.2593C116.428 40.1162 117.585 38.9236 119.075 39.508C119.437 39.6046 119.762 39.8063 120.01 40.0875C120.257 40.3687 120.416 40.7169 120.465 41.0881C120.515 41.4593 120.454 41.8369 120.289 42.1733C120.125 42.5098 119.864 42.7899 119.54 42.9784C118.412 43.5478 117.207 43.9495 115.963 44.171C115.152 44.4931 114.555 44.2665 114.4 45.6857C114.245 47.1049 114.245 49.1561 113.339 49.8359C112.432 50.5157 111.908 50.1699 112.337 48.4764C112.766 46.7829 113.422 44.6242 112.838 44.016C112.254 43.4078 111.645 43.849 109.534 43.1096C107.424 42.3702 105.527 41.4519 104.168 40.8437C102.808 40.2355 102.975 40.1639 101.353 39.3887C99.7312 38.6135 99.1588 38.3511 99.3854 37.9695C99.612 37.5879 102.105 37.4448 103.536 38.1961C105.142 39.13 106.917 39.7379 108.759 39.985C110.783 40.3358 112.843 40.428 114.889 40.2593Z" fill="#F7AB4C"/>
<path fill-rule="evenodd" clip-rule="evenodd" d="M52.1225 44.5527C52.1225 44.5527 62.2477 37.2301 74.3408 35.632C86.4338 34.0339 99.2901 35.7274 98.2883 37.3851C97.2865 39.0429 91.8363 39.4006 86.5889 39.4603C81.3414 39.5199 81.1506 39.4006 78.0737 40.0566C74.9967 40.7125 70.2144 38.6493 66.5888 40.6171C62.9633 42.5849 63.7146 43.6344 58.4195 45.304C53.1243 46.9737 49.6538 46.3058 52.1225 44.5527Z" fill="#F7AB4C"/>
<path fill-rule="evenodd" clip-rule="evenodd" d="M72.0747 36.4787C76.8129 35.7979 81.6014 35.5305 86.386 35.6796C95.2232 35.8347 95.7122 37.4447 92.349 37.5878C88.9859 37.7309 85.3484 36.9319 83.3806 37.7905C81.4128 38.6492 81.2578 38.6015 78.2882 38.9831C75.3186 39.3648 71.7408 38.1364 68.7473 38.84C65.7539 39.5437 62.4981 42.1078 60.5899 42.3105C58.6817 42.5133 62.1522 38.4942 72.0747 36.4787Z" fill="#F8B669"/>
<path fill-rule="evenodd" clip-rule="evenodd" d="M111.085 41.0463C112.349 41.2252 111.741 41.8454 113.47 42.2389C115.199 42.6325 116.321 42.6205 116.726 42.1316C116.938 41.7156 117.276 41.3767 117.691 41.1627C118.106 40.9487 118.578 40.8705 119.04 40.939C120.447 41.1656 120.232 39.6032 118.336 39.961C116.44 40.3188 116.165 41.1536 114.758 41.1536C113.351 41.1536 111.037 40.5931 111.085 41.0463Z" fill="#F8B669"/>
<path fill-rule="evenodd" clip-rule="evenodd" d="M58.5506 55.3338C58.0974 57.0392 60.6616 59.0666 61.8661 58.9116C63.0707 58.7566 61.8661 58.5181 63.2137 59.0905C64.5614 59.663 67.5191 60.2831 68.5209 59.663C69.5226 59.0428 71.085 58.3034 69.296 58.3272C67.5071 58.3511 65.4439 58.8639 64.5256 57.9575C63.6073 57.0512 63.0229 56.7649 64.1797 55.3815C65.3366 53.9981 66.8512 52.567 65.5393 52.2569C64.2275 51.9468 63.5238 52.7697 62.2119 53.6761C60.9001 54.5825 62.9275 57.3493 58.5506 55.3338Z" fill="#F8D6A7"/>
<path fill-rule="evenodd" clip-rule="evenodd" d="M91.1565 47.8204C93.3628 48.8818 94.9251 49.5377 94.9848 50.9927C95.0444 52.4477 93.5656 54.0219 94.4719 54.8329C95.3783 55.6439 96.6425 57.0988 95.6645 58.7089C94.6866 60.3189 97.2746 58.0768 97.0718 56.4906C96.8691 54.9044 96.4636 54.4274 97.3223 53.4137C98.1809 52.4 98.8369 51.4459 97.7277 50.3368C96.8851 49.4596 95.8592 48.7793 94.7233 48.3443C93.5874 47.9093 92.3695 47.7304 91.1565 47.8204Z" fill="#F8D6A7"/>
<path fill-rule="evenodd" clip-rule="evenodd" d="M77.3461 36.1328C79.4331 36.3117 81.7468 36.3117 82.0092 36.8126C82.2715 37.3135 79.7313 38.1483 78.2047 37.9217C76.6235 37.5244 74.9881 37.3874 73.3627 37.5162C70.7629 37.719 74.1022 36.2044 77.3461 36.1328Z" fill="#FBCC97"/>
<path fill-rule="evenodd" clip-rule="evenodd" d="M77.7993 66.9497C77.0957 67.6533 77.6204 68.3093 79.5405 68.2616C81.4606 68.2139 85.8136 68.4643 86.5411 67.9276C87.2686 67.391 80.8643 66.2222 77.7993 66.9497Z" fill="#FBCC97"/>
</svg>
