<svg width="134" height="76" viewBox="0 0 134 76" fill="none" xmlns="http://www.w3.org/2000/svg">
<path fill-rule="evenodd" clip-rule="evenodd" d="M114.879 32.2821C114.879 30.5048 114.879 28.2473 114.879 26.1498C115.011 21.7669 114.816 17.3811 114.297 13.0206C113.932 12.3987 113.418 11.8543 112.789 11.4256C112.161 10.997 111.434 10.6943 110.658 10.5389C108.839 9.93046 83.5686 0.740029 80.7669 0.403793C77.2563 -0.184039 73.6459 -0.12954 70.1603 0.563903C64.5386 1.5566 46.8912 4.64676 45.8178 5.63945C44.7444 6.63215 40.3599 9.16192 40.0324 13.8372C39.8906 19.9776 40.1518 26.1201 40.8147 32.2341C41.1968 34.0433 41.5606 35.9807 44.5989 37.0374C47.6372 38.0942 76.7644 47.7169 78.8748 47.7169C81.1726 47.5354 83.4381 47.1162 85.6244 46.468C87.4438 46.0677 93.6658 44.4186 99.6514 42.5613C100.87 42.193 102.69 41.6967 104.654 41.0883C112.005 38.8147 114.934 38.5265 114.879 32.2821Z" fill="#261C11"/>
<path fill-rule="evenodd" clip-rule="evenodd" d="M114.879 32.2822C114.879 30.505 114.879 28.2474 114.879 26.15C114.988 23.0438 114.879 18.2404 114.588 15.3584C114.588 16.223 114.351 19.6174 108.766 22.5474C102.326 25.9258 89.7361 25.7497 89.6633 28.5677C89.5906 31.3856 90.6821 43.7143 86.3522 46.18C88.7719 45.5876 94.3026 44.1145 99.5968 42.4654C100.816 42.0971 102.635 41.6008 104.6 40.9923C112.005 38.8148 114.934 38.5266 114.879 32.2822Z" fill="#0B0000"/>
<path fill-rule="evenodd" clip-rule="evenodd" d="M83.1682 45.6196C84.1894 45.272 85.0903 44.6966 85.7825 43.9499C86.4746 43.2032 86.9342 42.3109 87.1161 41.3606C87.4254 38.2865 87.771 25.0933 87.1161 23.284C86.4611 21.4747 85.5333 18.6248 82.1311 17.7441C78.729 16.8635 71.5973 15.7267 65.7573 14.4458C59.9173 13.1649 46.2906 9.64246 44.5441 9.93066C42.7976 10.2189 41.2875 12.3163 41.6514 17.1837C42.0153 22.0511 41.7606 33.195 43.6526 34.7961C45.5447 36.3972 67.795 43.3781 72.3978 44.5309C77.0007 45.6837 79.2566 46.6123 83.1682 45.6196Z" fill="#DCD3A7"/>
<path fill-rule="evenodd" clip-rule="evenodd" d="M64.1746 14.1257C57.7524 12.6687 45.9814 9.73866 44.3986 9.93079C42.8158 10.1229 41.1421 12.3165 41.5059 17.1839C41.8698 22.0513 41.6151 33.1951 43.5072 34.7962C46.689 36.3574 50.0261 37.6597 53.477 38.6869C47.8371 36.7175 43.7983 34.556 43.1615 32.8588C42.5247 31.1616 42.2519 18.9131 42.6521 15.2465C43.0523 11.5799 44.1803 10.6513 45.3265 10.5232C46.0542 10.5072 56.5335 12.5726 64.1746 14.1257Z" fill="#BAB080"/>
<path fill-rule="evenodd" clip-rule="evenodd" d="M78.4198 44.4508C78.4198 44.4508 83.8778 43.8584 84.7147 39.8556C85.5108 36.0326 85.8764 32.1497 85.8062 28.2635C85.8062 24.8531 86.061 20.386 78.6382 18.7689C71.2154 17.1517 49.5291 12.7807 47.2186 12.1082C44.9081 11.4357 44.0348 12.5565 43.7983 17.1037C43.5618 21.6509 42.8522 32.1702 45.0354 34.1076C47.2186 36.0449 70.8333 44.627 78.4198 44.4508Z" fill="#F7EFC9"/>
<path fill-rule="evenodd" clip-rule="evenodd" d="M74.7995 36.7172C74.7995 36.7172 73.6715 39.3591 71.6339 38.8948C69.5963 38.4304 64.0656 33.8673 58.6258 32.9866C53.1861 32.106 46.2727 31.8338 45.8906 30.2968C45.6084 28.0908 45.4748 25.872 45.4904 23.6521C45.4904 23.6521 65.9758 28.2313 66.9947 28.7276C68.0135 29.224 74.7995 36.7172 74.7995 36.7172Z" fill="#828E04"/>
<path fill-rule="evenodd" clip-rule="evenodd" d="M73.6171 38.3343C72.9891 38.3201 72.3733 38.1783 71.8178 37.92C71.2624 37.6617 70.7823 37.2939 70.4151 36.8453C67.9912 34.2392 64.6712 32.3962 60.9547 31.5936C55.8788 30.4728 53.4591 31.4335 50.3116 30.1366C48.0865 29.054 46.3856 27.2952 45.5269 25.1891C45.5269 24.2925 45.5269 23.588 45.5269 23.588C45.5269 23.588 59.9176 26.7903 65.1755 28.1352C67.1885 29.3947 69.0753 30.8035 70.8153 32.3462C71.4703 33.0346 72.1434 33.7391 72.7256 34.3796C73.2552 34.9121 73.6164 35.5578 73.7729 36.2519C73.9293 36.9461 73.8756 37.6642 73.6171 38.3343Z" fill="#97A502"/>
<path fill-rule="evenodd" clip-rule="evenodd" d="M79.4753 36.3493C80.2758 37.7423 80.3849 42.0172 78.6384 42.3695C76.8918 42.7217 76.6735 38.7029 77.2011 37.1659C77.7287 35.6288 79.0022 34.9723 79.4753 36.3493Z" fill="#DDD4AA"/>
<path fill-rule="evenodd" clip-rule="evenodd" d="M82.1313 26.7744C83.1501 28.5196 84.3691 35.1803 82.2951 34.0435C80.221 32.9067 80.1665 24.1005 82.1313 26.7744Z" fill="#DDD4AA"/>
<path fill-rule="evenodd" clip-rule="evenodd" d="M70.1604 41.4567C69.4509 41.4567 62.6648 39.9357 63.8474 38.7028C65.0299 37.47 73.799 41.2646 70.1604 41.4567Z" fill="#DDD4AA"/>
<path fill-rule="evenodd" clip-rule="evenodd" d="M75.1997 35.4363C75.1997 35.4363 74.9814 38.6386 73.6169 38.3344C72.2524 38.0301 70.5241 32.2181 64.302 30.6009C58.0799 28.9838 52.7312 28.9998 50.075 27.767C47.4188 26.5341 44.4897 24.5647 45.7814 21.9709C47.0731 19.3771 76.7461 26.438 75.1997 35.4363Z" fill="#F1E7DB"/>
<path fill-rule="evenodd" clip-rule="evenodd" d="M76.3094 32.9385C77.3726 30.967 78.0434 28.8494 78.2925 26.6782C78.2925 24.4046 80.512 22.7394 77.0917 21.6026C73.6714 20.4658 69.8144 20.0015 65.066 18.8487C60.3176 17.6959 54.8415 14.5577 51.5849 15.2782C48.3283 15.9987 44.9808 21.6827 46.8729 23.54C48.765 25.3973 50.0567 24.0043 55.733 25.6855C61.4092 27.3666 65.2662 27.5107 68.4682 29.5121C71.6701 31.5135 72.9073 32.5863 73.1256 34.1874C73.3439 35.7885 73.1256 37.1975 74.1808 37.1335C75.236 37.0694 76.3094 32.9385 76.3094 32.9385Z" fill="#E5390D"/>
<path fill-rule="evenodd" clip-rule="evenodd" d="M60.7724 18.6888C60.9241 19.8773 61.4899 20.9954 62.3921 21.8898C63.2944 22.7842 64.4889 23.411 65.8119 23.6843C71.0515 25.2855 74.4173 27.2548 74.1989 28.4877C73.9806 29.7206 71.5063 26.5183 67.5948 25.7658C66.0749 25.5777 64.6142 25.1203 63.3008 24.4213C61.9875 23.7223 60.8488 22.7962 59.9537 21.6989C58.8621 19.9217 59.9173 17.472 60.7724 18.6888Z" fill="#E84D29"/>
<path fill-rule="evenodd" clip-rule="evenodd" d="M58.3163 17.456C58.3163 17.456 55.3691 19.1852 58.9895 22.5315C62.6099 25.8779 66.8307 26.8866 64.8841 27.0146C63.6423 26.9512 62.4277 26.6691 61.312 26.1851C60.1964 25.701 59.2025 25.0249 58.3891 24.1967C56.0422 22.2593 53.3132 19.0411 58.3163 17.456Z" fill="#E84D29"/>
<path fill-rule="evenodd" clip-rule="evenodd" d="M55.2599 17.4239C54.7577 17.9345 54.391 18.537 54.1865 19.1879C53.9819 19.8387 53.9447 20.5215 54.0774 21.1866C54.5504 23.3801 56.7154 24.2287 55.8967 24.5489C55.078 24.8691 49.3835 20.2419 55.2599 17.4239Z" fill="#E84D29"/>
<path fill-rule="evenodd" clip-rule="evenodd" d="M112.223 12.5565C112.223 12.5565 90.9187 17.3598 86.0793 16.8315C81.2399 16.3031 50.5663 9.05002 50.257 7.81716C49.9477 6.5843 70.506 0.788244 77.1829 1.41268C83.8597 2.03712 107.383 10.5391 112.223 12.5565Z" fill="#372B23"/>
<path fill-rule="evenodd" clip-rule="evenodd" d="M85.3879 15.0863C78.4763 14.2501 71.6633 12.873 65.0297 10.9714C57.1521 8.76185 55.26 6.88854 57.7525 7.03264C60.245 7.17674 89.3358 14.4939 85.3879 15.0863Z" fill="#4E433B"/>
<path fill-rule="evenodd" clip-rule="evenodd" d="M83.6777 17.2158C85.3005 17.6872 87.013 17.8722 88.7172 17.7601C91.519 17.568 113.205 12.9568 113.06 13.6132C112.914 14.2697 91.4098 19.2652 90.3728 20.9624C89.3358 22.6596 89.3358 26.8065 88.7354 27.0627C88.135 27.3188 88.7354 21.1705 87.1162 19.7615C85.497 18.3526 82.2405 17.1197 83.6777 17.2158Z" fill="#4E433B"/>
<path fill-rule="evenodd" clip-rule="evenodd" d="M71.9795 33.0828C70.3483 31.1617 68.0686 29.7438 65.4664 29.032C62.9375 28.5517 60.0084 27.655 57.0248 26.8705C54.0411 26.0859 49.7475 24.9972 49.2017 25.4615C48.6559 25.9258 49.9112 27.3348 53.7318 27.7991C57.5524 28.2634 64.2293 29.032 66.5944 30.5691C68.9595 32.1062 72.2706 34.812 71.9795 33.0828Z" fill="white"/>
<path fill-rule="evenodd" clip-rule="evenodd" d="M79.4388 30.3291C78.2744 30.4252 75.9093 34.3479 77.4739 34.524C79.0385 34.7002 80.2029 30.1369 79.4388 30.3291Z" fill="#D2C799"/>
<path fill-rule="evenodd" clip-rule="evenodd" d="M47.3279 13.9814C47.3279 14.91 46.3637 17.2957 45.3085 17.1836C44.2533 17.0716 45.1629 14.7499 45.8543 13.9814C46.5456 13.2129 47.4189 13.1328 47.3279 13.9814Z" fill="#FFF9D9"/>
<path fill-rule="evenodd" clip-rule="evenodd" d="M58.9351 35.2765C59.8083 35.8208 61.2274 38.0464 60.4269 38.6709C59.6264 39.2953 58.2073 37.2298 58.0072 36.2852C57.8071 35.3405 58.2255 34.684 58.9351 35.2765Z" fill="#FFFCEB"/>
<path fill-rule="evenodd" clip-rule="evenodd" d="M90.1728 6.18415C86.5341 5.38359 77.0191 1.62096 76.0185 2.75776C75.0179 3.89455 89.8089 6.31223 91.1552 8.31363C92.5015 10.315 87.5166 9.51448 88.0442 10.9075C88.5718 12.3004 92.2104 13.2611 96.5222 13.0049C100.834 12.7487 108.111 12.4926 107.893 12.0923C107.675 11.692 98.9055 8.80999 90.1728 6.18415Z" fill="#594E45"/>
<path fill-rule="evenodd" clip-rule="evenodd" d="M74.9996 44.4186C74.9996 42.6414 74.9996 40.3838 74.9996 38.2863C75.1315 33.9034 74.937 29.5177 74.4174 25.1571C74.0529 24.5352 73.5385 23.9908 72.91 23.5621C72.2814 23.1335 71.5541 22.8308 70.7788 22.6754C68.9595 22.067 43.6892 12.8766 40.8874 12.5403C37.3294 11.9312 33.6651 11.9913 30.1353 12.7164C24.5136 13.7091 6.86625 16.7993 5.79285 17.792C4.71946 18.7847 0.334905 21.3145 0.00742877 25.9897C-0.0557777 32.1342 0.284397 38.2767 1.02625 44.3866C1.4083 46.1959 1.77217 48.1172 4.81043 49.19C7.84868 50.2627 36.9213 59.8054 39.0317 59.8054C41.3296 59.6239 43.5951 59.2047 45.7814 58.5565C47.6007 58.1562 53.8228 56.5071 59.8083 54.6498C61.0272 54.2815 62.8466 53.7852 64.8114 53.1768C71.9795 50.9512 75.0542 50.663 74.9996 44.4186Z" fill="#261C11"/>
<path fill-rule="evenodd" clip-rule="evenodd" d="M74.9996 44.4189C74.9996 42.6416 74.9996 40.384 74.9996 38.2866C75.1088 35.1804 74.9996 30.377 74.7085 27.495C74.7085 28.3436 74.472 31.754 68.8867 34.6841C62.4464 38.0624 49.8567 37.8863 49.7839 40.7043C49.7112 43.5223 50.8027 55.8509 46.4728 58.3166C48.8925 57.7242 54.4232 56.2512 59.7174 54.602C60.9363 54.2337 62.7557 53.7374 64.7205 53.129C71.9796 50.9514 75.0542 50.6632 74.9996 44.4189Z" fill="#0B0000"/>
<path fill-rule="evenodd" clip-rule="evenodd" d="M43.289 57.7563C44.3102 57.4086 45.2112 56.8332 45.9033 56.0865C46.5955 55.3398 47.0551 54.4475 47.2369 53.4973C47.5462 50.4231 47.8919 37.2299 47.2369 35.4206C46.582 33.6114 45.6541 30.7614 42.252 29.8808C38.8499 29.0001 31.7182 27.8633 25.8782 26.5824C20.0382 25.3016 6.4115 21.7791 4.66495 22.0673C2.91841 22.3555 1.40838 24.453 1.77224 29.3204C2.13611 34.1878 1.8814 45.3316 3.77349 46.9327C5.66557 48.5338 27.9158 55.5147 32.5187 56.6675C37.1215 57.8203 39.3411 58.749 43.289 57.7563Z" fill="#DCD3A7"/>
<path fill-rule="evenodd" clip-rule="evenodd" d="M24.2953 26.262C17.8731 24.8049 6.10217 21.8749 4.51936 22.067C2.93656 22.2592 1.26279 24.4527 1.62666 29.3201C1.99052 34.1875 1.73581 45.3313 3.6279 46.9324C6.81373 48.4866 10.1501 49.7886 13.5977 50.8231C7.95787 48.8538 3.91899 46.6923 3.28223 44.9951C2.64547 43.2979 2.39077 31.0493 2.77282 27.3827C3.15488 23.7162 4.30105 22.7875 5.44722 22.5794C6.19314 22.6274 16.6542 24.7089 24.2953 26.262Z" fill="#BAB080"/>
<path fill-rule="evenodd" clip-rule="evenodd" d="M38.5403 56.6032C38.5403 56.6032 43.9983 56.0268 44.8351 52.024C45.6313 48.2009 45.9969 44.3181 45.9267 40.4319C45.9267 37.0215 46.1814 32.5544 38.7586 30.9372C31.3358 29.3201 9.64959 24.949 7.33906 24.2766C5.02853 23.6041 4.15526 24.7249 3.91875 29.256C3.68224 33.7872 2.97271 44.3226 5.15588 46.276C7.33906 48.2293 30.9538 56.7633 38.5403 56.6032Z" fill="#F7EFC9"/>
<path fill-rule="evenodd" clip-rule="evenodd" d="M34.9202 48.8539C34.9202 48.8539 33.7923 51.4957 31.7546 51.0314C29.717 50.5671 24.1863 46.0039 18.7465 45.1233C13.3068 44.2426 6.39339 43.9704 6.01133 42.4334C5.72917 40.2274 5.59552 38.0086 5.61108 35.7887C5.61108 35.7887 26.0966 40.3679 27.1154 40.8643C29.8703 43.4084 32.4754 46.0751 34.9202 48.8539Z" fill="#828E04"/>
<path fill-rule="evenodd" clip-rule="evenodd" d="M33.7737 50.471C33.1457 50.4568 32.5299 50.315 31.9744 50.0567C31.419 49.7984 30.9389 49.4306 30.5717 48.982C28.1234 46.3825 24.7749 44.5604 21.0385 43.7943C15.9626 42.6735 13.5429 43.6342 10.3955 42.3213C8.18101 41.2435 6.49179 39.4892 5.64709 37.3898C5.64709 36.4932 5.64709 35.7887 5.64709 35.7887C5.64709 35.7887 20.0379 38.991 25.2957 40.3359C27.3077 41.5906 29.1945 42.994 30.9356 44.5309L32.7549 46.5803C33.2936 47.0953 33.6708 47.7248 33.8495 48.407C34.0281 49.0891 34.002 49.8004 33.7737 50.471Z" fill="#97A502"/>
<path fill-rule="evenodd" clip-rule="evenodd" d="M39.6139 48.4694C40.3962 49.8784 40.5054 54.1374 38.7589 54.5057C37.0123 54.8739 36.794 50.8391 37.3216 49.302C37.8492 47.765 39.1227 47.1085 39.6139 48.4694Z" fill="#DDD4AA"/>
<path fill-rule="evenodd" clip-rule="evenodd" d="M42.2521 38.9908C43.2709 40.736 44.4898 47.3966 42.4158 46.2599C40.3418 45.1231 40.2872 36.2368 42.2521 38.9908Z" fill="#DDD4AA"/>
<path fill-rule="evenodd" clip-rule="evenodd" d="M30.2446 53.5932C29.5169 53.5932 22.749 51.9921 23.9134 50.8393C25.0777 49.6865 33.956 53.4011 30.2446 53.5932Z" fill="#DDD4AA"/>
<path fill-rule="evenodd" clip-rule="evenodd" d="M35.3204 47.5728C35.3204 47.5728 35.1021 50.775 33.7376 50.4708C32.3731 50.1666 30.6448 44.3545 24.4227 42.7374C18.2007 41.1203 12.8519 41.0402 10.1957 39.9034C7.53949 38.7666 4.61039 36.7012 5.9021 34.0913C7.19382 31.4815 36.8668 38.5745 35.3204 47.5728Z" fill="#F1E7DB"/>
<path fill-rule="evenodd" clip-rule="evenodd" d="M36.4301 45.0754C37.4923 43.0978 38.1629 40.9752 38.4132 38.799C38.5042 36.5414 40.6327 34.8762 37.2124 33.7394C33.7921 32.6026 29.9352 32.1383 25.1868 30.9695C20.4384 29.8007 14.9622 26.6785 11.7056 27.415C8.44907 28.1515 5.10153 33.8195 6.99362 35.6608C8.8857 37.502 10.1774 36.1411 15.8537 37.8223C21.5299 39.5035 25.3869 39.6476 28.5889 41.649C31.7909 43.6504 32.9734 44.7231 33.1918 46.3242C33.4101 47.9253 33.1008 49.3343 34.247 49.2703C35.3931 49.2062 36.4301 45.0754 36.4301 45.0754Z" fill="#E5390D"/>
<path fill-rule="evenodd" clip-rule="evenodd" d="M20.8932 30.8253C21.052 32.008 21.621 33.1191 22.5227 34.0072C23.4244 34.8953 24.6151 35.5173 25.9327 35.7888C31.1724 37.3899 34.5381 39.3593 34.3198 40.5921C34.1015 41.825 31.6272 38.6227 27.7157 37.8542C26.196 37.6717 24.7346 37.2183 23.4208 36.5218C22.107 35.8253 20.9684 34.9003 20.0746 33.8034C18.983 32.0581 20.0382 29.6084 20.8932 30.8253Z" fill="#E84D29"/>
<path fill-rule="evenodd" clip-rule="evenodd" d="M18.437 29.5922C18.437 29.5922 15.4897 31.3214 19.1101 34.6677C22.7306 38.0141 26.9514 39.0228 25.0047 39.1349C23.058 39.2469 20.8385 38.2703 18.5098 36.3329C16.181 34.3955 13.4339 31.1773 18.437 29.5922Z" fill="#E84D29"/>
<path fill-rule="evenodd" clip-rule="evenodd" d="M15.3807 29.5605C14.8785 30.0711 14.5118 30.6737 14.3072 31.3245C14.1027 31.9753 14.0654 32.6581 14.1981 33.3232C14.6711 35.5167 16.8361 36.3493 16.0174 36.6855C15.1987 37.0218 9.50427 32.3785 15.3807 29.5605Z" fill="#E84D29"/>
<path fill-rule="evenodd" clip-rule="evenodd" d="M72.3433 24.677C72.3433 24.677 51.0392 29.4803 46.1998 28.952C41.3604 28.4236 10.6868 21.1865 10.3775 19.9377C10.0682 18.6888 30.6264 12.9247 37.3033 13.5332C43.9802 14.1416 67.504 22.6756 72.3433 24.677Z" fill="#372B23"/>
<path fill-rule="evenodd" clip-rule="evenodd" d="M45.5085 27.2229C38.5969 26.3867 31.7839 25.0096 25.1504 23.108C17.2727 20.8985 15.3806 19.0252 17.8731 19.1693C20.3656 19.3134 49.4564 26.6305 45.5085 27.2229Z" fill="#4E433B"/>
<path fill-rule="evenodd" clip-rule="evenodd" d="M43.7983 29.384C45.4211 29.8555 47.1336 30.0405 48.8378 29.9284C51.6396 29.7363 73.3258 25.1251 73.1803 25.7815C73.0347 26.438 51.5304 31.4335 50.4934 33.1307C49.4564 34.8278 49.4564 38.9747 48.856 39.2309C48.2556 39.4871 48.856 33.3388 47.2368 31.9298C45.6176 30.5208 42.3611 29.2559 43.7983 29.384Z" fill="#4E433B"/>
<path fill-rule="evenodd" clip-rule="evenodd" d="M32.1003 45.2195C30.4691 43.2984 28.1893 41.8805 25.5871 41.1686C23.0583 40.6883 20.1292 39.7916 17.1455 39.0071C14.1618 38.2225 9.86823 37.1338 9.32243 37.5981C8.77664 38.0625 10.032 39.4714 13.8525 39.9357C17.6731 40.4001 24.35 41.1686 26.7333 42.7057C29.1166 44.2428 32.3913 46.9967 32.1003 45.2195Z" fill="white"/>
<path fill-rule="evenodd" clip-rule="evenodd" d="M39.5774 42.4653C38.3949 42.5614 36.0298 46.4841 37.5944 46.6602C39.159 46.8364 40.3234 42.2732 39.5774 42.4653Z" fill="#D2C799"/>
<path fill-rule="evenodd" clip-rule="evenodd" d="M7.44839 26.1819C7.44839 27.1105 6.48415 29.4962 5.42895 29.3841C4.37375 29.2721 5.28341 26.9504 5.97475 26.1819C6.66609 25.4134 7.53936 25.2532 7.44839 26.1819Z" fill="#FFF9D9"/>
<path fill-rule="evenodd" clip-rule="evenodd" d="M19.0555 47.4127C19.9288 47.9571 21.3479 50.1826 20.5474 50.8071C19.7469 51.4315 18.3278 49.3661 18.1277 48.4214C17.9276 47.4767 18.346 46.8203 19.0555 47.4127Z" fill="#FFFCEB"/>
<path fill-rule="evenodd" clip-rule="evenodd" d="M50.2387 18.3203C46.691 17.5037 37.085 13.7571 36.0844 14.8939C35.0838 16.0307 49.8748 18.4484 51.2211 20.4498C52.5674 22.4512 47.5825 21.6506 48.1101 23.0436C48.6377 24.4366 52.2763 25.3972 56.5881 25.1411C60.8999 24.8849 68.1771 24.6287 67.9588 24.2284C67.7405 23.8282 59.026 20.9461 50.2387 18.3203Z" fill="#594E45"/>
<path fill-rule="evenodd" clip-rule="evenodd" d="M56.8972 63.0076C56.2409 64.104 56.0598 65.373 56.3878 66.5781C56.4709 67.3632 56.7486 68.1228 57.2012 68.8033C57.6538 69.4838 58.2704 70.0687 59.0076 70.5169C60.4267 71.3175 61.5183 71.4295 62.7918 72.7745C63.5916 73.5307 64.5691 74.1245 65.6562 74.5143C66.7434 74.9042 67.914 75.0809 69.0866 75.032C71.1967 75.0725 73.287 74.6662 75.1813 73.8472C76.7825 74.4273 78.5459 74.5669 80.239 74.2475C82.0765 73.8935 83.754 73.069 85.0602 71.8778C86.0483 72.2325 87.1084 72.4056 88.1753 72.3863C89.2422 72.367 90.2933 72.1558 91.2641 71.7658C93.8475 70.3568 96.0125 68.5635 98.3958 68.6596C100.078 68.8552 101.785 68.8174 103.453 68.5475C103.898 68.3295 104.323 68.0834 104.727 67.811C108.4 67.8803 112.069 67.5359 115.643 66.7863C120.337 65.6015 121.356 64.1444 121.356 64.1444C121.356 64.1444 127.25 63.6801 128.414 61.8869C129.579 60.0936 129.251 58.0442 130.234 57.4838C131.278 56.8786 132.149 56.0697 132.78 55.12C133.411 54.1703 133.785 53.1054 133.872 52.0079C133.872 49.238 129.324 47.6049 129.324 47.6049C129.324 47.6049 125.686 37.9981 107.383 43.2018C89.0809 48.4054 57.7887 58.8767 56.8972 63.0076Z" fill="#F6F0CA"/>
<path fill-rule="evenodd" clip-rule="evenodd" d="M128.597 46.0999C126.686 43.6342 121.21 39.3111 107.565 43.1858C100.434 45.2032 91.3188 47.9892 82.7862 50.9513C82.6043 51.0473 69.3597 56.9875 71.5429 61.5987C71.5429 61.5987 84.0416 60.494 90.4092 57.756C96.7768 55.0181 101.325 51.5597 104.964 50.2948C108.602 49.0299 110.24 45.3634 127.268 46.0679L128.597 46.0999Z" fill="#EBE1BD"/>
<path fill-rule="evenodd" clip-rule="evenodd" d="M125.267 63.5201C126.535 63.3329 127.692 62.7675 128.542 61.919C129.688 60.1097 129.379 58.0763 130.361 57.5159C131.405 56.9107 132.277 56.1018 132.908 55.1521C133.539 54.2025 133.913 53.1375 134 52.0401C134 49.2701 129.452 47.637 129.452 47.637C128.598 45.8277 127.08 44.3225 125.14 43.362C124.833 43.6597 124.605 44.0139 124.472 44.3989C124.34 44.7839 124.307 45.1899 124.376 45.5876C125.776 45.8965 127.122 46.3704 128.378 46.9965C128.671 47.2683 128.886 47.5972 129.006 47.9562C129.126 48.3152 129.148 48.6941 129.07 49.062C129.07 49.062 131.326 48.6137 132.927 51.3996C134.528 54.1856 130.998 56.6353 129.288 56.9715C128.24 57.1838 127.152 57.1838 126.104 56.9715C126.104 56.9715 130.289 60.5901 125.267 63.5201Z" fill="#EBE1BD"/>
<path fill-rule="evenodd" clip-rule="evenodd" d="M56.5336 67.0747C56.659 67.7554 56.9436 68.4057 57.3696 68.9845C57.7955 69.5633 58.3534 70.0579 59.0078 70.437C60.4269 71.2376 61.5185 71.3497 62.792 72.6946C63.5918 73.4509 64.5693 74.0446 65.6565 74.4345C66.7436 74.8244 67.9142 75.0011 69.0868 74.9522C71.1969 74.9927 73.2872 74.5863 75.1815 73.7674C76.7828 74.3475 78.5461 74.487 80.2392 74.1676C82.0767 73.8137 83.7542 72.9892 85.0604 71.798C86.0485 72.1527 87.1086 72.3257 88.1755 72.3064C89.2424 72.2872 90.2936 72.076 91.2643 71.6859C93.6294 70.389 95.667 68.7559 97.832 68.5958C97.4136 68.2595 93.7749 69.9727 90.4456 71.3177C87.1163 72.6626 84.7148 69.4123 84.7148 69.4123C84.7148 69.4123 83.2229 72.9828 80.2392 73.5432C77.2556 74.1036 76.6006 71.5738 76.2913 72.4384C75.982 73.303 73.4896 74.712 69.3234 74.4398C65.1571 74.1676 64.0655 71.782 63.8654 71.3497C63.6653 70.9174 62.8284 71.3497 62.228 70.5811C61.6276 69.8126 63.0649 67.3789 63.5197 66.5143C64.3362 65.2291 65.6167 64.2204 67.1584 63.6483C68.4764 63.0558 69.6998 62.3129 70.797 61.4387C70.0329 59.1812 60.8635 64.0325 56.5336 67.0747Z" fill="#EBE1BD"/>
<path fill-rule="evenodd" clip-rule="evenodd" d="M85.4608 63.4721C85.6973 63.5522 87.0982 65.0733 88.9357 64.657C90.319 64.2507 91.5682 63.5526 92.5743 62.6235C93.1565 62.2233 92.7745 61.2626 91.4282 61.5508C90.0819 61.839 88.6264 64.705 85.4608 63.4721Z" fill="#EBE1BD"/>
<path fill-rule="evenodd" clip-rule="evenodd" d="M84.7147 67.1387C86.6035 67.939 88.6769 68.3445 90.773 68.3235C93.7567 68.1634 94.4117 66.7224 94.4117 66.7224C95.8919 67.5037 97.6518 67.7666 99.342 67.4589C100.763 66.9845 102 66.1623 102.908 65.0893C101.499 65.7338 99.9463 66.0999 98.3596 66.162C96.8213 66.0417 95.3251 65.6554 93.9568 65.0252C92.7515 66.0453 91.2683 66.7755 89.6498 67.1457C88.0313 67.5158 86.3319 67.5134 84.7147 67.1387Z" fill="#EBE1BD"/>
<path fill-rule="evenodd" clip-rule="evenodd" d="M66.3761 68.5316C66.7089 69.2261 67.2053 69.8507 67.8325 70.364C68.4597 70.8774 69.2035 71.2678 70.0147 71.5096C72.0572 72.1087 74.2823 71.9999 76.2368 71.2054C74.681 72.5614 72.5863 73.331 70.3968 73.3509C66.5216 73.5271 66.3761 68.5316 66.3761 68.5316Z" fill="#EBE1BD"/>
<path fill-rule="evenodd" clip-rule="evenodd" d="M98.6144 57.2119C100.215 57.2119 102.617 56.0271 103.654 57.1159C104.691 58.2046 100.215 59.6296 98.8145 59.4375C97.4137 59.2453 94.6665 57.7083 98.6144 57.2119Z" fill="#EBE1BD"/>
<path fill-rule="evenodd" clip-rule="evenodd" d="M113.333 50.8553C113.661 51.2849 114.088 51.6493 114.587 51.925C115.085 52.2007 115.643 52.3818 116.225 52.4564C118.045 52.6325 119.336 50.1188 120.264 50.6792C121.192 51.2396 120.009 53.8814 116.626 53.8814C116.174 53.9015 115.724 53.836 115.304 53.6892C114.884 53.5425 114.505 53.3179 114.193 53.0309C113.881 52.7438 113.642 52.4009 113.494 52.0255C113.345 51.6501 113.29 51.251 113.333 50.8553Z" fill="#EBE1BD"/>
<path fill-rule="evenodd" clip-rule="evenodd" d="M109.203 58.1085C110.51 58.4447 111.899 58.4447 113.205 58.1085C115.025 57.5321 115.771 56.2992 116.517 56.7475C117.262 57.1958 117.026 58.9731 114.006 59.3734C113.149 59.5052 112.268 59.4596 111.435 59.24C110.601 59.0205 109.837 58.6331 109.203 58.1085Z" fill="#EBE1BD"/>
<path fill-rule="evenodd" clip-rule="evenodd" d="M105.764 65.2173C107.164 65.3651 108.583 65.1827 109.876 64.689C111.301 63.9722 112.54 63.0015 113.514 61.839C113.505 62.6499 113.258 63.445 112.795 64.1465C112.333 64.8481 111.672 65.4321 110.876 65.8418C110.048 66.1866 109.123 66.3112 108.215 66.2003C107.306 66.0894 106.455 65.7478 105.764 65.2173Z" fill="#EBE1BD"/>
<path fill-rule="evenodd" clip-rule="evenodd" d="M119.373 58.5566C119.957 58.9298 120.445 59.4085 120.802 59.9607C121.16 60.5129 121.38 61.126 121.447 61.7589C121.588 62.329 121.563 62.9212 121.376 63.4809C121.188 64.0405 120.843 64.5496 120.373 64.9611C120.373 64.9611 125.613 60.2538 119.373 58.5566Z" fill="#EBE1BD"/>
<path fill-rule="evenodd" clip-rule="evenodd" d="M122.702 50.4391C122.702 50.4391 122.957 51.5919 124.103 51.5919C125.249 51.5919 125.522 50.8554 126.959 51.5119C128.396 52.1683 127.469 54.1057 128.433 54.4899C129.397 54.8742 130.361 52.6326 129.47 51.704C128.578 50.7753 128.123 50.8234 128.214 50.2149C128.305 49.6065 128.415 48.6138 127.287 49.1102C126.159 49.6065 126.231 50.0388 124.976 50.231C123.721 50.4231 122.629 49.8147 122.702 50.4391Z" fill="#EBE1BD"/>
<path fill-rule="evenodd" clip-rule="evenodd" d="M106.856 48.3416C107.128 48.7376 107.533 49.049 108.016 49.2327C108.499 49.4164 109.034 49.4631 109.548 49.3663C111.368 49.0301 109.457 47.7652 111.149 47.445C112.841 47.1248 113.824 47.6371 114.933 47.2689C115.648 47.0073 116.238 46.5383 116.607 45.9399C116.607 45.9399 116.607 47.9574 115.388 48.3416C114.169 48.7259 112.441 48.3416 111.986 49.0301C111.531 49.7186 111.386 50.6312 109.876 50.6312C108.366 50.6312 106.274 49.8947 106.856 48.3416Z" fill="#EBE1BD"/>
<path fill-rule="evenodd" clip-rule="evenodd" d="M67.3767 67.3626C67.7998 68.0052 68.3687 68.5642 69.0479 69.0049C69.7271 69.4457 70.5021 69.7587 71.3246 69.9244C73.999 70.3888 75.8911 69.4281 76.7826 69.9244C77.2528 70.2875 77.801 70.5639 78.3947 70.7371C78.9885 70.9104 79.6157 70.977 80.2393 70.9331C81.8221 70.6609 83.7687 68.7556 83.3503 67.4267C83.199 66.5885 83.2385 65.7323 83.4665 64.9077C83.6945 64.0831 84.1065 63.3066 84.6784 62.6233C85.5335 62.0309 84.7876 60.8941 82.2769 61.2624C79.7662 61.6306 81.0034 64.8649 78.6383 66.0657C76.2732 67.2666 76.6188 66.3379 74.6903 65.5694C72.7619 64.8008 68.1772 65.057 67.3767 67.3626Z" fill="#FFF9D5"/>
<path fill-rule="evenodd" clip-rule="evenodd" d="M95.3759 63.7283C95.9137 64.2403 96.5958 64.6182 97.353 64.8234C98.1102 65.0287 98.9157 65.0541 99.6876 64.8971C102.726 64.5288 103.745 63.5201 103.326 63.0878C102.908 62.6555 95.2121 61.2305 95.3759 63.7283Z" fill="#FFF9D5"/>
<path fill-rule="evenodd" clip-rule="evenodd" d="M110.185 57.356C110.185 57.356 113.824 57.6281 115.061 56.4273C116.298 55.2265 113.06 54.6661 110.513 55.0984C107.966 55.5307 107.256 57.1318 110.185 57.356Z" fill="#FFF9D5"/>
<path fill-rule="evenodd" clip-rule="evenodd" d="M114.406 50.3909C114.562 50.7099 114.814 50.9855 115.135 51.1885C115.455 51.3915 115.832 51.5143 116.225 51.5437C117.535 51.5437 118.882 49.9426 119.864 49.7345C120.132 49.6473 120.427 49.646 120.697 49.7309C120.966 49.8158 121.193 49.9814 121.338 50.1988C121.338 50.1988 122.775 49.062 123.721 49.062C124.667 49.062 126.45 48.7578 126.868 48.1653C127.287 47.5729 125.54 46.164 123.23 46.7564C122.614 46.8648 122.035 47.0958 121.537 47.4316C121.039 47.7674 120.635 48.1991 120.355 48.6937C120.355 48.6937 113.824 48.5976 114.406 50.3909Z" fill="#FFF9D5"/>
<path fill-rule="evenodd" clip-rule="evenodd" d="M118.791 59.8053C119.318 60.718 120.919 62.7034 118.336 64.6087C115.752 66.514 111.477 67.1705 111.532 66.7382C111.586 66.3059 114.37 65.4733 114.752 63.9683C115.134 62.4632 117.972 59.325 118.791 59.8053Z" fill="#FFF9D5"/>
<path fill-rule="evenodd" clip-rule="evenodd" d="M102.089 55.3544C102.089 55.3544 107.547 53.1929 106.219 52.2323C104.891 51.2716 98.7961 54.3938 102.089 55.3544Z" fill="#FFF9D5"/>
<path fill-rule="evenodd" clip-rule="evenodd" d="M56.6425 63.392C55.2417 65.3133 48.3646 71.0133 50.5296 72.2462C52.6946 73.479 56.6971 68.6757 56.6971 68.6757C56.6971 68.6757 54.0045 73.8313 57.5886 73.9434C61.1726 74.0554 60.8088 70.4529 61.7002 67.9552C62.5917 65.4574 61.5729 64.0164 68.3771 62.3192C75.1813 60.6221 117.335 50.3749 127.978 46.0839C129.561 45.4434 129.015 42.8816 129.033 42.6735C129.542 38.1583 128.178 29.3362 112.787 29.3362C97.3952 29.3362 70.9424 45.1712 65.1205 51.4957C59.2987 57.8201 58.1889 58.0763 56.6425 63.392Z" fill="#F18D66"/>
<path fill-rule="evenodd" clip-rule="evenodd" d="M118.554 29.8486C116.658 29.4968 114.724 29.325 112.787 29.3363C97.377 29.3363 70.9424 45.1713 65.1206 51.4958C59.2988 57.8202 58.2072 58.0764 56.679 63.312C56.8427 62.7196 58.0435 58.973 59.6626 58.6368C61.2818 58.3005 60.5177 61.5348 62.5008 61.5668C64.4838 61.5989 67.1946 60.8303 66.6306 58.3646C66.0666 55.8989 64.2837 53.9295 65.8665 52.7927C67.4493 51.6559 69.1595 54.7621 69.778 55.7227C70.3966 56.6834 71.4336 58.5727 72.9073 58.2365C74.3809 57.9003 76.2912 57.516 75.4179 55.7067C74.5446 53.8975 71.7793 47.2048 72.4706 46.7885C72.854 46.6113 73.294 46.5529 73.7198 46.6226C74.1455 46.6923 74.5322 46.8861 74.8175 47.1728C75.0904 47.6531 79.2567 55.5626 80.4756 55.4986C80.8981 55.4665 81.3075 55.3535 81.6752 55.1676C82.0428 54.9817 82.3599 54.7274 82.6043 54.4224C82.8486 54.1174 83.0143 53.7691 83.0897 53.4018C83.1651 53.0346 83.1484 52.6573 83.0408 52.2963C82.5132 50.327 78.1287 44.2907 79.1111 43.1379C80.0935 41.9851 80.9304 42.2733 82.0948 43.3621C83.2591 44.4508 86.825 51.6719 88.2623 52.0401C88.816 52.0923 89.376 52.0319 89.899 51.8636C90.4221 51.6953 90.8942 51.4235 91.2792 51.0693C91.6641 50.7151 91.9515 50.2879 92.1192 49.8205C92.2869 49.3531 92.3305 48.8581 92.2466 48.3736C91.2516 45.4429 89.593 42.7198 87.3708 40.368C86.2246 39.3273 86.4611 37.6301 88.0076 37.4219C89.554 37.2138 93.0107 41.0565 94.3388 43.0259C95.6669 44.9952 97.7409 49.9907 99.3237 49.9907C100.907 49.9907 105.546 49.4303 104.327 46.1C103.108 42.7697 101.398 38.943 100.288 38.0944C98.7258 37.0114 97.3206 35.7639 96.1035 34.3798C96.1194 34.1715 96.1876 33.9689 96.3034 33.7867C96.4191 33.6045 96.5793 33.4472 96.7726 33.3261C96.9658 33.2051 97.1872 33.1233 97.4208 33.0868C97.6543 33.0503 97.8942 33.0599 98.123 33.1149C99.3601 33.3391 102.289 35.7728 104.782 38.911C107.274 42.0492 108.802 46.1801 110.021 46.3082C111.24 46.4362 114.406 45.2194 113.66 42.7857C112.748 39.8351 111.492 36.9752 109.912 34.2517C108.857 32.6506 107.256 31.2256 107.42 30.5051C107.583 29.7846 109.002 29.3523 110.149 30.2489C111.295 31.1455 117.717 42.1773 119.464 42.5775C121.21 42.9778 124.921 42.5775 124.539 39.7756C124.285 37.8542 121.101 32.7787 118.554 29.8486Z" fill="#EE7B49"/>
<path fill-rule="evenodd" clip-rule="evenodd" d="M61.3365 69.252C61.4456 68.8037 61.5548 68.3714 61.7003 67.9551C62.5918 65.4734 61.573 64.0164 68.3772 62.3192C75.1814 60.622 117.335 50.3748 127.978 46.0838C129.561 45.4434 129.015 42.8816 129.033 42.6734C129.488 38.6867 128.469 31.3215 117.571 29.6723C119.144 30.1355 120.579 30.9021 121.772 31.9159C122.965 32.9298 123.886 34.1654 124.467 35.5324C127.05 40.592 127.469 44.8029 125.322 45.7796C123.76 46.5313 122.061 47.0353 120.3 47.2687C118.172 47.6689 118.481 45.6675 117.189 42.3212C115.898 38.9749 109.912 31.1134 108.329 30.5209C106.747 29.9285 111.659 34.2676 113.187 38.3344C114.715 42.4012 115.734 46.0198 115.006 47.2687C114.279 48.5175 113.769 50.4709 111.204 50.2788C108.639 50.0866 107.42 44.0664 104.764 40.4639C102.107 36.8614 97.2679 33.1308 96.8131 33.7232C96.3583 34.3156 102.871 38.1263 104.381 42.7215C105.891 47.3167 107.729 50.1987 105.746 51.0633C103.763 51.9279 100.142 53.1287 99.0872 52.6644C98.032 52.2001 94.539 44.6588 92.7197 42.4653C90.9003 40.2718 88.4079 38.2704 87.6438 38.2704C86.8796 38.2704 91.4279 42.065 92.7197 45.8597C94.0114 49.6543 95.6851 53.8653 93.32 54.4577C90.9549 55.0501 88.4079 55.8026 85.8244 51.2555C83.241 46.7083 81.2762 43.7782 80.221 43.3779C79.1657 42.9777 86.1337 54.2495 85.4424 55.5785C84.7511 56.9074 81.9675 57.3237 79.9844 57.4518C78.0014 57.5799 74.5265 47.2526 73.4531 47.1886C72.3797 47.1245 78.529 56.9234 76.4186 58.0442C74.3082 59.165 72.8891 60.5259 71.4337 59.7894C69.9782 59.0529 66.8672 52.3762 66.3396 53.3849C65.812 54.3937 69.9782 60.4299 68.5773 60.8461C67.1765 61.2624 63.3923 62.6554 62.1006 63.1838C60.8089 63.7122 59.9902 59.5492 59.2625 60.574C58.5347 61.5987 60.9544 63.2479 60.9544 65.1212C60.9544 66.9945 61.6094 68.1313 61.391 69.1079L61.3365 69.252Z" fill="#F6B498"/>
<path fill-rule="evenodd" clip-rule="evenodd" d="M17.1089 65.6174C16.0537 63.0876 16.4358 59.0528 20.1108 57.9C23.7858 56.7472 28.9345 57.4357 30.9357 55.3382C32.937 53.2407 31.3542 51.4795 33.1735 51.5916C34.9928 51.7036 34.9928 53.7851 37.558 54.7138C40.1827 55.9437 42.7165 57.318 45.1446 58.8286C47.9463 60.3017 50.9118 63.2317 49.7656 66.8342C48.6195 70.4368 45.4902 70.8691 41.1785 70.5648C35.0474 70.1165 20.2018 73.0786 17.1089 65.6174Z" fill="#6D981F"/>
<path fill-rule="evenodd" clip-rule="evenodd" d="M17.1089 65.6176C16.0537 63.0878 16.4358 59.053 20.1108 57.9002C23.7858 56.7473 28.9345 57.4358 30.9357 55.3384C31.6603 54.5521 32.0753 53.5801 32.1183 52.5684C32.2346 53.2915 32.1384 54.0287 31.8391 54.7098C31.5397 55.3909 31.0471 55.9932 30.4081 56.4592C28.2613 57.8041 20.9841 57.7881 19.0192 60.7341C17.0544 63.6802 20.4565 68.2274 22.5487 69.06C24.6409 69.8925 22.8398 67.1706 23.8222 64.5288C24.2105 63.7057 24.7897 62.9631 25.5227 62.3482C26.2558 61.7334 27.1266 61.26 28.0794 60.9583C28.0794 60.9583 24.8228 63.1999 24.7864 65.6656C24.8244 66.8902 25.4053 68.0532 26.4048 68.9059C27.4043 69.7586 28.7432 70.2334 30.1352 70.2288C33.0461 70.3248 29.4075 67.4588 29.0073 65.4254C28.607 63.392 30.4809 69.5563 33.7375 70.0687C36.994 70.581 33.9194 67.8431 33.4646 65.5375C33.3941 64.7472 33.5061 63.9526 33.7938 63.2014C34.0814 62.4502 34.5388 61.758 35.1383 61.1665C35.1383 61.1665 33.2099 64.8971 35.3567 67.2347C37.5035 69.5723 38.7406 69.9886 40.6691 69.7965C42.5975 69.6044 45.6358 69.9246 46.6182 69.2681C47.6007 68.6117 42.7795 66.9625 41.5423 64.9611C40.3052 62.9597 40.5053 58.5566 40.5053 58.5566C40.5053 58.5566 40.1415 63.8563 43.4708 64.9611C46.8002 66.0659 47.5643 66.0018 47.9463 66.6583C48.3284 67.3147 51.585 63.5841 45.5994 59.037C48.2738 60.6381 50.9118 63.392 49.8202 66.8344C48.7286 70.2768 45.5448 70.8692 41.233 70.565C35.0474 70.1167 20.2018 73.0788 17.1089 65.6176Z" fill="#62871B"/>
<path fill-rule="evenodd" clip-rule="evenodd" d="M34.5744 69.7326C33.4322 69.3042 32.4195 68.6467 31.6172 67.8128C30.8149 66.9788 30.2451 65.9914 29.9533 64.9292C29.0619 61.3587 33.3191 59.7576 34.2833 57.7082C34.5496 57.029 34.661 56.3103 34.611 55.5932C34.5611 54.8761 34.3508 54.1747 33.9922 53.5293C34.8232 54.4072 35.3589 55.4721 35.5389 56.6037C35.7189 57.7353 35.5361 58.8887 35.011 59.9337C33.1371 63.184 30.1353 65.6177 34.5744 69.7326Z" fill="#557517"/>
<path fill-rule="evenodd" clip-rule="evenodd" d="M44.235 68.5638C42.9907 68.6365 41.7444 68.4529 40.5949 68.0276C39.4453 67.6024 38.4242 66.9472 37.6126 66.1141C34.9928 63.2961 37.9583 60.1739 37.74 57.9484C37.6276 57.2409 37.3576 56.5599 36.9455 55.9445C36.5334 55.329 35.9873 54.7912 35.3385 54.3619C36.5126 54.8088 37.5233 55.533 38.2586 56.4543C38.9939 57.3755 39.4252 58.4579 39.5047 59.5815C39.5775 63.2961 38.1948 66.6585 44.235 68.5638Z" fill="#557517"/>
<path fill-rule="evenodd" clip-rule="evenodd" d="M21.9301 67.2026C21.3417 66.2372 21.0172 65.1644 20.9825 64.0693C20.9477 62.9742 21.2037 61.887 21.73 60.8942C23.5493 57.6119 28.0066 58.6847 30.208 57.5959C31.5917 56.815 32.5666 55.5826 32.9187 54.1695C32.9458 55.2932 32.6205 56.4017 31.9787 57.3733C31.3368 58.345 30.4031 59.1422 29.2801 59.6774C25.4414 61.2785 21.4025 61.5667 21.9301 67.2026Z" fill="#557517"/>
<path fill-rule="evenodd" clip-rule="evenodd" d="M23.1127 58.8287C22.4339 59.1221 21.8392 59.5466 21.373 60.0706C20.9067 60.5946 20.581 61.2045 20.4201 61.8548C20.1108 63.9042 21.2752 65.6975 20.3109 65.7615C19.3467 65.8256 17.4 60.5579 23.1127 58.8287Z" fill="#86AF40"/>
<path fill-rule="evenodd" clip-rule="evenodd" d="M32.282 59.1332C31.2625 59.6531 30.3697 60.345 29.6547 61.1693C28.9398 61.9936 28.4168 62.934 28.1157 63.9365C27.4244 67.0267 30.4991 68.836 29.171 69.2042C27.8429 69.5725 25.6415 67.2188 26.1327 64.6891C26.6239 62.1593 32.282 59.1332 32.282 59.1332Z" fill="#86AF40"/>
<path fill-rule="evenodd" clip-rule="evenodd" d="M39.2318 56.0908C39.2318 56.0908 44.6898 58.5565 46.5091 60.8942C48.3284 63.2318 47.4551 64.8329 46.6546 65.0571C46.4062 65.1586 46.1324 65.2023 45.8593 65.1841C45.5862 65.1658 45.323 65.0862 45.0948 64.9529C44.8667 64.8196 44.6812 64.637 44.5561 64.4225C44.431 64.2081 44.3706 63.969 44.3805 63.7281C44.3259 62.2231 45.5266 60.3017 39.2318 56.0908Z" fill="#86AF40"/>
</svg>
