<svg width="93" height="75" viewBox="0 0 93 75" fill="none" xmlns="http://www.w3.org/2000/svg">
<path fill-rule="evenodd" clip-rule="evenodd" d="M34.5045 69.9004C16.1882 67.6047 -0.90694 53.0738 16.872 37.737C18.436 36.4046 20.1686 35.2838 22.025 34.4035C-4.30155 49.5815 22.4402 63.5141 45.5309 61.8168C66.68 60.2538 73.0663 47.5667 63.9814 38.1522C68.4017 41.6811 71.7597 46.5044 71.5888 52.0359C71.2957 62.1831 55.385 71.9029 34.5045 69.9004Z" fill="#E58500"/>
<path fill-rule="evenodd" clip-rule="evenodd" d="M7.92151 51.7183C8.35423 54.134 9.31812 56.4233 10.7435 58.421C12.1689 60.4187 14.0203 62.0748 16.1638 63.2698C23.6246 67.6168 32.392 68.5326 42.4415 68.9112C52.4911 69.2897 71.5766 64.6984 71.5766 54.5757C71.5766 44.4529 56.9236 39.2144 52.3323 40.2157C47.741 41.217 7.92151 51.7183 7.92151 51.7183Z" fill="#E58500"/>
<path fill-rule="evenodd" clip-rule="evenodd" d="M7.92151 51.7183C8.35423 54.134 9.31812 56.4233 10.7435 58.421C12.1689 60.4187 14.0203 62.0748 16.1638 63.2698C20.4176 65.6387 25.0766 67.1917 29.901 67.8488C29.669 67.8488 18.7892 65.309 15.651 61.6457C12.5128 57.9825 11.1085 55.5403 12.3418 54.9053C13.5751 54.2704 13.6362 56.7858 16.5546 56.9812C19.4729 57.1766 17.8489 57.6894 20.5109 57.0422C23.1728 56.3951 22.5867 54.771 25.1876 55.9433C27.7885 57.1155 28.3014 57.2987 29.4614 58.8006C30.6214 60.3025 29.73 60.9375 31.6105 60.8032C33.491 60.6689 34.8464 60.7421 36.2751 59.5821C37.7037 58.4221 43.223 55.174 44.6517 56.273C46.0804 57.372 46.0804 58.7151 47.7655 58.3488C49.4506 57.9825 50.7449 55.9067 53.2725 57.1888C55.8002 58.4709 56.1909 60.1072 58.1569 60.1682C60.1228 60.2293 65.0316 64.0635 58.5232 66.4934C65.5444 64.1856 71.5277 60.2537 71.5277 54.5879C71.5277 47.5422 64.4577 42.8655 58.5965 41.0094C56.8869 40.6919 55.1408 40.3989 53.3702 40.1058C53.0049 40.1115 52.6409 40.1524 52.2835 40.2279C47.6433 41.2536 7.92151 51.7183 7.92151 51.7183Z" fill="#DB7D00"/>
<path fill-rule="evenodd" clip-rule="evenodd" d="M7.99487 47.0295C7.27443 47.4203 5.00322 47.8965 4.39268 48.7757C3.78214 49.6548 0.839331 49.4228 0.582903 50.4608C0.326476 51.4987 -0.699236 54.8444 0.790485 55.3451C2.28021 55.8457 7.15233 57.5797 8.19025 57.0302C9.22817 56.4807 11.072 55.4672 11.9146 55.6381C12.7571 55.8091 12.7937 55.5649 13.1356 56.0533C13.4775 56.5417 14.6864 56.5417 14.8207 57.2744C14.955 58.007 15.3091 58.8007 16.1151 58.9595C16.921 59.1182 17.9711 59.8997 19.009 59.3136C20.047 58.7275 19.876 58.0925 20.8162 58.0925C22.1708 58.1401 23.5257 58.0087 24.8458 57.7018C25.7494 57.3477 26.2745 57.0546 27.1781 57.7018C28.0817 58.3489 28.155 57.9704 28.4724 58.7153C28.7899 59.4602 28.155 60.5591 28.8388 60.9499C29.5226 61.3406 30.646 61.0109 31.171 61.7558C31.6961 62.5006 31.8793 63.6485 33.0515 62.8303C33.8184 62.4038 34.4651 61.7906 34.932 61.0476C35.2949 60.538 35.7715 60.1199 36.324 59.8265C36.7514 59.4968 35.6158 59.1182 38.986 58.5321C42.3562 57.946 42.5515 58.2757 43.4673 58.4588C44.3307 58.6367 45.2263 58.5733 46.056 58.2757C46.6422 58.007 53.4558 56.7127 55.8247 57.7506C58.1936 58.7885 57.3877 59.9608 58.4867 60.7301C59.5856 61.4994 58.682 61.5115 60.6968 61.5115C61.678 61.4538 62.6534 61.3232 63.6152 61.1208C64.5921 61.1208 64.2624 61.3162 65.63 61.8413C66.9976 62.3663 67.2418 63.331 68.353 62.4274C69.4642 61.5238 66.2039 60.8033 70.6853 60.1562C75.1666 59.509 74.898 55.1497 74.9713 54.185C75.0446 53.2204 79.8556 53.2082 79.0497 51.1324C78.2438 49.0565 74.898 47.2371 71.9796 46.248C69.0612 45.2589 16.4936 45.6131 7.99487 47.0295Z" fill="#758C12"/>
<path fill-rule="evenodd" clip-rule="evenodd" d="M49.0965 57.5795C51.4043 57.2498 54.3593 57.0544 55.7392 57.665C56.3793 57.5937 57.0273 57.6663 57.6357 57.8776C58.2442 58.0889 58.7977 58.4334 59.2559 58.8861C60.0618 59.7286 60.2327 59.0204 62.0399 58.6907C63.8471 58.361 63.9571 59.692 64.7019 60.1194C65.4468 60.5468 65.6788 59.9851 65.7154 59.0204C65.752 58.0558 66.619 58.3977 67.2662 58.1046C67.9856 57.7437 68.5746 57.1674 68.9513 56.4561C69.5984 55.4793 68.9513 55.8334 68.6582 55.235C68.3652 54.6367 68.4995 54.3925 69.342 53.0615C70.1846 51.7305 71.5766 52.2922 71.6743 51.987C71.772 51.6817 74.1165 52.6708 74.5927 52.4754C75.0689 52.28 73.4693 50.6926 73.0419 50.0332C72.6145 49.3738 74.0188 49.0319 74.4339 48.6778C74.8491 48.3237 75.655 49.386 76.6075 49.4227C77.5599 49.4593 77.5843 50.1675 78.0972 50.8513C78.6101 51.5352 77.5233 52.8783 77.5233 52.8783C78.5124 52.512 79.3183 51.9992 78.9642 51.0467C78.1949 48.9709 74.8125 47.1515 71.8941 46.1624C70.0479 45.8779 68.1817 45.7432 66.3137 45.7594C66.3137 46.138 66.4114 46.431 66.1916 46.4799C65.4224 46.6386 61.234 48.5313 60.2938 48.7267C59.3536 48.922 54.1884 50.8147 54.1884 50.8147L48.2295 55.7845L49.0965 57.5795Z" fill="#64760D"/>
<path fill-rule="evenodd" clip-rule="evenodd" d="M51.4165 57.3231C52.2786 57.2687 53.1432 57.2687 54.0052 57.3231C54.7745 57.2254 55.6048 57.0911 56.3619 57.0056C57.696 56.9611 59.0182 56.7394 60.2938 56.3463C61.064 56.0187 61.9146 55.9294 62.736 56.0898C63.7739 56.0898 64.0914 56.6393 64.9706 56.5172C65.8497 56.3951 65.9718 55.8334 66.851 54.9542C67.7302 54.075 67.4982 53.7331 67.9866 52.9516C68.4751 52.1702 69.4763 52.1335 70.5509 51.7306C71.6255 51.3276 72.0162 51.3765 72.1383 50.888C72.2604 50.3996 71.7231 50.0699 72.2726 49.4593C72.7596 48.6353 73.1178 47.7418 73.335 46.8096C72.8465 46.5898 72.3459 46.3944 71.8575 46.2235C70.8962 46.033 69.919 45.9349 68.9391 45.9304C65.1415 47.3102 55.8491 50.6804 55.1042 50.8148C54.1518 51.0345 49.7314 55.6991 49.7314 55.6991C50.1561 56.3807 50.7174 56.967 51.3799 57.4208L51.4165 57.3231Z" fill="#536208"/>
<path fill-rule="evenodd" clip-rule="evenodd" d="M7.97044 47.0416C7.22558 47.4201 5.00322 47.9086 4.39268 48.7755C3.78213 49.6425 0.83933 49.4227 0.582903 50.4606C0.326476 51.4986 -0.699236 54.8443 0.790485 55.345C2.84425 56.0995 4.95539 56.6875 7.10348 57.1033L8.19024 57.0301C6.62525 56.7594 5.10498 56.2746 3.67224 55.5892C2.34126 54.7467 1.30334 53.7087 1.91388 52.7685C2.52442 51.8283 2.10925 52.6098 2.79306 51.6085C3.02858 51.1707 3.38248 50.8081 3.81433 50.5619C4.24618 50.3158 4.73857 50.196 5.23523 50.2164C6.21209 50.2775 5.13754 50.2164 5.98009 50.0821C6.94352 49.9122 7.93595 50.0942 8.77636 50.595C9.99744 51.2055 9.58227 51.9992 11.2185 52.3167C12.8548 52.6342 13.6607 52.5365 14.491 53.5378C15.3214 54.5391 18.948 55.8456 19.9859 55.7846C21.0238 55.7235 21.9885 55.7846 21.8419 56.3218C21.6954 56.8591 20.2423 57.6162 21.3535 57.604C22.4647 57.5918 23.8689 56.8836 24.7237 56.8469C25.4197 56.6992 26.145 56.785 26.7873 57.0911C27.6314 57.8392 28.6836 58.3121 29.8034 58.4465C32.1357 58.9228 32.038 58.4465 33.2713 59.4844C34.5046 60.5224 34.3092 59.7775 35.4814 59.3501C35.8272 59.2275 36.1894 59.1575 36.556 59.1425C37.2832 58.7733 38.0754 58.5493 38.8883 58.4832C42.2585 57.8971 42.4538 58.2267 43.3696 58.4099C44.233 58.5878 45.1286 58.5244 45.9583 58.2267C46.8604 57.9605 47.7837 57.7725 48.718 57.665V54.1239C48.718 54.1239 30.7681 47.6766 28.5213 47.0416C27.3735 46.6631 17.214 46.834 7.97044 47.0416Z" fill="#64760D"/>
<path fill-rule="evenodd" clip-rule="evenodd" d="M7.89712 37.9813C7.25975 39.9635 6.85008 42.0118 6.67604 44.0867C6.67604 46.3579 6.61498 47.0051 7.51859 47.75C9.54363 49.2388 11.7463 50.4693 14.0758 51.4132C20.0811 54.927 26.7748 57.1013 33.6986 57.7873C41.9424 58.5753 50.2609 57.7795 58.2057 55.4428C66.7533 53.8798 72.0284 50.8515 72.8587 46.8952C73.5039 46.1393 74.0725 45.3213 74.556 44.453H73.0419C73.0419 38.8605 70.0625 34.7576 67.7668 34.3913C65.1781 34.086 7.89712 37.9813 7.89712 37.9813Z" fill="#552100"/>
<path fill-rule="evenodd" clip-rule="evenodd" d="M7.89712 37.9811C7.25975 39.9633 6.85008 42.0116 6.67604 44.0865C6.67604 46.3577 6.61498 47.0049 7.51859 47.7498C9.54363 49.2386 11.7463 50.4691 14.0758 51.413C17.3126 53.37 20.7945 54.8892 24.4306 55.931C24.4306 55.931 19.9736 53.8918 18.0932 52.8539C16.2127 51.816 16.2738 53.3667 15.7487 50.778C15.2236 48.1894 15.4923 48.7022 15.1748 47.591C14.8573 46.4798 14.3933 45.1489 15.4312 45.1489C16.4691 45.1489 16.4691 46.9561 18.7403 47.4201C19.9948 47.8407 21.3368 47.929 22.6356 47.6765C25.2854 47.4811 24.9068 46.1135 26.653 46.3822C28.3991 46.6508 29.376 47.2247 32.0379 47.9329C34.6999 48.6411 37.0322 50.7903 40.207 50.6559C42.1002 50.7141 43.9835 50.36 45.7263 49.618C46.6299 49.1662 49.8169 49.3616 51.3066 47.994C52.7964 46.6264 54.8111 44.8802 56.6916 44.8802C58.793 44.9541 60.8969 44.8479 62.9802 44.5627C63.8918 44.1861 64.8776 44.0231 65.8619 44.0865C67.2051 44.172 67.5837 47.0904 67.3272 48.9708C67.1563 50.1919 67.5104 51.5473 66.7045 52.8905C70.209 51.2909 72.3459 49.2273 72.8099 46.7851C73.4551 46.0292 74.0236 45.2112 74.5072 44.343H73.0419C73.0419 38.7504 70.0625 34.6475 67.7668 34.2812C65.1781 34.0858 7.89712 37.9811 7.89712 37.9811Z" fill="#461900"/>
<path fill-rule="evenodd" clip-rule="evenodd" d="M71.5034 49.6426C72.1555 48.8774 72.6085 47.963 72.8222 46.9806C73.4674 46.2247 74.0359 45.4066 74.5195 44.5384H73.042C73.1457 41.5132 72.1817 38.5478 70.319 36.1618C67.1442 35.8565 63.3466 35.8565 61.9668 36.3938C59.6345 37.2974 50.745 45.5764 50.745 45.5764L51.0136 45.9061C51.0136 45.9061 58.0104 43.0731 59.5612 42.719C61.112 42.3649 64.2624 43.1953 65.2759 42.719C66.2894 42.2428 69.0613 41.156 70.2335 43.4273C71.1576 45.3644 71.5936 47.4982 71.5034 49.6426Z" fill="#390F00"/>
<path fill-rule="evenodd" clip-rule="evenodd" d="M11.597 31.0333C8.87402 32.0101 7.8361 32.1322 6.92028 33.6952C6.00447 35.2582 7.83611 35.5757 6.66387 37.1387C5.49163 38.7017 3.68442 41.0217 5.62594 41.9375C7.56746 42.8534 12.3053 40.2524 15.5534 42.194C18.8014 44.1355 19.4486 47.7133 22.1716 47.2492C24.8946 46.7852 25.6761 45.3688 27.1658 43.8791C28.6556 42.3893 28.851 42.255 32.1601 42.3283C35.4692 42.4015 51.7829 39.2634 56.0811 39.4954C60.3793 39.7274 59.4757 40.7164 62.6505 41.3514C65.8253 41.9864 66.094 40.3746 69.0124 40.3746C71.9308 40.3746 72.7733 42.0596 72.5169 43.818C72.2604 45.5764 72.3826 46.6021 73.3594 46.7364C74.3363 46.8707 75.8871 42.7068 74.5805 40.0571C73.2739 37.4073 73.738 34.3546 69.6962 32.9504C65.6544 31.5461 11.597 31.0333 11.597 31.0333Z" fill="#E3360D"/>
<path fill-rule="evenodd" clip-rule="evenodd" d="M57.754 39.6539C60.1962 40.0447 59.9642 40.875 62.6384 41.3512C65.8254 41.9373 66.0818 40.3744 69.0002 40.3744C71.9186 40.3744 72.7611 42.0594 72.5047 43.8178C72.2483 45.5762 72.3704 46.6019 73.3473 46.7362C73.738 46.7362 74.2264 46.1501 74.5683 45.1854C74.5683 45.1854 73.8113 45.9425 73.1031 45.7227C72.3948 45.5029 74.1043 42.4868 72.5902 40.8384C71.076 39.1899 70.148 38.4817 68.1088 38.909C66.3016 39.2754 71.1249 37.2484 72.4681 34.9161C71.7554 33.9591 70.7535 33.2569 69.6108 32.9135C68.0507 32.5895 66.4655 32.4016 64.8729 32.3518C63.2123 33.2188 60.8434 34.6475 60.1229 36.2105C59.4025 37.7735 58.2058 38.5794 57.754 39.6539Z" fill="#C5300B"/>
<path fill-rule="evenodd" clip-rule="evenodd" d="M11.597 31.0333C8.87402 32.0101 7.8361 32.1322 6.92029 33.6952C6.00447 35.2582 7.83611 35.5757 6.66387 37.1387C5.49163 38.7017 3.68442 41.0217 5.62594 41.9375C7.56746 42.8534 12.3053 40.2524 15.5534 42.194C15.5534 42.194 15.6755 40.4967 13.1112 40.5943C10.5469 40.692 7.946 41.4735 7.00577 40.6676C6.06554 39.8617 7.51862 38.5918 7.61631 37.0044C7.714 35.417 7.26219 34.0249 9.49677 34.7331C11.7314 35.4414 18.4839 40.2524 21.4023 42.0596C24.3207 43.8668 25.4563 45.1856 24.8458 46.0038C24.7721 46.0997 24.7144 46.2069 24.6748 46.3212C25.6144 45.5968 26.4777 44.7785 27.2513 43.8791C27.7757 43.1963 28.5021 42.6963 29.3272 42.4504C28.4358 39.2878 27.056 35.246 24.9801 33.8173C23.9178 33.0847 22.538 32.12 21.036 31.1554C15.3458 31.0699 11.597 31.0333 11.597 31.0333Z" fill="#C5300B"/>
<path fill-rule="evenodd" clip-rule="evenodd" d="M14.2957 15.6231C14.2957 15.6231 2.40239 27.1745 2.74429 28.8596C3.0862 30.5447 37.5085 49.7523 41.1352 49.8867C44.7618 50.021 76.4733 33.2799 74.8981 29.8975C73.3229 26.5151 62.5407 16.1481 62.5407 16.1481L14.2957 15.6231Z" fill="#FBBD00"/>
<path fill-rule="evenodd" clip-rule="evenodd" d="M14.2957 15.6231C14.2957 15.6231 2.40239 27.1745 2.74429 28.8596C2.74429 29.0428 3.18389 29.4091 3.89211 29.9219C3.89211 29.9219 5.1132 26.4541 7.21346 25.5505C9.31372 24.6469 9.65563 32.1687 23.0875 37.7613C36.5195 43.3539 47.9366 41.3269 55.5195 37.8956C63.1024 34.4644 69.2079 28.7497 70.8319 28.7497C71.8454 28.7497 72.9566 30.5813 72.578 33.1334C74.2998 31.7047 75.2278 30.5569 74.9347 29.9097C73.3473 26.5395 62.5774 16.1603 62.5774 16.1603L14.2957 15.6231Z" fill="#F7A900"/>
<path fill-rule="evenodd" clip-rule="evenodd" d="M6.12661 30.447C5.8381 30.0104 5.70312 29.4903 5.74291 28.9685C5.78271 28.4467 5.99502 27.953 6.34639 27.5653C7.12788 26.9181 8.20245 28.4689 9.43575 29.6045C10.669 30.7401 19.7783 38.8847 30.2918 41.3513C36.8677 43.0621 43.7775 43.0158 50.3298 41.217C53.3215 40.5087 44.3709 48.287 41.5746 48.1039C38.7784 47.9207 19.412 39.2388 6.12661 30.447Z" fill="#FDC800"/>
<path fill-rule="evenodd" clip-rule="evenodd" d="M32.9904 44.0745C32.9904 44.0745 39.7675 47.6767 41.9654 46.9318C44.1634 46.187 47.0573 43.9768 46.0927 43.7204C45.128 43.464 37.2642 44.2332 32.5264 43.0732C27.7886 41.9132 23.9789 39.6298 24.2597 40.1182C24.5406 40.6066 32.9904 44.0745 32.9904 44.0745Z" fill="#FFD552"/>
<path fill-rule="evenodd" clip-rule="evenodd" d="M54.4814 39.5074C59.0207 37.253 63.4389 34.7627 67.718 32.0466C69.7938 30.4958 71.7964 31.2041 69.2688 33.7317C66.7411 36.2593 54.7379 42.8166 52.3323 43.5004C49.9268 44.1842 62.6505 36.296 54.4814 39.5074Z" fill="#FDC800"/>
<path fill-rule="evenodd" clip-rule="evenodd" d="M33.4666 38.9336C15.2114 36.638 -1.94481 22.1071 15.8342 6.77029C25.6883 -1.7773 42.7713 -0.482944 51.038 1.33647C59.3047 3.15588 70.844 10.922 70.5753 21.0692C70.3067 31.2164 54.3471 40.9362 33.4666 38.9336Z" fill="#F39620"/>
<path fill-rule="evenodd" clip-rule="evenodd" d="M33.4666 38.9336C15.2114 36.6379 -1.94481 22.107 15.8342 6.77023C17.3938 5.43793 19.1223 4.31709 20.9749 3.43668C-5.33942 18.6025 21.4023 32.5473 44.493 30.8378C65.6421 29.287 72.0284 16.5999 62.9313 7.17319C67.3639 10.7143 70.7096 15.5376 70.5509 21.0691C70.2456 31.2163 54.3471 40.9361 33.4666 38.9336Z" fill="#E58500"/>
<path fill-rule="evenodd" clip-rule="evenodd" d="M33.4667 38.9335C19.815 37.224 6.81049 28.6642 8.52001 18.0408C8.43453 18.7979 7.88504 26.3075 18.2887 32.4007C29.2784 38.8236 67.0343 43.0974 70.4289 18.8101C70.5416 19.5575 70.5866 20.3136 70.5632 21.0691C70.2458 31.2163 54.3472 40.9361 33.4667 38.9335Z" fill="#D47800"/>
<path fill-rule="evenodd" clip-rule="evenodd" d="M17.1895 10.8609C14.8084 30.5082 70.9171 25.1476 63.7494 10.6045C58.1813 -0.690495 19.07 -4.59797 17.1895 10.8609Z" fill="#F5A13C"/>
<path fill-rule="evenodd" clip-rule="evenodd" d="M32.8193 5.53691C32.8193 5.53691 29.5102 6.45274 29.6934 7.6494C29.8765 8.84606 33.1979 6.90452 32.8193 5.53691Z" fill="#F8B462"/>
<path fill-rule="evenodd" clip-rule="evenodd" d="M46.5688 8.78519C46.5688 8.78519 49.5849 10.3726 48.7057 11.1175C47.8266 11.8623 46.5688 8.78519 46.5688 8.78519Z" fill="#F8B462"/>
<path fill-rule="evenodd" clip-rule="evenodd" d="M41.3182 4.09614C41.3182 4.09614 44.9815 5.87892 45.4333 4.74331C45.8851 3.6077 42.7591 3.49781 41.3182 4.09614Z" fill="#F8B462"/>
<path fill-rule="evenodd" clip-rule="evenodd" d="M36.214 13.8648C36.214 13.8648 35.1517 16.0627 34.0161 15.6109C32.8805 15.1591 34.8586 13.8648 36.214 13.8648Z" fill="#F8B462"/>
<path fill-rule="evenodd" clip-rule="evenodd" d="M51.7584 17.2839C51.7584 17.2839 52.1492 18.8103 53.0894 18.505C54.0297 18.1997 52.6376 17.2229 51.7584 17.2839Z" fill="#F8B462"/>
<path fill-rule="evenodd" clip-rule="evenodd" d="M55.2629 10.7265C55.2629 10.7265 56.0078 8.35758 56.9114 8.9437C57.815 9.52982 56.1055 10.9585 55.2629 10.7265Z" fill="#F8B462"/>
<path fill-rule="evenodd" clip-rule="evenodd" d="M24.1864 7.35631C24.1864 7.35631 21.268 8.19885 21.6221 9.39551C21.9762 10.5922 24.1864 7.35631 24.1864 7.35631Z" fill="#F8B462"/>
<path fill-rule="evenodd" clip-rule="evenodd" d="M24.7969 13.0712C24.7969 13.0712 23.7345 15.5988 24.9678 15.8186C26.2011 16.0384 24.7969 13.0712 24.7969 13.0712Z" fill="#F8B462"/>
<path fill-rule="evenodd" clip-rule="evenodd" d="M19.4119 63.0499C19.4119 63.0499 15.651 60.3269 16.3592 59.1546C17.0674 57.9824 19.4729 58.5075 22.2692 58.7028C25.0655 58.8982 24.7969 57.9214 26.9337 59.9239C27.9801 60.9249 29.2519 61.6594 30.6419 62.0653C32.0318 62.4712 33.4991 62.5367 34.9196 62.2562C38.2898 61.7311 41.0251 59.6553 44.8471 59.985C48.669 60.3147 57.6196 61.5357 57.4975 63.6482C57.3754 65.7607 48.8644 67.6534 39.7185 67.5923C30.5726 67.5313 26.8117 66.3712 19.4119 63.0499Z" fill="#F39620"/>
<path fill-rule="evenodd" clip-rule="evenodd" d="M19.4364 51.3397C18.3985 50.6925 18.3375 48.9952 20.1569 49.386C21.9763 49.7767 22.599 50.3628 24.3085 49.6546C26.0181 48.9464 27.752 47.8596 30.1087 49.1784C32.4654 50.4972 33.7719 52.0479 36.6293 52.3044C39.4866 52.5608 41.9532 53.2812 40.2925 54.4535C38.6318 55.6257 35.9455 57.494 32.1845 56.5904C28.4236 55.6868 22.8799 54.2581 19.4364 51.3397Z" fill="#652B00"/>
<path fill-rule="evenodd" clip-rule="evenodd" d="M45.9705 52.0479C48.7668 51.4008 48.4127 52.4387 50.5862 50.8269C52.7597 49.215 53.3703 47.2613 54.7379 47.7131C56.1055 48.1649 55.0554 49.0196 56.6794 50.375C58.3034 51.7305 59.7932 53.037 56.5451 53.8185C53.297 54.6 51.2944 55.6379 47.7899 55.699C44.2854 55.76 45.5797 53.4278 44.029 52.7806C42.4782 52.1334 44.2244 51.7183 45.9705 52.0479Z" fill="#652B00"/>
<path fill-rule="evenodd" clip-rule="evenodd" d="M60.2449 46.602C63.1633 46.2723 65.1292 44.9169 65.2391 46.602C65.349 48.287 66.1549 48.6778 65.5078 49.9722C64.8606 51.2665 65.7642 52.6341 63.6883 51.9869C61.6125 51.3398 58.3034 46.3455 60.2449 46.602Z" fill="#652B00"/>
<path fill-rule="evenodd" clip-rule="evenodd" d="M9.19156 39.5076C8.15364 38.8604 9.4602 39.5809 9.08166 37.908C8.70313 36.2351 10.5592 36.3572 15.1871 38.7628C19.815 41.1683 23.6248 45.8939 21.8664 46.0893C20.108 46.2846 18.5206 44.2698 17.556 42.7435C16.5913 41.2171 15.4435 39.8862 13.7218 39.7885C12.0001 39.6908 10.3882 40.1792 9.19156 39.5076Z" fill="#E5390D"/>
<path fill-rule="evenodd" clip-rule="evenodd" d="M70.7219 38.2009C71.7824 38.6212 72.6515 39.4164 73.1641 40.4355C73.8479 42.0229 73.3595 43.9034 73.8479 44.0988C74.3363 44.2941 75.4353 42.7067 74.5928 41.4368C73.908 40.4999 73.4029 39.4441 73.103 38.323C72.9321 37.5171 73.3595 36.1129 72.4436 36.5403C71.5278 36.9677 70.2701 37.9323 70.7219 38.2009Z" fill="#E63F14"/>
<path fill-rule="evenodd" clip-rule="evenodd" d="M26.3478 54.0873C25.1267 53.4767 24.0399 52.9272 24.8214 52.0847C25.6029 51.2421 24.9802 50.0699 26.2501 50.3874C27.52 50.7049 28.4847 51.6085 30.0721 52.1091C31.6595 52.6098 34.3947 52.5609 34.0284 53.8675C33.6621 55.174 32.7096 55.3572 30.7925 55.0031C28.8754 54.649 26.3478 54.0873 26.3478 54.0873Z" fill="#803F10"/>
<path fill-rule="evenodd" clip-rule="evenodd" d="M49.3773 52.6952C51.4166 52.3411 52.137 52.1457 52.7231 51.4741C53.3092 50.8025 53.6267 50.2531 54.628 50.9979C55.6293 51.7428 56.2521 53.1714 53.9808 53.7209C51.7096 54.2704 47.2649 53.0493 49.3773 52.6952Z" fill="#803F10"/>
<path fill-rule="evenodd" clip-rule="evenodd" d="M5.45502 55.6136C4.45374 54.9054 3.01286 54.6123 3.44024 53.6355C3.86762 52.6586 4.66133 52.5609 4.83228 51.8161C5.00323 51.0712 6.49295 50.8758 7.3355 51.8161C8.17805 52.7563 10.0341 53.0371 10.9988 53.5988C11.9634 54.1605 11.5727 54.6978 10.6324 54.8199C9.96582 54.9656 9.32955 55.2259 8.75194 55.5892C8.27514 55.9403 7.69956 56.1317 7.10744 56.1361C6.51533 56.1405 5.93698 55.9576 5.45502 55.6136Z" fill="#829B13"/>
<path fill-rule="evenodd" clip-rule="evenodd" d="M14.5887 54.4659C15.126 54.9299 15.9197 55.7603 16.921 55.6259C17.664 55.5533 18.4076 55.7577 19.0091 56.1998C19.5463 56.4929 20.2302 56.2609 20.2302 56.7005C20.1727 56.9579 20.0334 57.1899 19.8331 57.3616C19.6327 57.5333 19.3822 57.6355 19.119 57.6529C18.5695 57.6529 17.385 57.8483 16.7379 57.8849C16.0907 57.9215 15.9563 58.178 15.6022 57.4576C15.2481 56.7371 15.3824 56.5661 14.601 56.1388C13.8195 55.7114 13.7096 55.7114 13.4898 55.2474C13.27 54.7834 13.563 53.7332 14.5887 54.4659Z" fill="#829B13"/>
<path fill-rule="evenodd" clip-rule="evenodd" d="M70.5143 59.1182C71.2592 59.1182 73.1396 58.6297 73.103 57.6529C73.0664 56.676 73.274 56.9447 73.3717 56.1998C73.4693 55.4549 74.4096 54.6124 73.6525 53.8675C72.8954 53.1226 72.9443 52.6464 72.004 52.8907C71.0638 53.1349 69.8916 53.1104 69.9648 53.9652C70.0381 54.82 70.9295 55.577 70.1236 56.5539C69.3177 57.5308 69.281 57.8849 68.6949 58.2146C68.1088 58.5443 67.2296 59.1182 67.8524 59.4357C68.4751 59.7531 69.3787 59.0449 70.5143 59.1182Z" fill="#839D13"/>
<path fill-rule="evenodd" clip-rule="evenodd" d="M74.6293 50.1308C74.8613 49.386 74.8858 49.3249 75.5085 49.7767C76.1313 50.2285 76.8395 50.6193 76.9982 51.1688C77.157 51.7183 77.1325 52.7928 76.29 52.4631C75.4475 52.1334 74.434 51.1688 74.6293 50.1308Z" fill="#839D13"/>
<path fill-rule="evenodd" clip-rule="evenodd" d="M58.3279 58.5687C58.6942 58.874 59.549 59.6311 59.9397 59.5945C60.3305 59.5578 60.9166 59.4113 61.6126 59.3258C62.1478 59.2188 62.7032 59.2829 63.2 59.509C63.5997 60.0098 64.1463 60.3728 64.763 60.5469C65.7032 60.7423 65.5078 60.376 66.1062 60.4737C66.7045 60.5713 67.6325 61.5604 67.1441 61.6947C66.6557 61.8291 66.4969 61.7558 65.7154 61.3528C65.0395 60.9121 64.2512 60.6747 63.4442 60.669C62.4453 60.8792 61.4225 60.9531 60.4037 60.8888C59.4635 60.7179 59.1826 60.8888 58.8041 60.2905C58.4256 59.6921 57.2045 58.007 58.3279 58.5687Z" fill="#839D13"/>
<path fill-rule="evenodd" clip-rule="evenodd" d="M86.7792 55.8091C86.7792 55.8091 74.5683 54.82 70.7585 53.9286C66.9488 53.0372 56.5085 52.4511 56.5085 52.4511C56.5085 52.4511 51.6242 58.1414 52.3446 59.8509C52.8162 60.7315 53.4806 61.4943 54.2883 62.0821C55.0961 62.6699 56.0261 63.0676 57.0091 63.2455C58.5721 63.4164 72.8832 65.2725 78.4392 64.9672C83.9951 64.6619 90.0517 64.7108 90.8698 64.0514C91.6879 63.392 92.7991 62.9036 92.3473 61.6947C91.8955 60.4858 85.3016 57.543 86.7792 55.8091Z" fill="#F39600"/>
<path fill-rule="evenodd" clip-rule="evenodd" d="M84.8743 55.6503C81.2843 55.3329 73.6037 54.6002 70.7585 53.9286C66.9976 53.025 56.5085 52.4511 56.5085 52.4511C56.5085 52.4511 51.6242 58.1414 52.3446 59.8509C52.8162 60.7315 53.4806 61.4943 54.2883 62.0821C55.0961 62.6699 56.0262 63.0676 57.0091 63.2455C58.5721 63.4164 72.8832 65.2725 78.4392 64.9672C81.8582 64.7841 85.4848 64.7352 87.9392 64.5642C88.1346 63.4653 87.4508 62.4762 85.1307 62.3541C79.355 62.0366 75.6307 60.5957 77.7065 58.2879C79.7823 55.98 84.8743 55.6503 84.8743 55.6503Z" fill="#ED8600"/>
<path fill-rule="evenodd" clip-rule="evenodd" d="M65.9597 53.2082C61.5882 52.732 56.4596 52.4511 56.4596 52.4511C56.4596 52.4511 53.1627 56.3342 52.3934 58.642C55.9712 60.1073 65.9597 53.2082 65.9597 53.2082Z" fill="#F39600"/>
<path fill-rule="evenodd" clip-rule="evenodd" d="M52.308 59.1548C52.2445 59.3825 52.2445 59.6232 52.308 59.8509C52.7796 60.7315 53.444 61.4943 54.2518 62.0821C55.0595 62.6699 55.9896 63.0676 56.9726 63.2455C58.5356 63.4164 72.8466 65.2725 78.4026 64.9672C83.9585 64.6619 90.0151 64.7108 90.8332 64.0514C91.6513 63.392 92.3229 63.099 92.4084 62.3419C85.5459 62.928 59.1827 60.6568 55.7759 60.3027C54.5416 60.219 53.3485 59.8241 52.308 59.1548Z" fill="#E27700"/>
<path fill-rule="evenodd" clip-rule="evenodd" d="M83.0548 36.3937C83.0548 36.3937 88.8061 40.8018 88.8061 42.2183C88.8061 43.6347 89.0992 45.8815 88.1223 46.8706C87.1455 47.8597 69.8061 63.8559 67.3639 66.6766C64.9217 69.4973 60.6602 73.7833 59.8787 73.5024C58.4165 73.2238 56.9821 72.8152 55.5927 72.2813C54.3716 71.6097 52.4545 70.5596 52.6254 69.7293C53.2614 67.7507 54.2185 65.8901 55.4583 64.2222C56.5085 63.1843 70.3434 50.1797 73.1641 47.127C75.9848 44.0743 79.6236 40.0081 80.8935 38.8237C81.6817 38.0766 82.4047 37.2636 83.0548 36.3937Z" fill="#F7AB00"/>
<path fill-rule="evenodd" clip-rule="evenodd" d="M78.9887 55.3817C74.0067 60.0462 68.6339 65.1504 67.4006 66.6279C65.0684 69.4486 60.6969 73.7346 59.9154 73.4537C58.4532 73.1751 57.0189 72.7665 55.6294 72.2326C54.4083 71.561 52.4912 70.5109 52.6622 69.6806C53.2981 67.702 54.2552 65.8414 55.4951 64.1735C56.2399 63.4286 63.6031 56.4929 68.7438 51.5109C66.2406 54.356 64.0549 57.1034 63.4688 58.6664C61.8814 62.8669 66.5703 63.6484 75.2034 55.5282C78.0729 52.8174 79.062 53.4035 78.9887 55.3817Z" fill="#F5A100"/>
<path fill-rule="evenodd" clip-rule="evenodd" d="M88.4763 41.4492C88.6514 41.6712 88.7613 41.9376 88.7938 42.2184C88.7938 43.6471 89.0868 45.8817 88.11 46.8708C87.1331 47.8598 69.7937 63.856 67.3516 66.6767C64.9094 69.4974 60.6478 73.7834 59.8663 73.5026C59.2924 73.3072 57.9126 73.0752 56.7281 72.6967L60.3914 69.5341C61.6857 68.4351 72.1138 58.1292 75.4474 55.3207C78.7809 52.5122 83.824 48.8245 86.2173 46.4434C86.9052 45.8015 87.459 45.0296 87.8467 44.1724C88.2345 43.3152 88.4485 42.3896 88.4763 41.4492Z" fill="#F39600"/>
<path fill-rule="evenodd" clip-rule="evenodd" d="M76.7907 57.494C72.5169 61.5114 68.4507 65.4067 67.4005 66.6766C65.0683 69.4973 60.6968 73.7833 59.9153 73.5024C59.3414 73.3071 57.9616 73.075 56.7771 72.6965L60.4403 69.5339C61.2585 68.8379 65.7398 64.442 69.7694 60.6078C69.8557 60.7031 69.9111 60.8223 69.9282 60.9497C70.2579 63.1965 74.8247 59.289 76.7907 57.494Z" fill="#E98A00"/>
<path fill-rule="evenodd" clip-rule="evenodd" d="M82.3588 39.1167C83.6077 39.9053 84.7314 40.8766 85.6923 41.9985C86.9134 43.0852 87.3774 43.0974 84.9841 45.2832C82.5908 47.4689 72.6145 56.6026 69.3787 58.0923C66.1428 59.5821 64.3112 56.163 67.8035 52.5853C71.2958 49.0075 82.3588 39.1167 82.3588 39.1167Z" fill="#F9B602"/>
<path fill-rule="evenodd" clip-rule="evenodd" d="M86.9868 39.7639C86.9868 39.7639 88.2811 42.6579 87.4752 43.8423C84.0912 47.549 80.4822 51.0438 76.6686 54.307C72.7367 57.7016 64.8729 65.2968 64.6532 65.4677C64.4334 65.6387 83.2625 49.2761 85.033 48.0551C86.8036 46.834 88.8306 43.1707 88.794 42.2549C88.7573 41.3391 86.9868 39.7639 86.9868 39.7639Z" fill="#FCC957"/>
<path fill-rule="evenodd" clip-rule="evenodd" d="M82.0292 73.4047C82.0292 73.4047 66.2894 74.699 59.1705 74.931C52.0516 75.163 47.9732 74.7234 47.0818 73.9786C46.1904 73.2337 43.4185 71.744 43.1621 70.8038C43.1402 68.7813 43.3657 66.7637 43.8337 64.796C44.0657 64.5396 63.1635 65.8828 68.4263 65.0036C73.6892 64.1244 80.6371 63.0132 81.3332 63.7215C82.0292 64.4297 83.7753 65.5531 83.9951 66.6032C84.2149 67.6534 82.0292 73.4047 82.0292 73.4047Z" fill="#F7AB00"/>
<path fill-rule="evenodd" clip-rule="evenodd" d="M82.0291 73.4049C82.0291 73.4049 66.2893 74.6992 59.1704 74.9312C56.3253 75.0289 53.9686 75.0167 52.1003 74.9312C52.1003 74.9312 67.5593 74.3451 71.4301 73.2217C75.3009 72.0983 75.7649 67.678 62.5406 68.0565C50.3298 68.3984 62.2842 65.6144 55.5072 65.187C59.812 65.4421 64.1297 65.385 68.4262 65.0161C73.7013 64.1247 80.6371 63.0257 81.3331 63.7339C82.0291 64.4421 83.7753 65.5655 83.995 66.6157C84.2148 67.6658 82.0291 73.4171 82.0291 73.4171V73.4049ZM52.7231 65.0771C52.9673 65.0771 53.236 65.0771 53.529 65.0771H52.7231Z" fill="#F5A100"/>
<path fill-rule="evenodd" clip-rule="evenodd" d="M43.858 64.796C44.5052 64.5762 63.2244 65.8828 68.4262 65.0036C73.6281 64.1244 80.6371 63.0132 81.3331 63.7215C82.0291 64.4297 83.7753 65.5531 83.995 66.6032C84.0081 66.6759 84.0081 66.7503 83.995 66.823C82.7541 66.2913 81.3733 66.1798 80.0632 66.5055C76.9372 67.1405 55.8002 68.386 53.8343 68.8134C51.8684 69.2408 50.11 69.656 49.0354 68.7524C48.2173 68.0197 45.0425 65.9438 43.858 64.796Z" fill="#F9B602"/>
<path fill-rule="evenodd" clip-rule="evenodd" d="M52.7231 65.0771H53.5046C53.2443 65.0907 52.9835 65.0907 52.7231 65.0771ZM55.5072 65.1747C62.2842 65.651 50.2932 68.3862 62.5406 68.0443C69.4398 67.5192 78.1583 66.8965 80.0754 66.5057C81.3856 66.18 82.7663 66.2915 84.0073 66.8232C84.0203 66.7505 84.0203 66.6761 84.0073 66.6034C83.8119 65.5533 82.0047 64.4299 81.3453 63.7217C80.686 63.0134 73.7136 64.1124 68.4385 65.0038C64.1373 65.3652 59.8155 65.4142 55.5072 65.1503V65.1747Z" fill="#F7AB00"/>
<path fill-rule="evenodd" clip-rule="evenodd" d="M47.79 74.3205C47.5336 74.2545 47.2929 74.1383 47.0818 73.9786C46.1782 73.246 43.4185 71.744 43.1621 70.8038C43.1402 68.7813 43.3657 66.7637 43.8337 64.796C44.1949 64.7576 44.5592 64.7576 44.9205 64.796C46.5691 65.7838 48.0558 67.0193 49.3286 68.4593C49.9025 69.3141 48.486 72.6598 47.79 74.3205Z" fill="#FCC443"/>
<path fill-rule="evenodd" clip-rule="evenodd" d="M47.9608 73.9176C48.5137 72.5104 49.3116 71.2123 50.3175 70.0835C51.4043 69.2653 60.6601 68.5937 63.6884 68.3251C66.7167 68.0565 78.0483 66.7865 77.4011 66.8476C76.754 66.9086 50.3297 68.6303 49.9756 68.3006C49.6215 67.971 45.5919 64.5153 45.714 65.2724C45.8361 66.0295 49.2552 68.4838 49.2552 69.3874C48.946 70.9298 48.5131 72.4448 47.9608 73.9176Z" fill="#FDD06B"/>
<path fill-rule="evenodd" clip-rule="evenodd" d="M90.882 61.8167C88.029 61.8544 85.176 61.7444 82.3344 61.487C79.8922 61.1207 76.6686 59.4845 79.4526 58.1046C82.2367 56.7248 85.558 55.8334 85.6557 57.0667C85.7534 58.3 86.0953 60.8032 90.882 61.8167Z" fill="#F5A100"/>
<path fill-rule="evenodd" clip-rule="evenodd" d="M32.6363 49.7279C33.4417 50.3522 34.3399 50.8466 35.2982 51.1932C36.9696 51.8083 38.7222 52.1744 40.5 52.28C42.1119 52.4265 43.797 51.5107 44.7372 51.5107C46 51.5332 47.2591 51.3685 48.4737 51.0222C49.8291 50.6071 50.8426 49.9233 50.806 49.4715C50.7694 49.0197 49.9024 49.1784 48.4981 49.8256C47.0939 50.4728 43.6993 50.5705 43.1498 50.8635C41.8983 51.4961 40.4705 51.6897 39.0958 51.413C36.5682 51.1566 32.0257 48.5557 32.6363 49.7279Z" fill="#803F10"/>
</svg>
