<svg width="124" height="75" viewBox="0 0 124 75" fill="none" xmlns="http://www.w3.org/2000/svg">
<path d="M61.6491 75C95.6969 75 123.298 65.9449 123.298 54.7749C123.298 43.6048 95.6969 34.5497 61.6491 34.5497C27.6012 34.5497 0 43.6048 0 54.7749C0 65.9449 27.6012 75 61.6491 75Z" fill="#2E0F00"/>
<path d="M61.6491 73.5835C95.6969 73.5835 123.298 64.5284 123.298 53.3583C123.298 42.1883 95.6969 33.1332 61.6491 33.1332C27.6012 33.1332 0 42.1883 0 53.3583C0 64.5284 27.6012 73.5835 61.6491 73.5835Z" fill="#58320F"/>
<path d="M61.6489 71.9314C92.9022 71.9314 118.238 63.6161 118.238 53.3585C118.238 43.101 92.9022 34.7856 61.6489 34.7856C30.3956 34.7856 5.05981 43.101 5.05981 53.3585C5.05981 63.6161 30.3956 71.9314 61.6489 71.9314Z" fill="#6D421F"/>
<path d="M61.6492 65.5142C84.2418 65.5142 102.557 59.7747 102.557 52.6946C102.557 45.6145 84.2418 39.875 61.6492 39.875C39.0565 39.875 20.7416 45.6145 20.7416 52.6946C20.7416 59.7747 39.0565 65.5142 61.6492 65.5142Z" fill="#462200"/>
<path fill-rule="evenodd" clip-rule="evenodd" d="M72.4476 40.3324C89.7961 41.8076 102.557 46.7939 102.557 52.6947C102.52 53.4096 102.342 54.1101 102.034 54.7558C101.725 55.4015 101.291 55.9796 100.757 56.4565C108.236 45.3482 73.318 40.4504 72.4476 40.3324Z" fill="#83593A"/>
<path fill-rule="evenodd" clip-rule="evenodd" d="M23.9724 39.1817C17.8797 40.8192 2.9506 45.7907 2.83258 53.5945C2.65555 64.216 28.1915 69.9694 52.2817 71.5478C54.3912 71.6806 55.2321 71.7691 53.9782 71.5478C32.0123 67.2402 -19.5169 59.3626 23.9724 39.1817Z" fill="#83593A"/>
<path fill-rule="evenodd" clip-rule="evenodd" d="M100.049 39.1817C106.156 40.8192 121.071 45.7907 121.203 53.5945C121.366 64.216 95.8444 69.9694 71.7542 71.5478C69.6446 71.6806 68.8038 71.7691 70.0429 71.5478C92.0088 67.2402 143.553 59.3626 100.049 39.1817Z" fill="#83593A"/>
<path fill-rule="evenodd" clip-rule="evenodd" d="M50.8654 40.3324C33.5169 41.8076 20.7563 46.7939 20.7563 52.6947C20.7928 53.4096 20.9706 54.1101 21.2795 54.7558C21.5884 55.4015 22.0223 55.9796 22.5561 56.4565C15.1358 45.3482 50.0393 40.4504 50.8654 40.3324Z" fill="#83593A"/>
<path d="M61.6491 64.6145C80.0703 64.6145 95.0036 59.9383 95.0036 54.17C95.0036 48.4017 80.0703 43.7255 61.6491 43.7255C43.2279 43.7255 28.2946 48.4017 28.2946 54.17C28.2946 59.9383 43.2279 64.6145 61.6491 64.6145Z" fill="#2E0F00"/>
<path fill-rule="evenodd" clip-rule="evenodd" d="M8.60041 19.1778C8.60041 19.1778 8.39388 39.1964 21.6708 51.1161C39.6536 67.3434 82.4643 67.3434 100.462 51.1161C113.739 39.1964 113.517 19.1778 113.517 19.1778L61.0589 23.0871L8.60041 19.1778Z" fill="#5C3510"/>
<path fill-rule="evenodd" clip-rule="evenodd" d="M65.4698 63.1243C79.1597 62.4162 92.3629 58.4184 100.491 51.1161C113.768 39.1964 113.547 19.1778 113.547 19.1778L61.0884 23.0871L57.2676 22.792C53.5796 25.831 49.5375 34.1069 60.6311 37.8687C70.0134 41.0551 88.365 39.1226 91.3302 43.563C96.7442 51.7209 77.2419 61.6344 65.4403 63.1243H65.4698Z" fill="#58320F"/>
<path fill-rule="evenodd" clip-rule="evenodd" d="M84.795 59.6723C87.7454 58.1971 97.7031 52.6355 102.881 43.7547C109.018 33.2365 91.4629 36.6885 82.1396 36.4819C72.8163 36.2754 74.2325 28.0732 79.4105 26.1554C81.638 25.3588 86.7865 23.087 92.1563 20.7119L113.517 19.1187C113.517 19.1187 113.724 39.1373 100.462 51.057C95.8884 54.9768 90.5547 57.9099 84.795 59.6723Z" fill="#462300"/>
<path fill-rule="evenodd" clip-rule="evenodd" d="M8.60041 19.1778C8.60041 19.1778 8.39388 39.1964 21.6708 51.1161C29.5189 58.1676 42.0877 62.1359 55.2614 63.0358C43.4597 61.2803 24.6655 51.6029 30.0205 43.563C32.9709 39.1374 51.3373 41.0551 60.7196 37.8687C71.7542 34.1217 67.8154 25.9342 64.1569 22.851L61.0589 23.0871L8.60041 19.1778Z" fill="#58320F"/>
<path fill-rule="evenodd" clip-rule="evenodd" d="M8.60041 19.1778C8.60041 19.1778 8.39388 39.1964 21.6708 51.1161C26.6189 55.3051 32.4171 58.3703 38.6652 60.1001C38.5029 60.0116 25.8161 54.1993 19.7235 43.7548C13.6309 33.3103 31.1416 36.6885 40.465 36.482C49.7883 36.2755 48.3574 28.0733 43.1941 26.1555C40.9813 25.3589 35.8181 23.1166 30.5368 20.7415L8.60041 19.1778Z" fill="#462300"/>
<path fill-rule="evenodd" clip-rule="evenodd" d="M61.0591 36.6887C89.0881 36.6887 112.072 28.8258 112.072 19.1779C112.072 9.53004 89.2209 1.6524 61.0591 1.6524C32.8973 1.6524 10.061 9.53004 10.061 19.1779C10.061 28.8258 32.9711 36.6887 61.0591 36.6887Z" fill="#462200"/>
<path fill-rule="evenodd" clip-rule="evenodd" d="M97.0836 6.77133C106.333 9.94304 112.072 14.3244 112.072 19.1779C112.072 24.0313 106.171 28.5602 96.6116 31.7319C92.3482 30.419 89.0437 29.2241 89.0437 29.2241C89.0437 29.2241 61.9293 12.1854 76.3274 12.2886C90.7255 12.3919 105.227 19.1484 103.737 14.8703C102.247 10.5921 95.1216 7.89248 95.1216 7.89248L97.0836 6.77133Z" fill="#2E0F00"/>
<path fill-rule="evenodd" clip-rule="evenodd" d="M25.5065 31.7319C15.9766 28.5455 10.061 24.1051 10.061 19.1779C10.061 14.2507 15.7849 9.94304 25.0344 6.77133L26.9375 7.89248C26.9375 7.89248 19.8859 10.6069 18.4107 14.8407C16.9355 19.0746 31.4221 12.3624 45.8202 12.2591C60.2182 12.1559 33.1038 29.1945 33.1038 29.1945C33.1038 29.1945 29.7551 30.419 25.5065 31.7319Z" fill="#2E0F00"/>
<path fill-rule="evenodd" clip-rule="evenodd" d="M34.6378 7.15475C43.2832 5.52224 52.0434 4.57028 60.8376 4.3076C74.7193 3.95355 89.2207 6.93348 93.1595 8.73323C97.0983 10.533 96.4935 14.0883 84.1755 11.6837C71.8574 9.27906 62.0473 8.51194 45.2151 10.4297C28.3829 12.3475 26.3472 9.51509 34.6378 7.15475Z" fill="#532C06"/>
<path fill-rule="evenodd" clip-rule="evenodd" d="M109.874 24.223C103.56 31.4368 84.0722 36.6885 61.0147 36.6885C37.9571 36.6885 18.4843 31.4368 12.1704 24.223C18.5876 16.8469 38.0309 11.4772 61.0147 11.4772C83.9985 11.4772 103.501 16.8322 109.874 24.223Z" fill="#B35601"/>
<path fill-rule="evenodd" clip-rule="evenodd" d="M109.874 24.223C105.713 28.9731 95.8591 32.8677 83.0247 34.9772C73.0375 35.0658 63.9502 34.8592 63.9502 34.8592C63.9502 34.8592 89.0288 32.3809 94.8412 26.3473C100.653 20.3137 83.9983 12.4803 57.0167 11.5214C58.3297 11.5214 59.6721 11.5214 61.0145 11.5214C84.0574 11.4771 103.501 16.8322 109.874 24.223Z" fill="#A14F01"/>
<path fill-rule="evenodd" clip-rule="evenodd" d="M39.1965 35.0068C26.3031 32.8972 16.3749 28.9879 12.2148 24.223C18.632 16.8469 38.0753 11.4772 61.0591 11.4772H62.3278C34.3873 12.1705 17.0978 20.3284 22.8806 26.3473C28.6635 32.3662 53.8601 34.8593 53.8601 34.8593C53.8601 34.8593 47.2511 35.0068 39.1965 35.0068Z" fill="#A14F01"/>
<path fill-rule="evenodd" clip-rule="evenodd" d="M61.0589 0C75.3242 0 88.2765 1.99153 97.6589 5.22224C107.587 8.62998 113.724 13.5424 113.724 19.1777C113.724 24.8131 107.587 29.7255 97.6589 33.1332C88.2765 36.3492 75.3242 38.3555 61.0589 38.3555C46.7936 38.3555 33.856 36.3492 24.4589 33.1332C14.5454 29.7255 8.40857 24.7983 8.40857 19.1777C8.40857 13.5572 14.5454 8.62998 24.4589 5.22224C33.856 1.99153 46.7936 0 61.0589 0ZM96.5967 8.3497C87.5242 5.23701 74.9701 3.30446 61.0589 3.30446C47.1476 3.30446 34.6378 5.23701 25.5358 8.3497C16.9943 11.3001 11.713 15.1209 11.713 19.1777C11.713 23.2346 16.9943 27.0701 25.5358 29.9911C34.6083 33.1185 47.1624 35.0363 61.0589 35.0363C74.9554 35.0363 87.5242 33.1185 96.5967 29.9911C105.123 27.0406 110.405 23.2198 110.405 19.1777C110.405 15.1357 105.123 11.2854 96.5967 8.3497Z" fill="#6D421F"/>
<path fill-rule="evenodd" clip-rule="evenodd" d="M66.4287 15.2538C67.1958 15.2538 81.1808 15.2538 84.8393 17.7174C88.4979 20.181 76.8879 19.0894 76.4011 21.2284C75.9143 23.3675 82.479 24.6214 82.0364 26.3179C81.5939 28.0144 78.3189 30.8763 65.7058 31.6434C53.0928 32.4105 47.2952 32.1892 46.4396 31.0681C45.5839 29.9469 70.4413 30.9058 68.7448 28.5602C67.0483 26.2146 62.2686 25.3738 64.5109 23.0134C66.7532 20.6531 74.8374 18.5878 72.3 18.0272C69.7627 17.4666 61.9293 15.6374 66.4287 15.2538Z" fill="#C56310"/>
<path fill-rule="evenodd" clip-rule="evenodd" d="M98.7505 18.2632C98.7505 18.2632 104.401 19.9155 104.887 22.6889C105.374 25.4623 95.1952 29.7699 92.6136 30.0649C90.032 30.36 105.005 25.0197 99.5766 21.5087C94.1478 17.9977 93.543 16.5667 98.7505 18.2632Z" fill="#974900"/>
<path fill-rule="evenodd" clip-rule="evenodd" d="M19.7383 19.4875C19.7383 19.4875 15.3126 20.771 14.9438 22.91C14.575 25.0491 22.5117 28.4126 24.518 28.6781C26.5242 28.9437 14.8701 24.7393 19.0892 22.0102C23.3083 19.281 23.7951 18.1599 19.7383 19.4875Z" fill="#974900"/>
<path fill-rule="evenodd" clip-rule="evenodd" d="M75.5162 20.7415C75.3714 20.9378 75.2687 21.162 75.2146 21.3999C75.1606 21.6378 75.1562 21.8843 75.202 22.1239C75.2477 22.3635 75.3424 22.5911 75.4803 22.7924C75.6181 22.9937 75.7961 23.1643 76.003 23.2936C77.5667 24.341 80.6646 25.1819 79.3517 27.0259C78.0388 28.8699 72.8608 29.9763 71.9756 29.1797C71.0905 28.3831 76.2685 26.7161 74.6605 25.1524C73.0525 23.5886 72.7428 22.7183 73.1853 21.6561C74.2777 20.2127 75.7481 19.0996 77.4339 18.4402C78.0093 18.6024 75.944 19.8269 75.5162 20.7415Z" fill="#D16D20"/>
<path fill-rule="evenodd" clip-rule="evenodd" d="M51.9274 13.3656C44.8828 13.7166 37.9423 15.2113 31.3777 17.7912C21.8921 21.8333 26.4505 26.6425 31.7023 28.7373C36.954 30.8321 37.3523 28.0292 34.0036 26.2295C30.6549 24.4297 31.9235 20.8597 36.3639 20.9629C40.8043 21.0662 49.7884 20.963 47.9886 20.0336C46.1889 19.1042 40.6863 17.511 44.035 16.6406C47.3838 15.7702 61.7966 12.3772 51.9274 13.3656Z" fill="#C56310"/>
<path fill-rule="evenodd" clip-rule="evenodd" d="M60.3067 15.1061C60.3067 15.1061 58.0644 16.1388 58.8315 17.2157C59.5986 18.2926 62.4458 19.3104 64.9537 19.5317C67.4615 19.753 75.6342 20.2546 77.2864 18.1451C78.9387 16.0355 76.6078 14.2652 75.5014 14.221C74.395 14.1767 60.3067 15.1061 60.3067 15.1061Z" fill="#A24D00"/>
<path fill-rule="evenodd" clip-rule="evenodd" d="M47.5606 22.9839C47.5606 22.9839 46.0854 26.4654 48.8293 27.4981C51.5732 28.5307 52.3255 28.2947 53.2549 28.87C54.1843 29.4453 55.5415 29.7256 58.9345 29.5043C62.3275 29.2831 68.007 27.8079 67.0186 26.1114C66.0302 24.4149 47.5606 22.9839 47.5606 22.9839Z" fill="#A24D00"/>
<path fill-rule="evenodd" clip-rule="evenodd" d="M24.6803 23.4412C24.6803 23.4412 27.2324 27.3505 29.6518 27.6308C32.0711 27.9111 31.9236 26.6424 33.8561 27.2177C36.6363 27.7964 39.5213 27.6129 42.2058 26.6866C44.5219 25.7425 44.8907 20.3285 41.1879 19.7384C37.4851 19.1483 24.6803 23.4412 24.6803 23.4412Z" fill="#A24D00"/>
<path fill-rule="evenodd" clip-rule="evenodd" d="M57.0759 27.8818C55.704 27.9703 54.2288 26.7163 53.1961 26.9819C52.7237 27.1462 52.2173 27.1878 51.7244 27.1026C51.2315 27.0175 50.7683 26.8084 50.3785 26.495C49.4048 25.7722 46.4544 22.2022 46.897 20.5057C47.3395 18.8092 53.0191 15.5047 55.0254 16.5226C56.9875 17.715 59.0509 18.7319 61.1918 19.5616C63.3751 20.2402 64.629 20.6827 65.1748 21.9367C65.7207 23.1906 63.6996 24.7101 62.4014 25.6837C61.1033 26.6573 58.8314 28.3686 57.0759 27.8818Z" fill="#E06F19"/>
<path fill-rule="evenodd" clip-rule="evenodd" d="M57.0759 27.8817C55.704 27.9702 54.2288 26.7163 53.1961 26.9818C52.7237 27.1462 52.2173 27.1877 51.7244 27.1026C51.2315 27.0174 50.7683 26.8083 50.3785 26.495C49.4048 25.7722 46.4544 22.2022 46.897 20.5057C47.6895 19.1954 48.8702 18.1642 50.2752 17.5552C50.1572 17.5552 48.2984 18.7797 48.3869 19.9893C48.4754 21.199 51.5144 22.6152 52.5175 22.6595C53.6013 22.5717 54.6919 22.6868 55.7335 22.9988C56.8399 23.4708 57.8135 24.6805 59.3182 25.0346C60.3083 25.2448 61.3349 25.208 62.3074 24.9276C63.2799 24.6472 64.1684 24.1317 64.8945 23.4266C64.1846 24.2867 63.3607 25.0461 62.4457 25.6837C61.1918 26.6426 58.8314 28.3685 57.0759 27.8817Z" fill="#D96A13"/>
<path fill-rule="evenodd" clip-rule="evenodd" d="M57.0758 27.8817C55.7038 27.9702 54.2286 26.7163 53.1959 26.9818C52.7235 27.1462 52.2171 27.1877 51.7242 27.1026C51.2313 27.0174 50.7682 26.8083 50.3783 26.495C49.8349 26.0578 49.3403 25.5632 48.9031 25.0198C48.9916 25.123 50.3783 26.6573 51.765 26.3622C53.1517 26.0672 53.845 23.4118 54.6269 23.4118C55.4088 23.4118 58.9198 27.5424 62.8143 25.3296L62.4013 25.6541C61.1916 26.6425 58.8313 28.3685 57.0758 27.8817Z" fill="#D06405"/>
<path fill-rule="evenodd" clip-rule="evenodd" d="M32.0562 26.6425C33.1331 26.731 33.974 24.9018 35.582 24.3264C37.1899 23.7511 40.4059 22.8512 40.8632 22.0399C41.3182 20.9756 41.3498 19.7779 40.9517 18.6911C40.5387 17.57 38.3111 13.1148 36.8359 12.2149C35.1478 11.4373 33.3343 10.9676 31.4809 10.8282C29.15 10.3857 28.1764 9.81035 27.0552 11.7724C25.9341 13.7344 22.187 19.6353 23.1607 21.4203C23.9997 22.8832 25.2244 24.0875 26.7012 24.9018C28.2414 26.0644 30.1268 26.6773 32.0562 26.6425Z" fill="#E06F19"/>
<path fill-rule="evenodd" clip-rule="evenodd" d="M32.0563 26.6425C33.1332 26.7311 33.9741 24.9018 35.5821 24.3265C37.1901 23.7511 40.406 22.8513 40.8633 22.0399C41.3183 20.9757 41.3499 19.7779 40.9518 18.6912C40.416 17.4398 39.7847 16.2315 39.0636 15.0769C39.4324 17.3635 39.5061 18.1601 38.2374 18.3224C36.9688 18.4846 36.0541 18.0126 35.0215 18.7649C33.9888 19.5173 33.8118 21.0073 32.4251 20.1516C31.0384 19.296 29.2534 20.0631 27.9995 18.3666C27.4756 17.4306 27.181 16.3837 27.14 15.3118C27.099 14.2399 27.3126 13.1736 27.7634 12.2002C28.5601 10.9021 30.8614 10.725 30.8614 10.725C28.9141 10.312 27.9995 9.95791 26.9668 11.7724C25.9342 13.5869 22.0986 19.6353 23.0723 21.4203C23.9113 22.8832 25.136 24.0875 26.6128 24.9018C28.1769 26.0835 30.0968 26.6974 32.0563 26.6425Z" fill="#D96A13"/>
<path fill-rule="evenodd" clip-rule="evenodd" d="M32.0563 26.6423C33.1332 26.7308 33.974 24.9016 35.582 24.3262C37.19 23.7509 40.406 22.851 40.8633 22.0397C41.3182 20.9754 41.3499 19.7777 40.9518 18.6909C40.8485 18.4106 40.6273 17.9091 40.3322 17.319C40.4681 17.7912 40.5055 18.2862 40.4421 18.7735C40.3786 19.2607 40.2157 19.7298 39.9634 20.1514C39.5208 20.9185 36.3639 20.4317 35.228 20.7267C34.0921 21.0218 33.3545 23.8984 32.4103 25.7129C32.2102 26.0522 31.9034 26.3158 31.5379 26.4626C31.1723 26.6093 30.7685 26.631 30.3893 26.5243C30.938 26.6317 31.4979 26.6714 32.0563 26.6423Z" fill="#D06405"/>
<path fill-rule="evenodd" clip-rule="evenodd" d="M29.8287 14.0883C30.003 13.5116 30.3387 12.9968 30.7962 12.6047C31.2536 12.2126 31.8137 11.9596 32.4103 11.8755C33.8856 11.8755 34.9035 13.2032 36.0394 14.0146C37.1753 14.8259 38.0899 16.1684 36.8802 16.6552C35.6706 17.142 35.051 18.927 33.1332 18.7942C31.2154 18.6615 30.1828 18.7943 29.873 17.7321C29.5632 16.67 29.1501 14.6489 29.8287 14.0883Z" fill="#E97927"/>
<path fill-rule="evenodd" clip-rule="evenodd" d="M54.2435 17.1421C53.0339 17.2896 49.9949 19.0304 50.4522 20.1811C50.9096 21.3317 51.4701 21.5678 53.4027 21.3907C55.3352 21.2137 56.1318 20.9334 57.5185 21.612C58.9052 22.2906 61 22.7774 61.6786 22.0251C62.3572 21.2727 58.0643 18.1895 54.2435 17.1421Z" fill="#E97927"/>
<path fill-rule="evenodd" clip-rule="evenodd" d="M60.5277 17.6437C60.2512 16.9158 60.159 16.1308 60.2594 15.3586C60.3597 14.5865 60.6496 13.8511 61.103 13.2181C62.6668 10.9905 63.8322 7.59755 66.1483 7.31726C67.0472 7.11674 67.977 7.09696 68.8837 7.25905C69.7904 7.42113 70.6557 7.76184 71.4295 8.26139C72.7588 9.01755 73.7972 10.1962 74.38 11.6101C74.6897 12.5985 75.6191 15.6375 74.38 16.9356C73.1408 18.2338 73.6718 17.9093 70.8985 18.5879C68.1251 19.2665 61.9587 19.0304 60.5277 17.6437Z" fill="#E06F19"/>
<path fill-rule="evenodd" clip-rule="evenodd" d="M60.5277 17.6437C60.2512 16.9158 60.159 16.1308 60.2594 15.3586C60.3597 14.5865 60.6496 13.8511 61.103 13.2181C62.6668 10.9905 63.8322 7.59753 66.1483 7.31724L66.8416 7.2435C65.7225 7.77956 64.7843 8.63064 64.142 9.69233C63.3896 11.2561 63.0503 11.9642 63.4781 13.2181C63.9059 14.472 65.4549 14.3392 66.6646 14.6933C67.8743 15.0474 67.653 15.5637 68.9659 15.8587C70.3158 16.209 71.747 16.0569 72.9932 15.4309C73.6091 15.201 74.1212 14.7566 74.4356 14.1794C74.75 13.6021 74.8455 12.9308 74.7045 12.2887C75.0733 13.6017 75.5011 15.8292 74.439 16.8914C73.1555 18.1748 73.7309 17.865 70.9575 18.5436C68.1841 19.2222 62.1062 19.0304 60.631 17.6437H60.5277Z" fill="#D96A13"/>
<path fill-rule="evenodd" clip-rule="evenodd" d="M60.5277 17.6435C60.2512 16.9156 60.159 16.1306 60.2594 15.3584C60.3597 14.5863 60.6496 13.8509 61.103 13.2179C61.2506 13.0114 61.3981 12.7901 61.5309 12.5688C61.1097 13.4312 61.0204 14.4183 61.2801 15.3422C61.9882 17.437 63.2864 16.6846 64.7173 16.6846C65.8532 16.7388 66.9581 17.0733 67.9333 17.6583C68.9217 18.1156 73.8341 18.5139 74.9553 15.7405C74.8711 16.172 74.6665 16.571 74.3652 16.8912C73.0818 18.1746 73.6571 17.8648 70.8837 18.5434C68.1103 19.222 61.9587 19.0302 60.5277 17.6435Z" fill="#D06405"/>
<path fill-rule="evenodd" clip-rule="evenodd" d="M67.181 7.78905C66.2811 8.27587 65.1157 9.70682 66.4582 10.7395C67.8006 11.7721 69.0103 12.3474 70.2052 13.3801C71.4001 14.4127 74.0113 13.3801 73.3327 11.5803C72.6541 9.78057 71.4149 6.93343 67.181 7.78905Z" fill="#E97927"/>
<path fill-rule="evenodd" clip-rule="evenodd" d="M49.6556 27.5716C49.1245 27.4536 49.1098 27.1586 48.6672 27.6749C48.4019 28.0506 48.0662 28.3712 47.6788 28.619C47.0887 29.0173 46.7347 29.2534 46.2921 28.8403C45.8495 28.4272 46.2921 28.2945 46.0266 28.0879C45.761 27.8814 45.9085 27.5716 45.5102 27.7044C45.1256 27.8411 44.723 27.9206 44.3153 27.9404C43.7547 27.9404 43.3564 28.0289 43.1351 27.6896C42.9139 27.3503 43.2089 27.0701 43.1351 26.2144C43.0614 25.3588 43.0171 25.3883 43.4892 25.0637C43.9613 24.7392 44.1088 24.9015 44.6104 24.931C45.1119 24.9605 45.4512 24.7835 45.9085 24.8277C46.1288 24.8041 46.3516 24.8348 46.5573 24.9171C46.763 24.9993 46.9455 25.1307 47.0887 25.2998C47.5903 25.8161 47.8558 26.598 48.1509 26.4504C48.4459 26.3029 48.2836 25.6243 47.9738 25.2998C47.664 24.9752 47.7083 24.6359 47.192 24.4737C46.6757 24.3114 46.2183 24.1491 46.1151 23.7508C46.0118 23.3525 46.2331 23.264 45.9676 23.1312C45.702 22.9985 45.879 22.7624 45.3627 22.4821C44.8464 22.2018 44.8611 22.1281 44.9349 21.6265C44.9507 21.3494 45.0309 21.0797 45.1692 20.839C45.3075 20.5982 45.5 20.3931 45.7315 20.2398C46.2183 20.0185 46.9117 19.8268 47.2067 20.2398C47.5018 20.6529 47.605 21.0217 48.0476 20.9627C48.4902 20.9037 49.1098 20.7561 49.1688 20.9627C49.2278 21.1692 48.8295 21.597 48.6229 22.3346C48.4611 22.813 48.4611 23.3314 48.6229 23.8098C48.7705 24.4589 48.6229 24.7687 48.7852 25.4326C48.9475 26.0964 48.6819 26.2734 49.1393 26.775C49.4685 27.1699 49.8507 27.5174 50.2752 27.8076C50.5997 28.0437 50.6587 28.6485 50.7767 28.1322C50.8822 27.8532 50.9006 27.5487 50.8295 27.259C50.7584 26.9693 50.6011 26.708 50.3784 26.5095C50.1346 26.3933 49.9195 26.2246 49.7486 26.0154C49.5777 25.8063 49.4553 25.5619 49.39 25.2998C49.2099 24.6573 49.1401 23.9889 49.1835 23.323C49.272 22.8362 49.3753 23.0427 49.5966 22.6001C49.8179 22.1576 49.5966 21.8183 50.2309 21.7888C50.8653 21.7593 51.3078 21.302 51.7061 21.7888C52.1044 22.2756 52.3995 22.2314 52.7683 22.7477C53.1371 23.264 53.3584 23.2197 53.1076 23.8098C52.8568 24.3999 52.606 24.3409 52.3995 24.9458C52.3216 25.3281 52.1978 25.6996 52.0307 26.0522C51.6914 26.7603 51.5144 26.775 51.4111 27.1586C51.3078 27.5421 51.0718 28.088 51.2193 28.265C51.5701 28.6583 51.9607 29.0142 52.3847 29.3271C52.724 29.5337 53.2551 29.6369 53.1961 29.8139C53.1371 29.991 52.8568 29.9615 52.8568 29.9615C51.6777 29.3271 50.5989 28.5218 49.6556 27.5716Z" fill="#6A7E0F"/>
<path fill-rule="evenodd" clip-rule="evenodd" d="M49.1983 27.4094C49.036 27.4094 48.9327 27.4094 48.6672 27.675C48.4019 28.0507 48.0662 28.3713 47.6788 28.6191C47.0887 29.0174 46.7347 29.2535 46.2921 28.8404C45.8495 28.4273 46.2921 28.2946 46.0266 28.088C45.761 27.8815 45.9085 27.5717 45.5102 27.7045C45.1256 27.8412 44.723 27.9207 44.3153 27.9405C43.7547 27.9405 43.3564 28.029 43.1351 27.6897C42.9139 27.3504 43.2089 27.0702 43.1351 26.2145C43.0614 25.3589 43.0171 25.3884 43.4892 25.0638C43.0171 25.4474 43.1204 25.5654 43.4892 26.1555C43.858 26.7456 43.681 26.7899 43.8727 27.0849C44.0645 27.3799 44.4776 27.2619 45.1119 26.9816C45.7463 26.7013 45.9085 26.9816 46.2626 27.1144C46.6166 27.2472 46.6019 27.3504 46.7494 27.5422C46.8969 27.734 46.9855 27.7635 47.369 27.911C47.7526 28.0585 47.664 27.911 48.0181 27.7487C48.3721 27.5865 48.3574 27.4684 48.6082 27.2767C48.859 27.0849 49.1983 27.4094 49.1983 27.4094Z" fill="#60710C"/>
<path fill-rule="evenodd" clip-rule="evenodd" d="M45.2005 24.9017C45.4548 24.8639 45.7133 24.8639 45.9676 24.9017C46.1879 24.8781 46.4106 24.9087 46.6164 24.991C46.8221 25.0733 47.0045 25.2047 47.1478 25.3737C47.6493 25.8901 47.9149 26.6719 48.2099 26.5244C48.5049 26.3769 48.3427 25.6983 48.0329 25.3737C47.7231 25.0492 47.7673 24.7099 47.251 24.5476C46.7347 24.3854 46.2774 24.2231 46.1741 23.8248C46.0709 23.4265 46.2921 23.3379 46.0266 23.2052C45.7611 23.0724 45.9381 22.8364 45.4218 22.5561C44.9054 22.2758 44.9202 22.202 44.9939 21.7005C45.0154 21.4441 45.0877 21.1947 45.2068 20.9667C45.3258 20.7387 45.4892 20.5368 45.6873 20.3728C46.2479 20.5793 46.9855 21.848 47.1625 22.084C47.3473 22.3327 47.4771 22.6178 47.5433 22.9205C47.6094 23.2231 47.6103 23.5365 47.5461 23.8395C47.4428 24.6804 47.8706 24.3558 48.0919 24.7689C48.3233 25.2715 48.4199 25.8257 48.3722 26.3769C48.3722 26.7309 48.0329 26.6424 47.5903 26.7309C47.1478 26.8194 47.133 26.5097 46.8232 26.3474C46.5134 26.1851 46.4987 26.0376 46.3511 25.7573C46.2036 25.477 46.2479 25.359 45.8938 25.123C45.6848 24.9924 45.4464 24.9164 45.2005 24.9017Z" fill="#60710C"/>
<path fill-rule="evenodd" clip-rule="evenodd" d="M50.8653 27.8373C50.9273 27.5879 50.9188 27.3261 50.8406 27.0813C50.7625 26.8364 50.6178 26.6181 50.4228 26.4506C50.1789 26.3345 49.9638 26.1658 49.793 25.9566C49.6221 25.7475 49.4996 25.5031 49.4344 25.241C49.2543 24.5985 49.1844 23.9301 49.2278 23.2642C49.3164 22.7774 49.4196 22.9839 49.6409 22.5413C49.8622 22.0988 49.6409 21.7595 50.2752 21.73C50.9096 21.7005 51.3521 21.2431 51.7504 21.73C52.1488 22.2168 52.311 22.1725 52.5913 22.4381C52.4586 22.5118 52.134 22.2168 51.8537 22.1135C51.5734 22.0103 50.9686 22.3643 51.0866 22.4971C51.1535 23.0831 51.1235 23.6762 50.9981 24.2526C50.8991 24.6759 50.9352 25.1196 51.1014 25.5213C51.2203 25.9659 51.2203 26.4339 51.1014 26.8785C51.0129 27.1588 50.9391 27.5423 50.8653 27.8373Z" fill="#60710C"/>
<path fill-rule="evenodd" clip-rule="evenodd" d="M47.7379 27.2621C47.3691 27.2621 47.1625 27.3802 46.8232 27.0999C46.4839 26.8196 46.6757 26.6278 46.2479 26.6573C45.8201 26.6868 45.9528 26.6573 45.6283 26.6573C45.3438 26.7381 45.0424 26.7381 44.7579 26.6573C44.4334 26.5688 44.3301 26.6573 44.0941 26.3327C43.858 26.0082 43.7843 25.964 43.9466 25.6837C44.1088 25.4034 44.7284 25.4034 45.1415 25.2411C45.5545 25.0788 45.7758 25.0051 45.9528 25.3886C46.1299 25.7722 45.7906 25.8902 46.1889 26.082C46.5872 26.2737 46.5724 26.1705 46.8085 26.4655C47.0445 26.7606 47.4281 27.2916 47.7379 27.2621Z" fill="#748B11"/>
<path fill-rule="evenodd" clip-rule="evenodd" d="M48.0475 23.8983C48.0658 23.3549 47.9756 22.8132 47.7819 22.3051C47.6596 22.0439 47.4952 21.8047 47.2951 21.597C47.0738 21.4347 46.9411 21.0069 46.7198 20.7856C46.4985 20.5644 46.4542 20.4611 46.587 20.3726C46.7198 20.2841 46.9411 20.4758 47.4426 20.9184C47.9442 21.361 48.1507 21.4642 48.3425 21.3905C48.5343 21.3167 48.7261 21.0807 48.6376 21.3905C48.4798 21.7223 48.3705 22.075 48.313 22.4379C48.2688 22.9985 48.195 24.2229 48.0475 23.8983Z" fill="#748B11"/>
<path fill-rule="evenodd" clip-rule="evenodd" d="M51.3816 26.1558C51.5068 25.707 51.5068 25.2326 51.3816 24.7838C51.2193 24.1937 51.1751 24.3412 51.3816 23.8692C51.5881 23.3971 51.5586 23.0726 51.6324 22.8218C51.7061 22.571 51.8242 22.4825 52.0602 22.6005C52.2962 22.7185 52.4437 23.1168 52.665 23.3529C52.8863 23.5889 52.9896 23.4561 52.8273 23.8102C52.6663 24.0731 52.5186 24.3439 52.3847 24.6215C52.2866 24.9723 52.1684 25.317 52.0307 25.6542C51.7209 26.0967 51.3521 26.6426 51.3816 26.1558Z" fill="#748B11"/>
<path fill-rule="evenodd" clip-rule="evenodd" d="M85.0903 21.4201C83.9101 21.4201 82.0366 22.0249 82.7742 22.8953C83.5118 23.7657 85.0165 24.7098 90.8731 24.5623C96.7297 24.4148 100.742 23.4411 100.3 22.497C99.8571 21.5529 85.0903 21.4201 85.0903 21.4201Z" fill="#A24D00"/>
<path fill-rule="evenodd" clip-rule="evenodd" d="M84.5001 21.8334C84.5001 20.9187 83.9986 20.0336 84.5001 19.3993C85.069 18.9094 85.4711 18.2546 85.6508 17.5258C85.9311 16.4194 87.2883 14.7376 88.3947 14.8999C89.1045 14.9074 89.8021 15.0856 90.4285 15.4194C91.055 15.7532 91.592 16.2327 91.9942 16.8176C93.4694 18.6617 94.5758 19.3255 95.7855 19.3698C96.2807 19.4012 96.7745 19.2901 97.2085 19.0495C97.6425 18.809 97.9985 18.4491 98.2344 18.0126C98.6179 17.2454 98.2344 15.0621 99.1342 14.5606C100.034 14.059 101.48 16.9799 100.314 19.7976C99.7556 20.9777 98.902 21.9938 97.836 22.748C94.5284 23.0889 91.1995 23.1776 87.8784 23.0135C86.8472 22.8951 85.823 22.7228 84.8099 22.4972C84.6765 22.2913 84.5722 22.0679 84.5001 21.8334Z" fill="#C6370A"/>
<path fill-rule="evenodd" clip-rule="evenodd" d="M84.5001 21.8331C84.5001 20.9185 83.9986 20.0333 84.5001 19.399C85.069 18.9092 85.4711 18.2544 85.6508 17.5255C85.8163 16.9355 86.1172 16.3923 86.5295 15.939C86.9418 15.4857 87.4542 15.1349 88.0259 14.9144C87.725 15.0117 87.4511 15.1784 87.2263 15.4009C87.0015 15.6234 86.8321 15.8955 86.7316 16.1954C86.6312 16.4953 86.6025 16.8146 86.648 17.1276C86.6934 17.4406 86.8117 17.7386 86.9932 17.9976C87.5096 19.0302 88.734 19.4728 87.8784 19.7088C87.0227 19.9448 85.5623 18.6319 86.7867 20.9332C88.0111 23.2346 94.3103 23.8837 97.4672 21.4791C100.624 19.0745 100.285 16.7436 99.8718 15.5782C99.4588 14.4128 98.6474 15.3717 98.6474 15.3717C98.6707 15.2109 98.7257 15.0564 98.8093 14.9171C98.8929 14.7778 99.0033 14.6565 99.1342 14.5603C99.9604 14.0882 101.48 16.9797 100.314 19.7973C99.7556 20.9774 98.902 21.9936 97.836 22.7477C94.5284 23.0886 91.1995 23.1774 87.8784 23.0133C86.8472 22.8949 85.823 22.7225 84.8099 22.497C84.6765 22.2911 84.5722 22.0677 84.5001 21.8331Z" fill="#B33207"/>
<path fill-rule="evenodd" clip-rule="evenodd" d="M85.5622 17.9533C85.2579 18.0272 84.9402 18.0255 84.6368 17.9484C84.3333 17.8712 84.0534 17.721 83.8214 17.5107C83.5545 17.3204 83.3384 17.0676 83.1918 16.7744C83.0452 16.4813 82.9727 16.1566 82.9805 15.829C82.9805 15.2536 82.8035 14.6931 82.4642 15.3569C82.1249 16.0207 81.284 16.8321 81.7709 17.4812C82.1659 17.9528 82.6678 18.3234 83.2348 18.562C83.8019 18.8006 84.4177 18.9004 85.0311 18.8531C86.0195 18.5581 86.2703 18.145 85.5622 17.9533Z" fill="#6A7E0F"/>
<path fill-rule="evenodd" clip-rule="evenodd" d="M87.5538 16.6405C87.9373 15.6964 89.029 15.1653 90.3567 16.375C91.6844 17.5846 91.8319 18.9271 93.7497 19.6499C95.6674 20.3728 97.4229 19.8122 97.1722 20.6383C96.9214 21.4644 93.6907 21.9218 91.05 20.4761C88.4094 19.0304 87.303 17.3634 87.5538 16.6405Z" fill="#E63F0C"/>
<path fill-rule="evenodd" clip-rule="evenodd" d="M82.0513 16.4486C82.243 16.1093 82.6266 15.8733 82.7446 16.3158C82.7611 16.5923 82.845 16.8606 82.989 17.0971C83.133 17.3337 83.3327 17.5314 83.5707 17.673C84.2346 18.0861 85.2525 18.1451 85.164 18.4401C85.0755 18.7352 83.792 18.5434 82.9217 17.8206C82.6902 17.6639 82.4934 17.4612 82.3437 17.2252C82.1939 16.9891 82.0944 16.7248 82.0513 16.4486Z" fill="#5D6E0B"/>
<path fill-rule="evenodd" clip-rule="evenodd" d="M27.0555 33.5167C26.7593 33.4182 26.5112 33.2116 26.3608 32.9381C26.2104 32.6646 26.1687 32.3444 26.2441 32.0415C26.3457 31.7279 26.5668 31.4668 26.8595 31.315C27.1521 31.1631 27.4929 31.1327 27.8078 31.2302C36.6591 34.0921 49.0509 35.5083 61.3984 35.464C73.7459 35.4198 86.0049 33.9888 94.9447 31.0384C95.0997 30.988 95.2631 30.9687 95.4255 30.9815C95.588 30.9942 95.7463 31.0389 95.8915 31.1128C96.0368 31.1868 96.166 31.2887 96.2718 31.4126C96.3777 31.5365 96.4581 31.68 96.5084 31.835C96.5588 31.99 96.5781 32.1534 96.5654 32.3158C96.5526 32.4783 96.508 32.6366 96.434 32.7818C96.36 32.927 96.2582 33.0563 96.1343 33.1621C96.0103 33.2679 95.8668 33.3484 95.7118 33.3987C86.536 36.3491 73.9524 37.9129 61.3984 37.9424C48.8443 37.9719 36.2165 36.4524 27.0555 33.5167Z" fill="#83593A"/>
<path fill-rule="evenodd" clip-rule="evenodd" d="M27.0554 4.72092C26.8961 4.76672 26.7477 4.844 26.6188 4.94818C26.49 5.05236 26.3833 5.1813 26.3051 5.32743C26.227 5.47355 26.179 5.63388 26.1638 5.7989C26.1487 5.96392 26.1669 6.13029 26.2172 6.28817C26.2675 6.44605 26.349 6.59223 26.4568 6.71807C26.5647 6.84391 26.6966 6.94684 26.8449 7.02078C26.9932 7.09473 27.1548 7.13818 27.3202 7.14857C27.4856 7.15896 27.6514 7.13608 27.8078 7.08127C36.659 4.23411 49.0508 2.81789 61.3983 2.84739C73.7458 2.8769 86.0048 4.3226 94.9446 7.27303C95.0996 7.3234 95.263 7.34275 95.4255 7.32998C95.5879 7.3172 95.7463 7.27256 95.8915 7.19859C96.0367 7.12462 96.1659 7.02275 96.2718 6.89885C96.3776 6.77494 96.458 6.63141 96.5084 6.47642C96.5587 6.32144 96.5781 6.15805 96.5653 5.99559C96.5525 5.83313 96.5079 5.67477 96.4339 5.52957C96.3599 5.38436 96.2581 5.25515 96.1342 5.1493C96.0103 5.04346 95.8667 4.96307 95.7117 4.9127C86.5359 1.96228 73.9524 0.413305 61.3983 0.369049C48.8443 0.324793 36.2165 1.78525 27.0554 4.72092Z" fill="#83593A"/>
<path fill-rule="evenodd" clip-rule="evenodd" d="M43.0172 44.4188C50.0646 45.6686 57.2402 46.0353 64.3783 45.5104C76.9913 44.8466 82.7889 45.7317 83.674 47.6938C84.5592 49.6558 74.3507 60.6313 58.4627 58.4333C42.5746 56.2352 31.5106 44.5221 43.0172 44.4188Z" fill="#6D411F"/>
</svg>
